<?xml version="1.0" encoding="utf-8"?>
<!-- Generator: Adobe Illustrator 19.2.1, SVG Export Plug-In . SVG Version: 6.00 Build 0)  -->
<svg version="1.1" id="Camada_1" xmlns="http://www.w3.org/2000/svg" xmlns:xlink="http://www.w3.org/1999/xlink" x="0px" y="0px"
	 viewBox="0 0 30 30" style="enable-background:new 0 0 30 30;" xml:space="preserve">
<g>
	<path style="fill:#231F20;" d="M29.49,22.885L29.49,22.885L18.388,3.261c-0.7-1.236-1.966-1.976-3.388-1.976
		c-1.421,0-2.687,0.739-3.387,1.976L0.511,22.884c-0.692,1.223-0.682,2.679,0.027,3.896c0.707,1.212,1.963,1.936,3.36,1.936h22.204
		c1.397,0,2.653-0.723,3.36-1.934C30.171,25.564,30.182,24.108,29.49,22.885z M27.994,25.924c-0.399,0.684-1.106,1.092-1.892,1.092
		H3.898c-0.786,0-1.493-0.408-1.892-1.093c-0.401-0.688-0.407-1.511-0.016-2.201L13.092,4.099c0.394-0.697,1.107-1.113,1.907-1.113
		c0.801,0,1.514,0.416,1.909,1.113l11.103,19.623C28.401,24.413,28.395,25.236,27.994,25.924z"/>
	<path style="fill:#231F20;" d="M15,8.878c-0.469,0-0.85,0.38-0.85,0.85v8.886c0,0.47,0.381,0.85,0.85,0.85s0.85-0.38,0.85-0.85
		V9.728C15.85,9.258,15.47,8.878,15,8.878z"/>
	<path style="fill:#231F20;" d="M15.002,21.643c0,0-0.001,0-0.001,0c-0.469,0-0.849,0.379-0.85,0.849l0,0.309
		c0,0.469,0.379,0.851,0.849,0.851c0,0,0.001,0,0.001,0c0.469,0,0.849-0.379,0.85-0.849l0-0.309
		C15.851,22.024,15.471,21.643,15.002,21.643z"/>
</g>
</svg>
