<?xml version="1.0" encoding="utf-8"?>
<!-- Generator: Adobe Illustrator 19.2.1, SVG Export Plug-In . SVG Version: 6.00 Build 0)  -->
<svg version="1.1" id="Camada_1" xmlns="http://www.w3.org/2000/svg" xmlns:xlink="http://www.w3.org/1999/xlink" x="0px" y="0px"
	 viewBox="0 0 30 30" style="enable-background:new 0 0 30 30;" xml:space="preserve">
<path style="fill:#231F20;" d="M29.975,10.874c-0.009-0.061-0.014-0.122-0.036-0.18c-0.023-0.06-0.061-0.11-0.097-0.163
	c-0.023-0.034-0.034-0.073-0.062-0.104l-5.527-6.104c-0.161-0.178-0.39-0.28-0.63-0.28H6.377c-0.24,0-0.469,0.102-0.63,0.28
	L0.22,10.427c-0.028,0.031-0.039,0.07-0.062,0.104c-0.036,0.053-0.074,0.103-0.097,0.163c-0.023,0.059-0.027,0.119-0.036,0.18
	C0.018,10.916,0,10.954,0,10.998v11.73c0,1.78,1.444,3.228,3.218,3.228h23.563c1.774,0,3.218-1.448,3.218-3.228v-11.73
	C30,10.954,29.982,10.916,29.975,10.874z M6.754,5.744h16.492l3.988,4.403h-7.257c-0.469,0-0.85,0.381-0.85,0.85v2.932
	c0,0.717-0.579,1.3-1.292,1.3h-5.839c-0.712,0-1.292-0.583-1.292-1.3v-2.932c0-0.469-0.381-0.85-0.85-0.85H2.766L6.754,5.744z
	 M28.3,22.728c0,0.842-0.681,1.528-1.518,1.528H3.218c-0.837,0-1.518-0.686-1.518-1.528v-10.88h7.304v2.082c0,1.654,1.342,3,2.992,3
	h5.839c1.649,0,2.992-1.346,2.992-3v-2.082H28.3V22.728z"/>
</svg>
