<?xml version="1.0" encoding="utf-8"?>
<!-- Generator: Adobe Illustrator 19.2.1, SVG Export Plug-In . SVG Version: 6.00 Build 0)  -->
<svg version="1.1" id="Camada_1" xmlns="http://www.w3.org/2000/svg" xmlns:xlink="http://www.w3.org/1999/xlink" x="0px" y="0px"
	 viewBox="0 0 30 30" style="enable-background:new 0 0 30 30;" xml:space="preserve">
<g>
	<path style="fill:#231F20;" d="M22.58,20.409L15,27.951l-7.58-7.542c-0.333-0.33-0.871-0.329-1.202,0.003
		c-0.331,0.333-0.33,0.871,0.003,1.202l8.18,8.139C14.566,29.918,14.783,30,15,30s0.434-0.082,0.6-0.247l8.18-8.139
		c0.333-0.331,0.334-0.869,0.003-1.202C23.451,20.079,22.913,20.078,22.58,20.409z"/>
	<path style="fill:#231F20;" d="M7.42,9.592L15,2.05l7.58,7.542c0.166,0.165,0.383,0.247,0.6,0.247c0.218,0,0.437-0.083,0.603-0.25
		c0.331-0.333,0.33-0.871-0.003-1.202L15.6,0.248c-0.332-0.33-0.867-0.33-1.199,0l-8.18,8.139C5.888,8.718,5.887,9.256,6.218,9.589
		C6.548,9.921,7.086,9.923,7.42,9.592z"/>
</g>
</svg>
