<?xml version="1.0" encoding="utf-8"?>
<!-- Generator: Adobe Illustrator 19.2.1, SVG Export Plug-In . SVG Version: 6.00 Build 0)  -->
<svg version="1.1" id="Camada_1" xmlns="http://www.w3.org/2000/svg" xmlns:xlink="http://www.w3.org/1999/xlink" x="0px" y="0px"
	 viewBox="0 0 30 30" style="enable-background:new 0 0 30 30;" xml:space="preserve">
<path style="fill:#231F20;" d="M26.15,14.15H5.9l5.944-5.951c0.332-0.332,0.331-0.87-0.001-1.202
	c-0.333-0.332-0.871-0.332-1.202,0.001L3.249,14.4c-0.332,0.332-0.332,0.87,0,1.201l7.393,7.401c0.166,0.167,0.384,0.25,0.602,0.25
	c0.217,0,0.435-0.083,0.601-0.249c0.332-0.332,0.333-0.87,0.001-1.202l-5.944-5.951H26.15c0.469,0,0.85-0.381,0.85-0.85
	S26.619,14.15,26.15,14.15z"/>
</svg>
