<?xml version="1.0" encoding="utf-8"?>
<!-- Generator: Adobe Illustrator 19.2.1, SVG Export Plug-In . SVG Version: 6.00 Build 0)  -->
<svg version="1.1" id="Camada_1" xmlns="http://www.w3.org/2000/svg" xmlns:xlink="http://www.w3.org/1999/xlink" x="0px" y="0px"
	 viewBox="0 0 30 30" style="enable-background:new 0 0 30 30;" xml:space="preserve">
<g>
	<path style="fill:#231F20;" d="M7.625,11.641H6.622c-0.469,0-0.85,0.381-0.85,0.85s0.381,0.85,0.85,0.85h1.002
		c0.469,0,0.85-0.381,0.85-0.85S8.094,11.641,7.625,11.641z"/>
	<path style="fill:#231F20;" d="M15.501,11.641h-1.003c-0.469,0-0.85,0.381-0.85,0.85s0.381,0.85,0.85,0.85h1.003
		c0.469,0,0.85-0.381,0.85-0.85S15.971,11.641,15.501,11.641z"/>
	<path style="fill:#231F20;" d="M23.378,11.641h-1.003c-0.469,0-0.85,0.381-0.85,0.85s0.381,0.85,0.85,0.85h1.003
		c0.469,0,0.85-0.381,0.85-0.85S23.848,11.641,23.378,11.641z"/>
	<path style="fill:#231F20;" d="M7.625,22.551H6.622c-0.469,0-0.85,0.381-0.85,0.85s0.381,0.85,0.85,0.85h1.002
		c0.469,0,0.85-0.381,0.85-0.85S8.094,22.551,7.625,22.551z"/>
	<path style="fill:#231F20;" d="M15.501,22.551h-1.003c-0.469,0-0.85,0.381-0.85,0.85s0.381,0.85,0.85,0.85h1.003
		c0.469,0,0.85-0.381,0.85-0.85S15.971,22.551,15.501,22.551z"/>
	<path style="fill:#231F20;" d="M23.378,22.551h-1.003c-0.469,0-0.85,0.381-0.85,0.85s0.381,0.85,0.85,0.85h1.003
		c0.469,0,0.85-0.381,0.85-0.85S23.848,22.551,23.378,22.551z"/>
	<path style="fill:#231F20;" d="M7.625,17.087H6.622c-0.469,0-0.85,0.381-0.85,0.85s0.381,0.85,0.85,0.85h1.002
		c0.469,0,0.85-0.381,0.85-0.85S8.094,17.087,7.625,17.087z"/>
	<path style="fill:#231F20;" d="M15.501,17.087h-1.003c-0.469,0-0.85,0.381-0.85,0.85s0.381,0.85,0.85,0.85h1.003
		c0.469,0,0.85-0.381,0.85-0.85S15.971,17.087,15.501,17.087z"/>
	<path style="fill:#231F20;" d="M23.378,17.087h-1.003c-0.469,0-0.85,0.381-0.85,0.85s0.381,0.85,0.85,0.85h1.003
		c0.469,0,0.85-0.381,0.85-0.85S23.848,17.087,23.378,17.087z"/>
	<path style="fill:#231F20;" d="M26.269,2.58h-2.515V0.85c0-0.469-0.381-0.85-0.85-0.85s-0.85,0.381-0.85,0.85v1.73h-6.19V0.85
		c0-0.469-0.381-0.85-0.85-0.85s-0.85,0.381-0.85,0.85v1.73h-6.19V0.85C7.974,0.381,7.593,0,7.124,0s-0.85,0.381-0.85,0.85v1.73
		H3.731c-2.089,0-3.789,1.696-3.789,3.78v19.86c0,2.084,1.7,3.78,3.789,3.78h22.538c2.089,0,3.789-1.696,3.789-3.78V6.36
		C30.058,4.275,28.358,2.58,26.269,2.58z M28.357,26.22c0,1.147-0.937,2.08-2.088,2.08H3.731c-1.152,0-2.089-0.933-2.089-2.08V6.36
		c0-1.147,0.937-2.08,2.089-2.08h2.542v1.73c0,0.469,0.381,0.85,0.85,0.85s0.85-0.381,0.85-0.85V4.28h6.19v1.73
		c0,0.469,0.381,0.85,0.85,0.85s0.85-0.381,0.85-0.85V4.28h6.19v1.73c0,0.469,0.381,0.85,0.85,0.85s0.85-0.381,0.85-0.85V4.28h2.515
		c1.151,0,2.088,0.933,2.088,2.08V26.22z"/>
</g>
</svg>
