<?xml version="1.0" encoding="utf-8"?>
<!-- Generator: Adobe Illustrator 19.2.1, SVG Export Plug-In . SVG Version: 6.00 Build 0)  -->
<svg version="1.1" id="Camada_1" xmlns="http://www.w3.org/2000/svg" xmlns:xlink="http://www.w3.org/1999/xlink" x="0px" y="0px"
	 viewBox="0 0 30 30" style="enable-background:new 0 0 30 30;" xml:space="preserve">
<g>
	<path style="fill:#231F20;" d="M26.669,3.999L23.065,0.49C22.875,0.307,22.557,0,21.983,0H9.476C8.535,0,7.77,0.769,7.77,1.714
		v21.739c0,0.942,0.766,1.708,1.706,1.708h15.997c0.943,0,1.711-0.766,1.711-1.708V5.216C27.183,4.761,26.996,4.317,26.669,3.999z
		 M25.033,4.778h-2.739V2.113L25.033,4.778z M25.472,23.462L9.47,23.453L9.476,1.699h11.119v3.929c0,0.47,0.381,0.85,0.85,0.85
		h4.039v16.976L25.472,23.462z"/>
	<path style="fill:#231F20;" d="M22.097,13.89h-8.856c-0.469,0-0.85,0.38-0.85,0.85s0.381,0.85,0.85,0.85h8.856
		c0.469,0,0.85-0.38,0.85-0.85S22.566,13.89,22.097,13.89z"/>
	<path style="fill:#231F20;" d="M22.097,18.577h-8.856c-0.469,0-0.85,0.38-0.85,0.85s0.381,0.85,0.85,0.85h8.856
		c0.469,0,0.85-0.38,0.85-0.85S22.566,18.577,22.097,18.577z"/>
	<path style="fill:#231F20;" d="M13.115,10.902h5.166c0.469,0,0.85-0.38,0.85-0.85s-0.381-0.85-0.85-0.85h-5.166
		c-0.469,0-0.85,0.38-0.85,0.85S12.646,10.902,13.115,10.902z"/>
	<path style="fill:#231F20;" d="M23.97,27.429c-0.469,0-0.871,0.402-0.871,0.872L4.517,28.258V5.404
		c0-0.022,0.019-0.042,0.043-0.042c0.469,0,0.85-0.38,0.85-0.85s-0.381-0.85-0.85-0.85c-0.961,0-1.743,0.781-1.743,1.741v22.854
		C2.817,29.219,3.599,30,4.56,30h18.539c0.961,0,1.743-0.781,1.743-1.742C24.841,27.788,24.439,27.429,23.97,27.429z"/>
</g>
</svg>
