<?xml version="1.0" encoding="utf-8"?>
<!-- Generator: Adobe Illustrator 19.2.1, SVG Export Plug-In . SVG Version: 6.00 Build 0)  -->
<svg version="1.1" id="Camada_1" xmlns="http://www.w3.org/2000/svg" xmlns:xlink="http://www.w3.org/1999/xlink" x="0px" y="0px"
	 viewBox="0 0 30 30" style="enable-background:new 0 0 30 30;" xml:space="preserve">
<g>
	<path style="fill:#231F20;" d="M28.904,3.9h-9.143l-1.124-3.323C18.52,0.232,18.196,0,17.831,0h-5.75
		c-0.371,0-0.699,0.24-0.811,0.594L10.226,3.9H1.096c-0.469,0-0.85,0.38-0.85,0.85S0.627,5.6,1.096,5.6h1.841l1.714,23.612
		C4.684,29.656,5.053,30,5.499,30H24.5c0.445,0,0.815-0.344,0.848-0.788L27.063,5.6h1.841c0.469,0,0.85-0.38,0.85-0.85
		S29.373,3.9,28.904,3.9z M12.704,1.699h4.518L17.966,3.9h-5.957L12.704,1.699z M23.71,28.301H6.29L4.642,5.6h20.716L23.71,28.301z"
		/>
	<path style="fill:#231F20;" d="M15.012,25.985c0.469,0,0.85-0.38,0.85-0.85V8.669c0-0.47-0.381-0.85-0.85-0.85
		s-0.85,0.38-0.85,0.85v16.467C14.162,25.605,14.543,25.985,15.012,25.985z"/>
	<path style="fill:#231F20;" d="M19.715,25.983c0.02,0.002,0.039,0.002,0.058,0.002c0.443,0,0.817-0.344,0.847-0.793l1.098-16.467
		c0.031-0.469-0.323-0.873-0.792-0.904c-0.468-0.049-0.874,0.322-0.905,0.791l-1.098,16.467
		C18.892,25.548,19.246,25.952,19.715,25.983z"/>
	<path style="fill:#231F20;" d="M10.252,25.985c0.019,0,0.038,0,0.058-0.002c0.468-0.031,0.823-0.436,0.792-0.904L10.003,8.612
		c-0.031-0.469-0.43-0.841-0.905-0.791C8.63,7.853,8.275,8.257,8.306,8.726l1.098,16.467C9.434,25.642,9.808,25.985,10.252,25.985z"
		/>
</g>
</svg>
