<?xml version="1.0" encoding="utf-8"?>
<!-- Generator: Adobe Illustrator 19.2.1, SVG Export Plug-In . SVG Version: 6.00 Build 0)  -->
<svg version="1.1" id="Camada_1" xmlns="http://www.w3.org/2000/svg" xmlns:xlink="http://www.w3.org/1999/xlink" x="0px" y="0px"
	 viewBox="0 0 30 30" style="enable-background:new 0 0 30 30;" xml:space="preserve">
<g>
	<g>
		<path style="fill:#231F20;" d="M29.15,11.551H1.051c-0.469,0-0.85-0.38-0.85-0.85s0.381-0.85,0.85-0.85H29.15
			c0.469,0,0.85,0.38,0.85,0.85S29.619,11.551,29.15,11.551z"/>
	</g>
	<g>
		<path style="fill:#231F20;" d="M29.15,20.111H1.051c-0.469,0-0.85-0.38-0.85-0.85s0.381-0.85,0.85-0.85H29.15
			c0.469,0,0.85,0.38,0.85,0.85S29.619,20.111,29.15,20.111z"/>
	</g>
	<g>
		<path style="fill:#231F20;" d="M29.15,28.709H1.051c-0.469,0-0.85-0.38-0.85-0.85s0.381-0.85,0.85-0.85H29.15
			c0.469,0,0.85,0.38,0.85,0.85S29.619,28.709,29.15,28.709z"/>
	</g>
	<g>
		<path style="fill:#231F20;" d="M14.287,2.99H0.85C0.381,2.99,0,2.61,0,2.141s0.381-0.85,0.85-0.85h13.437
			c0.469,0,0.85,0.38,0.85,0.85S14.756,2.99,14.287,2.99z"/>
	</g>
</g>
</svg>
