<?xml version="1.0" encoding="utf-8"?>
<!-- Generator: Adobe Illustrator 19.2.1, SVG Export Plug-In . SVG Version: 6.00 Build 0)  -->
<svg version="1.1" id="Camada_1" xmlns="http://www.w3.org/2000/svg" xmlns:xlink="http://www.w3.org/1999/xlink" x="0px" y="0px"
	 viewBox="0 0 30 30" style="enable-background:new 0 0 30 30;" xml:space="preserve">
<path style="fill:#231F20;" d="M29.626,5.409l-4.938-4.881C24.343,0.188,23.885,0,23.396,0c-0.487,0.002-0.944,0.19-1.283,0.528
	C4,18.435,3.716,18.715,3.716,18.715h0c-0.002,0.002-0.004,0.004-0.006,0.007c0,0,0,0,0,0c0,0,0,0,0,0.001
	c-0.176,0.175-3.736,8.78-3.736,8.78c-0.28,0.679-0.123,1.452,0.402,1.971C0.724,29.817,1.188,30,1.661,30
	c0.229,0,0.461-0.043,0.683-0.131c0,0,8.708-3.522,8.884-3.701C11.362,26.035,29.473,8.13,29.624,7.982
	c0.001-0.001,0.003-0.003,0.004-0.005c0.341-0.34,0.536-0.808,0.535-1.283C30.163,6.221,29.969,5.755,29.626,5.409z M1.713,28.291
	c-0.049,0.017-0.106,0.008-0.142-0.027c-0.032-0.032-0.042-0.074-0.024-0.117c0,0,2.593-6.363,3.028-7.374l4.581,4.529
	C8.127,25.733,1.713,28.291,1.713,28.291z M28.428,6.773C28.127,7.072,13.765,21.269,10.63,24.368l-5.106-5.049
	C8.693,16.186,23.308,1.737,23.308,1.737s0.008,0,0.02,0c0.047,0,0.164,0.001,0.164,0l4.971,4.959
	C28.463,6.723,28.45,6.751,28.428,6.773z"/>
</svg>
