<?xml version="1.0" encoding="utf-8"?>
<!-- Generator: Adobe Illustrator 19.2.1, SVG Export Plug-In . SVG Version: 6.00 Build 0)  -->
<svg version="1.1" id="Camada_1" xmlns="http://www.w3.org/2000/svg" xmlns:xlink="http://www.w3.org/1999/xlink" x="0px" y="0px"
	 viewBox="0 0 30 30" style="enable-background:new 0 0 30 30;" xml:space="preserve">
<g>
	<path style="fill:#231F20;" d="M25.559,4.521l-4.045-3.989C21.299,0.319,20.974,0,20.365,0H5.711C4.712,0,3.9,0.822,3.9,1.833
		v26.341C3.9,29.181,4.712,30,5.711,30h18.572c1.002,0,1.817-0.819,1.817-1.826V5.732C26.1,5.126,25.792,4.751,25.559,4.521z
		 M24.4,28.174c0,0.066-0.056,0.127-0.117,0.127H5.711c-0.06,0-0.111-0.06-0.111-0.127V1.833c0-0.068,0.054-0.134,0.111-0.134
		h12.865v4.886c0,0.47,0.381,0.85,0.85,0.85H24.4V28.174z M24.4,5.736h-4.124V1.699h0.002L24.4,5.732V5.736z"/>
	<path style="fill:#231F20;" d="M17.857,19.865l-2.467,2.32V8.914c0-0.47-0.381-0.85-0.85-0.85s-0.85,0.38-0.85,0.85v13.271
		l-2.466-2.32c-0.342-0.321-0.881-0.305-1.202,0.037c-0.322,0.342-0.305,0.88,0.037,1.201l3.899,3.667
		c0.164,0.154,0.373,0.23,0.583,0.23s0.419-0.076,0.583-0.23l3.899-3.667c0.342-0.321,0.358-0.859,0.037-1.201
		C18.738,19.561,18.199,19.544,17.857,19.865z"/>
</g>
</svg>
