<?xml version="1.0" encoding="utf-8"?>
<!-- Generator: Adobe Illustrator 19.2.1, SVG Export Plug-In . SVG Version: 6.00 Build 0)  -->
<svg version="1.1" id="Camada_1" xmlns="http://www.w3.org/2000/svg" xmlns:xlink="http://www.w3.org/1999/xlink" x="0px" y="0px"
	 viewBox="0 0 30 30" style="enable-background:new 0 0 30 30;" xml:space="preserve">
<path style="fill:#231F20;" d="M23.324,11.892h-1.853V6.08c0-3.295-2.963-6.08-6.469-6.08c-3.508,0-6.471,2.784-6.471,6.08v5.812
	H6.675c-1.526,0-2.768,1.189-2.768,2.709l1.225,12.685C5.132,28.808,6.374,30,7.9,30h14.2c1.526,0,2.769-1.216,2.769-2.738
	l1.225-12.671C26.093,13.07,24.85,11.892,23.324,11.892z M10.281,6.08c0-2.307,2.206-4.33,4.721-4.33c2.514,0,4.72,2.024,4.72,4.33
	v5.812h-9.441V6.08z M16.373,24.905h-2.746l-0.517-4.238c0-1.021,0.846-1.829,1.888-1.829c1.044,0,1.89,0.798,1.89,1.819
	L16.373,24.905z"/>
</svg>
