<?xml version="1.0" encoding="utf-8"?>
<!-- Generator: Adobe Illustrator 19.2.1, SVG Export Plug-In . SVG Version: 6.00 Build 0)  -->
<svg version="1.1" id="Camada_1" xmlns="http://www.w3.org/2000/svg" xmlns:xlink="http://www.w3.org/1999/xlink" x="0px" y="0px"
	 viewBox="0 0 30 30" style="enable-background:new 0 0 30 30;" xml:space="preserve">
<g>
	<path style="fill:#231F20;" d="M15,0C6.707,0-0.041,6.729-0.041,15S6.707,30,15,30s15.041-6.729,15.041-15S23.293,0,15,0z
		 M15,28.301C7.644,28.301,1.659,22.334,1.659,15S7.644,1.699,15,1.699S28.341,7.666,28.341,15S22.356,28.301,15,28.301z"/>
	<path style="fill:#231F20;" d="M15,5.894c-0.469,0-0.85,0.38-0.85,0.85v11.601c0,0.47,0.381,0.85,0.85,0.85s0.85-0.38,0.85-0.85
		V6.743C15.851,6.273,15.47,5.894,15,5.894z"/>
	<path style="fill:#231F20;" d="M15.001,21.968C15.001,21.968,15.001,21.968,15.001,21.968c-0.47,0-0.851,0.38-0.851,0.849l0,0.438
		c0,0.47,0.38,0.851,0.849,0.851c0,0,0,0,0.001,0c0.469,0,0.85-0.38,0.85-0.849l0-0.438C15.851,22.349,15.471,21.968,15.001,21.968z
		"/>
</g>
</svg>
