<?xml version="1.0" encoding="utf-8"?>
<!-- Generator: Adobe Illustrator 19.2.1, SVG Export Plug-In . SVG Version: 6.00 Build 0)  -->
<svg version="1.1" id="Camada_1" xmlns="http://www.w3.org/2000/svg" xmlns:xlink="http://www.w3.org/1999/xlink" x="0px" y="0px"
	 viewBox="0 0 30 30" style="enable-background:new 0 0 30 30;" xml:space="preserve">
<g>
	<path style="fill:#231F20;" d="M23.086,10.705h-1.8V5.908C21.286,2.706,18.407,0,15,0c-3.408,0-6.288,2.705-6.288,5.907v4.797
		H6.909c-1.952,0-3.54,1.562-3.536,3.564l1.186,12.244c0,1.923,1.588,3.486,3.54,3.486h13.797c1.952,0,3.541-1.574,3.537-3.429
		l1.194-12.394C26.627,12.23,25.072,10.705,23.086,10.705z M10.413,5.908C10.413,3.667,12.556,1.7,15,1.7
		c2.443,0,4.586,1.967,4.586,4.208v4.797h-9.173V5.908z M23.737,26.489c0,0.999-0.826,1.812-1.84,1.812H8.099
		c-1.032,0-1.84-0.785-1.844-1.869L5.069,14.187c0-1,0.808-1.783,1.84-1.783h16.177c1.032,0,1.84,0.779,1.844,1.691L23.737,26.489z"
		/>
	<path style="fill:#231F20;" d="M14.996,17.454c-1.48,0-2.685,1.179-2.685,2.627c0,0.034,0.002,0.068,0.006,0.103l0.502,4.118
		c0.052,0.427,0.414,0.747,0.844,0.747h2.668c0.43,0,0.792-0.32,0.844-0.747l0.5-4.128c0.004-0.034,0.006-0.068,0.006-0.103
		C17.683,18.627,16.478,17.454,14.996,17.454z M15.58,23.349h-1.163l-0.404-3.312c0.023-0.5,0.447-0.885,0.983-0.885
		c0.538,0,0.962,0.381,0.986,0.875L15.58,23.349z"/>
</g>
</svg>
