<?xml version="1.0" encoding="utf-8"?>
<!-- Generator: Adobe Illustrator 19.2.1, SVG Export Plug-In . SVG Version: 6.00 Build 0)  -->
<svg version="1.1" id="Camada_1" xmlns="http://www.w3.org/2000/svg" xmlns:xlink="http://www.w3.org/1999/xlink" x="0px" y="0px"
	 viewBox="0 0 30 30" style="enable-background:new 0 0 30 30;" xml:space="preserve">
<g>
	<path style="fill:#231F20;" d="M20.501,4.055C20.072,3.868,19.57,4.06,19.38,4.49c-0.189,0.43,0.005,0.931,0.435,1.121
		c4.303,1.899,7.083,6.154,7.083,10.839c0,6.534-5.337,11.85-11.897,11.85c-6.56,0-11.896-5.316-11.896-11.85
		c0-4.686,2.78-8.94,7.083-10.839c0.429-0.19,0.624-0.691,0.435-1.121c-0.19-0.429-0.689-0.621-1.121-0.435
		C4.581,6.226,1.403,11.091,1.403,16.45C1.403,23.922,7.503,30,15,30c7.498,0,13.597-6.079,13.597-13.55
		C28.597,11.091,25.419,6.226,20.501,4.055z"/>
	<path style="fill:#231F20;" d="M15,16.659c0.469,0,0.85-0.381,0.85-0.85V0.85C15.85,0.381,15.469,0,15,0s-0.85,0.381-0.85,0.85
		v14.959C14.15,16.278,14.531,16.659,15,16.659z"/>
</g>
</svg>
