<?xml version="1.0" encoding="utf-8"?>
<!-- Generator: Adobe Illustrator 19.2.1, SVG Export Plug-In . SVG Version: 6.00 Build 0)  -->
<svg version="1.1" id="Camada_1" xmlns="http://www.w3.org/2000/svg" xmlns:xlink="http://www.w3.org/1999/xlink" x="0px" y="0px"
	 viewBox="0 0 30 30" style="enable-background:new 0 0 30 30;" xml:space="preserve">
<path style="fill:#221E20;" d="M16.658,10.206h-0.282V9.043c0-0.706-0.63-1.302-1.376-1.302s-1.376,0.596-1.376,1.302v1.162h-0.283
	c-0.304,0-0.551,0.238-0.551,0.542l0.244,2.536c0,0.304,0.247,0.543,0.551,0.543h2.828c0.304,0,0.552-0.243,0.552-0.548l0.244-2.533
	C17.21,10.441,16.962,10.206,16.658,10.206z M15.274,12.808h-0.547l-0.103-0.847c0-0.204,0.169-0.366,0.376-0.366
	c0.208,0,0.377,0.16,0.377,0.364L15.274,12.808z M15.853,10.206h-1.706V9.043c0-0.415,0.399-0.779,0.853-0.779
	c0.454,0,0.853,0.364,0.853,0.779V10.206z"/>
<path style="fill:#231F20;" d="M25.559,4.521l-4.045-3.989C21.299,0.319,20.974,0,20.365,0H5.711C4.712,0,3.9,0.822,3.9,1.833
	v26.341C3.9,29.181,4.712,30,5.711,30h18.572c1.002,0,1.817-0.819,1.817-1.826V5.732C26.1,5.126,25.792,4.751,25.559,4.521z
	 M24.4,5.732v0.003h-4.124V1.699h0.002L24.4,5.732z M24.283,28.301H5.711c-0.06,0-0.111-0.06-0.111-0.127V1.833
	c0-0.068,0.054-0.134,0.111-0.134h12.865v4.886c0,0.47,0.381,0.85,0.85,0.85H24.4v20.739C24.4,28.24,24.344,28.301,24.283,28.301z"
	/>
</svg>
