<?xml version="1.0" encoding="utf-8"?>
<!-- Generator: Adobe Illustrator 19.2.1, SVG Export Plug-In . SVG Version: 6.00 Build 0)  -->
<svg version="1.1" id="Camada_1" xmlns="http://www.w3.org/2000/svg" xmlns:xlink="http://www.w3.org/1999/xlink" x="0px" y="0px"
	 viewBox="0 0 30 30" style="enable-background:new 0 0 30 30;" xml:space="preserve">
<g>
	<g>
		<path style="fill:#231F20;" d="M15,30C6.707,30-0.041,23.271-0.041,15C-0.041,6.729,6.707,0,15,0s15.041,6.729,15.041,15
			C30.041,23.271,23.293,30,15,30z M15,1.7C7.644,1.7,1.659,7.666,1.659,15c0,7.333,5.984,13.3,13.341,13.3S28.341,22.334,28.341,15
			C28.341,7.666,22.356,1.7,15,1.7z"/>
	</g>
	<g>
		<path style="fill:#231F20;" d="M22.505,15.85H15c-0.469,0-0.85-0.381-0.85-0.85V4.355c0-0.469,0.381-0.85,0.85-0.85
			s0.85,0.381,0.85,0.85v9.795h6.655c0.469,0,0.85,0.381,0.85,0.85S22.975,15.85,22.505,15.85z"/>
	</g>
</g>
</svg>
