<?xml version="1.0" encoding="utf-8"?>
<!-- Generator: Adobe Illustrator 19.2.1, SVG Export Plug-In . SVG Version: 6.00 Build 0)  -->
<svg version="1.1" id="Camada_1" xmlns="http://www.w3.org/2000/svg" xmlns:xlink="http://www.w3.org/1999/xlink" x="0px" y="0px"
	 viewBox="0 0 30 30" style="enable-background:new 0 0 30 30;" xml:space="preserve">
<path style="fill:#231F20;" d="M15,0C6.724,0-0.009,6.729-0.009,15S6.724,30,15,30c8.276,0,15.009-6.729,15.009-15S23.276,0,15,0z
	 M7.272,25.808c4.492-1.948,5.364-2.92,5.599-3.673c0.025-0.082,0.039-0.167,0.039-0.253v-1.24c0-0.223-0.087-0.436-0.243-0.595
	c-0.73-0.746-1.298-1.788-1.641-3.014c-0.053-0.189-0.169-0.354-0.329-0.467c-0.256-0.18-0.428-0.466-0.472-0.784
	c-0.044-0.321,0.046-0.64,0.255-0.896c0.124-0.151,0.191-0.341,0.191-0.536v-2.777c0-2.603,1.521-3.979,4.399-3.979
	c2.918,0,4.397,1.339,4.397,3.979v2.776c0,0.195,0.067,0.385,0.191,0.536c0.209,0.258,0.301,0.577,0.256,0.898
	c-0.044,0.318-0.216,0.604-0.472,0.784c-0.161,0.112-0.277,0.277-0.33,0.466c-0.343,1.226-0.911,2.268-1.64,3.014
	c-0.156,0.159-0.243,0.372-0.243,0.595v1.24c0,0.086,0.013,0.171,0.039,0.253c0.147,0.471,0.451,1.413,5.506,3.638
	c-2.19,1.583-4.871,2.528-7.774,2.528C12.117,28.301,9.454,27.37,7.272,25.808z M24.238,24.553
	c-4.198-1.784-5.131-2.662-5.309-2.873v-0.705c0.758-0.859,1.354-1.96,1.741-3.216c0.501-0.446,0.834-1.065,0.928-1.742
	c0.095-0.687-0.057-1.365-0.431-1.942v-2.502c0-3.608-2.223-5.678-6.098-5.678c-3.819,0-6.1,2.122-6.1,5.678v2.503
	c-0.373,0.576-0.525,1.254-0.43,1.94c0.093,0.676,0.426,1.296,0.927,1.742c0.387,1.256,0.984,2.357,1.742,3.217v0.708
	c-0.199,0.263-1.133,1.11-5.411,2.904C3.273,22.165,1.692,18.766,1.692,15C1.692,7.666,7.661,1.699,15,1.699S28.308,7.666,28.308,15
	C28.308,18.748,26.743,22.133,24.238,24.553z"/>
</svg>
