<?xml version="1.0" encoding="utf-8"?>
<!-- Generator: Adobe Illustrator 16.0.0, SVG Export Plug-In . SVG Version: 6.00 Build 0)  -->
<!DOCTYPE svg PUBLIC "-//W3C//DTD SVG 1.1//EN" "http://www.w3.org/Graphics/SVG/1.1/DTD/svg11.dtd">
<svg version="1.1" id="Layer_2" xmlns="http://www.w3.org/2000/svg" xmlns:xlink="http://www.w3.org/1999/xlink" x="0px" y="0px"
	 width="512px" height="512px" viewBox="0 0 512 512" enable-background="new 0 0 512 512" xml:space="preserve">
<g>
	<path d="M428.527,77.858H83.475c-12.998,0-23.568,10.573-23.568,23.569v309.146c0,12.996,10.57,23.569,23.568,23.569h345.053
		c12.994,0,23.566-10.573,23.566-23.569V101.427C452.094,88.432,441.521,77.858,428.527,77.858z M357.467,117.435
		c0-4.806,3.896-8.703,8.701-8.703h8.703c4.807,0,8.701,3.896,8.701,8.703v9.863c0,4.806-3.895,8.702-8.701,8.702h-8.703
		c-4.805,0-8.701-3.896-8.701-8.702V117.435z M317,117.435c0-4.806,3.898-8.703,8.703-8.703h8.701c4.805,0,8.703,3.896,8.703,8.703
		v9.863c0,4.806-3.898,8.702-8.703,8.702h-8.701c-4.805,0-8.703-3.896-8.703-8.702V117.435z M423.811,405.858H88.189V162.142
		h335.621V405.858z M424.039,127.298c0,4.806-3.896,8.702-8.701,8.702h-8.703c-4.809,0-8.703-3.896-8.703-8.702v-9.863
		c0-4.806,3.895-8.703,8.703-8.703h8.703c4.805,0,8.701,3.896,8.701,8.703V127.298z"/>
	<path d="M110.738,312.032c0.234,0,0.471-0.011,0.708-0.033l50.08-4.679c-0.202,1.065-0.311,2.164-0.311,3.287
		c0,9.562,7.664,17.34,17.085,17.34c9.423,0,17.09-7.778,17.09-17.34c0-2.237-0.426-4.375-1.191-6.341l13.807-1.291
		c4.079,23.511,24.01,41.357,47.989,41.357c23.978,0,43.913-17.846,47.988-41.357l13.81,1.291c-0.766,1.966-1.191,4.104-1.191,6.341
		c0,9.562,7.666,17.34,17.088,17.34c9.421,0,17.088-7.778,17.088-17.34c0-1.124-0.11-2.222-0.312-3.287L400.543,312
		c0.238,0.023,0.475,0.033,0.711,0.033c0.158,0,0.318-0.004,0.477-0.014c3.941-0.244,7.063-3.52,7.063-7.524
		c0.002-3.649-2.591-6.694-6.035-7.389l-100.712-23.827c-4.174-13.979-13.656-24.53-31.503-28.124l-6.445-32.913h8.984
		c3.082,0,5.583-2.5,5.583-5.583c0-3.082-2.5-5.582-5.583-5.582H261.91l-0.438-2.235c-0.513-2.619-2.809-4.509-5.478-4.509
		s-4.966,1.89-5.478,4.509l-0.438,2.235h-11.172c-3.084,0-5.582,2.5-5.582,5.582c0,3.083,2.496,5.583,5.582,5.583h8.984
		l-6.445,32.913c-17.847,3.594-27.325,14.144-31.502,28.124l-100.935,23.879c-3.854,0.912-6.345,4.651-5.704,8.559
		C103.909,309.387,107.086,312.032,110.738,312.032z M255.995,332.972c-5.183,0-9.381-5.25-9.381-11.726
		c0-6.478,4.198-11.728,9.381-11.728s9.383,5.25,9.383,11.728C265.378,327.723,261.178,332.972,255.995,332.972z M225.869,282.454
		l3.354-12.677c0.975-3.678,4.301-6.241,8.105-6.241h37.332c3.806,0,7.134,2.563,8.104,6.241l3.278,12.385
		c0.233,0.772,0.359,1.589,0.359,2.436c0,4.632-3.755,8.385-8.388,8.385c0,0-0.003,0-0.004,0h-44.034
		c-2.604,0-5.059-1.208-6.645-3.271C225.744,287.652,225.203,284.969,225.869,282.454z"/>
</g>
</svg>
