<?xml version="1.0" encoding="utf-8"?>
<!-- Generator: Adobe Illustrator 16.0.0, SVG Export Plug-In . SVG Version: 6.00 Build 0)  -->
<!DOCTYPE svg PUBLIC "-//W3C//DTD SVG 1.1//EN" "http://www.w3.org/Graphics/SVG/1.1/DTD/svg11.dtd">
<svg version="1.1" id="Layer_1" xmlns="http://www.w3.org/2000/svg" xmlns:xlink="http://www.w3.org/1999/xlink" x="0px" y="0px"
	 width="512px" height="512px" viewBox="0 0 512 512" enable-background="new 0 0 512 512" xml:space="preserve">
<g>
	<path d="M288.935,278.483l61.224-44.666c3.045,1.728,6.479,2.884,10.172,3.301c14.667,1.65,27.943-8.938,29.596-23.603
		c1.653-14.667-8.935-27.943-23.601-29.598c-14.667-1.651-27.943,8.936-29.595,23.604c-0.529,4.693,0.201,9.245,1.914,13.319
		l-55.83,40.729c-4.268-5.177-10.465-8.778-17.645-9.586c-10.167-1.145-19.663,3.593-25.084,11.494l-69.454-24.963
		c0.019-0.145,0.044-0.292,0.061-0.438c1.653-14.667-8.936-27.944-23.6-29.597c-14.667-1.655-27.943,8.934-29.596,23.603
		c-1.652,14.663,8.935,27.942,23.601,29.593c8.353,0.943,16.252-2.091,21.813-7.581l72.548,26.068
		c0.751,12.759,10.598,23.538,23.719,25.016c14.665,1.654,27.943-8.935,29.596-23.599
		C288.889,280.539,288.939,279.505,288.935,278.483z M353.893,209.454c0.585-5.202,5.297-8.961,10.5-8.374
		c5.204,0.587,8.961,5.298,8.374,10.502c-0.586,5.202-5.297,8.961-10.5,8.372C357.063,219.371,353.305,214.658,353.893,209.454z
		 M153.534,236.141c-0.587,5.206-5.299,8.963-10.502,8.374c-5.205-0.587-8.96-5.296-8.375-10.501
		c0.587-5.204,5.299-8.959,10.502-8.375C150.363,226.228,154.119,230.939,153.534,236.141z M271.611,279.644
		c-0.587,5.205-5.296,8.962-10.502,8.376c-5.202-0.588-8.959-5.297-8.372-10.502c0.585-5.204,5.296-8.959,10.5-8.374
		C268.441,269.73,272.198,274.442,271.611,279.644z"/>
	<path d="M169.181,265.521l-13.897,12.311c-2.881-1.529-6.085-2.561-9.517-2.949c-14.667-1.65-27.944,8.938-29.596,23.603
		c-1.653,14.667,8.936,27.943,23.601,29.598c14.667,1.651,27.943-8.936,29.596-23.604c0.562-4.986-0.294-9.807-2.24-14.068
		l20.582-18.231L169.181,265.521z"/>
	<path d="M366.233,322.564c14.668,1.65,27.944-8.938,29.597-23.601c1.652-14.669-8.936-27.943-23.601-29.598
		c-6.592-0.744-12.899,0.993-18.001,4.454l-23.01-15.496l-14.839,10.825l27.418,18.468c-0.558,1.706-0.954,3.495-1.164,5.35
		C340.98,307.636,351.568,320.91,366.233,322.564z"/>
	<path d="M217.186,246.071l14.991-13.275c3.679,2.755,8.112,4.602,13.002,5.153c6.646,0.75,13.005-1.021,18.128-4.542l22.599,15.223
		l14.839-10.827l-27.089-18.245c0.533-1.664,0.916-3.406,1.117-5.209c1.653-14.665-8.936-27.943-23.6-29.594
		c-14.667-1.654-27.943,8.935-29.595,23.599c-0.394,3.479-0.091,6.876,0.786,10.063l-23.706,20.997L217.186,246.071z"/>
	<path d="M256,83.697c56.894,0,107.455,27.609,139.004,70.129l44.804-23.477c-7.665-11.102-16.381-21.594-26.124-31.338
		C371.565,56.893,315.565,33.697,256,33.697c-45.665,0-89.227,13.648-126.053,38.988l35.06,36.939
		C191.459,93.199,222.638,83.697,256,83.697z"/>
	<path d="M83,256.697c0-44.016,16.532-84.236,43.7-114.801l-34.573-36.426C53.938,146.773,33,200.123,33,256.697
		c0,59.564,23.196,115.564,65.315,157.684c36.168,36.17,82.577,58.367,132.685,63.922v-50.418C147.412,415.732,83,343.6,83,256.697z
		"/>
	<path d="M463.388,174.441l-44.696,23.422C425.357,216.236,429,236.049,429,256.697c0,86.902-64.412,159.035-148,171.188v50.418
		c50.108-5.555,96.517-27.752,132.685-63.922C455.804,372.262,479,316.262,479,256.697C479,228.07,473.628,200.275,463.388,174.441z
		"/>
</g>
</svg>
