<?xml version="1.0" encoding="utf-8"?>
<!-- Generator: Adobe Illustrator 16.0.0, SVG Export Plug-In . SVG Version: 6.00 Build 0)  -->
<!DOCTYPE svg PUBLIC "-//W3C//DTD SVG 1.1//EN" "http://www.w3.org/Graphics/SVG/1.1/DTD/svg11.dtd">
<svg version="1.1" id="Layer_1" xmlns="http://www.w3.org/2000/svg" xmlns:xlink="http://www.w3.org/1999/xlink" x="0px" y="0px"
	 width="512px" height="512px" viewBox="0 0 512 512" enable-background="new 0 0 512 512" xml:space="preserve">
<g>
	<path d="M253.147,53.888c-52.407,0-102.983,20.657-140.436,57.013l-13.271-9.528c-1.741-1.25-4.02-1.476-5.971-0.593
		c-1.953,0.883-3.287,2.741-3.5,4.874l-7.094,71.44c-0.211,2.133,0.73,4.217,2.473,5.467c1.037,0.745,2.264,1.126,3.499,1.126
		c0.839,0,1.681-0.176,2.471-0.532l65.416-29.569c1.954-0.883,3.288-2.74,3.499-4.874c0.213-2.133-0.729-4.217-2.471-5.467
		l-11.904-8.547c29.408-26.095,67.695-40.81,107.288-40.81c89.054,0,161.505,72.451,161.505,161.505c0,11.046,8.954,20,20,20
		s20-8.954,20-20C454.652,144.282,364.258,53.888,253.147,53.888z"/>
	<path d="M426.65,329.439c-1.037-0.745-2.264-1.126-3.499-1.126c-0.839,0-1.681,0.176-2.471,0.532l-65.416,29.569
		c-1.954,0.883-3.288,2.74-3.499,4.874c-0.213,2.133,0.729,4.217,2.471,5.467l11.904,8.546
		c-29.408,26.096-67.695,40.811-107.288,40.811c-89.054,0-161.505-72.451-161.505-161.505c0-11.046-8.954-20-20-20s-20,8.954-20,20
		c0,111.11,90.395,201.505,201.505,201.505c52.407,0,102.983-20.657,140.436-57.013l13.271,9.527
		c1.741,1.251,4.02,1.477,5.971,0.594c1.954-0.883,3.287-2.741,3.5-4.874l7.094-71.44
		C429.334,332.773,428.393,330.689,426.65,329.439z"/>
	<path d="M188.002,308.056v-76.11c0-8.836-7.167-16.001-16.001-16.001c-8.839,0-16.001,7.165-16.001,16.001v76.11
		c0,8.836,7.162,16.001,16.001,16.001C180.835,324.057,188.002,316.892,188.002,308.056z"/>
	<path d="M243.998,308.056V175.944c0-8.836-7.162-16-15.996-16c-8.839,0-16.001,7.163-16.001,16v132.111
		c0,8.836,7.162,16.001,16.001,16.001C236.836,324.057,243.998,316.892,243.998,308.056z"/>
	<path d="M299.999,308.056v-98.511c0-8.837-7.162-16-16.001-16c-8.834,0-15.996,7.162-15.996,16v98.511
		c0,8.836,7.162,16.001,15.996,16.001C292.837,324.057,299.999,316.892,299.999,308.056z"/>
	<path d="M356,308.056V192.745c0-8.836-7.162-16.001-16.001-16.001c-8.834,0-16.001,7.165-16.001,16.001v115.311
		c0,8.836,7.167,16.001,16.001,16.001C348.838,324.057,356,316.892,356,308.056z"/>
</g>
</svg>
