<?xml version="1.0" encoding="utf-8"?>
<!-- Generator: Adobe Illustrator 16.0.0, SVG Export Plug-In . SVG Version: 6.00 Build 0)  -->
<!DOCTYPE svg PUBLIC "-//W3C//DTD SVG 1.1//EN" "http://www.w3.org/Graphics/SVG/1.1/DTD/svg11.dtd">
<svg version="1.1" id="Layer_1" xmlns="http://www.w3.org/2000/svg" xmlns:xlink="http://www.w3.org/1999/xlink" x="0px" y="0px"
	 width="512px" height="512px" viewBox="0 0 512 512" enable-background="new 0 0 512 512" xml:space="preserve">
<g>
	<path d="M122.93,263.933c9.674,1.09,18.822-2.423,25.262-8.783l84.02,30.194c0.869,14.772,12.273,27.259,27.469,28.971
		c16.984,1.914,32.361-10.348,34.275-27.333c0.135-1.205,0.191-2.4,0.188-3.585l70.904-51.728c3.527,2.001,7.504,3.339,11.781,3.821
		c16.986,1.914,32.361-10.348,34.275-27.333s-10.348-32.361-27.332-34.275c-16.986-1.914-32.361,10.348-34.275,27.333
		c-0.613,5.438,0.232,10.707,2.217,15.426l-64.658,47.171c-4.941-5.999-12.119-10.167-20.434-11.104
		c-11.775-1.327-22.771,4.162-29.051,13.311l-80.436-28.907c0.021-0.17,0.051-0.339,0.07-0.511
		c1.914-16.985-10.348-32.361-27.332-34.275c-16.986-1.914-32.361,10.348-34.275,27.333S105.945,262.019,122.93,263.933z
		 M369.371,203.454c0.678-6.027,6.135-10.377,12.16-9.698c6.027,0.679,10.379,6.134,9.699,12.162
		c-0.68,6.026-6.135,10.377-12.162,9.698C373.043,214.937,368.691,209.48,369.371,203.454z M252.221,282.279
		c0.678-6.026,6.135-10.377,12.16-9.698c6.027,0.679,10.379,6.135,9.699,12.162c-0.68,6.027-6.135,10.377-12.162,9.698
		C255.893,293.762,251.541,288.307,252.221,282.279z M115.471,231.897c0.68-6.026,6.137-10.377,12.162-9.698
		c6.027,0.68,10.377,6.136,9.699,12.162c-0.68,6.027-6.137,10.377-12.162,9.698C119.143,243.379,114.793,237.924,115.471,231.897z"
		/>
	<path d="M121.393,340.837c16.986,1.914,32.361-10.348,34.275-27.333c0.65-5.773-0.34-11.359-2.594-16.296l23.836-21.112
		l-21.457-7.711l-16.096,14.255c-3.336-1.77-7.047-2.963-11.021-3.411c-16.986-1.914-32.361,10.348-34.275,27.333
		S104.408,338.923,121.393,340.837z"/>
	<path d="M383.664,334.447c16.986,1.914,32.361-10.348,34.275-27.333c1.914-16.985-10.348-32.361-27.332-34.275
		c-7.635-0.86-14.939,1.149-20.848,5.158l-26.648-17.947l-17.186,12.538l31.754,21.387c-0.646,1.978-1.105,4.049-1.348,6.197
		C354.418,317.158,366.68,332.534,383.664,334.447z"/>
	<path d="M211.049,245.861l17.361-15.376c4.262,3.191,9.395,5.332,15.057,5.971c7.699,0.867,15.063-1.185,20.994-5.261
		l26.174,17.626l17.186-12.539l-31.373-21.129c0.619-1.927,1.061-3.943,1.295-6.031c1.914-16.985-10.348-32.361-27.332-34.275
		c-16.986-1.914-32.361,10.348-34.275,27.333c-0.455,4.028-0.104,7.963,0.912,11.652l-27.455,24.316L211.049,245.861z"/>
	<path d="M454.286,392H67.714V110c0-5.523-4.478-10-10-10s-10,4.477-10,10v292c0,5.523,4.478,10,10,10h396.572
		c5.522,0,10-4.477,10-10S459.809,392,454.286,392z"/>
</g>
</svg>
