<?xml version="1.0" encoding="utf-8"?>
<!-- Generator: Adobe Illustrator 16.0.0, SVG Export Plug-In . SVG Version: 6.00 Build 0)  -->
<!DOCTYPE svg PUBLIC "-//W3C//DTD SVG 1.1//EN" "http://www.w3.org/Graphics/SVG/1.1/DTD/svg11.dtd">
<svg version="1.1" id="Layer_1" xmlns="http://www.w3.org/2000/svg" xmlns:xlink="http://www.w3.org/1999/xlink" x="0px" y="0px"
	 width="512px" height="512px" viewBox="0 0 512 512" enable-background="new 0 0 512 512" xml:space="preserve">
<g>
	<path d="M406.479,326.571c-0.926-0.664-2.021-1.005-3.122-1.005c-0.748,0-1.499,0.157-2.204,0.475l-58.351,26.375
		c-1.741,0.789-2.931,2.445-3.12,4.349c-0.189,1.901,0.65,3.76,2.204,4.877l10.618,7.622
		c-26.232,23.275-60.382,36.402-95.699,36.402c-79.435,0-144.059-64.625-144.059-144.059c0-9.854-7.986-17.841-17.839-17.841
		c-9.854,0-17.84,7.987-17.84,17.841c0,99.107,80.63,179.737,179.737,179.737c46.747,0,91.859-18.426,125.267-50.854l11.837,8.497
		c1.553,1.116,3.585,1.317,5.326,0.529c1.741-0.786,2.931-2.445,3.12-4.347l6.328-63.724
		C408.871,329.544,408.032,327.685,406.479,326.571z"/>
	<path d="M93.298,208.295c0.926,0.664,2.021,1.005,3.122,1.005c0.748,0,1.499-0.157,2.204-0.475l58.351-26.375
		c1.741-0.789,2.931-2.445,3.12-4.349c0.189-1.901-0.65-3.76-2.204-4.877l-10.618-7.622c26.232-23.275,60.382-36.402,95.699-36.402
		c27.997,0,54.147,8.036,76.284,21.911l23.126-27.519c-28.491-18.987-62.679-30.071-99.41-30.071
		c-46.747,0-91.859,18.426-125.267,50.854l-11.837-8.497c-1.553-1.116-3.585-1.317-5.326-0.529c-1.741,0.786-2.931,2.445-3.12,4.347
		l-6.328,63.724C90.906,205.322,91.745,207.181,93.298,208.295z"/>
	<path d="M368.051,201.851c12.071,21.061,18.979,45.443,18.979,71.409c0,9.854,7.986,17.841,17.839,17.841
		c9.854,0,17.84-7.987,17.84-17.841c0-37.033-11.261-71.483-30.534-100.113L368.051,201.851z"/>
	<path d="M427.799,75.345c-8.456-7.106-21.073-6.013-28.179,2.443L249.889,261.964l-82.355-46.125
		c-9.534-5.58-21.784-2.376-27.363,7.158c-5.58,9.533-2.375,21.784,7.158,27.363l92.359,54.056c3.157,1.848,6.64,2.74,10.092,2.74
		c5.746,0,11.405-2.474,15.321-7.133l165.141-196.5C437.349,95.068,436.255,82.452,427.799,75.345z"/>
</g>
</svg>
