<?xml version="1.0" encoding="utf-8"?>
<!-- Generator: Adobe Illustrator 16.0.0, SVG Export Plug-In . SVG Version: 6.00 Build 0)  -->
<!DOCTYPE svg PUBLIC "-//W3C//DTD SVG 1.1//EN" "http://www.w3.org/Graphics/SVG/1.1/DTD/svg11.dtd">
<svg version="1.1" id="Layer_2" xmlns="http://www.w3.org/2000/svg" xmlns:xlink="http://www.w3.org/1999/xlink" x="0px" y="0px"
	 width="512px" height="512px" viewBox="0 0 512 512" enable-background="new 0 0 512 512" xml:space="preserve">
<g>
	<path d="M319.48,233.413c0.002-0.122,0.006-0.242,0.009-0.363c0.041-1.97-0.715-3.872-2.092-5.279
		c-1.378-1.407-3.266-2.2-5.235-2.2H199.838c-1.969,0-3.857,0.793-5.235,2.2c-1.377,1.407-2.133,3.309-2.092,5.279
		c0.002,0.121,0.007,0.241,0.01,0.363c-26.651,4.253-30.659,19.459-30.465,28.828c0.378,18.299,16.644,35.903,23.621,42.622
		c8.094,7.797,16.596,13.8,24.581,17.525c0.521,1.083,1.051,2.155,1.593,3.201c8.1,15.57,18.267,26.208,29.491,31.149v59.251
		h-18.837c-5.646,0-10.219,4.576-10.219,10.221v12.826c0,5.646,4.573,10.221,10.219,10.221h66.994
		c5.644,0,10.219-4.576,10.219-10.221V426.21c0-5.645-4.575-10.221-10.219-10.221h-18.84v-59.251
		c11.225-4.941,21.394-15.579,29.491-31.149c0.542-1.046,1.071-2.116,1.593-3.199c7.984-3.724,16.487-9.726,24.581-17.522
		c6.976-6.719,23.24-24.322,23.62-42.621C350.139,252.875,346.133,237.666,319.48,233.413z M195.846,294.306
		c-11.622-11.194-18.953-23.597-19.134-32.369c-0.148-7.127,5.376-11.748,16.448-13.795c1.247,18.973,4.101,36.241,8.463,51.301
		C199.673,297.845,197.736,296.128,195.846,294.306z M283.317,271.873l-11.574,11.283l2.732,15.931
		c0.186,1.078-0.258,2.166-1.144,2.81c-0.501,0.364-1.093,0.548-1.688,0.548c-0.457,0-0.917-0.108-1.337-0.33L256,294.595
		l-14.307,7.52c-0.968,0.509-2.14,0.424-3.026-0.218c-0.884-0.644-1.328-1.731-1.143-2.81l2.733-15.931l-11.574-11.283
		c-0.784-0.763-1.064-1.905-0.727-2.944c0.338-1.041,1.236-1.799,2.319-1.955l15.996-2.324l7.152-14.495
		c0.485-0.981,1.483-1.602,2.577-1.602c1.094,0,2.092,0.62,2.577,1.602l7.153,14.495l15.995,2.324
		c1.083,0.156,1.982,0.915,2.32,1.955C284.382,269.968,284.1,271.11,283.317,271.873z M316.154,294.31
		c-1.892,1.823-3.828,3.539-5.777,5.138c4.362-15.061,7.218-32.329,8.465-51.305c11.072,2.048,16.597,6.669,16.447,13.798
		C335.107,270.713,327.776,283.117,316.154,294.31z"/>
	<path d="M476.303,62.743H35.697c-2.594,0-4.697,2.104-4.697,4.698v377.117c0,2.594,2.103,4.698,4.697,4.698h21.607
		c2.594,0,4.697-2.104,4.697-4.698V264.257h0c0.4-0.098,40.515-10.167,84.204-35.558C186.41,205.333,238.094,163.783,256,98.524
		c17.906,65.258,69.59,106.809,109.794,130.175c43.689,25.391,83.804,35.459,84.203,35.557l0.001,180.302
		c0,2.594,2.104,4.698,4.698,4.698h21.607c2.594,0,4.697-2.104,4.697-4.698V67.441C481,64.847,478.897,62.743,476.303,62.743z
		 M318.528,81.534c4.457,51.396,23.32,95.314,56.064,130.534c-3.993-2.33-7.646-4.564-11.17-6.827
		c-26.063-16.746-47.162-35.994-62.709-57.21c-14.841-20.254-24.731-42.626-29.397-66.497H318.528z M148.579,205.239
		c-3.524,2.264-7.177,4.497-11.171,6.828c32.744-35.22,51.607-79.138,56.064-130.533v0h47.213
		c-4.666,23.87-14.556,46.243-29.397,66.497C195.74,169.247,174.642,188.495,148.579,205.239z"/>
</g>
</svg>
