<?xml version="1.0" encoding="utf-8"?>
<!-- Generator: Adobe Illustrator 16.0.0, SVG Export Plug-In . SVG Version: 6.00 Build 0)  -->
<!DOCTYPE svg PUBLIC "-//W3C//DTD SVG 1.1//EN" "http://www.w3.org/Graphics/SVG/1.1/DTD/svg11.dtd">
<svg version="1.1" id="Layer_1" xmlns="http://www.w3.org/2000/svg" xmlns:xlink="http://www.w3.org/1999/xlink" x="0px" y="0px"
	 width="512px" height="512px" viewBox="0 0 512 512" enable-background="new 0 0 512 512" xml:space="preserve">
<g>
	<path d="M468.701,60.606h-191.19c-12.259,0-22.232,9.972-22.232,22.23v98.652c0,12.258,9.973,22.23,22.232,22.23h16.788v39.161
		c0,2.707,1.58,5.165,4.042,6.292c0.921,0.42,1.902,0.627,2.875,0.627c1.631,0,3.245-0.576,4.526-1.685l51.379-44.396h111.58
		c12.257,0,22.23-9.973,22.23-22.23V82.837C490.932,70.578,480.958,60.606,468.701,60.606z M317.754,148.519
		c-9.744,0-17.642-7.9-17.642-17.644c0-9.744,7.898-17.644,17.642-17.644c9.745,0,17.643,7.899,17.643,17.644
		C335.397,140.618,327.499,148.519,317.754,148.519z M373.105,148.519c-9.743,0-17.643-7.9-17.643-17.644
		c0-9.744,7.9-17.644,17.643-17.644c9.744,0,17.644,7.899,17.644,17.644C390.75,140.618,382.85,148.519,373.105,148.519z
		 M428.458,148.519c-9.743,0-17.643-7.9-17.643-17.644c0-9.744,7.9-17.644,17.643-17.644c9.744,0,17.644,7.899,17.644,17.644
		C446.102,140.618,438.201,148.519,428.458,148.519z"/>
	<path d="M161.925,156.028c-43.093,0-66.941,22.33-66.506,65.358c0.631,58.932,25.673,94.682,66.506,94.058
		c0,0,66.473,2.695,66.473-94.058C228.398,178.357,205.941,156.028,161.925,156.028z"/>
	<path d="M279.502,360.173l-66.421-26.481l-15.554-13.107c-4.108-3.471-10.176-3.215-13.986,0.573l-21.624,21.505l-21.688-21.511
		c-3.813-3.782-9.872-4.027-13.975-0.567l-15.556,13.107l-66.422,26.484c-21.388,8.519-21.372,84.264-23.208,91.218h281.674
		C300.909,444.457,300.899,368.684,279.502,360.173z"/>
</g>
</svg>
