<?xml version="1.0" encoding="utf-8"?>
<!-- Generator: Adobe Illustrator 16.0.0, SVG Export Plug-In . SVG Version: 6.00 Build 0)  -->
<!DOCTYPE svg PUBLIC "-//W3C//DTD SVG 1.1//EN" "http://www.w3.org/Graphics/SVG/1.1/DTD/svg11.dtd">
<svg version="1.1" id="Layer_1" xmlns="http://www.w3.org/2000/svg" xmlns:xlink="http://www.w3.org/1999/xlink" x="0px" y="0px"
	 width="512px" height="512px" viewBox="0 0 512 512" enable-background="new 0 0 512 512" xml:space="preserve">
<g>
	<path d="M275.732,366.28c3.502-10.781,12.648-18.493,23.869-20.125l27.623-4.014l12.353-25.029
		c5.017-10.167,15.178-16.484,26.518-16.484c11.338,0,21.499,6.316,26.518,16.483l12.353,25.03l1.129,0.164V63.843
		c0-5.523-4.477-10-10-10h-39.438v117.812c0,2.772-1.59,5.3-4.09,6.5c-0.992,0.476-2.058,0.709-3.118,0.709
		c-1.61,0-3.207-0.539-4.511-1.585l-26.668-21.388l-26.668,21.388c-2.162,1.735-5.129,2.076-7.629,0.876
		c-2.5-1.2-4.09-3.727-4.09-6.5V53.843H153.669v377.586h146.899l2.633-15.352l-19.987-19.482
		C275.095,388.68,272.228,377.064,275.732,366.28z"/>
	<path d="M74.095,63.843v357.586c0,5.523,4.477,10,10,10h41.778V53.843H84.095C78.572,53.843,74.095,58.32,74.095,63.843z"/>
	<path d="M437.437,372.461c-1.125-3.464-4.121-5.99-7.727-6.515l-38.026-5.525l-17.006-34.458c-1.613-3.267-4.94-5.335-8.583-5.335
		c-3.643,0-6.971,2.068-8.583,5.335l-17.006,34.458l-38.026,5.525c-3.605,0.524-6.601,3.05-7.727,6.515
		c-1.126,3.465-0.187,7.269,2.422,9.812l27.516,26.822l-6.496,37.873c-0.616,3.591,0.86,7.22,3.808,9.362
		c2.948,2.141,6.855,2.423,10.08,0.728l34.012-17.881l34.012,17.881c1.4,0.736,2.93,1.1,4.453,1.1c1.985,0,3.959-0.617,5.627-1.828
		c2.948-2.142,4.424-5.771,3.808-9.362l-6.496-37.873l27.516-26.822C437.624,379.73,438.563,375.926,437.437,372.461z"/>
</g>
</svg>
