<?xml version="1.0" encoding="utf-8"?>
<!-- Generator: Adobe Illustrator 16.0.0, SVG Export Plug-In . SVG Version: 6.00 Build 0)  -->
<!DOCTYPE svg PUBLIC "-//W3C//DTD SVG 1.1//EN" "http://www.w3.org/Graphics/SVG/1.1/DTD/svg11.dtd">
<svg version="1.1" id="Layer_1" xmlns="http://www.w3.org/2000/svg" xmlns:xlink="http://www.w3.org/1999/xlink" x="0px" y="0px"
	 width="512px" height="512px" viewBox="0 0 512 512" enable-background="new 0 0 512 512" xml:space="preserve">
<g>
	<path d="M326.223,414.78H118.199V97.22h208.023v28.334c3.475-0.41,7.009-0.627,10.592-0.627h0.149c3.125,0,6.214,0.161,9.258,0.474
		V65.979c0-16.542-13.458-30-30-30H128.199c-16.542,0-30,13.458-30,30v380.042c0,16.542,13.458,30,30,30h188.023
		c16.542,0,30-13.458,30-30v-58.948h-20V414.78z M222.211,454.5c-7.042,0-12.75-5.708-12.75-12.75s5.708-12.75,12.75-12.75
		s12.75,5.708,12.75,12.75S229.252,454.5,222.211,454.5z"/>
	<path d="M387.136,286.945c11.88-19.32,26.665-43.362,26.665-72.098c0-41.309-33.61-74.92-74.925-74.92h-0.149
		c-41.315,0-74.925,33.611-74.925,74.92c0,27.494,14.614,51.656,26.358,71.068c7.558,12.495,14.696,24.297,14.696,32.175
		l0.377,10.498c-0.619,1.121-0.979,2.406-0.979,3.779c0,2.952,4.129,4.238,4.032,6.873c-0.105,2.637-8.54,4.103-8.54,8.896
		c0,4.925,9.048,5.874,9.048,8.917c0,3.036-4.54,3.975-4.54,7.133c0,4.356,3.528,7.887,7.887,7.887h53.32
		c4.359,0,7.886-3.531,7.886-7.887c0-6.592-22.16-7.374-34.326-7.305c13.262-0.468,38.834-2.223,38.834-8.745
		c0-8.802-49.081-8.896-49.081-8.896s44.574,0.087,44.574-6.873c0-1.374-0.36-2.658-0.979-3.779l0.377-10.498
		C372.747,310.347,379.416,299.5,387.136,286.945z M367.652,190.679L343.01,233.64l21.64,0.002c0.755,0,1.447,0.424,1.792,1.096
		c0.345,0.671,0.286,1.48-0.154,2.094l-37.394,52.256c-0.39,0.546-1.009,0.843-1.641,0.843c-0.331,0-0.666-0.082-0.974-0.251
		c-0.896-0.496-1.279-1.583-0.891-2.53l16.868-41.155l-22.066-0.021c-0.688-0.003-1.328-0.356-1.696-0.937
		c-0.369-0.582-0.416-1.31-0.124-1.934l25.393-54.284c0.333-0.708,1.045-1.16,1.827-1.16h20.315c0.718,0,1.384,0.382,1.743,1.005
		C368.008,189.287,368.01,190.055,367.652,190.679z"/>
</g>
</svg>
