<?xml version="1.0" encoding="utf-8"?>
<!-- Generator: Adobe Illustrator 16.0.0, SVG Export Plug-In . SVG Version: 6.00 Build 0)  -->
<!DOCTYPE svg PUBLIC "-//W3C//DTD SVG 1.1//EN" "http://www.w3.org/Graphics/SVG/1.1/DTD/svg11.dtd">
<svg version="1.1" id="Layer_2" xmlns="http://www.w3.org/2000/svg" xmlns:xlink="http://www.w3.org/1999/xlink" x="0px" y="0px"
	 width="512px" height="512px" viewBox="0 0 512 512" enable-background="new 0 0 512 512" xml:space="preserve">
<g>
	<path d="M412.064,43.5H99.934c-6.436,0-11.671,5.236-11.671,11.672v401.655c0,6.437,5.236,11.672,11.671,11.672h312.131
		c6.438,0,11.673-5.236,11.673-11.672V55.172C423.738,48.736,418.502,43.5,412.064,43.5z M169.388,434.222
		c0,0.713-0.581,1.294-1.297,1.294h-35.739c-0.717,0-1.297-0.581-1.297-1.294v-35.743c0-0.713,0.581-1.297,1.297-1.297h35.739
		c0.716,0,1.297,0.583,1.297,1.297V434.222z M169.388,356.399c0,0.716-0.581,1.296-1.297,1.296h-35.739
		c-0.717,0-1.297-0.581-1.297-1.296v-35.741c0-0.713,0.581-1.297,1.297-1.297h35.739c0.716,0,1.297,0.584,1.297,1.297V356.399z
		 M169.388,278.578c0,0.716-0.581,1.297-1.297,1.297h-35.739c-0.717,0-1.297-0.581-1.297-1.297v-35.741
		c0-0.713,0.581-1.296,1.297-1.296h35.739c0.716,0,1.297,0.583,1.297,1.296V278.578z M239.428,434.222
		c0,0.713-0.581,1.294-1.297,1.294h-35.74c-0.717,0-1.297-0.581-1.297-1.294v-35.743c0-0.713,0.581-1.297,1.297-1.297h35.74
		c0.716,0,1.297,0.583,1.297,1.297V434.222z M239.428,356.399c0,0.716-0.581,1.296-1.297,1.296h-35.74
		c-0.717,0-1.297-0.581-1.297-1.296v-35.741c0-0.713,0.581-1.297,1.297-1.297h35.74c0.716,0,1.297,0.584,1.297,1.297V356.399z
		 M239.428,278.578c0,0.716-0.581,1.297-1.297,1.297h-35.74c-0.717,0-1.297-0.581-1.297-1.297v-35.741
		c0-0.713,0.581-1.296,1.297-1.296h35.74c0.716,0,1.297,0.583,1.297,1.296V278.578z M309.467,434.222
		c0,0.713-0.583,1.294-1.298,1.294h-35.738c-0.718,0-1.299-0.581-1.299-1.294v-35.743c0-0.713,0.581-1.297,1.299-1.297h35.738
		c0.715,0,1.298,0.583,1.298,1.297V434.222z M309.467,356.399c0,0.716-0.583,1.296-1.298,1.296h-35.738
		c-0.718,0-1.299-0.581-1.299-1.296v-35.741c0-0.713,0.581-1.297,1.299-1.297h35.738c0.715,0,1.298,0.584,1.298,1.297V356.399z
		 M309.467,278.578c0,0.716-0.583,1.297-1.298,1.297h-35.738c-0.718,0-1.299-0.581-1.299-1.297v-35.741
		c0-0.713,0.581-1.296,1.299-1.296h35.738c0.715,0,1.298,0.583,1.298,1.296V278.578z M379.792,434.222
		c0,0.713-0.583,1.294-1.295,1.294h-35.741c-0.715,0-1.298-0.581-1.298-1.294v-35.743c0-0.713,0.583-1.297,1.298-1.297h35.741
		c0.712,0,1.295,0.583,1.295,1.297V434.222z M380.945,356.399c0,0.716-0.581,1.296-1.296,1.296h-35.741
		c-0.716,0-1.296-0.581-1.296-1.296V242.837c0-0.713,0.58-1.296,1.296-1.296h35.741c0.716,0,1.296,0.583,1.296,1.296V356.399z
		 M386.558,201.88c0,3.099-2.522,5.617-5.619,5.617H131.059c-3.099,0-5.618-2.519-5.618-5.617V92.465c0-3.099,2.519-5.62,5.618-5.62
		h249.879c3.097,0,5.619,2.521,5.619,5.62V201.88z"/>
	<path d="M341.238,104.328c-11.443,0-20.752,9.313-20.752,20.76c0,1.057,0.081,2.096,0.23,3.111l-48.482,28.288
		c-3.783-3.94-9.093-6.403-14.973-6.403c-7.333,0-13.788,3.828-17.479,9.587l-48.357-18.925c0.061-0.628,0.091-1.262,0.091-1.903
		c0-11.451-9.308-20.761-20.752-20.761c-11.451,0-20.762,9.31-20.762,20.761c0,11.445,9.312,20.755,20.762,20.755
		c5.743,0,10.948-2.345,14.717-6.13l51.198,20.042c1.314,10.189,10.041,18.097,20.583,18.097c11.447,0,20.763-9.313,20.763-20.759
		c0-0.499-0.031-0.995-0.063-1.477l49.43-28.841c3.673,3.302,8.53,5.323,13.848,5.323c11.451,0,20.762-9.315,20.762-20.764
		C362,113.641,352.688,104.328,341.238,104.328z M170.762,145.59c-3.72,0-6.753-3.028-6.753-6.747s3.034-6.748,6.753-6.748
		c3.712,0,6.745,3.029,6.745,6.748S174.474,145.59,170.762,145.59z M257.26,177.592c-3.72,0-6.744-3.025-6.744-6.744
		c0-3.723,3.024-6.747,6.744-6.747c3.723,0,6.745,3.024,6.745,6.747C264.005,174.566,260.983,177.592,257.26,177.592z
		 M341.238,131.833c-3.712,0-6.745-3.022-6.745-6.746c0-3.72,3.033-6.744,6.745-6.744c3.719,0,6.753,3.024,6.753,6.744
		C347.991,128.812,344.957,131.833,341.238,131.833z"/>
</g>
</svg>
