<?xml version="1.0" encoding="utf-8"?>
<!-- Generator: Adobe Illustrator 16.0.0, SVG Export Plug-In . SVG Version: 6.00 Build 0)  -->
<!DOCTYPE svg PUBLIC "-//W3C//DTD SVG 1.1//EN" "http://www.w3.org/Graphics/SVG/1.1/DTD/svg11.dtd">
<svg version="1.1" id="Layer_2" xmlns="http://www.w3.org/2000/svg" xmlns:xlink="http://www.w3.org/1999/xlink" x="0px" y="0px"
	 width="512px" height="512px" viewBox="0 0 512 512" enable-background="new 0 0 512 512" xml:space="preserve">
<g>
	<path d="M429.208,119.588H400.77V90.412c0-11.046-8.954-20-20-20h-13c-11.046,0-20,8.954-20,20v29.177H164.23V90.412
		c0-11.046-8.954-20-20-20h-13c-11.046,0-20,8.954-20,20v29.177H82.792c-11.045,0-20,8.954-20,20v282c0,11.046,8.955,20,20,20
		h346.416c11.046,0,20-8.954,20-20v-282C449.208,128.542,440.254,119.588,429.208,119.588z M410.208,402.588H101.792v-200.59
		h308.416V402.588z"/>
	<path d="M139.251,287.748h33.498c8.271,0,15-6.729,15-15v-33.496c0-8.271-6.729-15-15-15h-33.498c-8.271,0-15,6.729-15,15v33.496
		C124.251,281.019,130.979,287.748,139.251,287.748z"/>
	<path d="M239.251,287.748h33.498c8.271,0,15-6.729,15-15v-33.496c0-8.271-6.729-15-15-15h-33.498c-8.271,0-15,6.729-15,15v33.496
		C224.251,281.019,230.979,287.748,239.251,287.748z"/>
	<path d="M339.251,287.748h33.498c8.271,0,15-6.729,15-15v-33.496c0-8.271-6.729-15-15-15h-33.498c-8.271,0-15,6.729-15,15v33.496
		C324.251,281.019,330.979,287.748,339.251,287.748z"/>
	<path d="M139.251,377.748h33.498c8.271,0,15-6.729,15-15v-33.496c0-8.271-6.729-15-15-15h-33.498c-8.271,0-15,6.729-15,15v33.496
		C124.251,371.019,130.979,377.748,139.251,377.748z"/>
	<path d="M239.251,377.748h33.498c8.271,0,15-6.729,15-15v-33.496c0-8.271-6.729-15-15-15h-33.498c-8.271,0-15,6.729-15,15v33.496
		C224.251,371.019,230.979,377.748,239.251,377.748z"/>
	<path d="M339.251,377.748h33.498c8.271,0,15-6.729,15-15v-33.496c0-8.271-6.729-15-15-15h-33.498c-8.271,0-15,6.729-15,15v33.496
		C324.251,371.019,330.979,377.748,339.251,377.748z"/>
</g>
</svg>
