<?xml version="1.0" encoding="utf-8"?>
<!-- Generator: Adobe Illustrator 16.0.0, SVG Export Plug-In . SVG Version: 6.00 Build 0)  -->
<!DOCTYPE svg PUBLIC "-//W3C//DTD SVG 1.1//EN" "http://www.w3.org/Graphics/SVG/1.1/DTD/svg11.dtd">
<svg version="1.1" id="Layer_1" xmlns="http://www.w3.org/2000/svg" xmlns:xlink="http://www.w3.org/1999/xlink" x="0px" y="0px"
	 width="512px" height="512px" viewBox="0 0 512 512" enable-background="new 0 0 512 512" xml:space="preserve">
<path d="M425.7,308.659l-71.073-71.073c-16.042-16.042-37.632-23.216-58.65-21.562c1.654-21.019-5.521-42.609-21.563-58.651
	L203.341,86.3c-29.084-29.084-76.409-29.083-105.493,0L86.3,97.849c-29.084,29.084-29.084,76.408,0,105.493l71.073,71.073
	c16.042,16.042,37.632,23.217,58.651,21.563c-1.654,21.019,5.52,42.608,21.563,58.651l71.073,71.073
	c29.084,29.084,76.408,29.083,105.492,0l11.548-11.548C454.784,385.067,454.784,337.743,425.7,308.659z M200.661,225.779
	l29.458,29.458c-14.997,8.932-34.734,6.954-47.629-5.94l-71.073-71.073c-15.234-15.234-15.234-40.022,0-55.258l11.549-11.548
	c15.235-15.235,40.023-15.235,55.258,0l71.073,71.073c12.895,12.895,14.873,32.632,5.94,47.63l-29.458-29.458
	c-6.936-6.937-18.181-6.937-25.117,0S193.725,218.843,200.661,225.779z M400.582,389.034l-11.548,11.548
	c-15.235,15.235-40.023,15.234-55.258,0l-71.073-71.073c-12.895-12.895-14.873-32.632-5.94-47.629l29.458,29.458
	c6.936,6.936,18.181,6.936,25.118,0c6.936-6.936,6.936-18.181,0-25.117l-29.458-29.458c14.998-8.933,34.735-6.955,47.63,5.94
	l71.073,71.073C415.817,349.011,415.817,373.799,400.582,389.034z"/>
</svg>
