<?xml version="1.0" encoding="utf-8"?>
<!-- Generator: Adobe Illustrator 16.0.0, SVG Export Plug-In . SVG Version: 6.00 Build 0)  -->
<!DOCTYPE svg PUBLIC "-//W3C//DTD SVG 1.1//EN" "http://www.w3.org/Graphics/SVG/1.1/DTD/svg11.dtd">
<svg version="1.1" id="Layer_1" xmlns="http://www.w3.org/2000/svg" xmlns:xlink="http://www.w3.org/1999/xlink" x="0px" y="0px"
	 width="512px" height="512px" viewBox="0 0 512 512" enable-background="new 0 0 512 512" xml:space="preserve">
<g>
	<path d="M187.764,137.931h163.126C349.743,122.89,337.146,111,321.815,111H70.955c-16.084,0-29.169,13.086-29.169,29.169V269.61
		c0,16.084,13.085,29.17,29.169,29.17h22.029v51.381c0,3.552,2.072,6.778,5.302,8.255c1.208,0.553,2.497,0.823,3.775,0.823
		c2.14,0,4.255-0.755,5.938-2.209l39.048-33.741c-1.338-4.141-2.069-8.551-2.069-13.131V180.718
		C144.977,157.126,164.171,137.931,187.764,137.931z"/>
	<path d="M441.045,152.76h-250.86c-16.084,0-29.17,13.085-29.17,29.169v129.441c0,16.084,13.086,29.169,29.17,29.169h146.403
		l67.414,58.25c1.682,1.453,3.798,2.209,5.938,2.209c1.278,0,2.566-0.27,3.775-0.823c3.23-1.478,5.302-4.703,5.302-8.255V340.54
		h22.029c16.084,0,29.169-13.085,29.169-29.169V181.93C470.214,165.846,457.129,152.76,441.045,152.76z M242.988,268.109
		c-12.785,0-23.15-10.365-23.15-23.15c0-12.785,10.365-23.149,23.15-23.149c12.785,0,23.149,10.365,23.149,23.149
		C266.138,257.745,255.773,268.109,242.988,268.109z M315.615,268.109c-12.785,0-23.149-10.365-23.149-23.15
		c0-12.785,10.365-23.149,23.149-23.149c12.785,0,23.15,10.365,23.15,23.149C338.765,257.745,328.4,268.109,315.615,268.109z
		 M388.242,268.109c-12.785,0-23.15-10.365-23.15-23.15c0-12.785,10.365-23.149,23.15-23.149c12.785,0,23.149,10.365,23.149,23.149
		C411.391,257.745,401.026,268.109,388.242,268.109z"/>
</g>
</svg>
