<?xml version="1.0" encoding="utf-8"?>
<!-- Generator: Adobe Illustrator 16.0.0, SVG Export Plug-In . SVG Version: 6.00 Build 0)  -->
<!DOCTYPE svg PUBLIC "-//W3C//DTD SVG 1.1//EN" "http://www.w3.org/Graphics/SVG/1.1/DTD/svg11.dtd">
<svg version="1.1" id="Layer_1" xmlns="http://www.w3.org/2000/svg" xmlns:xlink="http://www.w3.org/1999/xlink" x="0px" y="0px"
	 width="512px" height="512px" viewBox="0 0 512 512" enable-background="new 0 0 512 512" xml:space="preserve">
<g>
	<path d="M472.895,61.697H281.705c-12.26,0-22.232,9.972-22.232,22.23v98.652c0,12.258,9.973,22.23,22.232,22.23h16.787v39.161
		c0,2.707,1.58,5.165,4.043,6.292c0.92,0.42,1.902,0.627,2.875,0.627c1.631,0,3.244-0.576,4.525-1.685l51.381-44.396h111.578
		c12.258,0,22.23-9.973,22.23-22.23V83.927C495.125,71.668,485.152,61.697,472.895,61.697z M336.797,129.128l-10.209,9.953
		l2.41,14.054c0.174,1.015-0.242,2.038-1.076,2.643c-0.469,0.342-1.027,0.516-1.588,0.516c-0.428,0-0.861-0.103-1.256-0.31
		l-12.621-6.635l-12.619,6.635c-0.912,0.478-2.016,0.398-2.848-0.206c-0.832-0.604-1.248-1.628-1.074-2.643l2.41-14.054
		l-10.211-9.953c-0.734-0.718-1.002-1.792-0.684-2.769c0.318-0.978,1.164-1.691,2.182-1.839l14.111-2.05l6.309-12.786
		c0.457-0.923,1.396-1.507,2.424-1.507s1.969,0.584,2.422,1.507l6.311,12.786l14.109,2.05c1.018,0.148,1.863,0.861,2.182,1.839
		C337.799,127.336,337.533,128.411,336.797,129.128z M401.641,129.128l-10.211,9.953l2.412,14.054
		c0.172,1.015-0.244,2.038-1.076,2.643c-0.469,0.342-1.027,0.516-1.588,0.516c-0.43,0-0.861-0.103-1.26-0.31l-12.619-6.635
		l-12.619,6.635c-0.912,0.478-2.014,0.398-2.846-0.206c-0.834-0.604-1.25-1.628-1.076-2.643l2.41-14.054l-10.209-9.953
		c-0.734-0.718-1.002-1.792-0.684-2.769c0.318-0.978,1.162-1.691,2.182-1.839l14.109-2.05l6.311-12.786
		c0.455-0.923,1.395-1.507,2.422-1.507c1.029,0,1.967,0.584,2.422,1.507l6.311,12.786l14.111,2.05
		c1.02,0.148,1.863,0.861,2.18,1.839C402.643,127.336,402.375,128.411,401.641,129.128z M466.482,129.128l-10.211,9.953l2.41,14.054
		c0.174,1.015-0.24,2.038-1.074,2.643c-0.469,0.342-1.027,0.516-1.588,0.516c-0.43,0-0.861-0.103-1.258-0.31l-12.621-6.635
		l-12.621,6.635c-0.91,0.478-2.012,0.398-2.844-0.206c-0.834-0.604-1.248-1.628-1.076-2.643l2.412-14.054l-10.211-9.953
		c-0.736-0.718-1-1.792-0.684-2.769c0.318-0.978,1.164-1.691,2.182-1.839l14.111-2.05l6.311-12.786
		c0.453-0.923,1.393-1.507,2.42-1.507s1.969,0.584,2.424,1.507l6.311,12.786l14.109,2.05c1.018,0.148,1.863,0.861,2.182,1.839
		C467.484,127.336,467.219,128.411,466.482,129.128z"/>
	<path d="M169.719,129.8c-46.76,0-72.639,24.231-72.166,70.921c0.686,63.947,27.859,102.74,72.166,102.063
		c0,0,72.131,2.924,72.131-102.063C241.85,154.031,217.48,129.8,169.719,129.8z"/>
	<path d="M297.303,351.32l-72.074-28.736l-16.877-14.223c-4.457-3.766-11.041-3.488-15.178,0.622l-23.463,23.335l-23.533-23.341
		c-4.137-4.104-10.713-4.37-15.164-0.616l-16.881,14.223l-72.074,28.739c-23.209,9.243-23.189,91.436-25.184,98.98h305.646
		C320.531,442.776,320.521,360.554,297.303,351.32z"/>
</g>
</svg>
