<?xml version="1.0" encoding="utf-8"?>
<!-- Generator: Adobe Illustrator 16.0.0, SVG Export Plug-In . SVG Version: 6.00 Build 0)  -->
<!DOCTYPE svg PUBLIC "-//W3C//DTD SVG 1.1//EN" "http://www.w3.org/Graphics/SVG/1.1/DTD/svg11.dtd">
<svg version="1.1" id="Layer_1" xmlns="http://www.w3.org/2000/svg" xmlns:xlink="http://www.w3.org/1999/xlink" x="0px" y="0px"
	 width="512px" height="512px" viewBox="0 0 512 512" enable-background="new 0 0 512 512" xml:space="preserve">
<path d="M379.274,165.786c-10.112-28.828-37.549-49.506-69.831-49.506c-7.918,0-15.539,1.257-22.691,3.559
	C270.091,91.39,239.209,72.28,203.859,72.28c-53.02,0-96,42.98-96,96c0,1.761,0.051,3.51,0.145,5.247
	c-29.678,14.371-50.145,44.774-50.145,79.961c0,49.038,39.753,88.792,88.792,88.792h3.417l46.598,81.076
	c5.787,10.068,16.597,16.338,28.265,16.364h0.014c11.592,0,22.405-6.23,28.217-16.257l47.071-81.183h65.114
	c49.038,0,88.792-39.754,88.792-88.792C454.141,209.188,421.697,172.469,379.274,165.786z M346.809,218.024
	c-0.264,3.845-3.358,6.887-7.207,7.085c-2.964,0.153-6.083,0.699-8.742,1.214c-21.952,4.241-41.49,15.177-55.018,30.792
	c-6.036,6.968-10.926,14.993-14.141,23.207c-3.813,9.739-6.362,19.292-7.613,28.499l23.435-0.036c0.004,0,0.008,0,0.012,0
	c2.722,0,5.237,1.452,6.598,3.81c1.363,2.361,1.36,5.271-0.007,7.629l-52.589,90.699c-1.362,2.35-3.874,3.797-6.59,3.797
	c-0.005,0-0.009,0-0.014,0c-2.722-0.006-5.234-1.462-6.591-3.822l-52.155-90.744c-1.354-2.357-1.351-5.258,0.011-7.611
	c1.361-2.354,3.874-3.803,6.593-3.803l26.89-0.004c4.375-13.708,9.316-25.211,15.066-35.083c4.407-7.565,8.766-13.948,13.327-19.513
	c4.167-5.084,8.861-10.026,14.351-15.106c4.66-4.313,10.282-8.471,17.187-12.709c11.172-6.859,23.886-11.813,38.867-15.144
	c0.109-0.024,0.218-0.046,0.328-0.065c8.564-1.513,15.762-2.274,22.652-2.392c0.964-0.017,1.933-0.026,2.906-0.026
	c6.376,0,11.547,0.42,16.274,1.323C344.423,210.743,347.073,214.179,346.809,218.024z"/>
</svg>
