<?xml version="1.0" encoding="utf-8"?>
<!-- Generator: Adobe Illustrator 16.0.0, SVG Export Plug-In . SVG Version: 6.00 Build 0)  -->
<!DOCTYPE svg PUBLIC "-//W3C//DTD SVG 1.1//EN" "http://www.w3.org/Graphics/SVG/1.1/DTD/svg11.dtd">
<svg version="1.1" id="Layer_1" xmlns="http://www.w3.org/2000/svg" xmlns:xlink="http://www.w3.org/1999/xlink" x="0px" y="0px"
	 width="512px" height="512px" viewBox="0 0 512 512" enable-background="new 0 0 512 512" xml:space="preserve">
<path d="M379.274,165.786c-10.112-28.828-37.549-49.506-69.831-49.506c-7.918,0-15.539,1.257-22.691,3.559
	C270.091,91.39,239.209,72.28,203.859,72.28c-53.02,0-96,42.98-96,96c0,1.761,0.051,3.51,0.145,5.247
	c-29.678,14.371-50.145,44.774-50.145,79.961c0,49.038,39.753,88.792,88.792,88.792h56.961c-1.634,2.665-3.492,5.246-5.576,7.65
	c-9.877,11.401-24.392,19.433-40.873,22.618c-1.094,0.211-3.656,0.708-5.281,0.792c-16.463,0.85-29.73,13.893-30.859,30.339
	c-1.129,16.446,10.229,31.18,26.423,34.274c6.312,1.206,12.973,1.767,20.964,1.767c1.115,0,2.225-0.011,3.335-0.03
	c8.235-0.142,16.663-1.019,26.473-2.752c0.48-0.083,0.956-0.176,1.504-0.297c17.732-3.943,32.949-9.91,46.521-18.242
	c8.315-5.105,15.213-10.23,21.087-15.667c6.342-5.868,11.807-11.628,16.707-17.608c5.412-6.604,10.512-14.054,15.594-22.778
	c3.62-6.215,6.904-12.841,9.947-20.066h55.771c49.038,0,88.792-39.754,88.792-88.792
	C454.141,209.188,421.697,172.469,379.274,165.786z M326.565,310.874c-1.361,2.354-3.874,3.803-6.593,3.803l-26.89,0.004
	c-4.375,13.708-9.316,25.211-15.066,35.083c-4.407,7.565-8.766,13.948-13.327,19.513c-4.167,5.084-8.861,10.026-14.351,15.106
	c-4.66,4.313-10.282,8.471-17.187,12.709c-11.172,6.859-23.886,11.813-38.867,15.144c-0.109,0.024-0.218,0.046-0.328,0.065
	c-8.564,1.513-15.762,2.274-22.652,2.392c-0.964,0.017-1.933,0.026-2.906,0.026c-6.376,0-11.547-0.42-16.274-1.323
	c-3.786-0.723-6.435-4.159-6.171-8.004s3.358-6.887,7.207-7.085c2.964-0.153,6.083-0.699,8.742-1.214
	c21.952-4.241,41.49-15.177,55.018-30.792c6.036-6.968,10.926-14.993,14.141-23.207c3.813-9.739,6.362-19.292,7.613-28.499
	l-23.435,0.036c-0.004,0-0.008,0-0.012,0c-2.722,0-5.237-1.452-6.598-3.81c-1.363-2.361-1.36-5.271,0.007-7.629l52.589-90.699
	c1.362-2.35,3.874-3.797,6.59-3.797c0.005,0,0.009,0,0.014,0c2.722,0.006,5.234,1.462,6.591,3.822l52.155,90.744
	C327.931,305.62,327.927,308.521,326.565,310.874z"/>
</svg>
