<?xml version="1.0" encoding="utf-8"?>
<!-- Generator: Adobe Illustrator 16.0.0, SVG Export Plug-In . SVG Version: 6.00 Build 0)  -->
<!DOCTYPE svg PUBLIC "-//W3C//DTD SVG 1.1//EN" "http://www.w3.org/Graphics/SVG/1.1/DTD/svg11.dtd">
<svg version="1.1" id="Layer_2" xmlns="http://www.w3.org/2000/svg" xmlns:xlink="http://www.w3.org/1999/xlink" x="0px" y="0px"
	 width="512px" height="512px" viewBox="0 0 512 512" enable-background="new 0 0 512 512" xml:space="preserve">
<path d="M393.211,343.667c42.961,0,77.789-34.828,77.789-77.79c0-37.407-26.403-68.643-61.59-76.097
	c0.01-0.563,0.021-1.127,0.021-1.693c0-58.03-47.042-105.074-105.073-105.074c-38.622,0-72.37,20.842-90.63,51.888
	c-2.631-0.27-5.301-0.408-8.005-0.408c-34.894,0-64.422,22.976-74.282,54.624c-4.117-0.673-8.342-1.029-12.651-1.029
	c-42.962,0-77.789,34.827-77.789,77.79c0,42.962,34.827,77.79,77.789,77.79h125.907v30.857H215.41
	c-5.676,0-10.276,4.601-10.276,10.276v5.651h-86.407v22.607h86.407v5.651c0,5.676,4.601,10.276,10.276,10.276h81.18
	c5.676,0,10.276-4.601,10.276-10.276v-5.651h86.407v-22.607h-86.407v-5.651c0-5.676-4.601-10.276-10.276-10.276h-29.286v-30.857
	H393.211z"/>
</svg>
