<?xml version="1.0" encoding="utf-8"?>
<!-- Generator: Adobe Illustrator 16.0.0, SVG Export Plug-In . SVG Version: 6.00 Build 0)  -->
<!DOCTYPE svg PUBLIC "-//W3C//DTD SVG 1.1//EN" "http://www.w3.org/Graphics/SVG/1.1/DTD/svg11.dtd">
<svg version="1.1" id="Layer_1" xmlns="http://www.w3.org/2000/svg" xmlns:xlink="http://www.w3.org/1999/xlink" x="0px" y="0px"
	 width="512px" height="512px" viewBox="0 0 512 512" enable-background="new 0 0 512 512" xml:space="preserve">
<g>
	<path d="M422.684,80.971H89.316C70.945,80.971,56,95.917,56,114.288v217.272c0,18.371,14.945,33.317,33.316,33.317h107.412
		l-20.387,44.956c-2.105,4.643-1.709,10.037,1.053,14.321c2.762,4.285,7.51,6.874,12.607,6.874h131.996c0,0,0.014-0.001,0.02,0
		c8.285,0,15-6.716,15-15c0-2.494-0.607-4.847-1.686-6.916l-20.061-44.235h107.412c18.371,0,33.316-14.946,33.316-33.317V114.288
		C456,95.917,441.055,80.971,422.684,80.971z M426,331.561c0,1.829-1.488,3.317-3.316,3.317H89.316
		c-1.828,0-3.316-1.488-3.316-3.317V114.288c0-1.829,1.488-3.317,3.316-3.317h333.367c1.828,0,3.316,1.488,3.316,3.317V331.561z"/>
	<path d="M326.717,158.373c-0.875-0.532-21.941-13.063-70.717-13.063c-48.774,0-69.844,12.531-70.716,13.063
		c-2.779,1.697-4.415,4.771-4.276,8.022c0.041,0.958,1.11,23.836,10.078,52.987c5.285,17.18,12.238,33.006,20.669,47.054
		c10.647,17.738,23.686,32.667,38.757,44.371c1.613,1.255,3.549,1.883,5.488,1.883c1.94,0,3.875-0.628,5.488-1.883
		c15.07-11.704,28.109-26.633,38.756-44.371c8.43-14.048,15.385-29.874,20.67-47.054c8.969-29.151,10.038-52.029,10.078-52.987
		C331.131,163.144,329.494,160.07,326.717,158.373z M289.231,201.784l-39.563,39.557c-1.143,1.152-2.665,1.781-4.279,1.781
		c-1.619,0-3.141-0.629-4.291-1.781l-18.328-18.363c-2.359-2.362-2.359-6.2,0-8.563l3.529-3.53c1.148-1.136,2.671-1.765,4.287-1.765
		s3.131,0.623,4.271,1.765l10.528,10.493l31.719-31.719c1.146-1.149,2.664-1.781,4.284-1.781c1.619,0,3.139,0.632,4.278,1.781
		l3.563,3.561C291.59,195.581,291.59,199.422,289.231,201.784z"/>
</g>
</svg>
