<?xml version="1.0" encoding="utf-8"?>
<!-- Generator: Adobe Illustrator 16.0.0, SVG Export Plug-In . SVG Version: 6.00 Build 0)  -->
<!DOCTYPE svg PUBLIC "-//W3C//DTD SVG 1.1//EN" "http://www.w3.org/Graphics/SVG/1.1/DTD/svg11.dtd">
<svg version="1.1" id="Layer_2" xmlns="http://www.w3.org/2000/svg" xmlns:xlink="http://www.w3.org/1999/xlink" x="0px" y="0px"
	 width="512px" height="512px" viewBox="0 0 512 512" enable-background="new 0 0 512 512" xml:space="preserve">
<g>
	<path d="M433.75,303.71c-1.301-0.755-2.627-1.428-3.967-2.034v-98.465c1.34-0.606,2.666-1.28,3.967-2.034
		c21.277-12.283,28.566-39.483,16.281-60.761c-12.277-21.271-39.484-28.561-60.756-16.277c-1.305,0.75-2.551,1.561-3.746,2.42
		l-85.271-49.234c0.146-1.465,0.223-2.949,0.223-4.452c0-24.564-19.914-44.479-44.482-44.479c-24.564,0-44.479,19.914-44.479,44.479
		c0,1.503,0.076,2.987,0.225,4.452l-85.271,49.234c-1.199-0.859-2.443-1.67-3.748-2.42c-21.271-12.283-48.477-4.994-60.756,16.281
		c-12.287,21.273-4.994,48.474,16.281,60.757c1.301,0.754,2.627,1.429,3.965,2.034v98.465c-1.338,0.606-2.664,1.279-3.965,2.034
		c-21.275,12.283-28.564,39.483-16.281,60.761c7.129,12.351,19.291,19.975,32.398,21.805c4.965-13.072,11.986-22.754,22.213-26.826
		l45.135-17.998h-16.758c-0.121-7.307-2.037-14.685-5.949-21.462c-3.912-6.776-9.342-12.126-15.613-15.885l21.541-37.3l38.17,66.117
		l6.809-2.716l5.52-4.648l-42.207-73.114l12.713-22.021c-0.355-4.813-0.572-9.753-0.627-14.831
		c-0.049-4.841,0.199-9.516,0.707-14.031l-21.084,36.522l-21.541-37.299c6.271-3.758,11.701-9.108,15.613-15.884
		c3.91-6.778,5.828-14.156,5.947-21.464h34.225c3.461-5.305,7.537-10.104,12.189-14.362H142.84
		c-1.359-4.234-3.357-8.269-5.938-11.954l78.775-45.479c1.896,4.079,4.391,7.826,7.385,11.118l-22.633,39.195
		c6.758-4.546,14.393-8.188,22.84-10.833l11.168-19.345c6.393,3.547,13.74,5.574,21.561,5.574c7.824,0,15.172-2.027,21.564-5.575
		l11.176,19.359c8.453,2.648,16.092,6.298,22.852,10.852l-22.652-39.228c2.994-3.292,5.49-7.039,7.385-11.118l78.773,45.479
		c-2.58,3.686-4.576,7.72-5.936,11.954h-48.559c4.652,4.258,8.729,9.058,12.191,14.362h34.252
		c0.117,7.307,2.035,14.685,5.947,21.461c3.91,6.777,9.342,12.127,15.613,15.886l-21.541,37.3l-21.127-36.598
		c0.514,4.537,0.762,9.235,0.711,14.102c-0.053,5.06-0.268,9.981-0.621,14.777l12.748,22.08l-42.219,73.132l5.496,4.631l6.836,2.727
		l38.176-66.128l21.541,37.299c-6.271,3.756-11.701,9.107-15.611,15.883c-3.912,6.777-5.828,14.158-5.949,21.465h-16.787
		l45.133,17.995c10.23,4.068,17.254,13.752,22.223,26.83c13.115-1.825,25.287-9.451,32.42-21.808
		C462.316,343.194,455.027,315.993,433.75,303.71z M136.637,252.443l-26.734,46.313c-4.348-0.941-8.838-1.229-13.322-0.836v-90.955
		c4.484,0.392,8.975,0.105,13.322-0.836L136.637,252.443z M415.42,297.92c-4.484-0.392-8.977-0.105-13.32,0.837l-26.736-46.313
		L402.1,206.13c4.346,0.941,8.836,1.228,13.32,0.836V297.92z"/>
	<path d="M256.021,327.113c0,0,76.52,3.103,76.52-108.271c0-49.531-25.852-75.235-76.52-75.235
		c-49.604,0-77.057,25.705-76.557,75.235C180.193,286.678,209.02,327.831,256.021,327.113z"/>
	<path d="M391.367,378.601l-76.457-30.483l-17.904-15.088c-4.73-3.995-11.715-3.701-16.1,0.659l-24.891,24.755l-24.967-24.761
		c-4.387-4.354-11.363-4.636-16.088-0.653l-17.906,15.088l-76.459,30.487c-24.619,9.806-24.602,96.998-26.715,105.002h324.238
		C416.01,475.622,415.998,388.397,391.367,378.601z"/>
</g>
</svg>
