<?xml version="1.0" encoding="utf-8"?>
<!-- Generator: Adobe Illustrator 16.0.0, SVG Export Plug-In . SVG Version: 6.00 Build 0)  -->
<!DOCTYPE svg PUBLIC "-//W3C//DTD SVG 1.1//EN" "http://www.w3.org/Graphics/SVG/1.1/DTD/svg11.dtd">
<svg version="1.1" id="Layer_1" xmlns="http://www.w3.org/2000/svg" xmlns:xlink="http://www.w3.org/1999/xlink" x="0px" y="0px"
	 width="512px" height="512px" viewBox="0 0 512 512" enable-background="new 0 0 512 512" xml:space="preserve">
<g>
	<path d="M87.155,436.5V71.047h198.906v55.416c0,5.6,4.535,10.133,10.13,10.133h53.792l0.005,107.58
		c1.39,0.861,2.662,1.859,3.799,2.98c0.662-0.578,1.335-1.143,2.031-1.684c3.718-2.898,8.417-4.514,13.188-4.514
		c2.831,0,5.641,0.572,8.249,1.654V121.516c0-2.168-0.861-4.248-2.396-5.787l-69.563-69.561c-1.533-1.533-3.613-2.395-5.785-2.395
		H84.429c-13.534,0-24.546,11.008-24.546,24.543V439.23c0,13.533,11.012,24.543,24.546,24.543h210.525
		c-3.801-7.332-7.117-16.381-10.009-27.273H87.155z"/>
	<path d="M417.568,352.41c-0.882-2.268-3.073-3.881-5.654-3.881H297.346c-3.359,0-6.083,2.723-6.083,6.082v2.674
		c0,9.336,6.287,95.51,28.864,109.498l0.826,0.518c0.968,0.605,2.085,0.926,3.228,0.926h60.898c1.14,0,2.26-0.32,3.228-0.926
		l0.802-0.5c4.823-2.99,8.901-9.285,12.334-17.402c20.742-5.406,50.675-22.539,50.675-59.48
		C452.117,354.686,433.074,352.541,417.568,352.41z M408.143,428.598c5.171-20.643,7.93-44.438,9.12-58.873
		c13.736,0.055,17.541,1.107,17.541,20.193C434.804,411.729,420.34,422.984,408.143,428.598z"/>
	<path d="M336.977,261.148c-0.531-0.293-1.188-0.242-1.669,0.133c-10.918,8.463-14.942,26.35-8.614,38.266
		c3.031,5.713,5.433,10.547,6.488,16.414c1.118,6.232,1.327,12.725,1.528,19.006l0.012,0.297c0.019,0.604,0.397,1.143,0.962,1.365
		c0.181,0.072,0.369,0.104,0.557,0.104c0.397,0,0.788-0.154,1.079-0.445c9.701-9.77,11.697-27.602,4.546-40.594
		c-3.063-5.564-4.521-10.059-4.874-15.025c-0.431-6.057,0.176-12.148,0.763-18.039C337.813,262.027,337.509,261.445,336.977,261.148
		z"/>
	<path d="M367.288,261.148c-0.531-0.293-1.188-0.242-1.669,0.133c-10.918,8.463-14.942,26.35-8.614,38.266
		c3.031,5.713,5.433,10.547,6.488,16.414c1.119,6.232,1.327,12.725,1.528,19.006l0.012,0.297c0.019,0.604,0.397,1.143,0.962,1.365
		c0.181,0.072,0.369,0.104,0.557,0.104c0.397,0,0.788-0.154,1.079-0.445c9.701-9.77,11.697-27.602,4.547-40.594
		c-3.063-5.564-4.521-10.059-4.874-15.025c-0.432-6.057,0.175-12.148,0.762-18.039C368.124,262.027,367.82,261.445,367.288,261.148z
		"/>
	<path d="M250.863,111.134H117.37c-7.18,0-13,5.82-13,13s5.82,13,13,13h133.493c7.18,0,13-5.82,13-13
		S258.043,111.134,250.863,111.134z"/>
	<path d="M117.37,197.134h91.493c7.18,0,13-5.82,13-13s-5.82-13-13-13H117.37c-7.18,0-13,5.82-13,13S110.19,197.134,117.37,197.134z
		"/>
	<path d="M263.863,244.134c0-7.18-5.82-13-13-13H117.37c-7.18,0-13,5.82-13,13s5.82,13,13,13h133.493
		C258.043,257.134,263.863,251.313,263.863,244.134z"/>
	<path d="M117.37,291.134c-7.18,0-13,5.82-13,13s5.82,13,13,13h103.493c7.18,0,13-5.82,13-13s-5.82-13-13-13H117.37z"/>
</g>
</svg>
