<?xml version="1.0" encoding="utf-8"?>
<!-- Generator: Adobe Illustrator 16.0.0, SVG Export Plug-In . SVG Version: 6.00 Build 0)  -->
<!DOCTYPE svg PUBLIC "-//W3C//DTD SVG 1.1//EN" "http://www.w3.org/Graphics/SVG/1.1/DTD/svg11.dtd">
<svg version="1.1" id="Layer_2" xmlns="http://www.w3.org/2000/svg" xmlns:xlink="http://www.w3.org/1999/xlink" x="0px" y="0px"
	 width="512px" height="512px" viewBox="0 0 512 512" enable-background="new 0 0 512 512" xml:space="preserve">
<g>
	<path d="M415.508,211.74H78.611c-5.523,0-10,4.477-10,10v218c0,5.523,4.477,10,10,10h336.896c5.523,0,10-4.477,10-10v-218
		C425.508,216.217,421.031,211.74,415.508,211.74z M283.726,393.15c0,5.523-4.477,10-10,10h-156c-5.523,0-10-4.477-10-10v-1
		c0-5.523,4.477-10,10-10h156c5.523,0,10,4.477,10,10V393.15z M386.265,301.437c0,5.523-4.477,10-10,10h-44.842
		c-5.523,0-10-4.477-10-10v-44.842c0-5.523,4.477-10,10-10h44.842c5.523,0,10,4.477,10,10V301.437z"/>
	<path d="M435.317,127.509L104.763,62.45c-5.419-1.067-10.676,2.461-11.742,7.88l-9.35,47.499l350.179,68.922l9.349-47.499
		C444.265,133.833,440.737,128.576,435.317,127.509z"/>
	<path d="M258.063,191.74l-181.892-35.8l-7.051,35.824c0.323-0.01,0.646-0.024,0.972-0.024H258.063z"/>
</g>
</svg>
