<?xml version="1.0" encoding="utf-8"?>
<!-- Generator: Adobe Illustrator 16.0.0, SVG Export Plug-In . SVG Version: 6.00 Build 0)  -->
<!DOCTYPE svg PUBLIC "-//W3C//DTD SVG 1.1//EN" "http://www.w3.org/Graphics/SVG/1.1/DTD/svg11.dtd">
<svg version="1.1" id="Layer_1" xmlns="http://www.w3.org/2000/svg" xmlns:xlink="http://www.w3.org/1999/xlink" x="0px" y="0px"
	 width="512px" height="512px" viewBox="0 0 512 512" enable-background="new 0 0 512 512" xml:space="preserve">
<g>
	<path d="M306.855,383.984c4.098-5.188,9.486-9.123,15.58-11.448c-7.477-12.797-11.598-27.494-11.779-42.463
		c-0.021-1.817,0.035-3.632,0.127-5.439l-22.256-8.874l-19.711-16.606c-5.205-4.397-12.895-4.074-17.721,0.727l-27.4,27.247
		l-27.48-27.257c-4.83-4.791-12.508-5.103-17.709-0.717l-19.709,16.606l-84.166,33.562c-27.1,10.791-27.08,106.771-29.406,115.581
		h230.729c-3.402-4.858-5.57-10.51-6.287-16.565c-1.141-9.646,1.545-19.158,7.559-26.783L306.855,383.984z"/>
	<path d="M396.385,414.901c-0.004,0-0.004,0-0.006,0c-8.424-0.002-16.865-1.266-24.922-3.701c-0.842,6.467-3.41,12.629-7.504,17.814
		l-28.303,35.888h66.486c-1.061-4.006-1.639-26.113-4.52-50.019C397.205,414.89,396.797,414.901,396.385,414.901z"/>
	<path d="M164.961,131.126c15.574,7.396,36.426,11.47,58.721,11.47c22.293,0,43.146-4.073,58.719-11.47
		c9.617-4.574,16.367-10.071,19.572-15.768c-0.1-0.036-0.193-0.068-0.293-0.103c-9.432-114.567-66.672-50.064-77.998-50.064
		c-11.328,0-68.568-64.503-78,50.064c-0.1,0.034-0.195,0.066-0.293,0.103C148.592,121.055,155.342,126.552,164.961,131.126z"/>
	<path d="M139.773,184.632c3.695,67.991,39.098,108.023,83.893,108.023s80.172-40.026,83.877-108.007
		c21.73-8.581,35.189-20.473,35.189-33.612c0-11.674-10.625-22.365-28.232-30.623c-4.352,8.786-13.338,16.645-26.344,22.826
		c-17.334,8.235-40.236,12.772-64.475,12.772c-24.24,0-47.143-4.537-64.479-12.772c-13.004-6.182-21.99-14.04-26.342-22.826
		c-17.607,8.258-28.232,18.949-28.232,30.623C104.629,164.168,118.068,176.054,139.773,184.632z"/>
	<path d="M440.039,273.906c-30.438-24.006-74.73-18.774-98.734,11.664c-20.68,26.218-19.658,62.725,0.482,87.679l-10.064,12.764
		c-4.818,0.877-9.346,3.441-12.619,7.588l-29.633,37.572c-7.125,9.031-5.576,22.13,3.457,29.253
		c9.031,7.124,22.129,5.577,29.256-3.455l29.631-37.572c3.271-4.147,4.709-9.148,4.439-14.039l10.064-12.76
		c28.965,13.771,64.699,6.262,85.383-19.962C475.707,342.203,470.475,297.91,440.039,273.906z M435.342,359.739
		c-16.891,21.418-48.059,25.1-69.475,8.207c-21.42-16.894-25.1-48.06-8.207-69.479s48.061-25.101,69.477-8.209
		C448.555,307.152,452.236,338.32,435.342,359.739z"/>
</g>
</svg>
