<?xml version="1.0" encoding="utf-8"?>
<!-- Generator: Adobe Illustrator 16.0.0, SVG Export Plug-In . SVG Version: 6.00 Build 0)  -->
<!DOCTYPE svg PUBLIC "-//W3C//DTD SVG 1.1//EN" "http://www.w3.org/Graphics/SVG/1.1/DTD/svg11.dtd">
<svg version="1.1" id="Layer_2" xmlns="http://www.w3.org/2000/svg" xmlns:xlink="http://www.w3.org/1999/xlink" x="0px" y="0px"
	 width="512px" height="512px" viewBox="0 0 512 512" enable-background="new 0 0 512 512" xml:space="preserve">
<g>
	<path d="M479.172,273.979l-37.869-37.868c-4.18-4.18-9.553-6.434-15.018-6.777l-12.865-12.863
		c19.111-30.382,15.453-71.088-10.975-97.517c-30.678-30.677-80.59-30.677-111.27,0c-30.676,30.677-30.676,80.593,0.002,111.269
		c26.428,26.43,67.135,30.086,97.518,10.976l12.861,12.862c0.344,5.468,2.598,10.84,6.777,15.019l37.869,37.869
		c9.105,9.106,23.863,9.104,32.969,0C488.275,297.845,488.277,283.085,479.172,273.979z M385.963,213.739
		c-21.588,21.587-56.715,21.587-78.301,0c-21.586-21.59-21.586-56.713-0.002-78.301c21.588-21.588,56.709-21.588,78.303,0.001
		C407.549,157.026,407.549,192.15,385.963,213.739z"/>
	<path d="M348.043,141.201c-19.277,0-34.957,15.683-34.957,34.958c0,1.78,0.135,3.526,0.395,5.235l-9.127,5.324
		c2.002,7.135,5.791,13.868,11.393,19.47c0.258,0.257,0.523,0.497,0.783,0.746l8.182-4.772c6.188,5.563,14.369,8.954,23.332,8.954
		c19.273,0,34.955-15.682,34.955-34.957S367.316,141.201,348.043,141.201z M348.043,187.52c-6.266,0-11.361-5.096-11.361-11.36
		s5.096-11.36,11.361-11.36c6.26,0,11.359,5.096,11.359,11.36S354.303,187.52,348.043,187.52z"/>
	<path d="M241.58,253.213c0-0.838-0.041-1.667-0.098-2.49l35.701-20.829c-4.984-6.314-8.994-13.147-12.029-20.302l-33.322,19.441
		c-6.365-6.635-15.309-10.777-25.207-10.777c-12.352,0-23.221,6.443-29.438,16.141l-81.428-31.87c0.096-1.057,0.15-2.125,0.15-3.207
		c0-19.276-15.678-34.958-34.955-34.958C41.682,164.361,26,180.043,26,199.319c0,19.275,15.682,34.957,34.955,34.957
		c9.68,0,18.447-3.955,24.785-10.331l86.225,33.746c2.205,17.168,16.902,30.479,34.66,30.479
		C225.898,288.17,241.58,272.488,241.58,253.213z M60.955,210.68c-6.262,0-11.359-5.097-11.359-11.36
		c0-6.265,5.098-11.361,11.359-11.361c6.264,0,11.359,5.097,11.359,11.361C72.314,205.583,67.219,210.68,60.955,210.68z
		 M206.625,264.573c-6.266,0-11.361-5.096-11.361-11.36s5.096-11.361,11.361-11.361c6.264,0,11.359,5.097,11.359,11.361
		S212.889,264.573,206.625,264.573z"/>
	<path d="M290.723,243.726l-36.305,21.183c-2.404,22.491-20.385,40.39-42.91,42.673v108.473h160.516V260.448
		c-7.971,2.279-16.27,3.458-24.684,3.458C326.432,263.906,306.635,256.798,290.723,243.726z"/>
	<path d="M160.691,273.913l-72.555-28.398c-7.945,5.478-17.338,8.425-27.182,8.425c-8.729,0-16.914-2.351-23.98-6.436v168.55
		h160.518V306.947C180.162,303.579,165.902,290.827,160.691,273.913z"/>
</g>
</svg>
