<?xml version="1.0" encoding="utf-8"?>
<!-- Generator: Adobe Illustrator 16.0.0, SVG Export Plug-In . SVG Version: 6.00 Build 0)  -->
<!DOCTYPE svg PUBLIC "-//W3C//DTD SVG 1.1//EN" "http://www.w3.org/Graphics/SVG/1.1/DTD/svg11.dtd">
<svg version="1.1" id="Layer_1" xmlns="http://www.w3.org/2000/svg" xmlns:xlink="http://www.w3.org/1999/xlink" x="0px" y="0px"
	 width="512px" height="512px" viewBox="0 0 512 512" enable-background="new 0 0 512 512" xml:space="preserve">
<g>
	<path d="M440.622,170.918l-60.975-60.977c-1.345-1.346-3.169-2.1-5.071-2.1h-27.1v-3.693c0-1.904-0.755-3.726-2.101-5.073
		L284.4,38.101c-1.344-1.345-3.168-2.101-5.071-2.101H90.793c-11.864,0-21.516,9.651-21.516,21.516v325.127
		c0,11.863,9.652,21.516,21.516,21.516h73.73v50.326c0,11.864,9.652,21.516,21.515,21.516h235.167
		c11.864,0,21.516-9.651,21.516-21.516V175.988C442.723,174.087,441.967,172.263,440.622,170.918z M93.184,59.907h174.354v48.577
		c0,4.905,3.976,8.881,8.88,8.881h47.152l0.011,262.886H93.184V59.907z M188.43,452.093v-47.935h137.531
		c11.863,0,21.515-9.652,21.515-21.516V131.749h15.309v48.578c0,4.902,3.976,8.878,8.879,8.878h47.153l0.011,262.888H188.43z"/>
	<path d="M379.588,384.397h-16.744c-3.204,0-5.811,2.605-5.811,5.81v42.729c0,3.204,2.607,5.811,5.811,5.811h16.744
		c15.274,0,27.7-12.178,27.7-27.145C407.288,396.602,394.862,384.397,379.588,384.397z M379.588,426.513h-10.32v-29.882h10.32
		c8.529,0,15.468,6.717,15.468,14.972C395.056,419.823,388.117,426.513,379.588,426.513z"/>
</g>
</svg>
