<?xml version="1.0" encoding="utf-8"?>
<!-- Generator: Adobe Illustrator 16.0.0, SVG Export Plug-In . SVG Version: 6.00 Build 0)  -->
<!DOCTYPE svg PUBLIC "-//W3C//DTD SVG 1.1//EN" "http://www.w3.org/Graphics/SVG/1.1/DTD/svg11.dtd">
<svg version="1.1" id="Layer_2" xmlns="http://www.w3.org/2000/svg" xmlns:xlink="http://www.w3.org/1999/xlink" x="0px" y="0px"
	 width="512px" height="512px" viewBox="0 0 512 512" enable-background="new 0 0 512 512" xml:space="preserve">
<g>
	<path d="M283,244.896h-7V113.383c0-11.046-8.954-20-20-20s-20,8.954-20,20v131.514h-7c-16.568,0-30,13.432-30,30v2.207
		c0,16.568,13.432,30,30,30h7v91.514c0,11.046,8.954,20,20,20s20-8.954,20-20v-91.514h7c16.568,0,30-13.432,30-30v-2.207
		C313,258.328,299.568,244.896,283,244.896z M266.834,287h-21.668c-6.074,0-11-4.925-11-11s4.926-11,11-11h21.668
		c6.074,0,11,4.925,11,11S272.908,287,266.834,287z"/>
	<path d="M131.754,184.896h-7v-71.514c0-11.046-8.955-20-20-20c-11.046,0-20,8.954-20,20v71.514h-7c-16.568,0-30,13.432-30,30v2.207
		c0,16.568,13.432,30,30,30h7v151.514c0,11.046,8.954,20,20,20c11.045,0,20-8.954,20-20V247.104h7c16.568,0,30-13.432,30-30v-2.207
		C161.754,198.328,148.322,184.896,131.754,184.896z M115.588,227H93.92c-6.074,0-11-4.925-11-11s4.926-11,11-11h21.668
		c6.074,0,11,4.925,11,11S121.662,227,115.588,227z"/>
	<path d="M434.246,154.896h-7v-41.514c0-11.046-8.954-20-20-20c-11.047,0-20,8.954-20,20v41.514h-7c-16.568,0-30,13.432-30,30v2.207
		c0,16.568,13.432,30,30,30h7v181.514c0,11.046,8.953,20,20,20c11.046,0,20-8.954,20-20V217.104h7c16.568,0,30-13.432,30-30v-2.207
		C464.246,168.328,450.814,154.896,434.246,154.896z M418.08,197h-21.668c-6.074,0-11-4.925-11-11s4.926-11,11-11h21.668
		c6.074,0,11,4.925,11,11S424.154,197,418.08,197z"/>
</g>
</svg>
