<?xml version="1.0" encoding="utf-8"?>
<!-- Generator: Adobe Illustrator 16.0.0, SVG Export Plug-In . SVG Version: 6.00 Build 0)  -->
<!DOCTYPE svg PUBLIC "-//W3C//DTD SVG 1.1//EN" "http://www.w3.org/Graphics/SVG/1.1/DTD/svg11.dtd">
<svg version="1.1" id="Layer_1" xmlns="http://www.w3.org/2000/svg" xmlns:xlink="http://www.w3.org/1999/xlink" x="0px" y="0px"
	 width="512px" height="512px" viewBox="0 0 512 512" enable-background="new 0 0 512 512" xml:space="preserve">
<g>
	<path d="M473.709,249.605c-0.99-1.191-24.713-29.507-63.234-58.15C359.009,153.187,305.593,132.959,256,132.959
		c-49.592,0-103.008,20.228-154.474,58.496c-38.521,28.643-62.245,56.959-63.235,58.15c-3.083,3.706-3.083,9.084,0,12.79
		c0.99,1.191,24.714,29.507,63.235,58.15c51.466,38.268,104.882,58.496,154.474,58.496c49.593,0,103.009-20.228,154.475-58.496
		c38.521-28.643,62.244-56.959,63.234-58.15C476.792,258.689,476.792,253.311,473.709,249.605z M256,331
		c-41.422,0-75.002-33.579-75.002-75s33.58-75,75.002-75s75,33.579,75,75S297.422,331,256,331z"/>
	<path d="M269.994,223.918c-2.16,5.631-7.604,9.636-13.994,9.636s-11.834-4.004-13.994-9.635C229.644,229.319,221,241.647,221,256
		c0,19.33,15.671,35,35,35c19.33,0,35-15.67,35-35C291,241.647,282.357,229.319,269.994,223.918z"/>
</g>
</svg>
