<?xml version="1.0" encoding="utf-8"?>
<!-- Generator: Adobe Illustrator 16.0.0, SVG Export Plug-In . SVG Version: 6.00 Build 0)  -->
<!DOCTYPE svg PUBLIC "-//W3C//DTD SVG 1.1//EN" "http://www.w3.org/Graphics/SVG/1.1/DTD/svg11.dtd">
<svg version="1.1" id="Layer_1" xmlns="http://www.w3.org/2000/svg" xmlns:xlink="http://www.w3.org/1999/xlink" x="0px" y="0px"
	 width="512px" height="512px" viewBox="0 0 512 512" enable-background="new 0 0 512 512" xml:space="preserve">
<g>
	<path d="M248.099,431.587c-19.923,0-40.143-17.589-55.478-48.257c-5.703-11.407-10.538-24.114-14.447-37.801
		c22.055,3.777,45.672,5.752,69.925,5.752c1.423,0,2.837-0.029,4.255-0.043c-1.801-5.453-1.874-11.424-0.025-17.145
		c0.86-2.654,2.095-5.102,3.623-7.306c-2.608,0.049-5.225,0.08-7.853,0.08c-26.743,0-52.54-2.521-76-7.294
		c-3.735-20.015-5.69-41.471-5.69-63.574s1.955-43.56,5.69-63.574c23.46-4.773,49.257-7.294,76-7.294c26.742,0,52.54,2.521,76,7.294
		c3.735,20.015,5.69,41.471,5.69,63.574c0,14.523-0.86,28.756-2.5,42.495l16.527-33.487c2.373-4.819,5.992-8.708,10.364-11.375
		c-0.113-19.067-1.564-37.419-4.208-54.731c9.227,2.782,17.928,5.958,25.978,9.52c30.335,13.419,47.735,30.762,47.735,47.579
		c0,10.54-6.837,21.286-19.407,31.144l10.451,21.179l25.376,3.685c5.195-17.78,7.993-36.571,7.993-56.007
		c0-110.28-89.72-200-200-200s-200,89.72-200,200s89.72,200,200,200c12.848,0,25.412-1.232,37.592-3.559
		c-0.435-2.862-0.439-5.807,0.061-8.728l7.275-42.42C279.535,420.762,263.726,431.587,248.099,431.587z M415.41,202.711
		c-8.365-6.032-18.257-11.606-29.584-16.615c-12.448-5.508-26.254-10.18-41.061-13.957c-7.844-32.805-20.213-60.62-35.695-80.803
		C359.454,110.053,398.986,151.267,415.41,202.711z M248.099,80.413c19.923,0,40.143,17.589,55.478,48.257
		c5.703,11.407,10.538,24.114,14.445,37.801c-22.053-3.777-45.67-5.752-69.923-5.752s-47.87,1.975-69.925,5.752
		c3.909-13.687,8.744-26.394,14.447-37.801C207.956,98.002,228.176,80.413,248.099,80.413z M187.127,91.336
		c-15.483,20.183-27.853,47.998-35.695,80.803c-14.808,3.777-28.612,8.449-41.062,13.957c-11.326,5.009-21.218,10.583-29.583,16.615
		C97.211,151.267,136.743,110.053,187.127,91.336z M120.247,208.421c8.05-3.562,16.75-6.737,25.978-9.52
		c-2.753,18.03-4.229,37.179-4.229,57.099s1.477,39.068,4.229,57.099c-9.228-2.782-17.928-5.958-25.978-9.52
		C89.912,290.16,72.512,272.817,72.512,256S89.912,221.84,120.247,208.421z M80.787,309.289
		c8.365,6.032,18.257,11.606,29.583,16.615c12.449,5.508,26.254,10.18,41.062,13.957c7.843,32.805,20.212,60.62,35.695,80.803
		C136.743,401.947,97.211,360.733,80.787,309.289z"/>
	<path d="M463.53,340.245c-0.894-2.755-3.279-4.771-6.152-5.19l-58.211-8.451l-26.03-52.745c-1.28-2.602-3.931-4.249-6.833-4.249
		s-5.553,1.647-6.835,4.249l-26.028,52.745l-58.211,8.451c-2.873,0.42-5.259,2.436-6.152,5.19c-0.894,2.765-0.146,5.79,1.929,7.82
		l42.12,41.05l-9.943,57.976c-0.489,2.856,0.682,5.752,3.029,7.453c2.348,1.702,5.46,1.929,8.028,0.579l52.063-27.365l52.063,27.365
		c1.115,0.59,2.336,0.877,3.545,0.877c1.579,0,3.158-0.491,4.484-1.456c2.348-1.701,3.519-4.597,3.029-7.453l-9.943-57.976
		l42.119-41.05C463.677,346.035,464.424,343.01,463.53,340.245z"/>
</g>
</svg>
