<?xml version="1.0" encoding="utf-8"?>
<!-- Generator: Adobe Illustrator 16.0.0, SVG Export Plug-In . SVG Version: 6.00 Build 0)  -->
<!DOCTYPE svg PUBLIC "-//W3C//DTD SVG 1.1//EN" "http://www.w3.org/Graphics/SVG/1.1/DTD/svg11.dtd">
<svg version="1.1" id="Layer_2" xmlns="http://www.w3.org/2000/svg" xmlns:xlink="http://www.w3.org/1999/xlink" x="0px" y="0px"
	 width="512px" height="512px" viewBox="0 0 512 512" enable-background="new 0 0 512 512" xml:space="preserve">
<g>
	<path d="M429.696,82.524C427.547,81.217,375.804,50.438,256,50.438c-119.801,0-171.552,30.78-173.694,32.087
		c-6.827,4.169-10.844,11.717-10.504,19.705c0.102,2.353,2.728,58.546,24.755,130.149c12.981,42.197,30.06,81.07,50.768,115.574
		c26.152,43.569,58.177,80.237,95.195,108.985c3.963,3.082,8.717,4.625,13.48,4.625c4.766,0,9.518-1.542,13.48-4.625
		c37.016-28.748,69.043-65.416,95.193-108.985c20.706-34.504,37.789-73.377,50.77-115.574
		c22.029-71.603,24.656-127.796,24.755-130.149C440.538,94.242,436.518,86.693,429.696,82.524z M337.624,189.152l-97.177,97.16
		c-2.807,2.831-6.546,4.375-10.511,4.375c-3.977,0-7.714-1.544-10.54-4.375l-45.018-45.104c-5.795-5.802-5.795-15.229,0-21.031
		l8.669-8.671c2.821-2.79,6.56-4.334,10.53-4.334c3.969,0,7.689,1.531,10.492,4.334l25.86,25.774l77.908-77.909
		c2.814-2.823,6.544-4.375,10.523-4.375c3.977,0,7.709,1.552,10.509,4.375l8.752,8.746
		C343.417,173.916,343.417,183.35,337.624,189.152z"/>
</g>
</svg>
