<?xml version="1.0" encoding="utf-8"?>
<!-- Generator: Adobe Illustrator 16.0.0, SVG Export Plug-In . SVG Version: 6.00 Build 0)  -->
<!DOCTYPE svg PUBLIC "-//W3C//DTD SVG 1.1//EN" "http://www.w3.org/Graphics/SVG/1.1/DTD/svg11.dtd">
<svg version="1.1" id="Layer_1" xmlns="http://www.w3.org/2000/svg" xmlns:xlink="http://www.w3.org/1999/xlink" x="0px" y="0px"
	 width="512px" height="512px" viewBox="0 0 512 512" enable-background="new 0 0 512 512" xml:space="preserve">
<path d="M490.461,256c0-49.145-15.024-95.978-42.889-135.265c2.156-5.409,3.354-11.304,3.354-17.481
	C450.925,77.156,429.77,56,403.672,56c-6.739,0-13.145,1.42-18.946,3.963C346.827,34.967,302.448,21.539,256,21.539
	s-90.827,13.428-128.726,38.424C121.473,57.42,115.067,56,108.328,56c-26.098,0-47.253,21.156-47.253,47.254
	c0,6.178,1.198,12.072,3.354,17.481C36.563,160.022,21.539,206.855,21.539,256s15.024,95.978,42.889,135.265
	c-2.156,5.409-3.354,11.304-3.354,17.482c0,26.097,21.156,47.253,47.253,47.253c6.739,0,13.145-1.42,18.946-3.963
	c37.899,24.996,82.278,38.424,128.726,38.424s90.827-13.428,128.726-38.424c5.801,2.543,12.207,3.963,18.946,3.963
	c26.098,0,47.253-21.156,47.253-47.253c0-6.179-1.198-12.073-3.354-17.482C475.437,351.978,490.461,305.145,490.461,256z
	 M427.142,367.737c-6.917-3.968-14.924-6.247-23.47-6.247c-5.518,0-10.81,0.955-15.731,2.692l-20.568-20.567
	c19.024-24.135,30.391-54.57,30.391-87.615s-11.366-63.48-30.391-87.615l20.568-20.567c4.921,1.737,10.213,2.692,15.731,2.692
	c8.545,0,16.553-2.279,23.47-6.247c21.054,32.139,33.319,70.53,33.319,111.737S448.196,335.599,427.142,367.737z M256,371
	c-4.849,0-9.627-0.304-14.318-0.887c-8.453-5.201-16.473-14.854-23.129-28.167c-3.85-7.7-7.113-16.274-9.752-25.515
	c14.888,2.549,30.83,3.885,47.2,3.885s32.312-1.336,47.199-3.885c-2.639,9.24-5.902,17.814-9.751,25.515
	c-6.656,13.313-14.676,22.966-23.129,28.167C265.627,370.696,260.849,371,256,371z M141,256c0-3.992,0.204-7.936,0.601-11.823
	c5.086-7.336,14.73-14.379,28.099-20.293c5.435-2.405,11.305-4.547,17.535-6.425c-1.858,12.168-2.855,25.096-2.855,38.541
	s0.997,26.373,2.855,38.541c-6.23-1.877-12.101-4.02-17.535-6.425c-13.369-5.913-23.013-12.956-28.099-20.292
	C141.204,263.937,141,259.992,141,256z M256,141c4.849,0,9.627,0.304,14.318,0.887c8.453,5.201,16.473,14.854,23.129,28.167
	c3.85,7.7,7.113,16.274,9.751,25.515c-14.887-2.549-30.829-3.885-47.199-3.885s-32.312,1.336-47.2,3.885
	c2.64-9.24,5.903-17.814,9.752-25.515c6.656-13.313,14.676-22.966,23.129-28.167C246.373,141.304,251.151,141,256,141z
	 M364.146,216.813c-4.529-2.85-9.593-5.527-15.181-7.997c-8.401-3.717-17.721-6.874-27.714-9.42
	c-4.646-19.425-11.64-36.257-20.343-49.295C330.189,162.533,353.252,186.756,364.146,216.813z M311.141,256
	c0,14.918-1.319,29.404-3.84,42.912c-15.836,3.222-33.249,4.925-51.301,4.925s-35.465-1.703-51.301-4.925
	c-2.521-13.508-3.839-27.994-3.839-42.912s1.318-29.404,3.839-42.913c15.836-3.221,33.249-4.924,51.301-4.924
	s35.465,1.703,51.301,4.924C309.822,226.596,311.141,241.082,311.141,256z M211.093,150.101
	c-8.703,13.038-15.699,29.87-20.344,49.295c-9.994,2.546-19.313,5.703-27.715,9.42c-5.586,2.47-10.651,5.147-15.18,7.997
	C158.748,186.756,181.811,162.533,211.093,150.101z M147.854,295.188c4.529,2.85,9.593,5.527,15.18,7.997
	c8.402,3.718,17.721,6.874,27.715,9.42c4.646,19.425,11.641,36.257,20.344,49.296C181.811,349.467,158.748,325.244,147.854,295.188z
	 M300.907,361.899c8.703-13.038,15.698-29.87,20.344-49.295c9.994-2.546,19.313-5.702,27.714-9.42
	c5.587-2.47,10.652-5.147,15.181-7.997C353.252,325.244,330.189,349.467,300.907,361.899z M342.3,288.116
	c-5.435,2.405-11.306,4.548-17.535,6.425c1.858-12.168,2.856-25.096,2.856-38.541s-0.998-26.373-2.856-38.541
	c6.229,1.878,12.101,4.02,17.535,6.425c13.369,5.914,23.013,12.957,28.099,20.293C370.796,248.064,371,252.008,371,256
	s-0.204,7.937-0.601,11.824C365.313,275.16,355.668,282.203,342.3,288.116z M361.9,81.158c-3.497,6.595-5.485,14.111-5.485,22.096
	c0,5.518,0.955,10.809,2.692,15.73l-21.298,21.299c-23.13-16.397-51.362-26.047-81.809-26.047s-58.679,9.649-81.809,26.047
	l-21.298-21.299c1.737-4.922,2.692-10.213,2.692-15.73c0-7.984-1.988-15.501-5.485-22.096c30.907-18.79,67.163-29.619,105.9-29.619
	S330.994,62.368,361.9,81.158z M84.858,144.263c6.917,3.968,14.924,6.247,23.47,6.247c5.518,0,10.81-0.955,15.731-2.692
	l20.568,20.567c-19.024,24.135-30.391,54.57-30.391,87.615s11.366,63.48,30.391,87.615l-20.568,20.567
	c-4.921-1.737-10.213-2.692-15.731-2.692c-8.545,0-16.553,2.279-23.47,6.247C63.804,335.599,51.539,297.207,51.539,256
	S63.804,176.401,84.858,144.263z M150.1,430.842c3.497-6.594,5.485-14.111,5.485-22.095c0-5.519-0.955-10.81-2.692-15.731
	l21.298-21.299c23.13,16.397,51.362,26.047,81.809,26.047s58.679-9.649,81.809-26.047l21.298,21.299
	c-1.737,4.922-2.692,10.213-2.692,15.731c0,7.983,1.988,15.501,5.485,22.095c-30.907,18.79-67.163,29.619-105.9,29.619
	S181.006,449.632,150.1,430.842z"/>
</svg>
