<?xml version="1.0" encoding="utf-8"?>
<!-- Generator: Adobe Illustrator 16.0.0, SVG Export Plug-In . SVG Version: 6.00 Build 0)  -->
<!DOCTYPE svg PUBLIC "-//W3C//DTD SVG 1.1//EN" "http://www.w3.org/Graphics/SVG/1.1/DTD/svg11.dtd">
<svg version="1.1" id="Layer_1" xmlns="http://www.w3.org/2000/svg" xmlns:xlink="http://www.w3.org/1999/xlink" x="0px" y="0px"
	 width="512px" height="512px" viewBox="0 0 512 512" enable-background="new 0 0 512 512" xml:space="preserve">
<g>
	<path d="M256,50C142.411,50,50,142.411,50,256s92.411,206,206,206s206-92.411,206-206S369.589,50,256,50z M256,430
		c-95.944,0-174-78.056-174-174S160.056,82,256,82s174,78.056,174,174S351.944,430,256,430z"/>
	<path d="M256,130c-69.477,0-126,56.523-126,126s56.523,126,126,126c23.45,0,45.42-6.447,64.243-17.65l-8.818-9.138
		c-0.955,2.225-2.335,4.222-4.096,5.92c-3.415,3.298-7.922,5.119-12.683,5.119c-7.453-0.022-14.06-4.458-16.884-11.3l-2.833-6.866
		C268.813,349.34,262.482,350,256,350c-51.832,0-94-42.168-94-94s42.168-94,94-94s94,42.168,94,94
		c0,7.398-0.862,14.598-2.486,21.508l7.135,3.246c6.745,3.071,10.94,9.835,10.694,17.235c-0.241,7.331-4.801,13.759-11.632,16.418
		l8.691,9.008C374.806,303.908,382,280.779,382,256C382,186.523,325.477,130,256,130z"/>
	<path d="M256.836,238.056c2.619,0,5.157,0.549,7.543,1.63l29.5,13.421C292.399,233.473,276.012,218,256,218
		c-20.987,0-38,17.013-38,38c0,19.822,15.18,36.092,34.548,37.837l-12.602-30.546c-2.879-6.977-1.229-14.873,4.205-20.114
		C247.564,239.878,252.073,238.056,256.836,238.056z"/>
	<path d="M328.439,308.433l21.138-7.992c1.234-0.468,2.067-1.631,2.111-2.951c0.044-1.318-0.711-2.534-1.914-3.082l-90.25-41.06
		c-1.222-0.554-2.658-0.307-3.623,0.625c-0.965,0.931-1.264,2.356-0.752,3.597l37.815,91.659c0.503,1.22,1.69,2.019,3.011,2.022
		c0.867,0.002,1.68-0.339,2.279-0.917c0.314-0.303,0.57-0.669,0.745-1.088l8.741-20.84l32.472,33.65
		c1.252,1.299,3.321,1.336,4.621,0.083l15.995-15.435c1.299-1.254,1.336-3.323,0.081-4.621L328.439,308.433z"/>
</g>
</svg>
