<?xml version="1.0" encoding="utf-8"?>
<!-- Generator: Adobe Illustrator 16.0.0, SVG Export Plug-In . SVG Version: 6.00 Build 0)  -->
<!DOCTYPE svg PUBLIC "-//W3C//DTD SVG 1.1//EN" "http://www.w3.org/Graphics/SVG/1.1/DTD/svg11.dtd">
<svg version="1.1" id="Layer_1" xmlns="http://www.w3.org/2000/svg" xmlns:xlink="http://www.w3.org/1999/xlink" x="0px" y="0px"
	 width="512px" height="512px" viewBox="0 0 512 512" enable-background="new 0 0 512 512" xml:space="preserve">
<g>
	<path d="M403.154,304.612h-4.491v-184.1h4.491c9.839,0,17.846-8.007,17.846-17.848c0-9.839-8.007-17.845-17.846-17.845H272.27
		V67.154c0-8.985-7.283-16.27-16.27-16.27c-8.984,0-16.269,7.285-16.269,16.27v17.664H108.846C99.007,84.818,91,92.824,91,102.664
		c0,9.841,8.007,17.848,17.846,17.848h4.493v184.1h-4.493c-9.839,0-17.846,8.006-17.846,17.847c0,9.842,8.007,17.848,17.846,17.848
		h122.582l-41.73,98.17c-3.516,8.27,0.341,17.823,8.609,21.339c8.271,3.515,17.825-0.339,21.339-8.61L256,365.679l36.354,85.527
		c2.631,6.194,8.65,9.91,14.982,9.91c2.12,0,4.278-0.417,6.357-1.3c8.269-3.516,12.125-13.069,8.609-21.339l-41.73-98.17h122.582
		c9.839,0,17.846-8.006,17.846-17.848C421,312.618,412.993,304.612,403.154,304.612z M145.878,120.512h220.245v184.1H145.878
		V120.512z"/>
	<path d="M191.927,189.946c-6.741,0-12.201,5.464-12.201,12.205v58.054c0,6.74,5.46,12.206,12.201,12.206
		c6.738,0,12.207-5.466,12.207-12.206v-58.054C204.134,195.41,198.665,189.946,191.927,189.946z"/>
	<path d="M234.645,147.23c-6.742,0-12.209,5.462-12.209,12.203v100.771c0,6.74,5.467,12.206,12.209,12.206
		c6.74,0,12.201-5.466,12.201-12.206V159.434C246.846,152.693,241.385,147.23,234.645,147.23z"/>
	<path d="M277.355,172.86c-6.74,0-12.201,5.463-12.201,12.202v75.144c0,6.74,5.461,12.206,12.201,12.206
		c6.742,0,12.208-5.466,12.208-12.206v-75.144C289.563,178.323,284.098,172.86,277.355,172.86z"/>
	<path d="M320.075,160.045c-6.74,0-12.207,5.464-12.207,12.205v87.955c0,6.74,5.467,12.206,12.207,12.206
		c6.738,0,12.199-5.466,12.199-12.206V172.25C332.274,165.51,326.813,160.045,320.075,160.045z"/>
</g>
</svg>
