<?xml version="1.0" encoding="utf-8"?>
<!-- Generator: Adobe Illustrator 16.0.0, SVG Export Plug-In . SVG Version: 6.00 Build 0)  -->
<!DOCTYPE svg PUBLIC "-//W3C//DTD SVG 1.1//EN" "http://www.w3.org/Graphics/SVG/1.1/DTD/svg11.dtd">
<svg version="1.1" id="Layer_2" xmlns="http://www.w3.org/2000/svg" xmlns:xlink="http://www.w3.org/1999/xlink" x="0px" y="0px"
	 width="512px" height="512px" viewBox="0 0 512 512" enable-background="new 0 0 512 512" xml:space="preserve">
<path d="M441.612,410H116.086l58.398-70.05l0.96,0.304c2.561,0.811,5.229,1.223,7.932,1.223c13.223,0,24.417-9.884,26.039-22.993
	l0.124-0.999l55.106-14.882l0.611,0.8c5.016,6.563,12.62,10.326,20.863,10.326c14.474,0,26.248-11.775,26.248-26.249
	c0-10.703-6.404-20.241-16.317-24.299l-0.931-0.38v-54.136l0.932-0.381c9.88-4.043,16.284-13.549,16.316-24.217
	c0-0.079-0.001-0.158-0.003-0.237l-0.04-1.486l72.545-31.74l0.723,0.7c4.927,4.781,11.416,7.414,18.272,7.414
	c14.474,0,26.248-11.775,26.248-26.249s-11.774-26.249-26.248-26.249c-14.429,0-26.204,11.738-26.249,26.166
	c0,0.08,0.001,0.159,0.003,0.238l0.04,1.486l-72.545,31.74l-0.723-0.701c-4.928-4.78-11.417-7.413-18.271-7.413
	c-14.474,0-26.249,11.775-26.249,26.249c0,10.704,6.404,20.242,16.318,24.3l0.931,0.38v54.135l-0.933,0.381
	c-8.773,3.59-14.945,11.653-16.108,21.042l-0.124,1l-55.105,14.883l-0.61-0.798c-5.017-6.563-12.621-10.328-20.863-10.328
	c-14.474,0-26.249,11.775-26.249,26.249c0,4.343,1.029,8.482,3.06,12.3l0.474,0.891l-54.048,64.832V67c0-4.418-3.582-8-8-8h-11
	c-4.418,0-8,3.582-8,8v29.5h-9.225c-4.418,0-8,3.582-8,8v2c0,4.418,3.582,8,8,8h9.225v72h-9.225c-4.418,0-8,3.582-8,8v2
	c0,4.418,3.582,8,8,8h9.225v72h-9.225c-4.418,0-8,3.582-8,8v2c0,4.418,3.582,8,8,8h9.225v72h-9.225c-4.418,0-8,3.582-8,8v2
	c0,4.418,3.582,8,8,8h9.225V429c0,4.418,3.582,8,8,8h59.015v8c0,4.418,3.582,8,8,8h2c4.418,0,8-3.582,8-8v-8h72v8
	c0,4.418,3.582,8,8,8h2c4.418,0,8-3.582,8-8v-8h72v8c0,4.418,3.582,8,8,8h2c4.418,0,8-3.582,8-8v-8h72v8c0,4.418,3.582,8,8,8h2
	c4.418,0,8-3.582,8-8v-8h6.985c4.418,0,8-3.582,8-8v-11C449.612,413.582,446.03,410,441.612,410z"/>
</svg>
