<?xml version="1.0" encoding="utf-8"?>
<!-- Generator: Adobe Illustrator 16.0.0, SVG Export Plug-In . SVG Version: 6.00 Build 0)  -->
<!DOCTYPE svg PUBLIC "-//W3C//DTD SVG 1.1//EN" "http://www.w3.org/Graphics/SVG/1.1/DTD/svg11.dtd">
<svg version="1.1" id="Layer_2" xmlns="http://www.w3.org/2000/svg" xmlns:xlink="http://www.w3.org/1999/xlink" x="0px" y="0px"
	 width="512px" height="512px" viewBox="0 0 512 512" enable-background="new 0 0 512 512" xml:space="preserve">
<g>
	<path d="M377.937,329.595l-68.872-27.461l-16.13-13.587c-4.259-3.6-10.55-3.335-14.5,0.594l-22.422,22.296l-22.487-22.305
		c-3.954-3.92-10.236-4.174-14.493-0.585l-16.127,13.587L134.029,329.6c-22.177,8.831-22.159,87.372-24.063,94.581h292.068
		C400.134,416.989,400.124,338.418,377.937,329.595z"/>
	<path d="M177.132,217.767l12.934-0.033c7.99,41.744,36.343,65.492,65.935,65.492c29.592,0,46.785-14.064,58.186-39.991
		c-8.706,6.828-21.356,13.074-39.052,14.363c-1.626,2.423-4.39,4.018-7.526,4.018h-8.268c-5.003,0-9.06-4.056-9.06-9.061
		c0-5.004,4.057-9.06,9.06-9.06h8.268c2.931,0,5.529,1.397,7.185,3.556c28.45-2.284,41.829-19.538,47.164-29.28l12.913-0.004
		c7.906,0,14.315-6.413,14.315-14.317V171c0-5.067-2.642-9.511-6.614-12.056c-4.783-39.943-41.779-71.125-86.57-71.125
		s-81.787,31.182-86.57,71.125c-3.974,2.545-6.614,6.988-6.614,12.056v32.449C162.815,211.354,169.225,217.767,177.132,217.767z
		 M256,104.046c35.253,0,64.573,23.249,69.978,53.579c-1.689,0.642-3.221,1.589-4.535,2.781
		C313,133.752,288.608,117.907,256,117.907c-32.608,0-57.016,15.834-65.468,42.478c-1.308-1.182-2.832-2.123-4.51-2.76
		C191.427,127.295,220.747,104.046,256,104.046z"/>
	<path d="M479.82,338.945l-44.349-17.683l-10.387-8.749c-2.742-2.318-6.793-2.148-9.337,0.382l-14.438,14.357l-14.48-14.363
		c-2.546-2.524-6.592-2.688-9.332-0.376l-4.947,4.168l9.09,3.624c19.589,7.79,25.385,43.547,28.365,79.547h85.333
		C494.115,395.222,494.108,344.627,479.82,338.945z"/>
	<path d="M341.298,236.821v20.895c0,5.09,4.127,9.219,9.219,9.219l8.328-0.021c5.145,26.88,23.402,42.173,42.457,42.173
		s30.126-9.057,37.468-25.751c-5.605,4.396-13.752,8.418-25.146,9.249c-1.047,1.56-2.826,2.587-4.847,2.587h-5.323
		c-3.222,0-5.834-2.612-5.834-5.834s2.612-5.834,5.834-5.834h5.323c1.888,0,3.561,0.9,4.627,2.29
		c18.319-1.471,26.935-12.582,30.37-18.854l8.314-0.003c5.092,0,9.219-4.129,9.219-9.219v-20.895c0-3.263-1.701-6.124-4.26-7.763
		c-3.079-25.721-26.902-45.8-55.745-45.8c-28.842,0-52.665,20.079-55.745,45.8C342.998,230.697,341.298,233.559,341.298,236.821z
		 M401.302,193.708c22.7,0,41.581,14.971,45.061,34.501c-1.087,0.414-2.074,1.024-2.92,1.792
		c-5.437-17.164-21.144-27.367-42.141-27.367s-36.714,10.196-42.156,27.353c-0.843-0.761-1.824-1.367-2.904-1.777
		C359.721,208.678,378.602,193.708,401.302,193.708z"/>
	<path d="M130.329,320.309l9.099-3.628l-4.947-4.167c-2.742-2.318-6.793-2.148-9.337,0.382l-14.438,14.357l-14.48-14.363
		c-2.546-2.524-6.592-2.688-9.332-0.376l-10.386,8.749l-44.351,17.686c-14.28,5.687-14.27,56.262-15.495,60.904h85.328
		C104.96,363.862,110.743,328.108,130.329,320.309z"/>
	<path d="M59.912,266.936l8.328-0.021c5.146,26.88,23.403,42.173,42.458,42.173s30.126-9.057,37.468-25.751
		c-5.606,4.396-13.753,8.418-25.147,9.249c-1.047,1.56-2.826,2.587-4.846,2.587h-5.324c-3.222,0-5.833-2.612-5.833-5.834
		s2.611-5.834,5.833-5.834h5.324c1.887,0,3.56,0.9,4.626,2.29c18.32-1.471,26.936-12.582,30.371-18.854l8.314-0.003
		c5.091,0,9.218-4.129,9.218-9.219v-20.895c0-3.263-1.7-6.124-4.259-7.763c-3.08-25.721-26.903-45.8-55.745-45.8
		c-28.843,0-52.666,20.079-55.745,45.8c-2.56,1.639-4.26,4.5-4.26,7.763v20.895C50.693,262.807,54.82,266.936,59.912,266.936z
		 M110.698,193.708c22.7,0,41.58,14.971,45.061,34.501c-1.088,0.414-2.074,1.024-2.92,1.792
		c-5.437-17.164-21.144-27.367-42.141-27.367c-20.998,0-36.714,10.196-42.157,27.353c-0.842-0.761-1.823-1.367-2.903-1.777
		C69.117,208.678,87.998,193.708,110.698,193.708z"/>
</g>
</svg>
