<?xml version="1.0" encoding="utf-8"?>
<!-- Generator: Adobe Illustrator 16.0.0, SVG Export Plug-In . SVG Version: 6.00 Build 0)  -->
<!DOCTYPE svg PUBLIC "-//W3C//DTD SVG 1.1//EN" "http://www.w3.org/Graphics/SVG/1.1/DTD/svg11.dtd">
<svg version="1.1" id="Layer_2" xmlns="http://www.w3.org/2000/svg" xmlns:xlink="http://www.w3.org/1999/xlink" x="0px" y="0px"
	 width="512px" height="512px" viewBox="0 0 512 512" enable-background="new 0 0 512 512" xml:space="preserve">
<g>
	<path d="M463.617,399.519l-34.77-34.769c-3.838-3.836-8.77-5.906-13.789-6.222l-11.811-11.81
		c17.547-27.895,14.189-65.27-10.076-89.535c-28.166-28.167-73.994-28.166-102.162,0c-28.164,28.166-28.164,73.995,0.002,102.161
		c24.264,24.266,61.639,27.622,89.533,10.077l11.811,11.809c0.316,5.021,2.385,9.953,6.223,13.79l34.77,34.77
		c8.359,8.36,21.91,8.358,30.27,0C471.975,421.431,471.977,407.879,463.617,399.519z M378.037,344.209
		c-19.82,19.819-52.07,19.819-71.891,0c-19.82-19.822-19.82-52.071,0-71.891s52.068-19.82,71.891,0.001
		C397.855,292.139,397.855,324.389,378.037,344.209z"/>
	<path d="M278.926,246.224c16.551-16.55,38.584-25.665,62.041-25.665s45.49,9.114,62.041,25.665
		c14.129,14.128,23.068,32.856,25.172,52.734c1.619,15.29-0.809,30.799-7.02,44.876l0.211,0.21
		c6.553,1.604,12.537,4.971,17.311,9.744l3.432,3.432V117.208c0-3.779-1.871-7.315-5-9.44
		c-30.645-20.82-65.451-31.827-100.668-31.827c-32.813,0-65.27,9.561-94.332,27.711c-29.072-18.15-61.537-27.711-94.35-27.711
		c-35.207,0-70.014,11.006-100.652,31.827c-3.127,2.126-4.998,5.662-4.998,9.44V384.76c0,4.229,2.336,8.111,6.074,10.09
		c3.738,1.979,8.258,1.728,11.758-0.647c26.836-18.237,57.207-27.88,87.822-27.88c30.617,0,60.994,9.643,87.84,27.881
		c1.922,1.31,4.164,1.973,6.408,1.973c0.012,0,0.025-0.002,0.039-0.002c2.301,0.031,4.6-0.632,6.566-1.972
		c11.48-7.801,23.611-14.016,36.129-18.59c-2.004-1.677-3.953-3.438-5.822-5.308C244.717,336.096,244.717,280.433,278.926,246.224z
		 M275.146,152.88c21.408-14.636,50.664-16.821,66.199-16.821s44.791,2.186,66.199,16.821c5.27,3.603,6.621,10.794,3.02,16.063
		s-10.795,6.621-16.064,3.019c-11.887-8.127-31.262-12.789-53.154-12.789s-41.268,4.661-53.154,12.789
		c-1.994,1.363-4.266,2.018-6.512,2.018c-3.689,0-7.313-1.761-9.553-5.036C268.525,163.675,269.877,156.483,275.146,152.88z
		 M275.146,202.88c21.408-14.636,50.664-16.821,66.199-16.821s44.791,2.186,66.199,16.821c5.27,3.603,6.621,10.794,3.02,16.063
		s-10.795,6.621-16.064,3.019c-11.887-8.127-31.262-12.789-53.154-12.789s-41.268,4.661-53.154,12.789
		c-1.994,1.363-4.266,2.018-6.512,2.018c-3.689,0-7.313-1.761-9.553-5.036C268.525,213.675,269.877,206.483,275.146,202.88z
		 M212.1,318.944c-3.602,5.269-10.795,6.621-16.064,3.019c-11.887-8.127-31.262-12.789-53.154-12.789s-41.268,4.661-53.154,12.789
		c-1.994,1.363-4.266,2.018-6.512,2.018c-3.689,0-7.313-1.761-9.553-5.036c-3.602-5.269-2.25-12.461,3.02-16.063
		c21.408-14.636,50.664-16.821,66.199-16.821s44.791,2.186,66.199,16.821C214.35,306.483,215.701,313.675,212.1,318.944z
		 M212.1,268.944c-3.602,5.269-10.795,6.621-16.064,3.019c-11.887-8.127-31.262-12.789-53.154-12.789s-41.268,4.661-53.154,12.789
		c-1.994,1.363-4.266,2.018-6.512,2.018c-3.689,0-7.313-1.761-9.553-5.036c-3.602-5.269-2.25-12.461,3.02-16.063
		c21.408-14.636,50.664-16.821,66.199-16.821s44.791,2.186,66.199,16.821C214.35,256.483,215.701,263.675,212.1,268.944z
		 M212.1,218.944c-3.602,5.269-10.795,6.621-16.064,3.019c-11.887-8.127-31.262-12.789-53.154-12.789s-41.268,4.661-53.154,12.789
		c-1.994,1.363-4.266,2.018-6.512,2.018c-3.689,0-7.313-1.761-9.553-5.036c-3.602-5.269-2.25-12.461,3.02-16.063
		c21.408-14.636,50.664-16.821,66.199-16.821s44.791,2.186,66.199,16.821C214.35,206.483,215.701,213.675,212.1,218.944z
		 M212.1,168.944c-3.602,5.269-10.795,6.621-16.064,3.019c-11.887-8.127-31.262-12.789-53.154-12.789s-41.268,4.661-53.154,12.789
		c-1.994,1.363-4.266,2.018-6.512,2.018c-3.689,0-7.313-1.761-9.553-5.036c-3.602-5.269-2.25-12.461,3.02-16.063
		c21.408-14.636,50.664-16.821,66.199-16.821s44.791,2.186,66.199,16.821C214.35,156.483,215.701,163.675,212.1,168.944z"/>
</g>
</svg>
