<?xml version="1.0" encoding="utf-8"?>
<!-- Generator: Adobe Illustrator 16.0.0, SVG Export Plug-In . SVG Version: 6.00 Build 0)  -->
<!DOCTYPE svg PUBLIC "-//W3C//DTD SVG 1.1//EN" "http://www.w3.org/Graphics/SVG/1.1/DTD/svg11.dtd">
<svg version="1.1" id="Layer_2" xmlns="http://www.w3.org/2000/svg" xmlns:xlink="http://www.w3.org/1999/xlink" x="0px" y="0px"
	 width="512px" height="512px" viewBox="0 0 512 512" enable-background="new 0 0 512 512" xml:space="preserve">
<path d="M407.6,157.045c-0.424-8.885-7.75-15.869-16.645-15.869h-51.627V96.623c0-21.441-17.446-38.887-38.887-38.887h-88.883
	c-21.44,0-38.887,17.445-38.887,38.887v44.553h-51.627c-8.894,0-16.221,6.984-16.644,15.869L91.02,436.802
	c-0.218,4.554,1.438,8.997,4.583,12.296c3.144,3.3,7.506,5.166,12.063,5.166h296.67c4.557,0,8.918-1.866,12.062-5.166
	c3.146-3.299,4.802-7.742,4.584-12.296L407.6,157.045z M206.005,96.623c0-3.063,2.491-5.556,5.554-5.556h88.883
	c3.063,0,5.554,2.493,5.554,5.556v44.553h-99.99V96.623z M332.482,260.726l-90.369,89.759c-0.92,0.913-2.055,1.487-3.243,1.717
	c-1.87,0.361-3.875-0.126-5.398-1.48l-41.7-37.1c-2.605-2.316-2.838-6.304-0.523-8.908l16.776-18.858
	c1.114-1.249,2.671-2.007,4.347-2.104c1.674-0.098,3.314,0.472,4.563,1.585l19.543,17.385l69.326-68.855
	c2.471-2.455,6.467-2.442,8.925,0.029l17.786,17.909c1.178,1.188,1.838,2.795,1.832,4.468
	C334.342,257.943,333.672,259.548,332.482,260.726z"/>
</svg>
