<?xml version="1.0" encoding="utf-8"?>
<!-- Generator: Adobe Illustrator 16.0.0, SVG Export Plug-In . SVG Version: 6.00 Build 0)  -->
<!DOCTYPE svg PUBLIC "-//W3C//DTD SVG 1.1//EN" "http://www.w3.org/Graphics/SVG/1.1/DTD/svg11.dtd">
<svg version="1.1" id="Layer_1" xmlns="http://www.w3.org/2000/svg" xmlns:xlink="http://www.w3.org/1999/xlink" x="0px" y="0px"
	 width="512px" height="512px" viewBox="0 0 512 512" enable-background="new 0 0 512 512" xml:space="preserve">
<path d="M405.654,241.594c-8.505-103.283-37.285-130.638-67.64-130.64c-34.184-0.003-70.367,34.682-81.865,34.682
	c-11.497,0-47.685-34.682-81.865-34.682c-30.36,0-59.134,27.344-67.64,130.64c-0.178,0.061-78.833,23.516-78.833,68.672
	c0,50.136,102.162,90.779,228.188,90.779c126.025,0,228.188-40.643,228.188-90.779C484.188,268.61,405.834,241.655,405.654,241.594z
	 M149.341,147.957c9.197-15.07,18.161-17.003,24.943-17.003c15.943,0,35.637,12.194,50.016,21.097
	c13.211,8.18,21.939,13.584,31.85,13.584c9.912,0,18.639-5.404,31.848-13.585c14.379-8.904,34.071-21.098,50.015-21.097
	c6.781,0,15.744,1.934,24.943,17.009c10.891,17.844,18.353,47.729,22.206,88.893c-3.98,4.399-11.423,10.616-25.047,17.09
	c-27.221,12.933-64.143,20.056-103.964,20.056s-76.743-7.123-103.964-20.056c-13.625-6.474-21.067-12.691-25.048-17.09
	C130.99,195.686,138.452,165.799,149.341,147.957z M409.961,355.874c-40.803,16.232-95.48,25.172-153.961,25.172
	s-113.158-8.939-153.961-25.172c-33.449-13.307-54.228-30.782-54.228-45.607c0-10.246,10.045-21.923,27.543-32.562
	c11.493,13.782,27.924,25.918,48.479,35.685c35.851,17.035,82.788,26.416,132.166,26.416s96.315-9.381,132.165-26.416
	c20.556-9.767,36.987-21.903,48.48-35.685c17.499,10.639,27.543,22.316,27.543,32.562
	C464.188,325.091,443.41,342.567,409.961,355.874z"/>
</svg>
