<?xml version="1.0" encoding="utf-8"?>
<!-- Generator: Adobe Illustrator 16.0.0, SVG Export Plug-In . SVG Version: 6.00 Build 0)  -->
<!DOCTYPE svg PUBLIC "-//W3C//DTD SVG 1.1//EN" "http://www.w3.org/Graphics/SVG/1.1/DTD/svg11.dtd">
<svg version="1.1" id="Layer_1" xmlns="http://www.w3.org/2000/svg" xmlns:xlink="http://www.w3.org/1999/xlink" x="0px" y="0px"
	 width="512px" height="512px" viewBox="0 0 512 512" enable-background="new 0 0 512 512" xml:space="preserve">
<g>
	<path d="M256,294.048c124.73,0,149.693-52.344,149.505-52.408C387.422,22.047,277.708,145.682,256,145.682
		S124.578,22.048,106.495,241.64C106.307,241.704,131.27,294.048,256,294.048z"/>
	<path d="M430.075,251.531c-8.338,16.843-25.567,31.905-50.493,43.749c-33.224,15.787-77.113,24.48-123.582,24.48
		s-90.358-8.694-123.582-24.48c-24.926-11.844-42.155-26.905-50.493-43.749c-33.749,15.826-54.114,36.311-54.114,58.69
		C27.812,360.357,129.974,401,256,401c126.025,0,228.188-40.643,228.188-90.779C484.188,287.843,463.824,267.356,430.075,251.531z"
		/>
</g>
</svg>
