<?xml version="1.0" encoding="utf-8"?>
<!-- Generator: Adobe Illustrator 16.0.0, SVG Export Plug-In . SVG Version: 6.00 Build 0)  -->
<!DOCTYPE svg PUBLIC "-//W3C//DTD SVG 1.1//EN" "http://www.w3.org/Graphics/SVG/1.1/DTD/svg11.dtd">
<svg version="1.1" id="Layer_1" xmlns="http://www.w3.org/2000/svg" xmlns:xlink="http://www.w3.org/1999/xlink" x="0px" y="0px"
	 width="512px" height="512px" viewBox="0 0 512 512" enable-background="new 0 0 512 512" xml:space="preserve">
<path d="M415.991,76.759H96.009c-11.046,0-20,8.954-20,20v318.482c0,11.046,8.954,20,20,20h319.982c11.046,0,20-8.954,20-20V96.759
	C435.991,85.713,427.037,76.759,415.991,76.759z M388.832,370.41H227.264c-1.412,9.663-9.709,17.09-19.764,17.09h-23
	c-10.055,0-18.352-7.427-19.765-17.09h-41.567c-7.946,0-14.41-6.464-14.41-14.41c0-7.945,6.464-14.41,14.41-14.41h41.567
	c1.412-9.663,9.71-17.09,19.765-17.09h23c10.055,0,18.353,7.427,19.764,17.09h161.568c7.946,0,14.41,6.464,14.41,14.41
	C403.242,363.946,396.778,370.41,388.832,370.41z M388.832,270.41h-31.568c-1.412,9.663-9.709,17.09-19.764,17.09h-23
	c-10.055,0-18.352-7.427-19.765-17.09H123.168c-7.946,0-14.41-6.464-14.41-14.41c0-7.945,6.464-14.41,14.41-14.41h171.567
	c1.412-9.663,9.71-17.09,19.765-17.09h23c10.055,0,18.353,7.427,19.764,17.09h31.568c7.946,0,14.41,6.464,14.41,14.41
	C403.242,263.946,396.778,270.41,388.832,270.41z M388.832,170.41H287.264c-1.412,9.663-9.709,17.09-19.764,17.09h-23
	c-10.055,0-18.352-7.427-19.765-17.09H123.168c-7.946,0-14.41-6.464-14.41-14.41c0-7.945,6.464-14.41,14.41-14.41h101.567
	c1.412-9.663,9.71-17.09,19.765-17.09h23c10.055,0,18.353,7.427,19.764,17.09h101.568c7.946,0,14.41,6.464,14.41,14.41
	C403.242,163.946,396.778,170.41,388.832,170.41z"/>
</svg>
