<?xml version="1.0" encoding="utf-8"?>
<!-- Generator: Adobe Illustrator 16.0.0, SVG Export Plug-In . SVG Version: 6.00 Build 0)  -->
<!DOCTYPE svg PUBLIC "-//W3C//DTD SVG 1.1//EN" "http://www.w3.org/Graphics/SVG/1.1/DTD/svg11.dtd">
<svg version="1.1" id="Layer_2" xmlns="http://www.w3.org/2000/svg" xmlns:xlink="http://www.w3.org/1999/xlink" x="0px" y="0px"
	 width="512px" height="512px" viewBox="0 0 512 512" enable-background="new 0 0 512 512" xml:space="preserve">
<g>
	<path d="M296.853,187.126h-7.244l12.775-22.376c0.533-1.084,0.47-2.368-0.169-3.395c-0.64-1.026-1.763-1.65-2.972-1.65h-23.835
		c-1.334,0-2.552,0.758-3.141,1.955l-22.608,42.362c-0.533,1.084-0.47,2.368,0.169,3.395c0.64,1.026,1.763,1.65,2.972,1.65h10.838
		l-12.969,32.684c-0.637,1.604-0.01,3.432,1.478,4.307c0.555,0.327,1.167,0.484,1.773,0.484c1.021,0,2.024-0.445,2.71-1.282
		l42.931-52.416c0.856-1.046,1.034-2.493,0.455-3.716S298.205,187.126,296.853,187.126z"/>
	<path d="M393.314,103.584c-19.071-23.861-68.609-64.246-133.307-64.246c-43.259,0-84.422,18.086-122.344,53.752
		c-0.064,0.063-0.129,0.125-0.191,0.189c-36.98,38.043-32.148,73.184-26.027,117.699c0.377,2.738,0.758,5.514,1.137,8.332
		c1.014,7.566-5.607,19.236-12.012,30.521c-9.622,16.959-19.572,34.494-7.416,42.776c20.771,14.158,24.38,42.021,27.871,68.979
		c0.83,6.402,1.688,13.022,2.762,19.459c1.85,11.104,11.219,16.502,28.641,16.502c7.747,0,16.021-0.957,24.027-1.883
		c6.861-0.793,13.343-1.541,18.529-1.541c2.9,0,5.166,0.229,6.926,0.707c20.933,5.674,39.221,47.998,45.83,73.346
		c0.537,2.058,2.121,3.677,4.166,4.256c0.541,0.154,1.092,0.229,1.64,0.229c1.522,0,3.013-0.578,4.144-1.658L364.98,368.609
		c1.659-1.586,2.271-3.98,1.571-6.168c-9.473-29.64,10.213-58.566,27.587-84.101c7.581-11.141,14.741-21.661,19.639-32.025
		C436.367,198.504,420.095,137.094,393.314,103.584z M339.922,209.038h-42.304L256,258c-1.76,2.146-4.357,3.377-7.133,3.377
		c-1.646,0-3.266-0.443-4.684-1.279c-3.935-2.314-5.571-7.085-3.884-11.34l10.458-30.939h-2.823c-3.207,0-6.134-1.626-7.826-4.35
		c-0.852-1.366-1.316-2.889-1.389-4.432h-31.479c-20.771,0-37.612-16.839-37.612-37.611c0-18.086,12.767-33.188,29.78-36.792
		c-0.006-0.272-0.012-0.544-0.012-0.818c0-28.058,22.746-50.803,50.803-50.803c18.675,0,34.99,10.077,43.82,25.088
		c1.271-0.131,2.563-0.198,3.87-0.198c16.871,0,31.147,11.108,35.915,26.41c1.99-0.325,4.033-0.497,6.116-0.497
		c20.773,0,37.611,16.838,37.611,37.611S360.695,209.038,339.922,209.038z"/>
</g>
</svg>
