<?xml version="1.0" encoding="utf-8"?>
<!-- Generator: Adobe Illustrator 16.0.0, SVG Export Plug-In . SVG Version: 6.00 Build 0)  -->
<!DOCTYPE svg PUBLIC "-//W3C//DTD SVG 1.1//EN" "http://www.w3.org/Graphics/SVG/1.1/DTD/svg11.dtd">
<svg version="1.1" id="Layer_1" xmlns="http://www.w3.org/2000/svg" xmlns:xlink="http://www.w3.org/1999/xlink" x="0px" y="0px"
	 width="512px" height="512px" viewBox="0 0 512 512" enable-background="new 0 0 512 512" xml:space="preserve">
<g>
	<path d="M356.582,433.683l-4.643-4.642c-12.297,6.174-25.912,9.404-39.838,9.404c-16.357,0-32.025-4.385-45.66-12.591H98.514
		l0.014-299.904h53.791c5.596,0,10.131-4.533,10.131-10.132V60.401h198.906v215.583c4.793,3.209,9.305,6.908,13.471,11.076
		c5.375,5.373,10.004,11.404,13.801,17.906V57.671c0-13.535-11.01-24.543-24.545-24.543H148.998c-2.174,0-4.252,0.862-5.785,2.395
		L73.65,105.083c-1.533,1.54-2.396,3.619-2.396,5.787v317.715c0,13.534,11.012,24.543,24.545,24.543h268.283
		c1.188,0,2.355-0.089,3.498-0.253l-1.748-1.749C361.049,446.342,357.844,440.262,356.582,433.683z"/>
	<path d="M434.477,442.332l-34.768-34.769c-3.838-3.837-8.77-5.905-13.791-6.222l-11.809-11.811
		c17.545-27.895,14.188-65.27-10.076-89.534c-28.168-28.167-73.996-28.166-102.162,0c-28.166,28.165-28.166,73.995,0,102.161
		c24.266,24.266,61.639,27.621,89.535,10.076l11.811,11.81c0.314,5.021,2.385,9.952,6.221,13.79l34.768,34.77
		c8.361,8.359,21.914,8.357,30.271-0.001C442.836,464.244,442.838,450.693,434.477,442.332z M348.896,387.023
		c-19.82,19.818-52.072,19.818-71.891,0c-19.82-19.822-19.82-52.071,0-71.892c19.818-19.82,52.066-19.82,71.891,0.001
		C368.717,334.953,368.717,367.202,348.896,387.023z"/>
	<path d="M308.359,121.91c-0.059,0-0.119,0.001-0.178,0.002c-2.842,0.05-5.527,1.307-7.387,3.456l-18.08,20.905L242.537,81.11
		c-1.809-2.935-5.002-4.73-8.449-4.751c-0.021,0-0.041,0-0.063,0c-3.424,0-6.611,1.751-8.445,4.645l-48.668,76.77
		c-1.951,3.08-2.072,6.979-0.314,10.174s5.115,5.181,8.762,5.181h152c0,0,0.014,0,0.018,0c5.525,0,10-4.478,10-10
		c0-2.824-1.168-5.374-3.053-7.192l-28.639-30.831C313.791,123.065,311.137,121.91,308.359,121.91z"/>
</g>
</svg>
