<?xml version="1.0" encoding="utf-8"?>
<!-- Generator: Adobe Illustrator 16.0.0, SVG Export Plug-In . SVG Version: 6.00 Build 0)  -->
<!DOCTYPE svg PUBLIC "-//W3C//DTD SVG 1.1//EN" "http://www.w3.org/Graphics/SVG/1.1/DTD/svg11.dtd">
<svg version="1.1" id="Layer_1" xmlns="http://www.w3.org/2000/svg" xmlns:xlink="http://www.w3.org/1999/xlink" x="0px" y="0px"
	 width="512px" height="512px" viewBox="0 0 512 512" enable-background="new 0 0 512 512" xml:space="preserve">
<g>
	<path d="M459.48,100.572c-26.468-7.68-57.152,0.551-91.206,24.468C351.801,136.608,304.15,180.598,256,180.598
		s-95.797-43.986-112.274-55.558c-34.056-23.915-64.744-32.148-91.207-24.468c-9.744,2.829-15.512,13.617-12.883,24.098
		c2.63,10.481,12.664,16.683,22.405,13.857c25.296-7.342,58.922,15.29,80.479,34.111c-6.28,22.32-9.764,46.86-9.764,72.638
		c0,24.02,3.021,46.968,8.51,68.044c-26.775,9.859-61.261,29.018-86.565,65.906c-5.993,8.735-4.267,21.042,3.855,27.486
		c3.266,2.591,7.068,3.839,10.835,3.839c5.605,0,11.138-2.764,14.721-7.987c20.083-29.273,48.467-44.535,70.104-52.359
		c18.939,41.791,48.869,71.328,83.507,79.103V289.442c0-10.855,8.183-19.655,18.276-19.655s18.276,8.8,18.276,19.655v139.866
		c8.317-1.867,16.358-5.001,24.046-9.246c-5.352-11.626-8.342-24.556-8.342-38.171c0-48.49,37.87-88.294,85.587-91.406
		c2.396-14.474,3.677-29.613,3.677-45.208c0-25.755-3.493-50.262-9.767-72.561c21.404-18.567,55.364-41.479,80.481-34.188
		c9.739,2.826,19.777-3.376,22.405-13.857C474.994,114.189,469.227,103.401,459.48,100.572z"/>
	<path d="M193.419,124.448c16.574,14.662,38.798,22.737,62.581,22.737c23.783,0,46.007-8.075,62.583-22.737
		c7.09-6.272,12.687-13.393,16.681-21.029C314.652,71.561,286.736,52,256,52s-58.652,19.562-79.264,51.419
		C180.731,111.055,186.327,118.175,193.419,124.448z"/>
	<path d="M383.6,306.782c-42.311,0-76.609,34.299-76.609,76.609S341.289,460,383.6,460s76.609-34.299,76.609-76.609
		S425.91,306.782,383.6,306.782z M430.435,366.244l-54.387,54.388c-1.066,1.064-2.512,1.664-4.019,1.664
		c-1.507,0-2.952-0.599-4.019-1.665l-31.246-31.247c-2.219-2.22-2.219-5.818,0-8.038l12.055-12.055c2.22-2.218,5.818-2.219,8.038,0
		l15.172,15.171l38.313-38.312c2.22-2.219,5.818-2.219,8.038,0l12.055,12.056c1.065,1.065,1.665,2.512,1.665,4.019
		S431.5,365.179,430.435,366.244z"/>
</g>
</svg>
