<?xml version="1.0" encoding="utf-8"?>
<!-- Generator: Adobe Illustrator 16.0.0, SVG Export Plug-In . SVG Version: 6.00 Build 0)  -->
<!DOCTYPE svg PUBLIC "-//W3C//DTD SVG 1.1//EN" "http://www.w3.org/Graphics/SVG/1.1/DTD/svg11.dtd">
<svg version="1.1" id="Layer_1" xmlns="http://www.w3.org/2000/svg" xmlns:xlink="http://www.w3.org/1999/xlink" x="0px" y="0px"
	 width="512px" height="512px" viewBox="0 0 512 512" enable-background="new 0 0 512 512" xml:space="preserve">
<g>
	<path d="M371.158,184.877c10.463,14.697,18.735,31.051,24.339,48.592c-8.416-6.07-18.366-11.678-29.761-16.717
		c-6.037-2.674-12.403-5.145-19.033-7.416l-12.254,12.252c-2.784,2.795-6.326,4.688-10.221,5.459l-19.241,3.816
		c2.876,17.883,4.376,36.795,4.376,56.207c0,22.236-1.965,43.82-5.723,63.955c-23.598,4.805-49.551,7.334-76.454,7.334
		c-26.902,0-52.849-2.529-76.452-7.334c-3.752-20.135-5.717-41.719-5.717-63.955s1.965-43.814,5.717-63.951
		c23.604-4.801,49.55-7.338,76.452-7.338c17.337,0,34.267,1.061,50.433,3.09c-1.171-3.322-1.464-6.939-0.753-10.51l2.774-13.971
		c-16.893-2.08-34.492-3.166-52.454-3.166c-24.396,0-48.151,1.986-70.338,5.785c3.935-13.762,8.795-26.553,14.537-38.023
		c15.418-30.855,35.763-48.547,55.801-48.547c20.043,0,40.384,17.691,55.809,48.547c2.129,4.25,4.132,8.684,6.015,13.283
		l18.658-18.66c-5.647-12.139-12.07-22.961-19.144-32.176c12.067,4.482,23.513,10.26,34.173,17.145l17.722-17.723
		c-32.28-22.057-71.274-34.973-113.232-34.973C116.255,85.883,26,176.139,26,287.07c0,110.939,90.255,201.193,201.187,201.193
		c110.939,0,201.194-90.254,201.194-201.193c0-44.834-14.749-86.287-39.642-119.771L371.158,184.877z M165.856,121.434
		c-15.577,20.299-28.021,48.277-35.911,81.275c-14.893,3.807-28.777,8.5-41.304,14.043c-11.396,5.039-21.342,10.646-29.758,16.717
		C75.401,181.721,115.171,140.26,165.856,121.434z M98.575,239.213c8.099-3.586,16.852-6.779,26.137-9.58
		c-2.771,18.139-4.258,37.398-4.258,57.438s1.487,39.301,4.258,57.445c-9.285-2.805-18.038-6-26.137-9.58
		c-30.514-13.504-48.019-30.941-48.019-47.865C50.557,270.154,68.062,252.709,98.575,239.213z M88.642,357.396
		c12.526,5.539,26.411,10.236,41.304,14.035c7.89,33.004,20.334,60.984,35.911,81.281c-50.686-18.826-90.455-60.285-106.973-112.035
		C67.3,346.748,77.246,352.352,88.642,357.396 M227.187,463.701c-20.038,0-40.383-17.691-55.801-48.539
		c-5.742-11.477-10.603-24.262-14.537-38.029c22.187,3.803,45.942,5.789,70.338,5.789c24.399,0,48.152-1.986,70.344-5.789
		c-3.933,13.768-8.799,26.553-14.535,38.029C267.57,446.01,247.229,463.701,227.187,463.701z M288.524,452.713
		c15.571-20.297,28.017-48.277,35.911-81.281c14.893-3.799,28.777-8.496,41.301-14.035c11.395-5.045,21.345-10.648,29.761-16.719
		C378.975,392.428,339.21,433.887,288.524,452.713z M355.799,334.936c-8.093,3.58-16.849,6.775-26.13,9.58
		c2.767-18.145,4.251-37.406,4.251-57.445s-1.484-39.299-4.251-57.438c9.281,2.801,18.037,5.994,26.13,9.58
		c30.521,13.496,48.021,30.941,48.021,47.857C403.819,303.994,386.319,321.432,355.799,334.936z"/>
	<path d="M483.925,85.719l-59.903-59.906c-2.771-2.768-7.252-2.768-10.013,0l-14.045,14.041c-2.763,2.766-2.763,7.244,0,10.014
		l1.89,1.889l-22.908,17.619l-39.765,6.111c-2.634,0.406-4.816,2.262-5.649,4.797c-0.83,2.535-0.163,5.324,1.723,7.209
		l28.887,28.885l-66.913,66.914c-0.993,0.99-1.668,2.252-1.939,3.629l-4.747,23.955c-0.464,2.318,0.266,4.717,1.938,6.381
		c1.674,1.672,4.063,2.402,6.383,1.939l23.959-4.748c1.372-0.273,2.638-0.947,3.627-1.941l66.91-66.904l28.885,28.885
		c1.886,1.887,4.675,2.553,7.214,1.719c2.529-0.828,4.387-3.016,4.795-5.652l6.111-39.764l17.623-22.91l1.889,1.891
		c2.764,2.77,7.245,2.77,10.011,0l14.04-14.039C486.691,92.965,486.691,88.482,483.925,85.719z"/>
</g>
</svg>
