<?xml version="1.0" encoding="utf-8"?>
<!-- Generator: Adobe Illustrator 16.0.0, SVG Export Plug-In . SVG Version: 6.00 Build 0)  -->
<!DOCTYPE svg PUBLIC "-//W3C//DTD SVG 1.1//EN" "http://www.w3.org/Graphics/SVG/1.1/DTD/svg11.dtd">
<svg version="1.1" id="Layer_1" xmlns="http://www.w3.org/2000/svg" xmlns:xlink="http://www.w3.org/1999/xlink" x="0px" y="0px"
	 width="512px" height="512px" viewBox="0 0 512 512" enable-background="new 0 0 512 512" xml:space="preserve">
<g>
	<path d="M430.109,244.62H93.271V82.38c0-6.285-5.095-11.38-11.38-11.38c-6.28,0-11.376,5.095-11.376,11.38v347.24
		c0,6.285,5.096,11.38,11.376,11.38c6.285,0,11.38-5.095,11.38-11.38V267.38h336.839c6.28,0,11.376-5.096,11.376-11.38
		S436.39,244.62,430.109,244.62z"/>
	<path d="M118.564,229.108h233.021c3.144,0,5.692-2.55,5.692-5.692V115.29c0-2.157-1.22-4.126-3.147-5.091
		c-1.932-0.963-4.236-0.752-5.96,0.542l-89.459,67.246l-79.652-18.271c-1.894-0.433-3.877,0.128-5.261,1.485l-59.219,58.156
		c-1.651,1.619-2.156,4.074-1.279,6.213C114.175,227.709,116.254,229.108,118.564,229.108z"/>
	<path d="M351.589,282.892H118.567c-3.144,0-5.692,2.55-5.692,5.692V396.71c0,2.157,1.221,4.126,3.148,5.091
		c0.807,0.401,1.677,0.601,2.543,0.601c1.209,0,2.415-0.388,3.418-1.143l89.457-67.247l79.656,18.271
		c1.894,0.439,3.873-0.128,5.257-1.485l59.22-58.155c1.65-1.619,2.156-4.074,1.282-6.213
		C355.979,284.291,353.899,282.892,351.589,282.892z"/>
</g>
</svg>
