<?xml version="1.0" encoding="utf-8"?>
<!-- Generator: Adobe Illustrator 16.0.0, SVG Export Plug-In . SVG Version: 6.00 Build 0)  -->
<!DOCTYPE svg PUBLIC "-//W3C//DTD SVG 1.1//EN" "http://www.w3.org/Graphics/SVG/1.1/DTD/svg11.dtd">
<svg version="1.1" id="Layer_1" xmlns="http://www.w3.org/2000/svg" xmlns:xlink="http://www.w3.org/1999/xlink" x="0px" y="0px"
	 width="512px" height="512px" viewBox="0 0 512 512" enable-background="new 0 0 512 512" xml:space="preserve">
<g>
	<path d="M458.527,393.12l-75.125-75.125c-8.295-8.29-18.949-12.763-29.799-13.443l-25.518-25.519
		c37.908-60.273,30.656-141.031-21.773-193.46c-60.859-60.86-159.883-60.858-220.74,0c-60.859,60.858-60.859,159.882,0.002,220.739
		c52.428,52.433,133.186,59.686,193.461,21.772l25.514,25.519c0.684,10.85,5.154,21.505,13.445,29.795l75.127,75.127
		c18.061,18.063,47.342,18.061,65.406-0.002C476.584,440.467,476.588,411.183,458.527,393.12z M285.789,259.132
		c-2.193-9.704-5.543-17.818-10.809-19.913l-44.955-17.923l-10.527-8.87c-2.779-2.35-6.887-2.177-9.465,0.388l-14.637,14.554
		l-14.676-14.559c-2.582-2.56-6.682-2.726-9.461-0.383l-10.525,8.87l-44.957,17.926c-5.043,2.008-8.326,9.54-10.518,18.7
		c-29.24-42.746-24.906-101.724,13.016-139.647c42.822-42.826,112.506-42.826,155.332,0.004
		C311.891,156.559,315.949,216.295,285.789,259.132z"/>
	<path d="M195.559,101.052v-0.01c-0.043,0-0.076,0.006-0.125,0.006v-0.006c-0.014,0-0.037,0-0.051,0.006
		c-0.023-0.006-0.045-0.006-0.061-0.006v0.006c-0.047,0-0.08-0.006-0.121-0.006v0.01c-27.947,0.746-45.104,16.564-44.822,44.236
		c0.426,39.886,17.229,64.082,44.865,63.658v0.008c0.023,0,0.049,0,0.072,0c0.014,0,0.025,0,0.049,0c0,0,0.006,0,0.018,0h0.012
		c0.016,0,0.033,0,0.033,0c0.033,0,0.057,0,0.08,0v-0.008c27.637,0.424,44.443-23.772,44.871-63.658
		C240.664,117.617,223.506,101.798,195.559,101.052z"/>
</g>
</svg>
