<?xml version="1.0" encoding="utf-8"?>
<!-- Generator: Adobe Illustrator 16.0.0, SVG Export Plug-In . SVG Version: 6.00 Build 0)  -->
<!DOCTYPE svg PUBLIC "-//W3C//DTD SVG 1.1//EN" "http://www.w3.org/Graphics/SVG/1.1/DTD/svg11.dtd">
<svg version="1.1" id="Layer_1" xmlns="http://www.w3.org/2000/svg" xmlns:xlink="http://www.w3.org/1999/xlink" x="0px" y="0px"
	 width="512px" height="512px" viewBox="0 0 512 512" enable-background="new 0 0 512 512" xml:space="preserve">
<g>
	<path d="M338.979,249.29c6.354,6.354,16.657,6.354,23.011,0s6.354-16.656,0-23.011l-31.064-31.063l15.339-15.34l31.064,31.063
		c6.354,6.354,16.656,6.354,23.01,0c6.354-6.354,6.354-16.656,0-23.01l-31.08-31.079c6.047-6.375,5.959-16.437-0.291-22.688
		c-6.354-6.354-16.656-6.354-23.01,0L184.448,295.671c-11.436-8.282-24.14-13.808-36.897-15.893
		c-19.177-3.131-36.279,1.682-48.152,13.556c-11.875,11.873-16.688,28.974-13.555,48.153c2.877,17.604,12.28,35.119,26.48,49.319
		c14.199,14.2,31.714,23.604,49.319,26.48c19.177,3.134,36.278-1.68,48.153-13.554c11.875-11.874,16.688-28.975,13.553-48.152
		c-2.083-12.758-7.611-25.461-15.892-36.897l100.458-100.458L338.979,249.29z M188.271,382.208
		c-11.85,11.849-37.28,6.438-55.534-11.814c-18.253-18.252-23.665-43.684-11.815-55.536c11.849-11.849,37.281-6.438,55.533,11.815
		C194.711,344.928,200.12,370.36,188.271,382.208z"/>
	<path d="M426.172,429.495l-32.47-33.652l21.138-7.992c1.234-0.468,2.067-1.631,2.111-2.951c0.044-1.318-0.711-2.534-1.914-3.082
		l-90.25-41.06c-1.222-0.554-2.658-0.307-3.623,0.625c-0.965,0.931-1.264,2.356-0.752,3.597l37.815,91.659
		c0.503,1.22,1.69,2.019,3.011,2.022c0.867,0.002,1.68-0.339,2.279-0.917c0.314-0.303,0.57-0.669,0.745-1.088l8.741-20.84
		l32.472,33.65c1.252,1.299,3.321,1.336,4.621,0.083l15.995-15.435C427.391,432.862,427.427,430.793,426.172,429.495z"/>
</g>
</svg>
