<?xml version="1.0" encoding="utf-8"?>
<!-- Generator: Adobe Illustrator 16.0.0, SVG Export Plug-In . SVG Version: 6.00 Build 0)  -->
<!DOCTYPE svg PUBLIC "-//W3C//DTD SVG 1.1//EN" "http://www.w3.org/Graphics/SVG/1.1/DTD/svg11.dtd">
<svg version="1.1" id="Layer_1" xmlns="http://www.w3.org/2000/svg" xmlns:xlink="http://www.w3.org/1999/xlink" x="0px" y="0px"
	 width="512px" height="512px" viewBox="0 0 512 512" enable-background="new 0 0 512 512" xml:space="preserve">
<g>
	<path d="M256.104,132.068h-0.208C198.054,132.068,151,179.126,151,236.959c0,38.492,20.459,72.315,36.902,99.491
		c10.582,17.493,20.573,34.019,20.573,45.049l0.53,13.861c0,0.214,0,0.288,0,0.273c0,0.128,0,0.307,0,0.559
		c-0.868,1.572-1.371,3.373-1.371,5.291c0,4.136,5.782,5.938,5.646,9.627c-0.149,3.691-11.956,5.744-11.956,12.453
		c0,6.894,12.666,8.224,12.666,12.485c0,4.249-6.356,5.563-6.356,9.986c0,6.097,4.94,11.039,11.042,11.039h74.648
		c6.102,0,11.042-4.942,11.042-11.039c0-9.235-31.026-10.327-48.057-10.229c18.568-0.655,54.367-3.114,54.367-12.243
		c0-12.324-68.713-12.453-68.713-12.453s62.403,0.123,62.403-9.627c0-1.918-0.503-3.719-1.37-5.291c0-0.252,0-0.431,0-0.559
		c0-0.18,0-0.261,0-0.28l0.529-13.854c0-10.842,9.335-26.025,20.143-43.602C340.3,310.849,361,277.186,361,236.959
		C361,179.126,313.946,132.068,256.104,132.068z M296.392,203.123l-34.498,60.147l30.294,0.002c1.057,0,2.027,0.594,2.51,1.535
		c0.482,0.935,0.4,2.072-0.215,2.926l-52.35,73.163c-0.548,0.763-1.414,1.177-2.297,1.177c-0.466,0-0.933-0.111-1.366-0.351
		c-1.254-0.695-1.789-2.216-1.246-3.538l23.615-57.553l-30.894-0.094c-0.964-0.008-1.858-0.502-2.376-1.312
		c-0.515-0.816-0.581-1.837-0.17-2.707l35.55-75.999c0.465-0.989,1.461-1.623,2.556-1.623h28.442c1.005,0,1.938,0.534,2.44,1.403
		C296.891,201.175,296.893,202.247,296.392,203.123z"/>
	<path d="M315.057,127.278c2.105,1.018,4.329,1.5,6.52,1.5c5.573,0,10.926-3.12,13.515-8.474l21.203-43.846
		c3.606-7.458,0.484-16.428-6.974-20.034c-7.457-3.605-16.428-0.484-20.034,6.974l-21.203,43.846
		C304.477,114.702,307.599,123.672,315.057,127.278z"/>
	<path d="M176.908,120.305c2.589,5.354,7.942,8.474,13.515,8.474c2.19,0,4.416-0.482,6.52-1.5
		c7.458-3.606,10.58-12.576,6.974-20.034l-21.203-43.846c-3.606-7.457-12.576-10.58-20.034-6.974s-10.58,12.576-6.974,20.034
		L176.908,120.305z"/>
	<path d="M451.527,205.516c-2.722-7.823-11.27-11.962-19.095-9.239l-46,16c-7.825,2.721-11.961,11.271-9.24,19.095
		c2.154,6.193,7.959,10.076,14.167,10.076c1.634,0,3.297-0.27,4.929-0.837l46-16C450.112,221.89,454.249,213.34,451.527,205.516z"/>
	<path d="M125.568,212.276l-46-16c-7.825-2.726-16.373,1.415-19.095,9.239c-2.722,7.824,1.415,16.374,9.24,19.095l46,16
		c1.631,0.568,3.293,0.837,4.928,0.837c6.207,0,12.013-3.883,14.167-10.076C137.529,223.547,133.393,214.997,125.568,212.276z"/>
</g>
</svg>
