<?xml version="1.0" encoding="utf-8"?>
<!-- Generator: Adobe Illustrator 16.0.0, SVG Export Plug-In . SVG Version: 6.00 Build 0)  -->
<!DOCTYPE svg PUBLIC "-//W3C//DTD SVG 1.1//EN" "http://www.w3.org/Graphics/SVG/1.1/DTD/svg11.dtd">
<svg version="1.1" id="Layer_1" xmlns="http://www.w3.org/2000/svg" xmlns:xlink="http://www.w3.org/1999/xlink" x="0px" y="0px"
	 width="512px" height="512px" viewBox="0 0 512 512" enable-background="new 0 0 512 512" xml:space="preserve">
<path d="M438.355,383.946c-17.385-18.646-36.67-66.384-78.67-96.409c-7.879-5.632-15.633-9.572-23.105-12.198
	c0.322-0.312,0.658-0.604,0.977-0.924l71.072-71.072c29.084-29.086,29.084-76.41,0-105.494L397.08,86.302
	c-29.084-29.086-76.408-29.086-105.492-0.002l-71.072,71.074c-16.043,16.041-23.217,37.631-21.563,58.65
	c-21.02-1.654-42.609,5.52-58.65,21.563l-71.074,71.072c-29.084,29.084-29.082,76.408,0.002,105.492L80.777,425.7
	c29.086,29.084,76.41,29.084,105.494,0l70.566-70.567c55.534,78.644,154.997,64.97,197.36,54.685
	c12.469-3.027,13.241-6.044,4.82-10.477C452.976,396.16,445.518,391.627,438.355,383.946z M245.633,182.491l71.072-71.074
	c15.234-15.234,40.023-15.234,55.258,0l11.549,11.549c15.234,15.236,15.234,40.023,0,55.258l-71.072,71.074
	c-12.895,12.895-32.633,14.873-47.631,5.939l29.459-29.459c6.936-6.936,6.936-18.18,0-25.115
	c-6.936-6.938-18.182-6.938-25.117-0.002l-29.459,29.459C230.76,215.122,232.738,195.386,245.633,182.491z M232.227,329.511
	l-71.074,71.072c-15.234,15.234-40.021,15.234-55.258,0l-11.547-11.549c-15.236-15.234-15.234-40.023-0.002-55.258l71.074-71.072
	c12.895-12.895,32.631-14.873,47.629-5.941l-29.459,29.459c-6.936,6.936-6.936,18.182,0,25.117c6.938,6.936,18.182,6.936,25.117,0
	l29.459-29.459C247.098,296.878,245.121,316.616,232.227,329.511z M394.955,373.113c-7.129-5.293-14.252-12.131-19.752-17.971
	c-5.686-5.776-10.539-10.468-13.195-13.105c-2.689-2.582-10.842-10.91-23.658-18.59c-6.516-3.879-13.771-7.322-22.563-10.566
	c-7.613-3.186-16.396-4.457-25.152-4.028c-4.057,0.2-8.068,0.708-11.988,1.429c0.432-3.865,0.566-7.756,0.398-11.639
	c3.697-0.439,7.484-0.71,11.342-0.746c42.895,1.765,71.807,33.58,77.135,38.631c2.766,2.744,7.402,7.926,12.578,14.226
	c5.104,6.479,10.85,13.28,17.436,19.439c12.668,12.404,25.283,22.201,25.271,22.173C422.816,392.389,409.1,384.215,394.955,373.113z
	"/>
</svg>
