<?xml version="1.0" encoding="utf-8"?>
<!-- Generator: Adobe Illustrator 16.0.0, SVG Export Plug-In . SVG Version: 6.00 Build 0)  -->
<!DOCTYPE svg PUBLIC "-//W3C//DTD SVG 1.1//EN" "http://www.w3.org/Graphics/SVG/1.1/DTD/svg11.dtd">
<svg version="1.1" id="Layer_1" xmlns="http://www.w3.org/2000/svg" xmlns:xlink="http://www.w3.org/1999/xlink" x="0px" y="0px"
	 width="512px" height="512px" viewBox="0 0 512 512" enable-background="new 0 0 512 512" xml:space="preserve">
<g>
	<path d="M436.923,338.322l-77.04-77.037c-21.884-21.884-56.731-23.072-80.039-3.59l-0.879-0.879
		c-6.111-6.111-16.021-6.111-22.133,0.001c-6.113,6.11-6.112,16.021,0,22.133l0.878,0.879
		c-19.482,23.308-18.294,58.155,3.588,80.039l0.001,0.001l77.042,77.041c11.215,11.215,26.127,17.391,41.989,17.391
		c15.863-0.002,30.776-6.18,41.99-17.396l14.597-14.596C460.074,399.155,460.076,361.479,436.923,338.322z M414.785,400.175
		l-14.599,14.598c-5.304,5.304-12.356,8.226-19.857,8.227c-7.501,0-14.552-2.92-19.857-8.226l-77.038-77.037
		c-9.662-9.662-10.793-24.667-3.404-35.588l18.855,18.856c6.111,6.111,16.021,6.111,22.133-0.001c6.113-6.111,6.112-16.021,0-22.133
		l-18.855-18.856c10.92-7.389,25.926-6.257,35.588,3.405l77.039,77.035C425.738,371.406,425.736,389.225,414.785,400.175z"/>
	<path d="M255.17,255.155c6.112-6.111,6.113-16.021,0.001-22.133l-0.88-0.88c19.48-23.308,18.293-58.155-3.59-80.04l-77.036-77.038
		c-23.154-23.154-60.831-23.153-83.985,0.002l-14.6,14.6c-23.154,23.153-23.154,60.829-0.001,83.983l0.001,0.001l77.037,77.036
		c0,0,0.001,0.001,0.002,0.002c11.215,11.215,26.127,17.393,41.99,17.393c14.072,0,27.393-4.87,38.054-13.799l0.874,0.874
		C239.148,261.268,249.059,261.268,255.17,255.155z M231.972,209.823l-18.856-18.855c-6.111-6.112-16.021-6.112-22.133,0
		c-6.111,6.111-6.112,16.021,0,22.134l18.862,18.862c-4.608,3.13-10.042,4.815-15.735,4.815c-7.502,0-14.554-2.921-19.857-8.227
		l-77.038-77.035c-10.95-10.951-10.95-28.769-0.001-39.718l14.6-14.6c10.951-10.951,28.77-10.951,39.719-0.002l77.036,77.037
		C238.229,183.897,239.359,198.902,231.972,209.823z"/>
	<path d="M268.277,149.52l36.807,0.231c1.607,0.01,3.098-0.839,3.91-2.226c0.813-1.388,0.824-3.103,0.028-4.5l-2.493-4.381
		c18.245-2.402,36.691,3.833,49.835,16.978c13.144,13.144,19.378,31.588,16.978,49.833l-4.381-2.491
		c-1.397-0.796-3.113-0.785-4.5,0.027s-2.235,2.304-2.226,3.911l0.231,36.806c0.008,1.2,0.492,2.328,1.318,3.154
		c0.281,0.28,0.602,0.527,0.956,0.729c1.397,0.795,3.112,0.784,4.499-0.028l31.762-18.602c1.389-0.812,2.236-2.303,2.227-3.91
		c-0.01-1.608-0.879-3.091-2.275-3.884l-6.511-3.704c6.993-28.297-1.101-57.391-21.814-78.104s-49.808-28.809-78.103-21.813
		l-3.707-6.513c-0.796-1.399-2.275-2.266-3.883-2.274c-1.607-0.01-3.099,0.838-3.911,2.226l-18.602,31.762
		c-0.812,1.387-0.823,3.102-0.027,4.5C265.19,148.641,266.67,149.509,268.277,149.52z"/>
</g>
</svg>
