<?xml version="1.0" encoding="utf-8"?>
<!-- Generator: Adobe Illustrator 16.0.0, SVG Export Plug-In . SVG Version: 6.00 Build 0)  -->
<!DOCTYPE svg PUBLIC "-//W3C//DTD SVG 1.1//EN" "http://www.w3.org/Graphics/SVG/1.1/DTD/svg11.dtd">
<svg version="1.1" id="Layer_1" xmlns="http://www.w3.org/2000/svg" xmlns:xlink="http://www.w3.org/1999/xlink" x="0px" y="0px"
	 width="512px" height="512px" viewBox="0 0 512 512" enable-background="new 0 0 512 512" xml:space="preserve">
<g>
	<path d="M470.148,312.739l-4.391-4.393c-11.06-11.06-29.056-11.06-40.116,0l-27.027,27.027c-6.101,6.102-8.829,14.312-8.198,22.305
		c-7.994-0.629-16.205,2.099-22.307,8.199l-27.027,27.027c-11.059,11.061-11.059,29.057,0,40.116l4.393,4.392
		c11.061,11.061,29.057,11.061,40.117,0l27.027-27.027c6.1-6.1,8.828-14.311,8.199-22.303c7.992,0.628,16.203-2.101,22.305-8.2
		l27.025-27.027C481.209,341.795,481.209,323.799,470.148,312.739z M403.068,400.835l-27.028,27.027
		c-5.792,5.792-15.22,5.792-21.013,0l-4.393-4.393c-5.794-5.793-5.794-15.22,0-21.013l27.027-27.027
		c4.903-4.903,12.409-5.656,18.113-2.26l-11.203,11.203c-2.638,2.638-2.638,6.914,0,9.552c2.637,2.637,6.914,2.637,9.552,0
		l11.202-11.203C408.723,388.425,407.971,395.931,403.068,400.835z M460.598,343.304l-27.027,27.027
		c-4.904,4.904-12.41,5.655-18.113,2.26l11.203-11.203c2.637-2.637,2.637-6.914,0-9.551c-2.638-2.638-6.912-2.638-9.551,0
		l-11.203,11.201c-3.396-5.703-2.645-13.208,2.26-18.111l27.027-27.028c5.793-5.793,15.219-5.793,21.014,0l4.391,4.393
		C466.391,328.084,466.391,337.511,460.598,343.304z"/>
	<path d="M127.715,290.789h242.183c3.593,0,6.908-1.927,8.688-5.048s1.747-6.956-0.083-10.047l-57.405-96.947
		c-1.8-3.041-5.071-4.905-8.604-4.905H185.121c-3.533,0-6.805,1.864-8.604,4.905l-57.407,96.947
		c-1.829,3.091-1.861,6.926-0.082,10.047S124.122,290.789,127.715,290.789z"/>
	<path d="M335.059,379.229l27.03-27.029c5.346-5.346,11.63-9.415,18.486-12.057c2.646-6.839,6.704-13.133,12.017-18.446l0.855-0.855
		H98.076c-3.533,0-6.805,1.864-8.604,4.905L34.95,417.823c-1.83,3.091-1.862,6.926-0.083,10.047s5.095,5.048,8.688,5.048
		l278.338-0.001C316.179,414.571,320.559,393.732,335.059,379.229z"/>
	<path d="M214.758,143.789h68.096c3.593,0,6.908-1.927,8.688-5.048s1.747-6.956-0.084-10.047L257.41,71.196
		c-1.799-3.041-5.07-4.905-8.604-4.905s-6.805,1.864-8.604,4.904l-34.048,57.498c-1.83,3.092-1.862,6.927-0.083,10.048
		C207.85,141.862,211.166,143.789,214.758,143.789z"/>
</g>
</svg>
