<?xml version="1.0" encoding="utf-8"?>
<!-- Generator: Adobe Illustrator 16.0.0, SVG Export Plug-In . SVG Version: 6.00 Build 0)  -->
<!DOCTYPE svg PUBLIC "-//W3C//DTD SVG 1.1//EN" "http://www.w3.org/Graphics/SVG/1.1/DTD/svg11.dtd">
<svg version="1.1" id="Layer_1" xmlns="http://www.w3.org/2000/svg" xmlns:xlink="http://www.w3.org/1999/xlink" x="0px" y="0px"
	 width="512px" height="512px" viewBox="0 0 512 512" enable-background="new 0 0 512 512" xml:space="preserve">
<g>
	<path d="M361.416,273.461l77.934-77.936c31.893-31.892,31.893-83.782-0.004-115.674l-12.66-12.66
		c-31.893-31.896-83.781-31.896-115.674-0.004l-77.936,77.934c-17.588,17.588-25.457,41.264-23.646,64.311
		c-23.045-1.813-46.721,6.056-64.307,23.647l-77.936,77.935c-31.893,31.889-31.893,83.78,0,115.673l12.664,12.663
		c31.893,31.893,83.783,31.893,115.674,0l77.934-77.935c17.592-17.589,25.459-41.265,23.648-64.308
		C320.15,298.92,343.826,291.05,361.416,273.461z M245.92,333.873l-77.936,77.936c-16.705,16.703-43.889,16.703-60.59,0
		l-12.666-12.665c-16.705-16.702-16.703-43.886,0-60.594l77.936-77.932c14.139-14.141,35.779-16.306,52.225-6.516l-32.301,32.306
		c-7.607,7.603-7.607,19.937,0,27.541c7.605,7.607,19.936,7.607,27.541,0l32.305-32.302
		C262.225,298.094,260.061,319.734,245.92,333.873z M281.648,252.435l32.299-32.306c7.609-7.602,7.609-19.935,0-27.538
		c-7.604-7.61-19.936-7.61-27.541-0.004l-32.303,32.303c-9.791-16.446-7.627-38.087,6.514-52.226l77.934-77.935
		c16.707-16.707,43.889-16.707,60.594,0l12.664,12.664c16.705,16.705,16.705,43.886,0,60.591l-77.936,77.937
		C319.734,260.062,298.094,262.225,281.648,252.435z"/>
	<path d="M386.732,304.731c-45.287,0-82,36.713-82,82s36.713,82,82,82s82-36.713,82-82S432.02,304.731,386.732,304.731z
		 M415.771,376.83l-56.045,56.104c-0.24,0.238-0.537,0.41-0.863,0.495l-22.316,5.849c-0.65,0.169-1.346-0.019-1.822-0.494
		c-0.477-0.479-0.666-1.171-0.496-1.825l5.826-22.318c0.084-0.327,0.256-0.626,0.494-0.863l56.047-56.105
		c0.742-0.743,1.945-0.744,2.688-0.001l4.547,4.54c0.74,0.742,0.742,1.945,0,2.689l-37.432,37.47l4.709,4.704l37.434-37.472
		c0.74-0.741,1.941-0.742,2.682-0.001l4.549,4.541C416.516,374.884,416.516,376.088,415.771,376.83z M438.738,353.84l-17,17.017
		c-0.74,0.744-1.943,0.745-2.684,0.003l-16.49-16.474c-0.744-0.741-0.744-1.944-0.002-2.688l17-17.019
		c0.742-0.741,1.945-0.741,2.688-0.002l16.488,16.476C439.482,351.894,439.482,353.097,438.738,353.84z"/>
</g>
</svg>
