<?xml version="1.0" encoding="utf-8"?>
<!-- Generator: Adobe Illustrator 16.0.0, SVG Export Plug-In . SVG Version: 6.00 Build 0)  -->
<!DOCTYPE svg PUBLIC "-//W3C//DTD SVG 1.1//EN" "http://www.w3.org/Graphics/SVG/1.1/DTD/svg11.dtd">
<svg version="1.1" id="Layer_1" xmlns="http://www.w3.org/2000/svg" xmlns:xlink="http://www.w3.org/1999/xlink" x="0px" y="0px"
	 width="512px" height="512px" viewBox="0 0 512 512" enable-background="new 0 0 512 512" xml:space="preserve">
<path d="M430.962,131.988h-50.683v-5.447c0-8.525-6.911-15.436-15.437-15.436h-39.51V98.293c0-8.525-6.911-15.438-15.437-15.438
	H202.104c-8.526,0-15.437,6.912-15.437,15.438v12.813h-39.51c-8.526,0-15.437,6.91-15.437,15.436v5.447H81.038
	c-13.374,0-24.215,10.842-24.215,24.215V404.93c0,13.373,10.841,24.215,24.215,24.215h349.924c13.374,0,24.214-10.842,24.214-24.215
	V156.203C455.177,142.83,444.336,131.988,430.962,131.988z M194.414,114.404h123.173v17.584H194.414V114.404z M420.196,190.434
	L280.05,285.586c-0.775,12.627-11.23,22.635-24.05,22.635s-23.275-10.008-24.05-22.635L91.804,190.434
	c-5.532-3.756-6.972-11.285-3.216-16.818c3.756-5.531,11.285-6.971,16.818-3.215l137.571,93.406
	c3.759-2.418,8.221-3.838,13.022-3.838s9.264,1.42,13.022,3.838L406.594,170.4c5.534-3.756,13.063-2.314,16.818,3.215
	C427.167,179.148,425.728,186.678,420.196,190.434z"/>
</svg>
