<?xml version="1.0" encoding="utf-8"?>
<!-- Generator: Adobe Illustrator 16.0.0, SVG Export Plug-In . SVG Version: 6.00 Build 0)  -->
<!DOCTYPE svg PUBLIC "-//W3C//DTD SVG 1.1//EN" "http://www.w3.org/Graphics/SVG/1.1/DTD/svg11.dtd">
<svg version="1.1" id="Layer_1" xmlns="http://www.w3.org/2000/svg" xmlns:xlink="http://www.w3.org/1999/xlink" x="0px" y="0px"
	 width="512px" height="512px" viewBox="0 0 512 512" enable-background="new 0 0 512 512" xml:space="preserve">
<g>
	<path d="M434.843,393.375l-34.153-34.153c-3.771-3.77-8.616-5.802-13.546-6.112l-11.603-11.601
		c17.237-27.401,13.938-64.115-9.897-87.952c-27.669-27.667-72.688-27.667-100.355,0c-27.666,27.668-27.666,72.688,0.002,100.355
		c23.834,23.836,60.547,27.133,87.949,9.898l11.603,11.601c0.309,4.932,2.343,9.777,6.112,13.546l34.152,34.155
		c8.213,8.211,21.526,8.209,29.736-0.001C443.051,414.899,443.053,401.586,434.843,393.375z M350.775,339.043
		c-19.469,19.469-51.147,19.469-70.619,0c-19.472-19.472-19.47-51.15,0-70.621c19.47-19.469,51.146-19.469,70.619,0.002
		C370.243,287.894,370.243,319.573,350.775,339.043z"/>
	<path d="M351.168,381.926l-0.225-0.225h-3.423c-10.349,4.359-21.522,6.63-32.913,6.63c-11.516,0-22.672-2.289-32.958-6.63H96.778
		V159.556h305.918v184.73c2.459,1.461,4.755,3.214,6.807,5.266l18.975,18.975V104.215c0-11.845-9.638-21.483-21.484-21.483H92.48
		C80.637,82.732,71,92.37,71,104.215v281.784c0,11.845,9.637,21.483,21.48,21.483h276.811l-8.859-8.858
		C355.814,394.005,352.625,388.215,351.168,381.926z M379.108,118.806c0-4.381,3.553-7.932,7.933-7.932h7.932
		c4.38,0,7.932,3.551,7.932,7.932v8.99c0,4.381-3.552,7.932-7.932,7.932h-7.932c-4.38,0-7.933-3.551-7.933-7.932V118.806z
		 M342.224,118.806c0-4.381,3.551-7.932,7.932-7.932h7.935c4.379,0,7.93,3.551,7.93,7.932v8.99c0,4.381-3.551,7.932-7.93,7.932
		h-7.935c-4.381,0-7.932-3.551-7.932-7.932V118.806z M305.34,118.806c0-4.381,3.551-7.932,7.931-7.932h7.934
		c4.38,0,7.933,3.551,7.933,7.932v8.99c0,4.381-3.553,7.932-7.933,7.932h-7.934c-4.38,0-7.931-3.551-7.931-7.932V118.806z"/>
	<path d="M255.078,203.164c0-6.292-5.1-11.393-11.392-11.393H125.44c-6.291,0-11.393,5.102-11.393,11.393
		c0,6.292,5.102,11.395,11.393,11.395h118.246C249.979,214.558,255.078,209.456,255.078,203.164z"/>
	<path d="M125.44,269.248h63.555c6.292,0,11.395-5.102,11.395-11.395c0-6.291-5.103-11.393-11.395-11.393H125.44
		c-6.291,0-11.393,5.102-11.393,11.393C114.048,264.146,119.149,269.248,125.44,269.248z"/>
	<path d="M125.44,323.937h90.901c6.29,0,11.393-5.102,11.393-11.395c0-6.291-5.103-11.393-11.393-11.393H125.44
		c-6.291,0-11.393,5.102-11.393,11.393C114.048,318.835,119.149,323.937,125.44,323.937z"/>
</g>
</svg>
