<?xml version="1.0" encoding="utf-8"?>
<!-- Generator: Adobe Illustrator 16.0.0, SVG Export Plug-In . SVG Version: 6.00 Build 0)  -->
<!DOCTYPE svg PUBLIC "-//W3C//DTD SVG 1.1//EN" "http://www.w3.org/Graphics/SVG/1.1/DTD/svg11.dtd">
<svg version="1.1" id="Layer_1" xmlns="http://www.w3.org/2000/svg" xmlns:xlink="http://www.w3.org/1999/xlink" x="0px" y="0px"
	 width="512px" height="512px" viewBox="0 0 512 512" enable-background="new 0 0 512 512" xml:space="preserve">
<g>
	<path d="M448.148,386.093l-71.275-71.275c-7.869-7.866-17.979-12.108-28.271-12.754l-24.209-24.21
		c35.967-57.185,29.084-133.804-20.658-183.546c-57.74-57.741-151.689-57.74-209.43,0c-57.74,57.739-57.74,151.689,0.002,209.428
		c49.742,49.746,126.361,56.626,183.547,20.657l24.207,24.21c0.648,10.293,4.891,20.404,12.756,28.269l71.277,71.277
		c17.137,17.138,44.918,17.135,62.055-0.001C465.281,431.014,465.285,403.23,448.148,386.093z M272.705,272.708
		c-40.627,40.63-106.742,40.63-147.371,0c-40.633-40.635-40.633-106.745-0.002-147.377c40.629-40.632,106.74-40.632,147.373,0.003
		C313.338,165.965,313.338,232.076,272.705,272.708z"/>
	<path d="M257.928,191.574h-3.359c-1.588-12.389-7.293-24.01-16.189-32.908c-8.893-8.896-20.512-14.6-32.908-16.19v-3.36
		c0-3.98-3.238-7.218-7.217-7.218c-3.982,0-7.219,3.238-7.219,7.218v3.36c-12.395,1.59-24.016,7.293-32.908,16.19
		c-8.896,8.898-14.6,20.519-16.191,32.908h-3.357c-3.982,0-7.221,3.238-7.221,7.219c0,3.979,3.238,7.217,7.221,7.217h3.357
		c1.592,12.39,7.295,24.011,16.191,32.909c8.893,8.896,20.514,14.6,32.908,16.191v3.358c0,3.981,3.236,7.219,7.219,7.219
		c3.979,0,7.217-3.238,7.217-7.219v-3.358c12.396-1.591,24.016-7.294,32.908-16.191c8.896-8.898,14.602-20.519,16.189-32.909h3.359
		c3.982,0,7.219-3.238,7.219-7.217C265.146,194.813,261.91,191.574,257.928,191.574z M237.695,206.01h2.281
		c-3.031,17.47-17.035,31.474-34.506,34.507v-2.283c0-3.98-3.238-7.217-7.217-7.217c-3.982,0-7.219,3.237-7.219,7.217v2.283
		c-17.473-3.033-31.475-17.037-34.504-34.507h2.279c3.979,0,7.215-3.238,7.215-7.217c0-3.98-3.236-7.219-7.215-7.219h-2.279
		c3.029-17.468,17.031-31.474,34.504-34.505v2.282c0,3.979,3.236,7.217,7.219,7.217c3.979,0,7.217-3.238,7.217-7.217v-2.282
		c17.471,3.031,31.475,17.037,34.506,34.505h-2.281c-3.979,0-7.215,3.238-7.215,7.219C230.48,202.772,233.717,206.01,237.695,206.01
		z"/>
</g>
</svg>
