<?xml version="1.0" encoding="utf-8"?>
<!-- Generator: Adobe Illustrator 16.0.0, SVG Export Plug-In . SVG Version: 6.00 Build 0)  -->
<!DOCTYPE svg PUBLIC "-//W3C//DTD SVG 1.1//EN" "http://www.w3.org/Graphics/SVG/1.1/DTD/svg11.dtd">
<svg version="1.1" id="Layer_1" xmlns="http://www.w3.org/2000/svg" xmlns:xlink="http://www.w3.org/1999/xlink" x="0px" y="0px"
	 width="512px" height="512px" viewBox="0 0 512 512" enable-background="new 0 0 512 512" xml:space="preserve">
<g>
	<path d="M245.099,160.234c-8.054,0-15.489,4.167-20.931,11.734c-3.621,5.034-6.055,11.219-7.124,17.907l-81.603,0
		c-4.311,0-7.805,3.495-7.805,7.806c0,4.239,3.382,7.683,7.596,7.793l0,21.086c0,4.31,3.495,7.804,7.805,7.804
		c4.311,0.001,7.805-3.495,7.805-7.805l0-21.073l10.408,0l-0.001,21.074c0.001,4.31,3.495,7.805,7.806,7.805
		s7.806-3.496,7.806-7.806l0-21.073h40.184c1.071,6.687,3.503,12.872,7.124,17.907c5.441,7.567,12.876,11.735,20.931,11.734
		c8.057,0,15.49-4.167,20.931-11.734c4.999-6.947,7.749-16.079,7.749-25.713c0-9.634-2.751-18.766-7.749-25.713
		C260.589,164.401,253.156,160.233,245.099,160.234z M245.099,220.527c-8.036,0-14.828-10.463-14.828-22.847
		c0-12.381,6.79-22.845,14.828-22.845c8.041,0,14.831,10.464,14.83,22.846C259.929,210.064,253.139,220.527,245.099,220.527z"/>
	<path d="M434.089,376.574l-66.061-66.061c-7.292-7.29-16.664-11.222-26.202-11.821l-22.438-22.439
		c33.337-53,26.958-124.013-19.145-170.117c-53.516-53.516-140.592-53.515-194.107,0c-53.514,53.515-53.514,140.591,0.001,194.106
		c46.103,46.105,117.115,52.482,170.117,19.146l22.439,22.438c0.6,9.54,4.532,18.911,11.821,26.2l66.062,66.063
		c15.883,15.883,41.632,15.88,57.514-0.001C449.969,418.208,449.972,392.458,434.089,376.574z M271.484,271.485
		c-37.657,37.658-98.932,37.658-136.59,0c-37.661-37.661-37.66-98.935-0.001-136.593c37.657-37.659,98.93-37.659,136.591,0.002
		C309.142,172.552,309.143,233.826,271.484,271.485z"/>
</g>
</svg>
