<?xml version="1.0" encoding="utf-8"?>
<!-- Generator: Adobe Illustrator 16.0.0, SVG Export Plug-In . SVG Version: 6.00 Build 0)  -->
<!DOCTYPE svg PUBLIC "-//W3C//DTD SVG 1.1//EN" "http://www.w3.org/Graphics/SVG/1.1/DTD/svg11.dtd">
<svg version="1.1" id="Layer_1" xmlns="http://www.w3.org/2000/svg" xmlns:xlink="http://www.w3.org/1999/xlink" x="0px" y="0px"
	 width="512px" height="512px" viewBox="0 0 512 512" enable-background="new 0 0 512 512" xml:space="preserve">
<g>
	<path d="M334.715,224.432l-76.671-59.643c-1.202-0.935-2.885-0.935-4.087,0l-76.671,59.643c-0.811,0.63-1.285,1.602-1.285,2.629
		v90.672c0,1.838,1.491,3.33,3.329,3.33h153.342c1.838,0,3.329-1.492,3.329-3.33v-90.672
		C336,226.033,335.525,225.062,334.715,224.432z M256,268.33l-63.108-37.939h126.216L256,268.33z"/>
	<path d="M403.672,361.49c-5.518,0-10.81,0.955-15.731,2.692l-20.568-20.567c19.024-24.135,30.391-54.57,30.391-87.615
		s-11.366-63.48-30.391-87.615l20.568-20.567c4.921,1.737,10.213,2.692,15.731,2.692c26.098,0,47.253-21.156,47.253-47.256
		C450.925,77.156,429.77,56,403.672,56c-26.097,0-47.256,21.156-47.256,47.254c0,5.518,0.955,10.809,2.692,15.73l-21.298,21.299
		c-23.13-16.397-51.362-26.047-81.809-26.047s-58.679,9.649-81.809,26.047l-21.298-21.299c1.737-4.922,2.692-10.213,2.692-15.73
		c0-26.098-21.159-47.254-47.256-47.254c-26.098,0-47.253,21.156-47.253,47.254c0,26.1,21.156,47.256,47.253,47.256
		c5.518,0,10.81-0.955,15.731-2.692l20.568,20.567c-19.024,24.135-30.391,54.57-30.391,87.615s11.366,63.48,30.391,87.615
		l-20.568,20.567c-4.921-1.737-10.213-2.692-15.731-2.692c-26.098,0-47.253,21.156-47.253,47.257
		c0,26.097,21.156,47.253,47.253,47.253c26.097,0,47.256-21.156,47.256-47.253c0-5.519-0.955-10.81-2.692-15.731l21.298-21.299
		c23.13,16.397,51.362,26.047,81.809,26.047s58.679-9.649,81.809-26.047l21.298,21.299c-1.737,4.922-2.692,10.213-2.692,15.731
		c0,26.097,21.159,47.253,47.256,47.253c26.098,0,47.253-21.156,47.253-47.253C450.925,382.646,429.77,361.49,403.672,361.49z
		 M256,371c-63.512,0-115-51.486-115-115s51.488-115,115-115s115,51.486,115,115S319.512,371,256,371z"/>
</g>
</svg>
