<?xml version="1.0" encoding="utf-8"?>
<!-- Generator: Adobe Illustrator 16.0.0, SVG Export Plug-In . SVG Version: 6.00 Build 0)  -->
<!DOCTYPE svg PUBLIC "-//W3C//DTD SVG 1.1//EN" "http://www.w3.org/Graphics/SVG/1.1/DTD/svg11.dtd">
<svg version="1.1" id="Layer_2" xmlns="http://www.w3.org/2000/svg" xmlns:xlink="http://www.w3.org/1999/xlink" x="0px" y="0px"
	 width="512px" height="512px" viewBox="0 0 512 512" enable-background="new 0 0 512 512" xml:space="preserve">
<g>
	<path d="M112.258,398.934l81.168-33.715l19.008-16.686c5.015-4.404,12.419-4.093,17.078,0.722l26.503,27.383l26.424-27.375
		c4.655-4.823,12.071-5.148,17.091-0.73l19.007,16.686l81.167,33.711c9.174,3.801,15.127,18.147,19.092,35.545
		C448.298,396.801,466,348.701,466,296.289c0-120.82-94.02-218.765-210-218.765S46,175.469,46,296.289
		c0,52.402,17.694,100.494,47.188,138.165C97.146,417.069,103.092,402.737,112.258,398.934z M256.024,139.054
		c53.788,0,81.23,28.425,81.23,83.202c0,123.166-81.23,119.736-81.23,119.736c-49.897,0.793-80.499-44.717-81.271-119.736
		C174.221,167.48,203.365,139.054,256.024,139.054z"/>
</g>
</svg>
