<?xml version="1.0" encoding="utf-8"?>
<!-- Generator: Adobe Illustrator 16.0.0, SVG Export Plug-In . SVG Version: 6.00 Build 0)  -->
<!DOCTYPE svg PUBLIC "-//W3C//DTD SVG 1.1//EN" "http://www.w3.org/Graphics/SVG/1.1/DTD/svg11.dtd">
<svg version="1.1" id="Layer_1" xmlns="http://www.w3.org/2000/svg" xmlns:xlink="http://www.w3.org/1999/xlink" x="0px" y="0px"
	 width="512px" height="512px" viewBox="0 0 512 512" enable-background="new 0 0 512 512" xml:space="preserve">
<g>
	<path d="M262.89,166.176v-0.009c-0.035,0-0.064,0.006-0.104,0.006v-0.006c-0.01,0-0.031,0-0.041,0.006
		c-0.02-0.006-0.035-0.006-0.052-0.006v0.006c-0.039,0-0.063-0.006-0.096-0.006v0.009c-22.986,0.612-37.096,13.62-36.862,36.383
		c0.347,32.798,14.167,52.696,36.896,52.348v0.009c0.019,0,0.039,0,0.061,0c0.009,0,0.021,0,0.042,0c0,0,0.002,0,0.012,0h0.009
		c0.014,0,0.025,0,0.032,0c0.024,0,0.042,0,0.061,0v-0.009c22.728,0.349,36.553-19.55,36.904-52.348
		C299.984,179.798,285.873,166.788,262.89,166.176z"/>
	<path d="M149.277,388.665c-3.004-1.441-6.749-2.254-10.262-2.254c-9.145,0-14.824,5.446-14.824,14.192v7.931h-3.435
		c-1.392,0-2.516,1.132-2.516,2.528v5.188c0,1.382,1.124,2.513,2.516,2.513h3.435v19.684c0,1.397,1.124,2.528,2.516,2.528h9.863
		c1.391,0,2.515-1.131,2.515-2.528v-19.609h8.671c1.385,0,2.516-1.127,2.516-2.513v-5.263c0-1.396-1.13-2.528-2.516-2.528h-8.671
		v-5.782c0-2.801,0.967-4.053,3.143-4.053l0.151,0.003c0.909,0,1.97,0.223,3.287,0.674c0.655,0.208,1.377,0.157,1.987-0.155
		c0.615-0.329,1.07-0.887,1.255-1.542l1.714-6.052C150.958,390.438,150.391,389.184,149.277,388.665z"/>
	<path d="M419.945,36c-34.361,0-62.314,27.947-62.314,62.306c0,13.334,4.225,25.69,11.384,35.838l-27.855,27.854
		c-20.734-18.84-48.253-30.333-78.408-30.333c-31.917,0-60.877,12.88-81.967,33.71l-28.384-23.455
		c5.525-9.303,8.711-20.146,8.711-31.729c0-34.356-27.953-62.306-62.313-62.306S36.484,75.834,36.484,110.19
		c0,34.363,27.953,62.322,62.314,62.322c16.323,0,31.193-6.319,42.313-16.627l27.893,23.05
		c-14.421,19.418-22.963,43.445-22.963,69.438c0,36.813,17.134,69.69,43.839,91.095l-20.062,22.815
		c-10.017-6.875-22.127-10.911-35.166-10.911c-34.361,0-62.313,27.964-62.313,62.322S100.292,476,134.653,476
		s62.314-27.947,62.314-62.306c0-14.856-5.236-28.511-13.946-39.234l21.801-24.794c17.08,9.808,36.86,15.417,57.93,15.417
		c64.354,0,116.708-52.351,116.708-116.71c0-27.75-9.737-53.261-25.971-73.312l27.874-27.876
		c10.621,8.405,24.021,13.442,38.582,13.442c34.361,0,62.314-27.964,62.314-62.322S454.306,36,419.945,36z M134.653,459.638
		c-25.334,0-45.95-20.614-45.95-45.943c0-25.341,20.615-45.943,45.95-45.943s45.944,20.603,45.944,45.943
		C180.597,439.023,159.987,459.638,134.653,459.638z M98.798,156.136c-25.334,0-45.95-20.6-45.95-45.945
		c0-25.323,20.615-45.938,45.95-45.938s45.943,20.615,45.943,45.938C144.742,135.536,124.133,156.136,98.798,156.136z
		 M338.722,305.261c-1.628-11.534-4.605-23.103-10.514-25.455l-36.971-14.738l-8.66-7.293c-2.286-1.935-5.663-1.796-7.784,0.316
		l-12.037,11.973l-12.07-11.979c-2.121-2.106-5.493-2.24-7.781-0.311l-8.656,7.293l-36.972,14.742
		c-5.905,2.354-8.879,13.914-10.501,25.448c-11.907-15.864-18.973-35.565-18.973-56.885c0-52.351,42.594-94.947,94.948-94.947
		c52.354,0,94.945,42.597,94.945,94.947C357.697,269.695,350.632,289.394,338.722,305.261z M419.945,144.249
		c-25.334,0-45.944-20.603-45.944-45.943c0-25.329,20.61-45.943,45.944-45.943s45.949,20.614,45.949,45.943
		C465.894,123.646,445.279,144.249,419.945,144.249z"/>
	<path d="M434.2,114.321c-0.186-0.655-0.64-1.214-1.252-1.542c-0.613-0.312-1.326-0.363-1.982-0.155
		c-1.323,0.451-2.386,0.674-3.295,0.674l-0.151,0.003c-2.169,0-3.136-1.252-3.136-4.053V93.154h8.664
		c1.392,0,2.516-1.131,2.516-2.529v-5.262c0-1.386-1.124-2.512-2.516-2.512h-8.664v-9.299c0-1.397-1.13-2.513-2.516-2.513h-9.869
		c-1.386,0-2.516,1.115-2.516,2.513v9.371h-3.428c-1.393,0-2.522,1.133-2.522,2.513v5.188c0,1.398,1.129,2.529,2.522,2.529h3.428
		v18.242c0,8.746,5.679,14.192,14.824,14.192c3.519,0,7.258-0.812,10.27-2.255c1.112-0.518,1.675-1.771,1.343-2.944L434.2,114.321z"
		/>
	<path d="M116.97,83.232h-8.57c-1.391,0-2.514,1.129-2.514,2.512v1.173c-2.65-2.708-6.254-4.125-10.532-4.125l-0.225,0.002
		c-10.024,0-17.017,7.79-17.017,18.938c0,11.399,7.101,19.351,17.275,19.351c4.265,0,7.858-1.415,10.498-4.107v2.403
		c0,4.6-3.334,7.339-8.917,7.339c-3.393,0-6.855-0.954-9.999-2.739c-0.597-0.341-1.308-0.415-1.965-0.225
		c-0.656,0.187-1.213,0.659-1.525,1.258l-2.57,5.021c-0.61,1.194-0.181,2.663,0.975,3.337c4.716,2.726,10.397,4.225,16.012,4.225
		c12.91,0,21.588-7.466,21.588-18.571V85.744C119.485,84.361,118.355,83.232,116.97,83.232z M98.478,110.863
		c-4.521,0-7.551-3.528-7.551-8.774c0-5.292,3.031-8.839,7.551-8.839c4.429,0,7.408,3.547,7.408,8.839
		C105.886,107.335,102.906,110.863,98.478,110.863z"/>
</g>
</svg>
