<?xml version="1.0" encoding="utf-8"?>
<!-- Generator: Adobe Illustrator 16.0.0, SVG Export Plug-In . SVG Version: 6.00 Build 0)  -->
<!DOCTYPE svg PUBLIC "-//W3C//DTD SVG 1.1//EN" "http://www.w3.org/Graphics/SVG/1.1/DTD/svg11.dtd">
<svg version="1.1" id="Layer_1" xmlns="http://www.w3.org/2000/svg" xmlns:xlink="http://www.w3.org/1999/xlink" x="0px" y="0px"
	 width="512px" height="512px" viewBox="0 0 512 512" enable-background="new 0 0 512 512" xml:space="preserve">
<g>
	<path d="M239.944,234.639H128.999c-4.454,0-8.372,2.945-9.607,7.225l-21.289,73.715l149.265,16.332l11.713-56.059
		C251.791,262.834,245.085,248.898,239.944,234.639z"/>
	<path d="M379.353,346.352l44.828,4.904l-13.385-46.346c-1.798,2.646-3.587,5.223-5.349,7.703
		C396.391,325.363,387.341,336.809,379.353,346.352z"/>
	<path d="M282.142,312.162l-4.812,23.027l24.232,2.65c-6.084-7.564-12.56-16.012-19.047-25.146
		C282.392,312.518,282.266,312.338,282.142,312.162z"/>
	<path d="M69.392,414.996c-0.872,3.02-0.274,6.273,1.615,8.785s4.849,3.99,7.992,3.99h148.34l13.864-66.355L89.654,344.834
		L69.392,414.996z"/>
	<path d="M433.181,382.42l-162.015-17.727l-13.179,63.078h174.995c0.007,0,0.014,0,0.02,0c5.523,0,10-4.479,10-10
		c0-1.197-0.21-2.344-0.595-3.406L433.181,382.42z"/>
	<path d="M339.825,359.063c1.066,1.139,2.564,1.785,4.126,1.785c1.567,0,3.058-0.646,4.133-1.785
		c9.111-9.693,27.104-29.752,45.135-55.137c22.714-31.977,49.783-78.865,49.783-120.65c0-54.617-44.433-99.047-99.051-99.047
		c-54.612,0-99.046,44.43-99.046,99.047c0,41.814,27.104,88.732,49.841,120.732C312.772,329.391,330.723,349.391,339.825,359.063z
		 M343.951,121.498c33.35,0,60.479,27.137,60.479,60.486c0,33.336-27.13,60.486-60.479,60.486c-33.344,0-60.475-27.15-60.475-60.486
		C283.476,148.635,310.606,121.498,343.951,121.498z"/>
</g>
</svg>
