<?xml version="1.0" encoding="utf-8"?>
<!-- Generator: Adobe Illustrator 16.0.0, SVG Export Plug-In . SVG Version: 6.00 Build 0)  -->
<!DOCTYPE svg PUBLIC "-//W3C//DTD SVG 1.1//EN" "http://www.w3.org/Graphics/SVG/1.1/DTD/svg11.dtd">
<svg version="1.1" id="Layer_1" xmlns="http://www.w3.org/2000/svg" xmlns:xlink="http://www.w3.org/1999/xlink" x="0px" y="0px"
	 width="512px" height="512px" viewBox="0 0 512 512" enable-background="new 0 0 512 512" xml:space="preserve">
<g>
	<path d="M314.821,173.704l-13.188,2.325c-1.583-3.715-3.606-7.196-6.005-10.38l8.615-10.266c0.626-0.746,0.93-1.71,0.846-2.681
		c-0.086-0.97-0.553-1.867-1.299-2.493l-11.535-9.68c-0.746-0.626-1.712-0.93-2.682-0.845c-0.971,0.085-1.867,0.552-2.493,1.298
		l-8.608,10.26c-3.533-1.8-7.311-3.189-11.271-4.104v-13.391c0-2.028-1.645-3.673-3.673-3.673h-15.059
		c-2.028,0-3.673,1.645-3.673,3.673v13.391c-3.96,0.915-7.737,2.304-11.271,4.104l-8.608-10.259
		c-1.304-1.554-3.621-1.756-5.175-0.453l-11.535,9.679c-0.746,0.626-1.213,1.523-1.299,2.494c-0.084,0.97,0.22,1.935,0.846,2.681
		l8.615,10.266c-2.398,3.184-4.422,6.666-6.005,10.38l-13.188-2.325c-1.995-0.351-3.902,0.982-4.255,2.979l-2.615,14.83
		c-0.169,0.959,0.05,1.947,0.609,2.745c0.559,0.798,1.41,1.341,2.37,1.51l13.198,2.327c0.215,4.088,0.927,8.044,2.073,11.811
		l-11.598,6.696c-0.844,0.487-1.459,1.289-1.712,2.23c-0.252,0.941-0.119,1.944,0.367,2.787l7.529,13.042
		c0.487,0.844,1.289,1.459,2.23,1.711c0.313,0.084,0.632,0.125,0.951,0.125c0.639,0,1.272-0.167,1.836-0.492l11.609-6.703
		c2.732,2.923,5.814,5.515,9.18,7.709l-4.584,12.591c-0.332,0.916-0.289,1.926,0.123,2.809s1.157,1.566,2.072,1.899l14.15,5.15
		c0.406,0.148,0.832,0.222,1.257,0.222c0.53,0,1.062-0.115,1.552-0.344c0.883-0.412,1.566-1.157,1.899-2.073l4.583-12.592
		c1.965,0.237,3.965,0.361,5.994,0.361s4.029-0.125,5.994-0.361l4.584,12.592c0.332,0.916,1.016,1.661,1.898,2.073
		c0.491,0.229,1.021,0.344,1.553,0.344c0.424,0,0.85-0.074,1.256-0.222l14.15-5.15c0.915-0.333,1.661-1.016,2.072-1.899
		c0.412-0.883,0.456-1.893,0.123-2.808l-4.584-12.591c3.365-2.194,6.447-4.787,9.18-7.709l11.609,6.703
		c0.563,0.325,1.197,0.492,1.836,0.492c0.318,0,0.639-0.042,0.951-0.125c0.941-0.252,1.743-0.868,2.23-1.711l7.529-13.042
		c0.486-0.843,0.619-1.846,0.367-2.787c-0.253-0.94-0.868-1.743-1.712-2.23l-11.598-6.695c1.146-3.767,1.858-7.723,2.073-11.811
		l13.198-2.327c0.96-0.169,1.812-0.712,2.37-1.51c0.56-0.798,0.778-1.785,0.609-2.745l-2.615-14.83
		C318.723,174.686,316.82,173.352,314.821,173.704z M256,215.078c-11.156,0-20.201-9.044-20.201-20.201s9.045-20.201,20.201-20.201
		s20.201,9.044,20.201,20.201S267.156,215.078,256,215.078z"/>
	<path d="M256,48.634c-81.883,0-148.5,66.617-148.5,148.5c0,62.689,40.635,133.037,74.724,181.012
		c27.027,38.038,53.945,68.043,67.585,82.543c1.606,1.708,3.846,2.676,6.191,2.676c2.345,0,4.585-0.969,6.191-2.677
		c13.67-14.534,40.639-44.6,67.676-82.67C363.915,330.08,404.5,259.784,404.5,197.134C404.5,115.251,337.883,48.634,256,48.634z
		 M256,285.875c-49.997,0-90.673-40.677-90.673-90.677c0-49.998,40.676-90.675,90.673-90.675s90.672,40.677,90.672,90.675
		C346.672,245.197,305.997,285.875,256,285.875z"/>
</g>
</svg>
