<?xml version="1.0" encoding="utf-8"?>
<!-- Generator: Adobe Illustrator 16.0.0, SVG Export Plug-In . SVG Version: 6.00 Build 0)  -->
<!DOCTYPE svg PUBLIC "-//W3C//DTD SVG 1.1//EN" "http://www.w3.org/Graphics/SVG/1.1/DTD/svg11.dtd">
<svg version="1.1" id="Layer_2" xmlns="http://www.w3.org/2000/svg" xmlns:xlink="http://www.w3.org/1999/xlink" x="0px" y="0px"
	 width="512px" height="512px" viewBox="0 0 512 512" enable-background="new 0 0 512 512" xml:space="preserve">
<g>
	<path d="M337.994,125.127c0-23.71-19.29-43-43-43s-43,19.29-43,43c0,20.219,14.03,37.212,32.863,41.782
		c-1.869,61.195-22.756,80.213-44.813,100.292c-22.145,20.159-45.006,40.973-44.826,100.153
		c-18.804,4.59-32.806,21.571-32.806,41.769c0,23.71,19.29,43,43,43s43-19.29,43-43c0-20.337-14.195-37.409-33.195-41.859
		c-0.176-50.248,17.726-66.553,38.291-85.274c23.151-21.075,49.26-44.856,51.347-115.018
		C323.827,162.502,337.994,145.443,337.994,125.127z"/>
	<path d="M368.552,333.124c-23.71,0-43,19.29-43,43s19.29,43,43,43s43-19.29,43-43S392.263,333.124,368.552,333.124z
		 M368.552,399.124c-12.682,0-23-10.318-23-23s10.318-23,23-23s23,10.318,23,23S381.234,399.124,368.552,399.124z"/>
	<path d="M215.413,198.31c0-23.71-19.29-43-43-43s-43,19.29-43,43s19.29,43,43,43S215.413,222.02,215.413,198.31z M149.413,198.31
		c0-12.682,10.318-23,23-23s23,10.318,23,23s-10.318,23-23,23S149.413,210.992,149.413,198.31z"/>
	<path d="M76.019,130.238l15.179-15.179l15.179,15.179c1.953,1.953,4.512,2.929,7.071,2.929s5.119-0.976,7.071-2.929
		c3.905-3.905,3.905-10.237,0-14.143l-15.179-15.179l15.179-15.179c3.905-3.905,3.905-10.237,0-14.143
		c-3.905-3.905-10.237-3.905-14.143,0L91.198,86.774L76.019,71.595c-3.905-3.905-10.237-3.905-14.143,0
		c-3.905,3.905-3.905,10.237,0,14.143l15.179,15.179l-15.179,15.179c-3.905,3.905-3.905,10.237,0,14.143
		c1.953,1.953,4.512,2.929,7.071,2.929S74.066,132.19,76.019,130.238z"/>
	<path d="M434.944,92.127l15.179-15.179c3.905-3.905,3.905-10.237,0-14.143c-3.905-3.905-10.237-3.905-14.143,0l-15.179,15.179
		l-15.179-15.179c-3.905-3.905-10.237-3.905-14.143,0c-3.905,3.905-3.905,10.237,0,14.143l15.179,15.179l-15.179,15.179
		c-3.905,3.905-3.905,10.237,0,14.143c1.953,1.953,4.512,2.929,7.071,2.929s5.119-0.976,7.071-2.929l15.179-15.179l15.179,15.179
		c1.953,1.953,4.512,2.929,7.071,2.929s5.119-0.976,7.071-2.929c3.905-3.905,3.905-10.237,0-14.143L434.944,92.127z"/>
	<path d="M430.123,220.396c-3.905-3.905-10.237-3.905-14.143,0l-15.179,15.179l-15.179-15.179c-3.905-3.905-10.237-3.905-14.143,0
		c-3.905,3.905-3.905,10.237,0,14.143l15.179,15.179l-15.179,15.179c-3.905,3.905-3.905,10.237,0,14.143
		c1.953,1.953,4.512,2.929,7.071,2.929s5.119-0.976,7.071-2.929l15.179-15.179l15.179,15.179c1.953,1.953,4.512,2.929,7.071,2.929
		s5.119-0.976,7.071-2.929c3.905-3.905,3.905-10.237,0-14.143l-15.179-15.179l15.179-15.179
		C434.028,230.633,434.028,224.301,430.123,220.396z"/>
	<path d="M125.186,292.396c-3.905-3.905-10.237-3.905-14.143,0l-15.179,15.179l-15.179-15.179c-3.905-3.905-10.237-3.905-14.143,0
		c-3.905,3.905-3.905,10.237,0,14.143l15.179,15.179l-15.179,15.179c-3.905,3.905-3.905,10.237,0,14.143
		c1.953,1.953,4.512,2.929,7.071,2.929s5.119-0.976,7.071-2.929l15.179-15.179l15.179,15.179c1.953,1.953,4.512,2.929,7.071,2.929
		s5.119-0.976,7.071-2.929c3.905-3.905,3.905-10.237,0-14.143l-15.179-15.179l15.179-15.179
		C129.09,302.633,129.09,296.301,125.186,292.396z"/>
</g>
</svg>
