<?xml version="1.0" encoding="utf-8"?>
<!-- Generator: Adobe Illustrator 16.0.0, SVG Export Plug-In . SVG Version: 6.00 Build 0)  -->
<!DOCTYPE svg PUBLIC "-//W3C//DTD SVG 1.1//EN" "http://www.w3.org/Graphics/SVG/1.1/DTD/svg11.dtd">
<svg version="1.1" id="Layer_2" xmlns="http://www.w3.org/2000/svg" xmlns:xlink="http://www.w3.org/1999/xlink" x="0px" y="0px"
	 width="512px" height="512px" viewBox="0 0 512 512" enable-background="new 0 0 512 512" xml:space="preserve">
<g>
	<path d="M461.425,115.611c1.875-1.875,2.929-4.419,2.929-7.071s-1.054-5.195-2.929-7.071l-61.027-61.027
		c-1.875-1.875-4.419-2.929-7.071-2.929s-5.196,1.054-7.071,2.929l-130.13,130.132L125.745,40.191
		c-1.875-1.875-4.419-2.929-7.071-2.929s-5.196,1.054-7.071,2.929l-61.027,61.027c-3.903,3.903-3.905,10.231-0.005,14.138
		l148.433,148.64v14.228c-29.756,18.918-49.543,52.177-49.543,89.974c0,58.746,47.794,106.54,106.54,106.54
		s106.54-47.794,106.54-106.54c0-37.797-19.787-71.056-49.543-89.974v-14.185L461.425,115.611z M393.326,80.04l28.5,28.5
		L307.959,222.407l-28.5-28.5L393.326,80.04z M332.959,368.197c0,42.436-34.524,76.959-76.959,76.959s-76.959-34.523-76.959-76.959
		s34.524-76.96,76.959-76.96S332.959,325.762,332.959,368.197z"/>
	<path d="M301.307,347.042l-26.463-3.844l-11.834-23.981c-1.318-2.668-4.033-4.357-7.01-4.357c-2.976,0-5.691,1.689-7.01,4.357
		l-11.833,23.981l-26.464,3.844c-2.945,0.429-5.39,2.489-6.31,5.319c-0.919,2.83-0.152,5.937,1.978,8.013l19.15,18.665
		l-4.521,26.358c-0.503,2.931,0.7,5.896,3.109,7.645c2.406,1.748,5.598,1.979,8.231,0.595L256,401.193l23.67,12.443
		c1.144,0.602,2.392,0.897,3.637,0.897c1.621,0,3.232-0.503,4.594-1.492c2.408-1.749,3.612-4.714,3.109-7.645l-4.521-26.358
		l19.151-18.665c2.13-2.076,2.897-5.183,1.977-8.013C306.697,349.531,304.252,347.471,301.307,347.042z"/>
</g>
</svg>
