<?xml version="1.0" encoding="utf-8"?>
<!-- Generator: Adobe Illustrator 16.0.0, SVG Export Plug-In . SVG Version: 6.00 Build 0)  -->
<!DOCTYPE svg PUBLIC "-//W3C//DTD SVG 1.1//EN" "http://www.w3.org/Graphics/SVG/1.1/DTD/svg11.dtd">
<svg version="1.1" id="Layer_1" xmlns="http://www.w3.org/2000/svg" xmlns:xlink="http://www.w3.org/1999/xlink" x="0px" y="0px"
	 width="512px" height="512px" viewBox="0 0 512 512" enable-background="new 0 0 512 512" xml:space="preserve">
<g>
	<path d="M476.998,151H216.412c-8.242,0-16.293,6.679-17.988,14.92l-37.041,180.16c-1.691,8.241,3.619,14.92,11.854,14.92h260.592
		c8.242,0,16.293-6.679,17.986-14.92l37.037-180.16C490.547,157.679,485.24,151,476.998,151z M445.824,211.293L330.18,267.066
		c-4.99,2.411-10.67,2.411-14.67,0l-92.713-55.773c-6.723-4.042-7.641-13.477-2.043-21.032c3.748-5.064,9.65-8.21,15.398-8.21
		c2.539,0,4.941,0.636,6.945,1.841l86.184,51.849l107.51-51.849c2.492-1.204,5.156-1.84,7.701-1.84
		c5.746,0,10.354,3.145,12.021,8.203C459.006,197.813,454.211,207.252,445.824,211.293z"/>
	<path d="M63.711,190.342h112.273c5.945,0,10.76-4.817,10.76-10.757c0-5.942-4.814-10.757-10.76-10.757H63.711
		c-5.939,0-10.758,4.815-10.758,10.757C52.953,185.525,57.771,190.342,63.711,190.342z"/>
	<path d="M145.869,266.714H33.594c-5.943,0-10.76,4.815-10.76,10.755c0,5.942,4.816,10.758,10.76,10.758h112.275
		c5.938,0,10.756-4.816,10.756-10.758C156.625,271.529,151.807,266.714,145.869,266.714z"/>
	<path d="M171.682,227.9c0-5.941-4.813-10.755-10.752-10.755H93.826c-5.939,0-10.752,4.814-10.752,10.755
		c0,5.939,4.813,10.756,10.752,10.756h67.104C166.869,238.656,171.682,233.84,171.682,227.9z"/>
	<path d="M130.807,315.028H94.955c-5.943,0-10.76,4.815-10.76,10.757c0,5.94,4.816,10.757,10.76,10.757h35.852
		c5.945,0,10.76-4.817,10.76-10.757C141.566,319.843,136.752,315.028,130.807,315.028z"/>
</g>
</svg>
