<?xml version="1.0" encoding="utf-8"?>
<!-- Generator: Adobe Illustrator 16.0.0, SVG Export Plug-In . SVG Version: 6.00 Build 0)  -->
<!DOCTYPE svg PUBLIC "-//W3C//DTD SVG 1.1//EN" "http://www.w3.org/Graphics/SVG/1.1/DTD/svg11.dtd">
<svg version="1.1" id="Layer_1" xmlns="http://www.w3.org/2000/svg" xmlns:xlink="http://www.w3.org/1999/xlink" x="0px" y="0px"
	 width="512px" height="512px" viewBox="0 0 512 512" enable-background="new 0 0 512 512" xml:space="preserve">
<g>
	<path d="M363.653,149.6v-26.26c4.389,0.66,8.675,2.057,11.787,3.918c2.992,1.793,6.867,0.865,8.713-2.094l0.363-0.584
		c0.91-1.451,1.196-3.205,0.8-4.875c-0.397-1.666-1.447-3.1-2.913-3.988c-5.144-3.113-11.987-5.299-18.75-6.082v-6.283
		c0-3.529-2.863-6.393-6.394-6.393h-0.817c-3.536,0-6.399,2.863-6.399,6.393v6.637c-14.539,2.328-23.657,11.068-23.657,23.197
		c0,17.018,13.394,23.135,23.657,26.502v29.018c-6.255-1.139-12.295-4.074-16.339-8.111c-2.499-2.494-6.549-2.492-9.043,0.006
		l-0.554,0.553c-1.212,1.213-1.885,2.861-1.873,4.574c0.014,1.713,0.716,3.354,1.948,4.545c6.699,6.486,16.242,10.914,25.86,12.191
		v7.984c0,3.535,2.863,6.398,6.399,6.398h0.817c3.53,0,6.394-2.863,6.394-6.398v-8.131c15.689-2.367,25.54-11.842,25.54-25.066
		C389.33,159.273,375.547,153.322,363.653,149.6z M350.043,145.131C342.506,141.99,340,138.713,340,133.186
		c0-5.686,5.336-8.201,10.043-9.309V145.131z M375.583,177.209c0,7.145-6.519,10.059-11.93,11.246v-24.471
		c8.128,2.961,11.989,6.172,11.93,13.172C375.583,177.172,375.583,177.191,375.583,177.209z"/>
	<path d="M355.714,67.645c-45.899,0-83.812,34.828-88.713,79.443H72.529c-1.955,0-3.763,1.039-4.749,2.727s-1.002,3.771-0.042,5.475
		l101.189,179.498v104.068c0,3.037,2.463,5.5,5.5,5.5h69.722c3.037,0,5.5-2.463,5.5-5.5V334.787l57.926-102.756
		c13.897,8.938,30.424,14.125,48.139,14.125c49.217,0,89.257-40.039,89.257-89.256S404.931,67.645,355.714,67.645z M355.714,224.768
		c-37.421,0-67.864-30.445-67.864-67.867s30.443-67.865,67.864-67.865c37.422,0,67.864,30.443,67.864,67.865
		S393.136,224.768,355.714,224.768z"/>
</g>
</svg>
