<?xml version="1.0" encoding="utf-8"?>
<!-- Generator: Adobe Illustrator 16.0.0, SVG Export Plug-In . SVG Version: 6.00 Build 0)  -->
<!DOCTYPE svg PUBLIC "-//W3C//DTD SVG 1.1//EN" "http://www.w3.org/Graphics/SVG/1.1/DTD/svg11.dtd">
<svg version="1.1" id="Layer_1" xmlns="http://www.w3.org/2000/svg" xmlns:xlink="http://www.w3.org/1999/xlink" x="0px" y="0px"
	 width="512px" height="512px" viewBox="0 0 512 512" enable-background="new 0 0 512 512" xml:space="preserve">
<path d="M426.711,135.493h-33.044v-25.256c0-13.785-11.215-25-25-25s-25,11.215-25,25v25.256H168.333v-25.256
	c0-13.785-11.215-25-25-25s-25,11.215-25,25v25.256H85.289c-2.659,0-4.822,2.163-4.822,4.822v281.624
	c0,2.659,2.164,4.823,4.822,4.823h341.422c2.659,0,4.822-2.164,4.822-4.823V140.315C431.533,137.656,429.37,135.493,426.711,135.493
	z M358.667,113.237c0-5.523,4.477-10,10-10s10,4.477,10,10v25.256c0,5.523-4.477,10-10,10s-10-4.477-10-10V113.237z
	 M133.333,113.237c0-5.523,4.477-10,10-10s10,4.477,10,10v25.256c0,5.523-4.477,10-10,10s-10-4.477-10-10V113.237z M186.607,350.564
	c0,6.615-5.362,11.977-11.977,11.977H137.37c-6.615,0-11.977-5.361-11.977-11.977v-37.261c0-6.615,5.362-11.978,11.977-11.978
	h37.261c6.614,0,11.977,5.362,11.977,11.978V350.564z M186.607,250.564c0,6.615-5.362,11.977-11.977,11.977H137.37
	c-6.615,0-11.977-5.361-11.977-11.977v-37.261c0-6.615,5.362-11.978,11.977-11.978h37.261c6.614,0,11.977,5.362,11.977,11.978
	V250.564z M286.607,350.564c0,6.615-5.362,11.977-11.977,11.977H237.37c-6.615,0-11.977-5.361-11.977-11.977v-37.261
	c0-6.615,5.362-11.978,11.977-11.978h37.261c6.614,0,11.977,5.362,11.977,11.978V350.564z M286.607,250.564
	c0,6.615-5.362,11.977-11.977,11.977H237.37c-6.615,0-11.977-5.361-11.977-11.977v-37.261c0-6.615,5.362-11.978,11.977-11.978
	h37.261c6.614,0,11.977,5.362,11.977,11.978V250.564z M386.607,350.564c0,6.615-5.362,11.977-11.977,11.977H337.37
	c-6.615,0-11.977-5.361-11.977-11.977v-37.261c0-6.615,5.362-11.978,11.977-11.978h37.261c6.614,0,11.977,5.362,11.977,11.978
	V350.564z M386.607,250.564c0,6.615-5.362,11.977-11.977,11.977H337.37c-6.615,0-11.977-5.361-11.977-11.977v-37.261
	c0-6.615,5.362-11.978,11.977-11.978h37.261c6.614,0,11.977,5.362,11.977,11.978V250.564z"/>
</svg>
