<?xml version="1.0" encoding="utf-8"?>
<!-- Generator: Adobe Illustrator 16.0.0, SVG Export Plug-In . SVG Version: 6.00 Build 0)  -->
<!DOCTYPE svg PUBLIC "-//W3C//DTD SVG 1.1//EN" "http://www.w3.org/Graphics/SVG/1.1/DTD/svg11.dtd">
<svg version="1.1" id="Layer_2" xmlns="http://www.w3.org/2000/svg" xmlns:xlink="http://www.w3.org/1999/xlink" x="0px" y="0px"
	 width="512px" height="512px" viewBox="0 0 512 512" enable-background="new 0 0 512 512" xml:space="preserve">
<g>
	<path d="M305.482,179.663c-17.525,0-31.732,14.207-31.732,31.733c0,17.525,14.207,31.732,31.732,31.732
		s31.757-14.208,31.757-31.732c0-0.594,0.146-107.827,0.146-107.827c0.008-6.138-2.425-12.027-6.763-16.37
		c-4.337-4.343-10.224-6.783-16.361-6.783h-67.006c-12.771,0-23.124,10.353-23.124,23.125v61.739
		c-2.658-0.722-5.452-1.115-8.339-1.115c-17.525,0-31.732,14.208-31.732,31.732c0,17.526,14.207,31.733,31.732,31.733
		c17.526,0,31.733-14.207,31.733-31.733c0-1.384-0.024-92.357-0.024-92.357h66.76l-0.109,77.331
		C311.396,180.09,308.489,179.663,305.482,179.663z"/>
	<path d="M356.581,433.683l-4.642-4.641c-12.297,6.173-25.912,9.404-39.839,9.404c-16.354,0-32.022-4.385-45.66-12.591H98.514
		l0.014-299.904h53.791c5.596,0,10.131-4.533,10.131-10.132V60.401h198.906v215.583c4.792,3.208,9.305,6.908,13.473,11.076
		c5.372,5.373,10.001,11.404,13.801,17.907V57.671c0-13.535-11.012-24.543-24.547-24.543H148.998c-2.172,0-4.252,0.862-5.785,2.395
		L73.65,105.083c-1.533,1.54-2.396,3.619-2.396,5.787v317.715c0,13.534,11.012,24.543,24.545,24.543h272.097l-0.317-0.253
		l-1.748-1.749C361.048,446.342,357.845,440.262,356.581,433.683z"/>
	<path d="M434.478,442.333l-34.77-34.769c-3.838-3.836-8.77-5.906-13.79-6.222l-11.81-11.81
		c17.546-27.895,14.188-65.27-10.076-89.535c-28.167-28.167-73.995-28.166-102.162,0c-28.165,28.166-28.165,73.995,0.001,102.161
		c24.265,24.266,61.64,27.622,89.534,10.077l11.811,11.809c0.315,5.021,2.385,9.953,6.222,13.79l34.77,34.77
		c8.359,8.36,21.911,8.358,30.271,0C442.835,464.244,442.837,450.692,434.478,442.333z M348.896,387.023
		c-19.82,19.819-52.07,19.819-71.89,0c-19.821-19.822-19.821-52.071-0.001-71.891s52.068-19.82,71.891,0.001
		C368.716,334.953,368.716,367.202,348.896,387.023z"/>
</g>
</svg>
