<?xml version="1.0" encoding="utf-8"?>
<!-- Generator: Adobe Illustrator 16.0.0, SVG Export Plug-In . SVG Version: 6.00 Build 0)  -->
<!DOCTYPE svg PUBLIC "-//W3C//DTD SVG 1.1//EN" "http://www.w3.org/Graphics/SVG/1.1/DTD/svg11.dtd">
<svg version="1.1" id="Layer_1" xmlns="http://www.w3.org/2000/svg" xmlns:xlink="http://www.w3.org/1999/xlink" x="0px" y="0px"
	 width="512px" height="512px" viewBox="0 0 512 512" enable-background="new 0 0 512 512" xml:space="preserve">
<g>
	<path d="M317.543,222.668h-0.524v-27.582c0-29.719-24.179-53.898-53.898-53.898h-14.239c-29.721,0-53.899,24.18-53.899,53.898
		v27.582h-0.524c-8.687,0-15.73,7.047-15.73,15.734v100.313c0,8.689,7.044,15.734,15.73,15.734h123.086
		c8.687,0,15.73-7.045,15.73-15.734V238.402C333.273,229.715,326.229,222.668,317.543,222.668z M271.73,302.475
		c0,8.688-7.042,15.73-15.73,15.73s-15.73-7.043-15.73-15.73v-19.664c0-8.688,7.042-15.731,15.73-15.731s15.73,7.043,15.73,15.731
		V302.475z M286.219,222.668h-60.438v-27.582c0-12.737,10.362-23.098,23.1-23.098h14.239c12.736,0,23.099,10.36,23.099,23.098
		V222.668z"/>
	<path d="M408.987,384.874l1.75-2.132C440.348,346.73,456,302.903,456,256c0-47.661-16.123-92.051-46.63-128.368l-1.699-2.021
		l0.917-2.479c1.655-4.473,2.494-9.182,2.494-13.986c0-22.245-18.097-40.342-40.34-40.342c-8.121,0-15.95,2.406-22.642,6.951
		l-2.179,1.481l-2.369-1.153C316.23,62.756,286.773,56,256,56c-31.787,0-62.099,7.176-90.095,21.331l-2.526,1.276l-2.26-1.702
		c-7.035-5.3-15.419-8.103-24.247-8.103c-22.243,0-40.338,18.097-40.338,40.342c0,5.989,1.288,11.762,3.829,17.157l1.209,2.569
		l-1.777,2.215C71.145,166.766,56,209.964,56,256c0,46.903,15.652,90.73,45.262,126.742l1.75,2.132l-1.081,2.537
		c-2.128,4.999-3.208,10.311-3.208,15.787c0,22.241,18.097,40.338,40.34,40.338c8.577,0,16.771-2.665,23.7-7.705l2.224-1.616
		l2.466,1.219C195.045,449.08,224.837,456,256,456s60.955-6.92,88.546-20.566l2.466-1.219l2.224,1.616
		c6.928,5.04,15.123,7.705,23.7,7.705c22.243,0,40.34-18.097,40.34-40.338c0-5.477-1.08-10.788-3.208-15.787L408.987,384.874z
		 M391.038,363.572l-1.998,2.502l-3.028-1.035c-4.221-1.446-8.621-2.183-13.077-2.183c-22.243,0-40.34,18.097-40.34,40.342
		c0,1.385,0.073,2.788,0.214,4.171l0.328,3.184l-2.89,1.382c-23.309,11.144-48.29,16.792-74.248,16.792s-50.939-5.648-74.248-16.792
		l-2.89-1.382l0.329-3.184c0.141-1.383,0.214-2.786,0.214-4.171c0-22.245-18.097-40.342-40.34-40.342
		c-4.456,0-8.855,0.736-13.077,2.183l-3.028,1.035l-1.998-2.502C96.305,332.685,83.273,295.485,83.273,256
		c0-39.093,12.793-75.996,36.996-106.714l1.92-2.438l2.969,0.899c3.796,1.151,7.737,1.734,11.714,1.734
		c22.243,0,40.34-18.097,40.34-40.338c0-1.104-0.053-2.265-0.166-3.541l-0.267-3.089l2.778-1.378
		c23.921-11.853,49.64-17.863,76.442-17.863c25.153,0,49.433,5.323,72.166,15.818l3.04,1.402l-0.438,3.318
		c-0.241,1.821-0.363,3.614-0.363,5.332c0,22.241,18.097,40.338,40.339,40.338c5.085,0,10.059-0.945,14.785-2.808l3.117-1.23
		l2.095,2.611c24.497,30.518,37.987,68.854,37.987,107.944C428.727,295.485,415.695,332.685,391.038,363.572z"/>
</g>
</svg>
