<?xml version="1.0" encoding="utf-8"?>
<!-- Generator: Adobe Illustrator 16.0.0, SVG Export Plug-In . SVG Version: 6.00 Build 0)  -->
<!DOCTYPE svg PUBLIC "-//W3C//DTD SVG 1.1//EN" "http://www.w3.org/Graphics/SVG/1.1/DTD/svg11.dtd">
<svg version="1.1" id="Layer_2" xmlns="http://www.w3.org/2000/svg" xmlns:xlink="http://www.w3.org/1999/xlink" x="0px" y="0px"
	 width="512px" height="512px" viewBox="0 0 512 512" enable-background="new 0 0 512 512" xml:space="preserve">
<g>
	<path d="M154.005,268.586c-5.677,0-10.279,4.602-10.279,10.28v12.849c0,5.677,4.602,10.279,10.279,10.279
		s10.279-4.603,10.279-10.279v-12.849C164.284,273.188,159.682,268.586,154.005,268.586z"/>
	<path d="M256.25,45c-0.167,0-0.333,0.004-0.5,0.006V45c-116.533,0-211,94.467-211,211s94.467,211,211,211v-0.006
		c0.167,0.002,0.333,0.006,0.5,0.006c116.346,0,211-94.654,211-211S372.596,45,256.25,45z M204.499,315.396
		c0,5.678-4.603,10.281-10.279,10.281H113.79c-5.676,0-10.279-4.604-10.279-10.281v-65.549c0-5.677,4.603-10.282,10.279-10.282
		h0.343v-18.023c0-19.42,15.799-35.22,35.221-35.22h9.305c19.42,0,35.22,15.8,35.22,35.22v18.023h0.343
		c5.676,0,10.279,4.604,10.279,10.282V315.396z M363.765,189.86c8.623,3.038,16.777,6.463,24.37,10.26
		c31.213,15.606,49.115,35.974,49.115,55.88s-17.902,40.273-49.115,55.88c-7.593,3.797-15.747,7.222-24.37,10.26
		c3.604-21.059,5.485-43.332,5.485-66.14S367.369,210.919,363.765,189.86z M423.109,185.873
		c-6.516-4.453-13.708-8.661-21.558-12.585c-13.709-6.854-28.969-12.624-45.357-17.231c-4.607-16.388-10.376-31.647-17.231-45.357
		c-3.925-7.85-8.132-15.042-12.585-21.558C369.877,107.491,404.759,142.373,423.109,185.873z M255.75,75.015
		c0.167-0.003,0.333-0.015,0.5-0.015c19.906,0,40.273,17.902,55.88,49.115c3.797,7.593,7.222,15.747,10.26,24.37
		c-21.058-3.604-43.332-5.485-66.14-5.485c-0.167,0-0.333,0.003-0.5,0.005V75.015z M255.75,173.003
		c0.167-0.001,0.333-0.003,0.5-0.003c26.396,0,51.892,2.68,75.227,7.773c5.094,23.335,7.773,48.83,7.773,75.227
		s-2.68,51.892-7.773,75.227C308.142,336.32,282.646,339,256.25,339c-0.167,0-0.333-0.002-0.5-0.003V173.003z M312.13,387.885
		C296.523,419.098,276.156,437,256.25,437c-0.167,0-0.333-0.012-0.5-0.015v-67.99c0.167,0.001,0.333,0.005,0.5,0.005
		c22.808,0,45.082-1.881,66.14-5.485C319.352,372.138,315.927,380.292,312.13,387.885z M326.377,422.859
		c4.453-6.516,8.661-13.708,12.585-21.558c6.855-13.709,12.624-28.969,17.231-45.357c16.388-4.607,31.648-10.377,45.357-17.231
		c7.85-3.925,15.042-8.133,21.558-12.585C404.759,369.627,369.877,404.509,326.377,422.859z"/>
	<path d="M158.658,206.449h-9.305c-8.323,0-15.095,6.77-15.095,15.093v18.023h39.493v-18.023
		C173.751,213.219,166.98,206.449,158.658,206.449z"/>
</g>
</svg>
