<?xml version="1.0" encoding="utf-8"?>
<!-- Generator: Adobe Illustrator 16.0.0, SVG Export Plug-In . SVG Version: 6.00 Build 0)  -->
<!DOCTYPE svg PUBLIC "-//W3C//DTD SVG 1.1//EN" "http://www.w3.org/Graphics/SVG/1.1/DTD/svg11.dtd">
<svg version="1.1" id="Layer_1" xmlns="http://www.w3.org/2000/svg" xmlns:xlink="http://www.w3.org/1999/xlink" x="0px" y="0px"
	 width="512px" height="512px" viewBox="0 0 512 512" enable-background="new 0 0 512 512" xml:space="preserve">
<g>
	<polygon points="295.247,386.479 314.779,394.268 367.225,356.087 336.995,356.087 	"/>
	<polygon points="282.131,231.916 336.049,271.168 355.58,263.379 312.361,231.916 	"/>
	<polygon points="216.746,386.475 175.005,356.087 144.774,356.087 197.215,394.263 	"/>
	<polygon points="229.869,231.916 199.639,231.916 156.413,263.384 175.945,271.172 	"/>
	<g>
		<path d="M256.01,47.641c-23.854,0-37.057,12.362-36.814,36.182c0.348,32.623,14.211,52.414,36.814,52.068
			c0,0,36.801,1.492,36.801-52.068C292.811,60.002,280.377,47.641,256.01,47.641z"/>
		<path d="M321.1,160.651l-36.77-14.659l-8.609-7.256c-2.275-1.922-5.635-1.78-7.742,0.317l-11.971,11.904L244,139.05
			c-2.109-2.094-5.465-2.229-7.736-0.313l-8.611,7.256l-36.77,14.661c-11.842,4.715-11.83,46.647-12.848,50.497h155.93
			C332.949,207.311,332.945,165.363,321.1,160.651z"/>
	</g>
	<g>
		<path d="M114.059,264.652c0,0,36.801,1.492,36.801-52.068c0-23.82-12.434-36.182-36.801-36.182
			c-23.854,0-37.057,12.362-36.814,36.182C77.592,245.207,91.455,264.998,114.059,264.652z"/>
		<path d="M179.148,289.413l-36.77-14.659l-8.609-7.256c-2.275-1.922-5.635-1.78-7.742,0.317l-11.971,11.904l-12.008-11.908
			c-2.109-2.094-5.465-2.229-7.736-0.313l-8.611,7.256l-36.77,14.661c-11.842,4.715-11.83,46.647-12.848,50.497h155.93
			C190.998,336.072,190.994,294.125,179.148,289.413z"/>
		<path d="M397.961,264.652c0,0,36.801,1.492,36.801-52.068c0-23.82-12.434-36.182-36.801-36.182
			c-23.854,0-37.057,12.362-36.814,36.182C361.494,245.207,375.357,264.998,397.961,264.652z"/>
		<path d="M463.051,289.413l-36.77-14.659l-8.609-7.256c-2.275-1.922-5.635-1.78-7.742,0.317l-11.971,11.904l-12.008-11.908
			c-2.109-2.094-5.465-2.229-7.736-0.313l-8.611,7.256l-36.77,14.661c-11.842,4.715-11.83,46.647-12.848,50.497h155.93
			C474.9,336.072,474.896,294.125,463.051,289.413z"/>
	</g>
	<g>
		<path d="M256.01,300.85c-23.854,0-37.057,12.362-36.814,36.182c0.348,32.624,14.211,52.414,36.814,52.068
			c0,0,36.801,1.492,36.801-52.068C292.811,313.211,280.377,300.85,256.01,300.85z"/>
		<path d="M321.1,413.861l-36.77-14.66l-8.609-7.255c-2.275-1.922-5.635-1.781-7.742,0.316l-11.971,11.904L244,392.26
			c-2.109-2.095-5.465-2.229-7.736-0.313l-8.611,7.255l-36.77,14.662c-11.842,4.715-11.83,46.646-12.848,50.496h155.93
			C332.949,460.52,332.945,418.572,321.1,413.861z"/>
	</g>
</g>
</svg>
