<?xml version="1.0" encoding="utf-8"?>
<!-- Generator: Adobe Illustrator 16.0.0, SVG Export Plug-In . SVG Version: 6.00 Build 0)  -->
<!DOCTYPE svg PUBLIC "-//W3C//DTD SVG 1.1//EN" "http://www.w3.org/Graphics/SVG/1.1/DTD/svg11.dtd">
<svg version="1.1" id="Layer_1" xmlns="http://www.w3.org/2000/svg" xmlns:xlink="http://www.w3.org/1999/xlink" x="0px" y="0px"
	 width="512px" height="512px" viewBox="0 0 512 512" enable-background="new 0 0 512 512" xml:space="preserve">
<g>
	<path d="M257.114,444.355H107.238V92.769h32.359c0-8.157,3.094-15.597,8.155-21.238h-40.515C95.527,71.53,86,81.059,86,92.769
		v351.587c0,11.711,9.527,21.237,21.238,21.237h167.004C267.457,459.499,261.666,452.326,257.114,444.355z"/>
	<path d="M349.292,92.769l0.007,226.391c5.222,1.139,10.315,2.749,15.22,4.852l6.011-6.01V92.769
		c0-11.71-9.527-21.238-21.237-21.238h-40.515c5.06,5.642,8.154,13.081,8.154,21.238H349.292z"/>
	<path d="M171.454,120.6h113.621c5.865,0,10.618-4.753,10.618-10.619V88.213c0-5.864-4.753-10.619-10.618-10.619h-6.902V56.462
		c0-5.863-4.753-10.618-10.619-10.618h-78.579c-5.864,0-10.618,4.755-10.618,10.618v21.132h-6.902
		c-5.865,0-10.618,4.755-10.618,10.619v21.768C160.836,115.847,165.589,120.6,171.454,120.6z"/>
	<path d="M162.621,155.571c0-0.646-0.525-1.172-1.172-1.172h-28.472c-0.647,0-1.171,0.525-1.171,1.172v28.472
		c0,0.647,0.523,1.172,1.171,1.172h28.472c0.646,0,1.172-0.524,1.172-1.172V155.571z"/>
	<path d="M314.104,159.188H181.369c-5.862,0-10.617,4.755-10.617,10.619s4.755,10.618,10.617,10.618h132.735
		c5.865,0,10.619-4.754,10.619-10.618S319.97,159.188,314.104,159.188z"/>
	<path d="M162.621,219.284c0-0.647-0.525-1.172-1.172-1.172h-28.472c-0.647,0-1.171,0.524-1.171,1.172v28.472
		c0,0.646,0.523,1.172,1.171,1.172h28.472c0.646,0,1.172-0.525,1.172-1.172V219.284z"/>
	<path d="M314.104,222.901H181.369c-5.862,0-10.617,4.755-10.617,10.618c0,5.865,4.755,10.619,10.617,10.619h132.735
		c5.865,0,10.619-4.754,10.619-10.619C324.724,227.656,319.97,222.901,314.104,222.901z"/>
	<path d="M161.449,281.825h-28.472c-0.647,0-1.171,0.524-1.171,1.172v28.472c0,0.646,0.523,1.172,1.171,1.172h28.472
		c0.646,0,1.172-0.525,1.172-1.172v-28.472C162.621,282.35,162.096,281.825,161.449,281.825z"/>
	<path d="M314.104,286.614H181.369c-5.862,0-10.617,4.754-10.617,10.618c0,5.865,4.755,10.619,10.617,10.619h132.735
		c5.865,0,10.619-4.754,10.619-10.619C324.724,291.368,319.97,286.614,314.104,286.614z"/>
	<path d="M426,355.729c0-4.586-1.785-8.896-5.028-12.14l-12.844-12.845c-3.243-3.242-7.554-5.026-12.138-5.026
		c-4.582,0-8.895,1.784-12.139,5.028l-19.602,19.6c-10.469-7.506-23.303-11.927-37.168-11.927
		c-35.274,0-63.868,28.595-63.868,63.868c0,35.272,28.594,63.868,63.868,63.868c35.273,0,63.867-28.596,63.867-63.868
		c0-1.429-0.05-2.847-0.144-4.253l30.166-30.167C424.214,364.626,426,360.314,426,355.729z M407.033,359.547l-61.428,61.428
		c-1.295,1.294-3.051,2.021-4.881,2.021h-0.003c-1.832,0-3.587-0.729-4.881-2.024l-28.465-28.509
		c-2.691-2.696-2.689-7.064,0.003-9.758l5.483-5.48c2.692-2.694,7.058-2.696,9.755-0.006l18.104,18.057l51.019-51.021
		c1.295-1.294,3.051-2.021,4.881-2.021s3.586,0.728,4.881,2.021l5.531,5.531C409.728,352.482,409.728,356.852,407.033,359.547z"/>
</g>
</svg>
