<?xml version="1.0" encoding="utf-8"?>
<!-- Generator: Adobe Illustrator 16.0.0, SVG Export Plug-In . SVG Version: 6.00 Build 0)  -->
<!DOCTYPE svg PUBLIC "-//W3C//DTD SVG 1.1//EN" "http://www.w3.org/Graphics/SVG/1.1/DTD/svg11.dtd">
<svg version="1.1" id="Layer_1" xmlns="http://www.w3.org/2000/svg" xmlns:xlink="http://www.w3.org/1999/xlink" x="0px" y="0px"
	 width="512px" height="512px" viewBox="0 0 512 512" enable-background="new 0 0 512 512" xml:space="preserve">
<g>
	<path d="M456.537,239h-17.791c-3.923-42.427-22.711-82.393-53.032-112.713C355.393,95.965,315.427,77.177,273,73.254V55.463
		c0-9.374-7.626-17-17-17s-17,7.626-17,17v17.792c-42.427,3.922-82.393,22.711-112.714,53.032
		C95.965,156.607,77.177,196.573,73.254,239H55.463c-9.374,0-17,7.626-17,17s7.626,17,17,17h17.791
		c3.923,42.427,22.711,82.393,53.032,112.713c30.321,30.321,70.287,49.11,112.714,53.032v17.792c0,9.374,7.626,17,17,17
		s17-7.626,17-17v-17.792c42.427-3.922,82.393-22.711,112.714-53.032c30.321-30.321,49.109-70.286,53.032-112.713h17.791
		c9.374,0,17-7.626,17-17S465.911,239,456.537,239z M388.537,273h16.034C396.74,341.908,341.908,396.74,273,404.571v-16.034
		c0-9.374-7.626-17-17-17s-17,7.626-17,17v16.034C170.092,396.74,115.26,341.908,107.429,273h16.034c9.374,0,17-7.626,17-17
		s-7.626-17-17-17h-16.034C115.26,170.092,170.092,115.26,239,107.429v16.034c0,9.374,7.626,17,17,17s17-7.626,17-17v-16.034
		C341.908,115.26,396.74,170.092,404.571,239h-16.034c-9.374,0-17,7.626-17,17S379.163,273,388.537,273z"/>
	<path d="M256.013,161.131c-27.538,0-42.778,14.27-42.5,41.767c0.403,37.659,16.406,60.505,42.5,60.106
		c0,0,42.479,1.722,42.479-60.106C298.491,175.4,284.141,161.131,256.013,161.131z"/>
	<path d="M331.148,291.587l-42.445-16.923l-9.939-8.376c-2.625-2.218-6.503-2.055-8.938,0.366l-13.818,13.742l-13.859-13.746
		c-2.437-2.417-6.309-2.573-8.931-0.362l-9.94,8.376l-42.446,16.925c-13.668,5.443-13.657,53.848-14.831,58.291h180
		C344.828,345.447,344.822,297.025,331.148,291.587z"/>
</g>
</svg>
