<?xml version="1.0" encoding="utf-8"?>
<!-- Generator: Adobe Illustrator 16.0.0, SVG Export Plug-In . SVG Version: 6.00 Build 0)  -->
<!DOCTYPE svg PUBLIC "-//W3C//DTD SVG 1.1//EN" "http://www.w3.org/Graphics/SVG/1.1/DTD/svg11.dtd">
<svg version="1.1" id="Layer_1" xmlns="http://www.w3.org/2000/svg" xmlns:xlink="http://www.w3.org/1999/xlink" x="0px" y="0px"
	 width="512px" height="512px" viewBox="0 0 512 512" enable-background="new 0 0 512 512" xml:space="preserve">
<g>
	<path d="M306.327,239.663c-8.759,1.429-17.481,5.225-25.333,10.911l-82.587-82.586c-4.363-4.362-11.437-4.361-15.799,0.001
		c-4.29,4.291-4.353,11.198-0.2,15.574l-21.341,21.339c-4.362,4.363-4.362,11.437,0.001,15.8c4.362,4.363,11.436,4.361,15.798-0.001
		l21.328-21.326l10.533,10.533l-21.329,21.327c-4.362,4.364-4.362,11.437,0.002,15.801c4.362,4.361,11.438,4.361,15.799,0
		l21.328-21.328l40.668,40.668c-5.684,7.851-9.483,16.572-10.913,25.333c-2.151,13.165,1.154,24.908,9.308,33.059
		c8.153,8.154,19.894,11.46,33.058,9.308c12.092-1.972,24.116-8.431,33.866-18.181c9.752-9.75,16.208-21.776,18.181-33.864
		c2.153-13.166-1.152-24.908-9.307-33.06C331.235,240.817,319.492,237.512,306.327,239.663z M316.497,301.877
		c-12.532,12.531-29.993,16.25-38.13,8.112c-8.133-8.132-4.417-25.596,8.115-38.128c12.531-12.532,29.994-16.251,38.129-8.115
		C332.747,271.885,329.029,289.346,316.497,301.877z"/>
	<path d="M456.537,239h-17.791c-3.923-42.427-22.711-82.393-53.032-112.713C355.393,95.965,315.427,77.177,273,73.254V55.463
		c0-9.374-7.626-17-17-17s-17,7.626-17,17v17.792c-42.427,3.922-82.393,22.711-112.714,53.032
		C95.965,156.607,77.177,196.573,73.254,239H55.463c-9.374,0-17,7.626-17,17s7.626,17,17,17h17.791
		c3.923,42.427,22.711,82.393,53.032,112.713c30.321,30.321,70.287,49.11,112.714,53.032v17.792c0,9.374,7.626,17,17,17
		s17-7.626,17-17v-17.792c42.427-3.922,82.393-22.711,112.714-53.032c30.321-30.321,49.109-70.286,53.032-112.713h17.791
		c9.374,0,17-7.626,17-17S465.911,239,456.537,239z M388.537,273h16.034C396.74,341.908,341.908,396.74,273,404.571v-16.034
		c0-9.374-7.626-17-17-17s-17,7.626-17,17v16.034C170.092,396.74,115.26,341.908,107.429,273h16.034c9.374,0,17-7.626,17-17
		s-7.626-17-17-17h-16.034C115.26,170.092,170.092,115.26,239,107.429v16.034c0,9.374,7.626,17,17,17s17-7.626,17-17v-16.034
		C341.908,115.26,396.74,170.092,404.571,239h-16.034c-9.374,0-17,7.626-17,17S379.163,273,388.537,273z"/>
</g>
</svg>
