<?xml version="1.0" encoding="utf-8"?>
<!-- Generator: Adobe Illustrator 16.0.0, SVG Export Plug-In . SVG Version: 6.00 Build 0)  -->
<!DOCTYPE svg PUBLIC "-//W3C//DTD SVG 1.1//EN" "http://www.w3.org/Graphics/SVG/1.1/DTD/svg11.dtd">
<svg version="1.1" id="Layer_1" xmlns="http://www.w3.org/2000/svg" xmlns:xlink="http://www.w3.org/1999/xlink" x="0px" y="0px"
	 width="512px" height="512px" viewBox="0 0 512 512" enable-background="new 0 0 512 512" xml:space="preserve">
<g>
	<path d="M261.238,341.184c-17.647,8.014-37.233,12.48-57.843,12.48c-77.39,0-140.353-62.961-140.353-140.352
		S126.005,72.959,203.395,72.959c77.391,0,140.353,62.962,140.353,140.353c0,33.969-12.133,65.156-32.29,89.461
		c6.941,7.626,15.153,16.225,22.209,23.333c26.231-30.254,42.123-69.703,42.123-112.794c0-95.06-77.335-172.396-172.395-172.396
		C108.336,40.917,31,118.253,31,213.313s77.336,172.395,172.395,172.395c28.525,0,55.45-6.97,79.171-19.286
		C275.184,357.726,267.565,348.726,261.238,341.184z"/>
	<path d="M204.738,324.331h1.516c6.542,0,11.847-5.304,11.847-11.847v-15.061c29.055-4.381,47.3-21.932,47.299-46.422
		c0.249-33.294-25.275-44.322-47.299-51.208v-48.635c8.123,1.216,16.069,3.803,21.829,7.255c5.538,3.32,12.715,1.593,16.137-3.882
		l0.675-1.08c1.681-2.69,2.213-5.941,1.477-9.026c-0.736-3.086-2.678-5.747-5.392-7.388c-9.534-5.766-22.202-9.811-34.726-11.264
		V114.14c0-6.542-5.305-11.847-11.847-11.847h-1.516c-6.542,0-11.847,5.305-11.847,11.847v12.29
		c-26.93,4.309-43.813,20.494-43.813,42.961c0,31.516,24.806,42.847,43.813,49.08v53.748c-11.588-2.11-22.773-7.549-30.264-15.025
		c-4.628-4.62-12.125-4.616-16.746,0.01l-1.024,1.025c-2.245,2.245-3.494,5.298-3.468,8.472c0.026,3.175,1.326,6.207,3.607,8.414
		c12.409,12.012,30.076,20.217,47.896,22.579v14.791C192.891,319.027,198.196,324.331,204.738,324.331z M218.101,226.428
		c15.055,5.494,22.203,11.432,22.09,24.396c0,0.034,0,0.068,0,0.102c0,13.23-12.073,18.627-22.09,20.825V226.428z M174.288,169.391
		c0-10.536,9.89-15.19,18.603-17.246v39.367C178.931,185.693,174.288,179.624,174.288,169.391z"/>
	<path d="M479.662,385.766c-4.595-24.766-20.357-47.664-29.344-59.112c-12.191-15.531-27.666-21.767-45.99-18.539
		c-13.086,2.305-27.307,9.429-42.27,21.177c-10.575,8.303-18.558,16.61-22.088,20.479c-8.875-7.643-33.654-33.175-45.819-47.573
		c-6.108-7.23-21.864-22.605-33.62-11.991c-12.655,12.3,5.881,32.396,6.364,32.978l74.363,91.025
		c-0.301,0.404-0.638,0.752-1.024,1.055c-7.13,5.599-27.942-4.691-36.342-10.246c-7.679-5.076-20.611-5.037-27.136,0.084
		c-2.613,2.053-4.059,4.843-4.076,7.854c-0.021,4.336,2.815,8.82,8.422,13.313c0.062,0.051,0.175,0.149,0.337,0.289
		c8.286,7.099,30.763,24.783,60.447,35.667c19.027,6.978,37.564,9.854,55.101,8.55c21.754-1.621,42.026-9.694,60.247-24
		C476.781,431.431,484.327,410.902,479.662,385.766z"/>
</g>
</svg>
