<?xml version="1.0" encoding="utf-8"?>
<!-- Generator: Adobe Illustrator 16.0.0, SVG Export Plug-In . SVG Version: 6.00 Build 0)  -->
<!DOCTYPE svg PUBLIC "-//W3C//DTD SVG 1.1//EN" "http://www.w3.org/Graphics/SVG/1.1/DTD/svg11.dtd">
<svg version="1.1" id="Layer_2" xmlns="http://www.w3.org/2000/svg" xmlns:xlink="http://www.w3.org/1999/xlink" x="0px" y="0px"
	 width="512px" height="512px" viewBox="0 0 512 512" enable-background="new 0 0 512 512" xml:space="preserve">
<g>
	<path d="M412.809,107.821c10.684,0,20.176,5.228,27.803,9.429c5.603,3.085,10.027,5.521,14.577,5.521
		c1.971,0,11.801-0.694,11.801-14.419V74.323c0-15.715-12.785-28.5-28.5-28.5h-142.99c-15.715,0-28.5,12.785-28.5,28.5v142.99
		c0,15.715,12.785,28.5,28.5,28.5h142.99c15.715,0,28.5-12.785,28.5-28.5v-34.028c0-13.725-9.83-14.42-11.801-14.42
		c-4.55,0-8.974,2.437-14.575,5.521c-7.627,4.201-17.119,9.429-27.805,9.429c-20.575,0-37.314-17.045-37.314-37.997
		C375.494,124.867,392.233,107.821,412.809,107.821z"/>
	<path d="M216.501,45.823h-34.029c-13.725,0-14.419,9.831-14.419,11.802c0,4.549,2.437,8.974,5.521,14.575
		c4.2,7.627,9.429,17.119,9.429,27.804c0,20.575-17.046,37.314-37.997,37.314c-20.952,0-37.997-16.739-37.997-37.314
		c0-10.684,5.228-20.176,9.428-27.803c3.086-5.602,5.522-10.026,5.522-14.576c0-1.971-0.695-11.802-14.42-11.802H73.511
		c-15.715,0-28.5,12.785-28.5,28.5v142.99c0,15.715,12.785,28.5,28.5,28.5h142.99c15.715,0,28.5-12.785,28.5-28.5V74.323
		C245.001,58.608,232.216,45.823,216.501,45.823z"/>
	<path d="M216.501,266.187H73.511c-15.715,0-28.5,12.785-28.5,28.5v34.028c0,13.725,9.83,14.42,11.801,14.42
		c4.55,0,8.974-2.437,14.575-5.521c7.627-4.201,17.119-9.429,27.805-9.429c20.575,0,37.314,17.045,37.314,37.997
		c0,20.951-16.739,37.997-37.314,37.997c-10.684,0-20.176-5.228-27.803-9.429c-5.603-3.085-10.027-5.521-14.577-5.521
		c-1.971,0-11.801,0.694-11.801,14.419v34.029c0,15.715,12.785,28.5,28.5,28.5h142.99c15.715,0,28.5-12.785,28.5-28.5v-142.99
		C245.001,278.972,232.216,266.187,216.501,266.187z"/>
	<path d="M438.489,266.187h-142.99c-15.715,0-28.5,12.785-28.5,28.5v142.99c0,15.715,12.785,28.5,28.5,28.5h34.029
		c13.725,0,14.419-9.831,14.419-11.802c0-4.549-2.437-8.974-5.521-14.575c-4.2-7.627-9.429-17.119-9.429-27.804
		c0-20.575,17.046-37.314,37.997-37.314c20.952,0,37.997,16.739,37.997,37.314c0,10.684-5.228,20.176-9.428,27.803
		c-3.086,5.602-5.522,10.026-5.522,14.576c0,1.971,0.695,11.802,14.42,11.802h34.028c15.715,0,28.5-12.785,28.5-28.5v-142.99
		C466.989,278.972,454.204,266.187,438.489,266.187z"/>
</g>
</svg>
