<?xml version="1.0" encoding="utf-8"?>
<!-- Generator: Adobe Illustrator 16.0.0, SVG Export Plug-In . SVG Version: 6.00 Build 0)  -->
<!DOCTYPE svg PUBLIC "-//W3C//DTD SVG 1.1//EN" "http://www.w3.org/Graphics/SVG/1.1/DTD/svg11.dtd">
<svg version="1.1" id="Layer_2" xmlns="http://www.w3.org/2000/svg" xmlns:xlink="http://www.w3.org/1999/xlink" x="0px" y="0px"
	 width="512px" height="512px" viewBox="0 0 512 512" enable-background="new 0 0 512 512" xml:space="preserve">
<g>
	<path d="M246.431,202.416v-14.162V51.199c0-4.167,0.812-8.144,2.272-11.795c-1.419-0.039-2.842-0.066-4.276-0.066
		c-43.259,0-84.421,18.086-122.343,53.752c-0.064,0.063-0.129,0.125-0.191,0.189c-36.98,38.043-32.149,73.184-26.027,117.699
		c0.377,2.738,0.758,5.514,1.137,8.332c1.014,7.566-5.607,19.236-12.012,30.521c-9.623,16.959-19.572,34.494-7.416,42.776
		c20.771,14.158,24.38,42.021,27.871,68.979c0.83,6.402,1.688,13.022,2.762,19.459c1.85,11.104,11.219,16.502,28.641,16.502
		c7.747,0,16.021-0.957,24.027-1.883c6.861-0.793,13.342-1.541,18.529-1.541c2.9,0,5.166,0.229,6.926,0.707
		c20.933,5.674,39.221,47.998,45.83,73.346c0.538,2.058,2.122,3.677,4.166,4.256c0.542,0.154,1.092,0.229,1.64,0.229
		c1.522,0,3.013-0.578,4.144-1.658L349.4,368.609c1.659-1.586,2.271-3.98,1.571-6.168c-9.473-29.64,10.212-58.566,27.587-84.101
		c7.581-11.141,14.741-21.661,19.639-32.025c2.258-4.778,3.214-6.833,4.724-11.841l-124.63-0.199
		C260.723,234.276,246.431,219.984,246.431,202.416z"/>
	<path d="M417.497,65.14c4.446,0,8.396,2.175,11.571,3.924c2.331,1.284,4.173,2.298,6.065,2.298c0.82,0,4.911-0.289,4.911-6V51.199
		c0-6.54-5.32-11.861-11.861-11.861h-59.507c-6.54,0-11.861,5.321-11.861,11.861v59.508c0,6.54,5.321,11.861,11.861,11.861h59.507
		c6.541,0,11.861-5.321,11.861-11.861V96.545c0-5.711-4.091-6.001-4.911-6.001c-1.893,0-3.733,1.015-6.065,2.298
		c-3.174,1.748-7.124,3.924-11.571,3.924c-8.563,0-15.53-7.094-15.53-15.813C401.967,72.233,408.934,65.14,417.497,65.14z"/>
	<path d="M276.291,122.568H335.8c6.54,0,11.86-5.321,11.86-11.861V51.199c0-6.54-5.32-11.861-11.86-11.861h-14.162
		c-5.712,0-6.001,4.091-6.001,4.912c0,1.893,1.014,3.734,2.299,6.066c1.747,3.174,3.924,7.125,3.924,11.571
		c0,8.563-7.095,15.529-15.813,15.529c-8.72,0-15.813-6.966-15.813-15.529c0-4.446,2.176-8.397,3.924-11.571
		c1.284-2.331,2.298-4.172,2.298-6.066c0-0.82-0.29-4.912-6.001-4.912h-14.162c-6.539,0-11.86,5.321-11.86,11.861v59.508
		C264.431,117.247,269.752,122.568,276.291,122.568z"/>
	<path d="M276.291,214.276H335.8c6.54,0,11.86-5.321,11.86-11.861v-59.508c0-6.541-5.32-11.861-11.86-11.861h-59.509
		c-6.539,0-11.86,5.321-11.86,11.861v14.161c0,5.712,4.091,6.001,4.911,6.001c1.893,0,3.734-1.014,6.065-2.298
		c3.175-1.749,7.125-3.924,11.571-3.924c8.563,0,15.529,7.094,15.529,15.813c0,8.72-6.966,15.813-15.529,15.813
		c-4.445,0-8.396-2.175-11.57-3.924c-2.331-1.284-4.173-2.298-6.066-2.298c-0.82,0-4.911,0.289-4.911,6.001v14.162
		C264.431,208.956,269.752,214.276,276.291,214.276z"/>
	<path d="M428.184,131.046h-59.507c-6.54,0-11.861,5.321-11.861,11.861v59.508c0,6.54,5.321,11.861,11.861,11.861h14.161
		c5.713,0,6.001-4.091,6.001-4.912c0-1.893-1.014-3.734-2.298-6.066c-1.749-3.174-3.924-7.124-3.924-11.571
		c0-8.563,7.093-15.529,15.813-15.529c8.72,0,15.813,6.967,15.813,15.529c0,4.446-2.175,8.397-3.923,11.571
		c-1.285,2.331-2.299,4.173-2.299,6.066c0,0.82,0.29,4.912,6.002,4.912h14.161c6.541,0,11.861-5.321,11.861-11.861v-59.508
		C440.045,136.367,434.725,131.046,428.184,131.046z"/>
</g>
</svg>
