<?xml version="1.0" encoding="utf-8"?>
<!-- Generator: Adobe Illustrator 16.0.0, SVG Export Plug-In . SVG Version: 6.00 Build 0)  -->
<!DOCTYPE svg PUBLIC "-//W3C//DTD SVG 1.1//EN" "http://www.w3.org/Graphics/SVG/1.1/DTD/svg11.dtd">
<svg version="1.1" id="Layer_1" xmlns="http://www.w3.org/2000/svg" xmlns:xlink="http://www.w3.org/1999/xlink" x="0px" y="0px"
	 width="512px" height="512px" viewBox="0 0 512 512" enable-background="new 0 0 512 512" xml:space="preserve">
<g>
	<path d="M127.025,160.753c0.729,68.174,29.705,109.538,76.947,108.818c0,0,76.915,3.129,76.915-108.818
		c0-49.793-25.982-75.624-76.915-75.624C154.12,85.129,126.52,110.961,127.025,160.753z"/>
	<path d="M265.484,291.609l-2.321-0.923l-17.994-15.163c-4.752-4.021-11.778-3.727-16.185,0.667l-25.015,24.874l-25.095-24.895
		c-4.409-4.373-11.422-4.644-16.176-0.646l-17.996,15.163l-76.85,30.648C43.101,331.179,43.124,418.834,41,426.871h307.738
		c-9.656-10.642-24.065-27.479-38.511-47.828C293.521,355.533,274.475,323.857,265.484,291.609z"/>
	<path d="M375.946,426.871c1.499,0,2.93-0.621,3.966-1.717c8.742-9.292,26.006-28.533,43.316-52.913
		C445.025,341.569,471,296.567,471,256.461c0-52.41-42.641-95.057-95.054-95.057c-52.417,0-95.06,42.646-95.06,95.057
		c0,40.138,26.012,85.158,47.839,115.863c17.298,24.354,34.523,43.549,43.256,52.83C373.009,426.25,374.442,426.871,375.946,426.871
		z M317.902,255.231c0-32.015,26.046-58.052,58.044-58.052c32,0,58.038,26.037,58.038,58.052c0,31.998-26.038,58.04-58.038,58.04
		C343.948,313.271,317.902,287.229,317.902,255.231z"/>
</g>
</svg>
