<?xml version="1.0" encoding="utf-8"?>
<!-- Generator: Adobe Illustrator 16.0.0, SVG Export Plug-In . SVG Version: 6.00 Build 0)  -->
<!DOCTYPE svg PUBLIC "-//W3C//DTD SVG 1.1//EN" "http://www.w3.org/Graphics/SVG/1.1/DTD/svg11.dtd">
<svg version="1.1" id="Layer_1" xmlns="http://www.w3.org/2000/svg" xmlns:xlink="http://www.w3.org/1999/xlink" x="0px" y="0px"
	 width="512px" height="512px" viewBox="0 0 512 512" enable-background="new 0 0 512 512" xml:space="preserve">
<g>
	<path d="M442.498,77.84H69.501c-11.046,0-20,8.954-20,20v234c0,11.046,8.954,20,20,20H209v45.32h-54.283
		c-10.201,0-18.5,8.299-18.5,18.5s8.299,18.5,18.5,18.5h202.566c10.201,0,18.5-8.299,18.5-18.5s-8.299-18.5-18.5-18.5H303v-45.32
		h139.498c11.047,0,20-8.954,20-20v-234C462.498,86.794,453.545,77.84,442.498,77.84z M432.498,321.84H79.501v-214h352.997V321.84z"
		/>
	<path d="M112.5,195.778h287c2.762,0,5-2.239,5-5V135.77c0-2.761-2.238-5-5-5h-287c-2.762,0-5,2.239-5,5v55.008
		C107.5,193.539,109.738,195.778,112.5,195.778z"/>
	<path d="M399.5,214.665h-64.719c-2.19,0-3.966,1.776-3.966,3.966v76.333c0,2.19,1.775,3.966,3.966,3.966H399.5
		c2.19,0,3.966-1.776,3.966-3.966v-76.333C403.466,216.44,401.69,214.665,399.5,214.665z"/>
	<path d="M301.281,214.665H112.5c-2.19,0-3.967,1.776-3.967,3.966v76.333c0,2.19,1.776,3.966,3.967,3.966h188.781
		c2.19,0,3.965-1.776,3.965-3.966v-76.333C305.246,216.44,303.472,214.665,301.281,214.665z M291.891,288.946h-170v-64.297h170
		V288.946z"/>
</g>
</svg>
