<?xml version="1.0" encoding="utf-8"?>
<!-- Generator: Adobe Illustrator 16.0.0, SVG Export Plug-In . SVG Version: 6.00 Build 0)  -->
<!DOCTYPE svg PUBLIC "-//W3C//DTD SVG 1.1//EN" "http://www.w3.org/Graphics/SVG/1.1/DTD/svg11.dtd">
<svg version="1.1" id="Layer_1" xmlns="http://www.w3.org/2000/svg" xmlns:xlink="http://www.w3.org/1999/xlink" x="0px" y="0px"
	 width="512px" height="512px" viewBox="0 0 512 512" enable-background="new 0 0 512 512" xml:space="preserve">
<g>
	<path d="M398.509,376.553c-0.342-0.436-0.673-0.879-0.989-1.333c-3.196-1.419-6.202-3.158-8.992-5.165H69.727V103.818h296.11v58.37
		c0,5.896,4.777,10.672,10.671,10.672h56.659l0.002,19.972h1.758c9.905,0,19.148,2.861,26.967,7.784v-43.639
		c0-2.285-0.909-4.475-2.524-6.096l-73.271-73.269c-1.615-1.615-3.806-2.522-6.094-2.522H66.855C52.598,75.091,41,86.686,41,100.94
		v271.992c0,14.254,11.598,25.85,25.855,25.85h331.654V376.553z"/>
	<path d="M271.703,219.879c0-5.817-4.717-10.533-10.534-10.533H111.568c-5.817,0-10.533,4.716-10.533,10.533
		c0,5.816,4.716,10.534,10.533,10.534h149.601C266.986,230.413,271.703,225.695,271.703,219.879z"/>
	<path d="M111.568,283.078h82.158c5.817,0,10.533-4.716,10.533-10.534c0-5.817-4.716-10.533-10.533-10.533h-82.158
		c-5.817,0-10.533,4.716-10.533,10.533C101.035,278.362,105.751,283.078,111.568,283.078z"/>
	<path d="M111.568,335.743h136.435c5.817,0,10.534-4.716,10.534-10.534c0-5.815-4.716-10.533-10.534-10.533H111.568
		c-5.817,0-10.533,4.718-10.533,10.533C101.035,331.027,105.751,335.743,111.568,335.743z"/>
	<path d="M447.92,413.83h-8.435v-44.881c2.683-1.558,4.701-4.121,5.544-7.179c14.786-4.08,25.649-17.621,25.649-33.706v-19.727
		h-22.147v-20.98h22.147v-21.683h-22.147v-18.884h22.147v-3.929c0-19.313-15.657-34.97-34.97-34.97h-16.841
		c-19.314,0-34.969,15.657-34.969,34.97v3.929h22.147v18.884h-22.147v21.683h22.147v20.98h-22.147v19.727
		c0,16.085,10.862,29.626,25.648,33.706c0.843,3.058,2.861,5.621,5.544,7.179v44.881h-8.435c-12.747,0-23.08,10.334-23.08,23.079
		H471C471,424.164,460.667,413.83,447.92,413.83z"/>
	<path d="M108.088,179.614c3.194,0,5.793-2.6,5.793-5.794v-9.323h7.875c13.947,0,22.61-7.819,22.61-20.407
		c0-12.392-8.663-20.09-22.61-20.09h-14.928c-3.194,0-5.793,2.598-5.793,5.794v44.026c0,3.194,2.599,5.794,5.793,5.794H108.088z
		 M113.881,136.845h7.875c9.765,0,9.765,5.265,9.765,7.245c0,2.067,0,7.561-9.765,7.561h-7.875V136.845z"/>
	<path d="M193.439,144.09c0-12.392-8.664-20.09-22.611-20.09h-14.926c-3.195,0-5.793,2.598-5.793,5.794v44.026
		c0,3.194,2.598,5.794,5.793,5.794h1.26c3.194,0,5.792-2.6,5.792-5.794v-9.323h7.875c0.413,0,0.825-0.008,1.253-0.025l9.312,12.765
		c1.086,1.489,2.837,2.378,4.679,2.378h1.761l0.021-0.003c3.108-0.099,5.606-2.658,5.606-5.791c0-1.386-0.492-2.716-1.39-3.766
		l-6.85-9.385C190.547,157.107,193.439,151.328,193.439,144.09z M170.828,151.65h-7.875v-14.806h7.875
		c9.766,0,9.766,5.265,9.766,7.245C180.594,146.157,180.594,151.65,170.828,151.65z"/>
	<path d="M232.065,136.845c3.194,0,5.793-2.598,5.793-5.791v-1.26c0-3.196-2.599-5.794-5.793-5.794H204.54
		c-3.194,0-5.793,2.598-5.793,5.794v44.026c0,3.194,2.599,5.794,5.793,5.794h28.407c3.194,0,5.793-2.6,5.793-5.794v-1.26
		c0-3.193-2.599-5.793-5.793-5.793h-21.354v-9.199h17.575c3.194,0,5.793-2.6,5.793-5.793v-1.261c0-3.193-2.599-5.793-5.793-5.793
		h-17.575v-7.877H232.065z"/>
	<path d="M283.828,163.158c0.098-12.745-11.085-16.126-17.767-18.145c-7.823-2.365-8.562-3.375-8.562-5.459
		c0-1.695,3.556-2.71,6.994-2.71c2.819,0,6.086,0.838,7.946,2.037c1.298,0.838,2.922,1.117,4.402,0.786
		c1.502-0.335,2.833-1.278,3.649-2.585l0.63-1.008c1.668-2.668,0.874-6.229-1.77-7.938c-3.954-2.553-9.647-4.138-14.858-4.138
		c-11.867,0-19.839,6.249-19.839,15.555c0,12.406,11.012,15.743,17.593,17.735c8.044,2.437,8.754,3.47,8.735,5.822
		c0,2.891-5.152,3.655-7.875,3.655c-3.647,0-7.744-1.639-9.965-3.984c-1.068-1.129-2.572-1.787-4.173-1.811
		c-1.574,0.006-3.041,0.609-4.13,1.694l-0.882,0.882c-2.24,2.241-2.257,5.9-0.036,8.161c4.792,4.876,12.144,7.904,19.185,7.904
		C275.308,179.614,283.828,172.839,283.828,163.158z"/>
	<path d="M308.887,166.768c-3.647,0-7.745-1.639-9.965-3.984c-1.068-1.129-2.571-1.787-4.172-1.811
		c-1.574,0.006-3.041,0.609-4.129,1.694l-0.882,0.882c-2.241,2.241-2.258,5.9-0.037,8.161c4.792,4.876,12.145,7.904,19.186,7.904
		c12.2,0,20.721-6.775,20.721-16.456c0.097-12.745-11.085-16.126-17.766-18.145c-7.825-2.365-8.563-3.375-8.563-5.459
		c0-1.695,3.556-2.71,6.993-2.71c2.818,0,6.086,0.838,7.945,2.037c1.298,0.837,2.921,1.119,4.403,0.786
		c1.504-0.335,2.834-1.278,3.651-2.585l0.63-1.008c1.667-2.668,0.873-6.229-1.77-7.938c-3.955-2.553-9.648-4.138-14.858-4.138
		c-11.866,0-19.839,6.249-19.839,15.555c0,12.406,11.012,15.743,17.594,17.735c8.043,2.437,8.754,3.47,8.735,5.822
		C316.762,166.003,311.611,166.768,308.887,166.768z"/>
</g>
</svg>
