<?xml version="1.0" encoding="utf-8"?>
<!-- Generator: Adobe Illustrator 16.0.0, SVG Export Plug-In . SVG Version: 6.00 Build 0)  -->
<!DOCTYPE svg PUBLIC "-//W3C//DTD SVG 1.1//EN" "http://www.w3.org/Graphics/SVG/1.1/DTD/svg11.dtd">
<svg version="1.1" id="Layer_1" xmlns="http://www.w3.org/2000/svg" xmlns:xlink="http://www.w3.org/1999/xlink" x="0px" y="0px"
	 width="512px" height="512px" viewBox="0 0 512 512" enable-background="new 0 0 512 512" xml:space="preserve">
<g>
	<path d="M285.605,319.734c2.172-10.857,7.07-20.174,14.512-27.387c3.373-3.27,7.229-6.037,11.488-8.309H200.219
		c13.67,7.301,22.881,19.699,26.133,35.695H285.605z"/>
	<path d="M108.846,284.039c-9.838,0-17.846,8.006-17.846,17.848s8.008,17.848,17.846,17.848h4.57
		c2.172-10.857,7.068-20.174,14.51-27.385c5.008-4.854,11.057-8.629,17.953-11.26V99.939h220.244v181.227
		c17.131,6.619,28.691,20.229,32.42,38.568h4.611c9.84,0,17.846-8.006,17.846-17.848s-8.006-17.848-17.846-17.848h-4.49v-184.1h4.49
		c9.84,0,17.846-8.008,17.846-17.848s-8.006-17.846-17.846-17.846H272.27V46.582c0-8.984-7.283-16.27-16.27-16.27
		c-8.984,0-16.268,7.285-16.268,16.27v17.664H108.846C99.008,64.246,91,72.252,91,82.092s8.008,17.848,17.846,17.848h4.494v184.1
		H108.846z"/>
	<path d="M204.135,239.633v-58.055c0-6.74-5.469-12.205-12.207-12.205c-6.742,0-12.201,5.465-12.201,12.205v58.055
		c0,6.74,5.459,12.205,12.201,12.205C198.666,251.838,204.135,246.373,204.135,239.633z"/>
	<path d="M246.846,239.633V138.861c0-6.74-5.461-12.203-12.201-12.203c-6.742,0-12.209,5.463-12.209,12.203v100.771
		c0,6.74,5.467,12.205,12.209,12.205C241.385,251.838,246.846,246.373,246.846,239.633z"/>
	<path d="M289.564,239.633v-75.145c0-6.738-5.467-12.201-12.209-12.201c-6.74,0-12.201,5.463-12.201,12.201v75.145
		c0,6.74,5.461,12.205,12.201,12.205C284.098,251.838,289.564,246.373,289.564,239.633z"/>
	<path d="M332.275,239.633v-87.955c0-6.74-5.461-12.205-12.199-12.205c-6.74,0-12.207,5.465-12.207,12.205v87.955
		c0,6.74,5.467,12.205,12.207,12.205C326.814,251.838,332.275,246.373,332.275,239.633z"/>
	<path d="M169.838,394.248c0,0,0.021,0,0.043,0c0,0,0.006,0,0.016,0h0.012c0.016,0,0.029,0,0.029,0c0.033,0,0.059,0,0.078,0v-0.008
		c26.266,0.402,42.242-22.592,42.648-60.5c0.268-26.299-16.037-41.336-42.6-42.043v-0.01c-0.037,0-0.07,0.008-0.119,0.008v-0.008
		c-0.012,0-0.037,0-0.049,0.008c-0.021-0.008-0.041-0.008-0.057-0.008v0.008c-0.043,0-0.072-0.008-0.111-0.008v0.01
		c-26.568,0.707-42.869,15.742-42.6,42.043c0.408,37.908,16.371,60.902,42.639,60.5v0.008
		C169.787,394.248,169.811,394.248,169.838,394.248z"/>
	<path d="M342.029,394.248c0.008,0,0.018,0,0.041,0c0,0,0.006,0,0.018,0h0.012c0.016,0,0.029,0,0.029,0c0.029,0,0.059,0,0.076,0
		v-0.008c26.268,0.402,42.24-22.592,42.648-60.5c0.27-26.299-16.037-41.336-42.598-42.043v-0.01c-0.041,0-0.07,0.008-0.121,0.008
		v-0.008c-0.012,0-0.035,0-0.047,0.008c-0.021-0.008-0.041-0.008-0.059-0.008v0.008c-0.041,0-0.074-0.008-0.111-0.008v0.01
		c-26.566,0.707-42.867,15.742-42.602,42.043c0.408,37.908,16.375,60.902,42.641,60.5v0.008
		C341.979,394.248,342.002,394.248,342.029,394.248z"/>
	<path d="M417.734,423.012l-42.723-17.037l-10.004-8.424c-2.643-2.236-6.541-2.072-8.994,0.363l-13.91,13.83l-13.953-13.836
		c-2.449-2.43-6.346-2.584-8.984-0.357l-10.012,8.424l-42.721,17.041c-5.145,2.051-8.365,10.141-10.441,19.707
		c-2.08-9.566-5.301-17.664-10.447-19.711l-42.723-17.037l-10.006-8.424c-2.639-2.236-6.541-2.072-8.994,0.363l-13.91,13.83
		l-13.949-13.836c-2.451-2.43-6.346-2.584-8.988-0.357l-10.01,8.424l-42.723,17.041c-13.76,5.479-13.744,54.199-14.93,58.672
		h353.375C431.504,477.225,431.5,428.482,417.734,423.012z"/>
</g>
</svg>
