<?xml version="1.0" encoding="utf-8"?>
<!-- Generator: Adobe Illustrator 16.0.0, SVG Export Plug-In . SVG Version: 6.00 Build 0)  -->
<!DOCTYPE svg PUBLIC "-//W3C//DTD SVG 1.1//EN" "http://www.w3.org/Graphics/SVG/1.1/DTD/svg11.dtd">
<svg version="1.1" id="Layer_1" xmlns="http://www.w3.org/2000/svg" xmlns:xlink="http://www.w3.org/1999/xlink" x="0px" y="0px"
	 width="512px" height="512px" viewBox="0 0 512 512" enable-background="new 0 0 512 512" xml:space="preserve">
<g>
	<path d="M403.162,170.662H272.11v134.621H421V188.502C421,178.647,413.015,170.662,403.162,170.662z"/>
	<path d="M91,188.502v116.781h148.89V170.662H108.838C98.985,170.662,91,178.647,91,188.502z"/>
	<path d="M272.11,472.123h131.052c9.853,0,17.838-7.985,17.838-17.84v-116.78H272.11V472.123z"/>
	<path d="M91,454.283c0,9.854,7.985,17.84,17.838,17.84H239.89v-134.62H91V454.283z"/>
	<path d="M409.467,85.325c0.799-10.808-2.556-36.716-50.891-43.919c-6.813-1.016-13.528-1.529-19.959-1.529
		c-37.496,0-60.3,16.891-72.831,31.063c-3.646,4.122-6.928,8.641-9.786,13.385c-2.858-4.744-6.141-9.263-9.786-13.385
		c-12.531-14.173-35.336-31.063-72.831-31.063c-6.431,0-13.145,0.514-19.96,1.529c-48.334,7.203-51.69,33.111-50.89,43.919
		c1.396,18.832,18.056,37.98,45.71,52.526c26.999,14.198,60.459,22.025,94.217,22.025h27.079c33.757,0,67.217-7.827,94.217-22.025
		C391.411,123.306,408.071,104.157,409.467,85.325z M236.718,127.826c-26.667-0.809-52.604-7.22-73.596-18.263
		c-20.274-10.66-28.372-21.971-28.715-26.597c-0.031-0.411-0.087-1.184,1.965-2.772c2.348-1.815,8.298-5.167,21.763-7.176
		c5.259-0.78,10.389-1.177,15.249-1.177c30.483,0,46.511,15.146,54.585,27.848C235.232,111.113,236.991,122.118,236.718,127.826z
		 M275.281,127.826c-0.272-5.708,1.486-16.713,8.75-28.137c8.075-12.701,24.103-27.848,54.585-27.848
		c4.86,0,9.99,0.396,15.248,1.177c13.466,2.009,19.416,5.36,21.764,7.176c2.053,1.589,1.995,2.361,1.965,2.772
		c-0.343,4.626-8.442,15.937-28.715,26.597C327.886,120.606,301.949,127.018,275.281,127.826z"/>
</g>
</svg>
