<?xml version="1.0" encoding="utf-8"?>
<!-- Generator: Adobe Illustrator 16.0.0, SVG Export Plug-In . SVG Version: 6.00 Build 0)  -->
<!DOCTYPE svg PUBLIC "-//W3C//DTD SVG 1.1//EN" "http://www.w3.org/Graphics/SVG/1.1/DTD/svg11.dtd">
<svg version="1.1" id="Layer_1" xmlns="http://www.w3.org/2000/svg" xmlns:xlink="http://www.w3.org/1999/xlink" x="0px" y="0px"
	 width="512px" height="512px" viewBox="0 0 512 512" enable-background="new 0 0 512 512" xml:space="preserve">
<g>
	<path d="M467.913,151.624l-48.294-79.846c-1.866-3.087-5.213-4.974-8.821-4.974s-6.954,1.886-8.821,4.974l-48.295,79.846
		c-1.926,3.184-1.987,7.158-0.158,10.399c1.827,3.242,5.259,5.246,8.98,5.246h16.189v75.504c0,5.694,4.615,10.31,10.31,10.31h43.59
		c5.694,0,10.31-4.616,10.31-10.31V167.27h16.189c3.722,0,7.153-2.004,8.98-5.246C469.9,158.782,469.84,154.808,467.913,151.624z"/>
	<path d="M220.872,71.369c-54.54,0-84.725,28.262-84.174,82.721c0.8,74.585,32.494,119.833,84.174,119.043
		c0,0,84.131,3.411,84.131-119.043C305.003,99.63,276.581,71.369,220.872,71.369z"/>
	<path d="M369.683,329.743l-84.065-33.517l-19.686-16.589c-5.199-4.393-12.88-4.069-17.701,0.726l-27.368,27.217l-27.449-27.225
		c-4.825-4.787-12.494-5.096-17.688-0.717l-19.688,16.589l-84.066,33.521c-27.07,10.781-27.05,106.648-29.374,115.448h356.499
		C396.775,436.417,396.764,340.515,369.683,329.743z"/>
</g>
</svg>
