<?xml version="1.0" encoding="utf-8"?>
<!-- Generator: Adobe Illustrator 16.0.0, SVG Export Plug-In . SVG Version: 6.00 Build 0)  -->
<!DOCTYPE svg PUBLIC "-//W3C//DTD SVG 1.1//EN" "http://www.w3.org/Graphics/SVG/1.1/DTD/svg11.dtd">
<svg version="1.1" id="Layer_1" xmlns="http://www.w3.org/2000/svg" xmlns:xlink="http://www.w3.org/1999/xlink" x="0px" y="0px"
	 width="512px" height="512px" viewBox="0 0 512 512" enable-background="new 0 0 512 512" xml:space="preserve">
<g>
	<path d="M428.527,77.858H83.475c-12.998,0-23.568,10.573-23.568,23.569v309.146c0,12.996,10.57,23.569,23.568,23.569h345.053
		c12.994,0,23.566-10.573,23.566-23.569V101.427C452.094,88.432,441.521,77.858,428.527,77.858z M357.467,117.435
		c0-4.806,3.896-8.703,8.701-8.703h8.703c4.807,0,8.701,3.896,8.701,8.703v9.863c0,4.806-3.895,8.702-8.701,8.702h-8.703
		c-4.805,0-8.701-3.896-8.701-8.702V117.435z M317,117.435c0-4.806,3.898-8.703,8.703-8.703h8.701c4.805,0,8.703,3.896,8.703,8.703
		v9.863c0,4.806-3.898,8.702-8.703,8.702h-8.701c-4.805,0-8.703-3.896-8.703-8.702V117.435z M423.811,405.858H88.189V162.142
		h335.621V405.858z M424.039,127.298c0,4.806-3.896,8.702-8.701,8.702h-8.703c-4.809,0-8.703-3.896-8.703-8.702v-9.863
		c0-4.806,3.895-8.703,8.703-8.703h8.703c4.805,0,8.701,3.896,8.701,8.703V127.298z"/>
	<path d="M144.092,293.191l63.084,29.336c1.631,0.755,3.367,1.138,5.162,1.138c2.338,0,4.617-0.664,6.598-1.924
		c3.547-2.267,5.666-6.13,5.666-10.335v-0.322c0-4.751-2.785-9.116-7.096-11.119l-39.455-18.331l39.455-18.334
		c4.311-2.004,7.096-6.368,7.096-11.118v-0.319c0-4.21-2.119-8.075-5.666-10.334c-1.961-1.253-4.246-1.916-6.605-1.916
		c-1.779,0-3.563,0.391-5.16,1.133l-63.08,29.333c-4.307,2.004-7.09,6.368-7.09,11.117v0.877
		C137,286.816,139.781,291.179,144.092,293.191z"/>
	<path d="M225.164,352.943c2.301,3.15,6.002,5.03,9.9,5.03h0.316c5.352,0,10.041-3.426,11.672-8.516l41.555-128.761
		c1.193-3.716,0.531-7.818-1.77-10.973c-2.301-3.15-6.002-5.03-9.902-5.03h-0.316c-5.354,0-10.047,3.425-11.678,8.516
		l-41.559,128.771C222.199,345.699,222.865,349.796,225.164,352.943z"/>
	<path d="M287.398,252.183c0,4.746,2.783,9.111,7.094,11.123l39.455,18.33l-39.455,18.33c-4.309,2.003-7.094,6.368-7.094,11.119
		v0.322c0,4.205,2.117,8.068,5.668,10.336c1.973,1.258,4.254,1.923,6.594,1.923c1.793,0,3.529-0.383,5.17-1.141l63.08-29.335
		c4.307-2.009,7.09-6.372,7.09-11.115v-0.877c0-4.749-2.783-9.113-7.094-11.118l-63.08-29.333c-1.59-0.74-3.373-1.131-5.152-1.131
		c-2.357,0-4.643,0.661-6.605,1.912c-3.551,2.263-5.67,6.127-5.67,10.337V252.183z"/>
</g>
</svg>
