<?xml version="1.0" encoding="utf-8"?>
<!-- Generator: Adobe Illustrator 16.0.0, SVG Export Plug-In . SVG Version: 6.00 Build 0)  -->
<!DOCTYPE svg PUBLIC "-//W3C//DTD SVG 1.1//EN" "http://www.w3.org/Graphics/SVG/1.1/DTD/svg11.dtd">
<svg version="1.1" id="Layer_2" xmlns="http://www.w3.org/2000/svg" xmlns:xlink="http://www.w3.org/1999/xlink" x="0px" y="0px"
	 width="512px" height="512px" viewBox="0 0 512 512" enable-background="new 0 0 512 512" xml:space="preserve">
<g>
	<path d="M372.991,100.63c0.243-11.669-4.746-30.608-37.938-35.906c0.003-0.151,0.008-0.301,0.011-0.452
		c0.05-2.452-0.89-4.821-2.605-6.574c-1.716-1.752-4.066-2.739-6.52-2.739H186.061c-2.453,0-4.804,0.987-6.52,2.739
		c-1.716,1.753-2.655,4.122-2.605,6.574c0.003,0.151,0.009,0.301,0.013,0.452c-33.189,5.297-38.181,24.233-37.939,35.9
		c0.472,22.788,20.728,44.711,29.415,53.078c10.08,9.711,20.668,17.186,30.61,21.824c0.649,1.35,1.31,2.684,1.985,3.987
		c10.087,19.39,22.748,32.638,36.726,38.79v73.788h-23.458c-7.031,0-12.728,5.699-12.728,12.729v15.973
		c0,7.029,5.696,12.729,12.728,12.729h83.429c7.028,0,12.727-5.699,12.727-12.729V304.82c0-7.029-5.698-12.729-12.727-12.729
		h-23.461v-73.788c13.978-6.152,26.642-19.4,36.726-38.79c0.676-1.303,1.334-2.636,1.985-3.984
		c9.942-4.637,20.53-12.111,30.61-21.821C352.263,145.34,372.518,123.42,372.991,100.63z M181.088,140.556
		c-14.473-13.94-23.603-29.386-23.829-40.31c-0.184-8.876,6.695-14.629,20.484-17.18c1.553,23.628,5.107,45.133,10.539,63.887
		C185.854,144.962,183.442,142.824,181.088,140.556z M330.912,140.561c-2.356,2.27-4.768,4.407-7.194,6.397
		c5.432-18.755,8.987-40.261,10.541-63.892c13.789,2.552,20.668,8.306,20.482,17.184
		C354.515,111.176,345.385,126.622,330.912,140.561z"/>
	<path d="M170.682,395.432l-27.782-4.037l-12.425-25.176c-0.841-1.704-2.575-2.782-4.475-2.782s-3.633,1.078-4.475,2.782
		l-12.424,25.176l-27.783,4.037c-1.881,0.272-3.441,1.589-4.028,3.396s-0.099,3.788,1.263,5.114l20.104,19.598L93.91,451.21
		c-0.32,1.871,0.449,3.763,1.984,4.879c1.537,1.116,3.574,1.264,5.256,0.38L126,443.405l24.851,13.063
		c0.729,0.384,1.526,0.573,2.321,0.573c1.034,0,2.063-0.321,2.933-0.953c1.537-1.116,2.307-3.008,1.985-4.879l-4.746-27.671
		l20.104-19.598c1.359-1.326,1.85-3.308,1.263-5.114S172.562,395.704,170.682,395.432z"/>
	<path d="M300.682,395.432l-27.782-4.037l-12.425-25.176c-0.841-1.704-2.575-2.782-4.475-2.782s-3.633,1.078-4.475,2.782
		l-12.424,25.176l-27.783,4.037c-1.881,0.272-3.441,1.589-4.028,3.396s-0.099,3.788,1.263,5.114l20.104,19.598l-4.746,27.671
		c-0.32,1.871,0.449,3.763,1.984,4.879c1.537,1.116,3.574,1.264,5.256,0.38L256,443.405l24.851,13.063
		c0.729,0.384,1.526,0.573,2.321,0.573c1.034,0,2.063-0.321,2.933-0.953c1.537-1.116,2.307-3.008,1.985-4.879l-4.746-27.671
		l20.104-19.598c1.359-1.326,1.85-3.308,1.263-5.114S302.562,395.704,300.682,395.432z"/>
	<path d="M434.71,398.827c-0.587-1.807-2.147-3.123-4.028-3.396l-27.783-4.037l-12.424-25.176c-0.842-1.704-2.575-2.782-4.475-2.782
		s-3.634,1.078-4.475,2.782l-12.425,25.176l-27.782,4.037c-1.88,0.272-3.442,1.589-4.029,3.396s-0.097,3.788,1.263,5.114
		l20.104,19.598l-4.746,27.671c-0.321,1.871,0.448,3.763,1.985,4.879c0.87,0.632,1.898,0.953,2.933,0.953
		c0.795,0,1.592-0.189,2.321-0.573L386,443.405l24.85,13.063c0.73,0.384,1.527,0.573,2.321,0.573c1.035,0,2.065-0.321,2.935-0.953
		c1.535-1.116,2.305-3.008,1.984-4.879l-4.746-27.671l20.104-19.598C434.809,402.615,435.297,400.634,434.71,398.827z
		 M406.363,416.378l-3.765,3.67l0.889,5.182l3.03,17.664l-15.864-8.34L386,432.107v-52.359l7.931,16.071l2.327,4.715l5.203,0.756
		l17.736,2.577L406.363,416.378z"/>
</g>
</svg>
