<?xml version="1.0" encoding="utf-8"?>
<!-- Generator: Adobe Illustrator 16.0.0, SVG Export Plug-In . SVG Version: 6.00 Build 0)  -->
<!DOCTYPE svg PUBLIC "-//W3C//DTD SVG 1.1//EN" "http://www.w3.org/Graphics/SVG/1.1/DTD/svg11.dtd">
<svg version="1.1" id="Layer_1" xmlns="http://www.w3.org/2000/svg" xmlns:xlink="http://www.w3.org/1999/xlink" x="0px" y="0px"
	 width="512px" height="512px" viewBox="0 0 512 512" enable-background="new 0 0 512 512" xml:space="preserve">
<g>
	<path d="M273.965,437.689H89.486V72.236h198.906v55.416c0,5.6,4.535,10.133,10.131,10.133h53.791l0.008,181.566
		c9.418,0.215,18.602,1.963,27.266,5.188V122.705c0-2.168-0.863-4.248-2.396-5.787l-69.563-69.561
		c-1.533-1.533-3.613-2.395-5.785-2.395H86.76c-13.535,0-24.547,11.008-24.547,24.543V440.42c0,13.533,11.012,24.543,24.547,24.543
		h206.973C285.43,457.346,278.678,448.076,273.965,437.689z"/>
	<path d="M449.787,356.611c0-4.586-1.785-8.896-5.027-12.141l-12.844-12.844c-3.244-3.242-7.555-5.027-12.139-5.027
		c-4.582,0-8.895,1.785-12.139,5.029l-19.602,19.6c-10.469-7.506-23.303-11.928-37.168-11.928
		c-35.273,0-63.867,28.596-63.867,63.869c0,35.271,28.594,63.867,63.867,63.867s63.867-28.596,63.867-63.867
		c0-1.43-0.049-2.848-0.143-4.254l30.166-30.166C448.002,365.508,449.787,361.195,449.787,356.611z M430.82,360.428l-61.428,61.428
		c-1.295,1.295-3.051,2.021-4.881,2.021h-0.002c-1.832,0-3.588-0.729-4.881-2.023l-28.465-28.51
		c-2.691-2.695-2.689-7.064,0.002-9.758l5.484-5.48c2.691-2.693,7.057-2.695,9.754-0.006l18.105,18.057l51.018-51.02
		c1.295-1.295,3.051-2.021,4.881-2.021s3.586,0.727,4.881,2.021l5.531,5.531C433.516,353.363,433.516,357.732,430.82,360.428z"/>
	<path d="M233.104,153.913l-57.438,13.148l13.149-57.438c-20.125-5.047-42.319,0.296-58.059,16.035
		c-23.835,23.834-23.835,62.478,0,86.312c23.835,23.835,62.478,23.835,86.313,0C232.807,196.231,238.15,174.037,233.104,153.913z"/>
	<path d="M233.653,109.075c-8.097-8.096-17.901-13.439-28.254-16.035l-13.149,57.437l57.438-13.149
		C247.092,126.976,241.748,117.171,233.653,109.075z"/>
	<g>
		<path d="M134.124,294.907h20.993c5.813,0,10.542-4.729,10.542-10.543s-4.729-10.543-10.542-10.543h-20.993
			c-5.813,0-10.543,4.729-10.543,10.543S128.311,294.907,134.124,294.907z"/>
		<path d="M215.117,312.821h-80.993c-5.813,0-10.543,4.729-10.543,10.543s4.729,10.543,10.543,10.543h80.993
			c5.813,0,10.542-4.729,10.542-10.543S220.93,312.821,215.117,312.821z"/>
		<path d="M203.117,351.821h-68.993c-5.813,0-10.543,4.729-10.543,10.543s4.729,10.543,10.543,10.543h68.993
			c5.813,0,10.542-4.729,10.542-10.543S208.93,351.821,203.117,351.821z"/>
	</g>
</g>
</svg>
