<?xml version="1.0" encoding="utf-8"?>
<!-- Generator: Adobe Illustrator 16.0.0, SVG Export Plug-In . SVG Version: 6.00 Build 0)  -->
<!DOCTYPE svg PUBLIC "-//W3C//DTD SVG 1.1//EN" "http://www.w3.org/Graphics/SVG/1.1/DTD/svg11.dtd">
<svg version="1.1" id="Layer_1" xmlns="http://www.w3.org/2000/svg" xmlns:xlink="http://www.w3.org/1999/xlink" x="0px" y="0px"
	 width="512px" height="512px" viewBox="0 0 512 512" enable-background="new 0 0 512 512" xml:space="preserve">
<g>
	<path d="M442.499,77.84H69.501c-11.046,0-20,8.954-20,20v234c0,11.046,8.954,20,20,20H209v45.32h-54.283
		c-10.201,0-18.5,8.299-18.5,18.5s8.299,18.5,18.5,18.5h202.566c10.201,0,18.5-8.299,18.5-18.5s-8.299-18.5-18.5-18.5H303v-45.32
		h139.499c11.046,0,20-8.954,20-20v-234C462.499,86.794,453.545,77.84,442.499,77.84z M432.499,321.84H79.501v-214h352.998V321.84z"
		/>
	<path d="M184.09,284.804c7.563,0,13.701-6.135,13.701-13.698V205.95c0-7.564-6.139-13.697-13.701-13.697
		c-7.564,0-13.695,6.133-13.695,13.697v65.156C170.395,278.669,176.525,284.804,184.09,284.804z"/>
	<path d="M232.031,284.804c7.564,0,13.695-6.135,13.695-13.698V158.007c0-7.564-6.131-13.695-13.695-13.695
		c-7.566,0-13.699,6.131-13.699,13.695v113.099C218.332,278.669,224.465,284.804,232.031,284.804z"/>
	<path d="M279.969,284.804c7.566,0,13.699-6.135,13.699-13.698v-84.335c0-7.564-6.133-13.695-13.699-13.695
		c-7.564,0-13.695,6.131-13.695,13.695v84.335C266.273,278.669,272.404,284.804,279.969,284.804z"/>
	<path d="M327.912,284.804c7.563,0,13.693-6.135,13.693-13.698v-98.715c0-7.564-6.131-13.697-13.693-13.697
		c-7.564,0-13.701,6.133-13.701,13.697v98.715C314.211,278.669,320.348,284.804,327.912,284.804z"/>
</g>
</svg>
