<?xml version="1.0" encoding="utf-8"?>
<!-- Generator: Adobe Illustrator 16.0.0, SVG Export Plug-In . SVG Version: 6.00 Build 0)  -->
<!DOCTYPE svg PUBLIC "-//W3C//DTD SVG 1.1//EN" "http://www.w3.org/Graphics/SVG/1.1/DTD/svg11.dtd">
<svg version="1.1" id="Layer_2" xmlns="http://www.w3.org/2000/svg" xmlns:xlink="http://www.w3.org/1999/xlink" x="0px" y="0px"
	 width="512px" height="512px" viewBox="0 0 512 512" enable-background="new 0 0 512 512" xml:space="preserve">
<g>
	<path d="M422.684,80.971H89.316C70.945,80.971,56,95.917,56,114.288v217.272c0,18.371,14.945,33.317,33.316,33.317h107.412
		l-20.387,44.956c-2.105,4.643-1.709,10.037,1.053,14.321c2.762,4.285,7.51,6.874,12.607,6.874h131.996
		c0.006-0.001,0.014-0.001,0.02,0c8.285,0,15-6.716,15-15c0-2.494-0.607-4.847-1.686-6.916l-20.061-44.235h107.412
		c18.371,0,33.316-14.946,33.316-33.317V114.288C456,95.917,441.055,80.971,422.684,80.971z M426,331.561
		c0,1.829-1.488,3.317-3.316,3.317H291.998h-71.996H89.316c-1.828,0-3.316-1.488-3.316-3.317V114.288
		c0-1.829,1.488-3.317,3.316-3.317h333.367c1.828,0,3.316,1.488,3.316,3.317V331.561z"/>
	<path d="M376.624,125.329c-16.198,0-29.374,13.178-29.374,29.376c0,1.495,0.114,2.964,0.33,4.4l-68.61,40.032
		c-5.35-5.575-12.865-9.057-21.184-9.057c-10.379,0-19.513,5.416-24.737,13.564l-68.428-26.781c0.082-0.889,0.129-1.787,0.129-2.696
		c0-16.198-13.176-29.377-29.374-29.377S106,157.969,106,174.167s13.178,29.375,29.376,29.375c8.132,0,15.501-3.324,20.827-8.681
		l72.457,28.359c1.854,14.425,14.204,25.611,29.126,25.611c16.198,0,29.376-13.178,29.376-29.375c0-0.704-0.037-1.401-0.084-2.092
		l69.939-40.808c5.203,4.674,12.076,7.525,19.606,7.525c16.198,0,29.376-13.178,29.376-29.376S392.822,125.329,376.624,125.329z
		 M135.376,183.714c-5.265,0-9.547-4.283-9.547-9.547c0-5.265,4.282-9.548,9.547-9.548c5.262,0,9.546,4.283,9.546,9.548
		C144.922,179.431,140.638,183.714,135.376,183.714z M257.786,229.002c-5.266,0-9.547-4.282-9.547-9.546
		c0-5.265,4.281-9.547,9.547-9.547s9.547,4.283,9.547,9.547C267.333,224.72,263.052,229.002,257.786,229.002z M376.624,164.252
		c-5.263,0-9.548-4.283-9.548-9.547c0-5.264,4.285-9.548,9.548-9.548c5.264,0,9.547,4.284,9.547,9.548
		C386.171,159.969,381.888,164.252,376.624,164.252z"/>
	<path d="M356.41,195.172l-58.462,34.111c-2.019,18.901-17.13,33.942-36.06,35.861v51.674h134.889V195.195
		c-5.937,3.434-12.816,5.41-20.153,5.41C369.469,200.605,362.515,198.709,356.41,195.172z"/>
	<path d="M219.189,236.851l-60.974-23.864c-6.677,4.603-14.568,7.079-22.84,7.079c-7.338,0-14.217-1.976-20.153-5.408v102.16
		h134.889v-52.207C235.548,261.781,223.568,251.064,219.189,236.851z"/>
</g>
</svg>
