<?xml version="1.0" encoding="utf-8"?>
<!-- Generator: Adobe Illustrator 16.0.0, SVG Export Plug-In . SVG Version: 6.00 Build 0)  -->
<!DOCTYPE svg PUBLIC "-//W3C//DTD SVG 1.1//EN" "http://www.w3.org/Graphics/SVG/1.1/DTD/svg11.dtd">
<svg version="1.1" id="Layer_1" xmlns="http://www.w3.org/2000/svg" xmlns:xlink="http://www.w3.org/1999/xlink" x="0px" y="0px"
	 width="512px" height="512px" viewBox="0 0 512 512" enable-background="new 0 0 512 512" xml:space="preserve">
<g>
	<path d="M344.146,397.16h-46.237v-45.32h46.237v-30H74.41v-214h352.996v120.2h23.909c2.106,0,4.147,0.285,6.091,0.81V97.84
		c0-11.046-8.953-20-20-20H64.41c-11.047,0-20,8.954-20,20v234c0,11.046,8.953,20,20,20h139.498v45.32h-54.283
		c-10.201,0-18.5,8.299-18.5,18.5s8.299,18.5,18.5,18.5h198.74c-2.655-3.792-4.22-8.401-4.22-13.372V397.16z"/>
	<path d="M399.408,190.778V135.77c0-2.761-2.238-5-5-5h-287c-2.762,0-5,2.239-5,5v55.009c0,2.761,2.238,5,5,5h287
		C397.17,195.778,399.408,193.539,399.408,190.778z"/>
	<path d="M398.375,228.04v-9.409c0-2.19-1.775-3.966-3.967-3.966h-64.719c-2.189,0-3.965,1.775-3.965,3.966v76.333
		c0,2.191,1.775,3.967,3.965,3.967h14.456V251.41c0-12.887,10.483-23.37,23.37-23.37H398.375z"/>
	<path d="M107.408,214.665c-2.189,0-3.967,1.775-3.967,3.966v76.333c0,2.191,1.777,3.967,3.967,3.967h188.781
		c2.191,0,3.965-1.775,3.965-3.967v-76.333c0-2.19-1.773-3.966-3.965-3.966H107.408z"/>
	<path d="M454.22,238.04h-83.8c-7.372,0-13.37,5.998-13.37,13.37v169.378c0,7.372,5.998,13.371,13.37,13.371h83.8
		c7.372,0,13.37-5.999,13.37-13.371V251.41C467.59,244.038,461.592,238.04,454.22,238.04z M412.32,424.566
		c-3.139,0-5.684-2.544-5.684-5.682s2.545-5.683,5.684-5.683c3.137,0,5.682,2.545,5.682,5.683S415.457,424.566,412.32,424.566z
		 M458.676,406.865h-92.711V265.334h92.711V406.865z"/>
	<path d="M378.358,351.357h67.924c0.936,0,1.692-0.758,1.692-1.693v-27.13c0-0.936-0.757-1.692-1.692-1.692h-67.924
		c-0.934,0-1.692,0.757-1.692,1.692v27.13C376.666,350.6,377.425,351.357,378.358,351.357z"/>
	<path d="M378.358,394.043h67.924c0.936,0,1.692-0.757,1.692-1.693v-27.129c0-0.938-0.757-1.695-1.692-1.695h-67.924
		c-0.934,0-1.692,0.758-1.692,1.695v27.129C376.666,393.286,377.425,394.043,378.358,394.043z"/>
	<path d="M378.358,308.672h67.924c0.936,0,1.692-0.756,1.692-1.693V279.85c0-0.937-0.757-1.694-1.692-1.694h-67.924
		c-0.934,0-1.692,0.758-1.692,1.694v27.129C376.666,307.916,377.425,308.672,378.358,308.672z"/>
</g>
</svg>
