<?xml version="1.0" encoding="utf-8"?>
<!-- Generator: Adobe Illustrator 16.0.0, SVG Export Plug-In . SVG Version: 6.00 Build 0)  -->
<!DOCTYPE svg PUBLIC "-//W3C//DTD SVG 1.1//EN" "http://www.w3.org/Graphics/SVG/1.1/DTD/svg11.dtd">
<svg version="1.1" id="Layer_1" xmlns="http://www.w3.org/2000/svg" xmlns:xlink="http://www.w3.org/1999/xlink" x="0px" y="0px"
	 width="512px" height="512px" viewBox="0 0 512 512" enable-background="new 0 0 512 512" xml:space="preserve">
<path d="M440.145,148.537c21.141-21.141,21.141-55.541,0-76.682c-21.143-21.141-55.541-21.141-76.682,0
	c-16.059,16.059-19.906,39.76-11.57,59.496l-12.107,12.107L305.727,109.4c-7.563-7.564-19.822-7.564-27.385,0
	c-7.563,7.561-7.563,19.822,0,27.385l34.059,34.059L132.156,351.088c-41.904-52.672-47.5-121.348-12.564-164.645l14.725,14.727
	c2.346,2.344,6.072,2.896,9.607,1.428c3.533-1.471,6.264-4.709,7.031-8.35l15.805-74.814c0.625-2.951-0.123-5.791-2.023-7.691
	c-1.9-1.902-4.74-2.648-7.691-2.025l-74.816,15.805c-3.639,0.77-6.877,3.498-8.348,7.033c-1.469,3.535-0.918,7.262,1.426,9.605
	l15.41,15.41c-25.801,29.939-37.846,69.553-34.021,112.736c4.039,45.609,25.441,89.908,60.266,124.732s79.121,56.227,124.732,60.266
	c43.184,3.824,82.797-8.223,112.736-34.023l15.408,15.41c2.346,2.344,6.072,2.896,9.607,1.426c3.533-1.471,6.264-4.709,7.031-8.348
	l15.805-74.814c0.623-2.951-0.123-5.791-2.023-7.691c-1.9-1.902-4.74-2.648-7.693-2.025l-74.814,15.807
	c-3.639,0.768-6.877,3.496-8.348,7.029c-1.469,3.537-0.918,7.262,1.426,9.607l14.729,14.727
	c-43.297,34.936-111.973,29.34-164.645-12.564L341.154,199.6l34.059,34.059c7.564,7.563,19.826,7.563,27.387,0
	c7.564-7.563,7.563-19.822,0-27.385l-34.059-34.059l12.107-12.109C400.383,168.443,424.086,164.594,440.145,148.537z
	 M384.002,92.395c9.816-9.816,25.785-9.816,35.602,0s9.818,25.785,0,35.604c-9.814,9.813-25.785,9.814-35.602,0
	C374.188,118.182,374.188,102.211,384.002,92.395z"/>
</svg>
