<?xml version="1.0" encoding="utf-8"?>
<!-- Generator: Adobe Illustrator 16.0.0, SVG Export Plug-In . SVG Version: 6.00 Build 0)  -->
<!DOCTYPE svg PUBLIC "-//W3C//DTD SVG 1.1//EN" "http://www.w3.org/Graphics/SVG/1.1/DTD/svg11.dtd">
<svg version="1.1" id="Layer_1" xmlns="http://www.w3.org/2000/svg" xmlns:xlink="http://www.w3.org/1999/xlink" x="0px" y="0px"
	 width="512px" height="512px" viewBox="0 0 512 512" enable-background="new 0 0 512 512" xml:space="preserve">
<path d="M415.744,431.895l-91.309-91.309c-5.613-5.612-12.828-8.638-20.17-9.1l-22.127-22.129
	c21.211-33.724,21.514-76.912,0.939-110.924c58.445-6.07,86.809-67.485,93.496-83.384c0.738-1.753-0.012-2.44-1.193-1.578
	c-3.566,2.605-10.754,6.651-21.533,7.401c-16.109,1.122-47.291-8.422-78.818,0.276c-7.023,1.938-12.797,4.744-17.541,8.034
	c-0.514-5.114-1.824-10.611-4.236-16.452c-12.477-30.227-39.146-48.991-48.145-62.396c-6.73-10.027-7.447-19.038-7.383-22.944
	c0.01-0.531-0.326-1.354-1.164,0.055c-6.988,11.721-38.844,70.104-12.648,120.436c-24.061,1.99-47.563,12.159-65.93,30.526
	c-41.193,41.194-41.193,108.223,0.002,149.417c35.49,35.49,90.15,40.4,130.949,14.738l22.129,22.127
	c0.461,7.343,3.488,14.558,9.1,20.168l91.309,91.31c12.225,12.227,32.047,12.225,44.273-0.002
	C427.969,463.942,427.971,444.119,415.744,431.895z M207.719,77.492c2.848,4.949,6.215,9.472,9.479,13.55
	c3.143,4.101,5.67,7.707,6.965,9.808c2.348,4.016,17.811,26.425,12.727,53.141c-0.23,0.954-0.49,1.889-0.762,2.817
	c-2.152-0.968-4.33-1.863-6.533-2.682c0.201-0.617,0.395-1.24,0.574-1.867c1.523-5.342,2.004-10.941,1.137-16.096
	c-0.738-5.888-1.82-10.859-3.271-15.436c-2.895-9.014-6.859-15.239-8.063-17.27c-1.244-2.019-3.439-5.687-6.186-10.025
	c-2.809-4.233-6.004-9.611-8.244-14.77c-4.809-10.321-7.877-19.962-7.865-19.952C197.66,58.698,201.891,67.893,207.719,77.492z
	 M245.264,305.688c-28.988,28.988-76.154,28.988-105.143,0c-28.99-28.99-28.99-76.157,0-105.145
	c28.986-28.988,76.152-28.988,105.143,0.002C274.252,229.532,274.252,276.699,245.264,305.688z M270.002,152.857
	c-4.602,2.478-8.732,6.294-12.014,10.774c-1.012,1.386-1.949,2.815-2.82,4.271c-2.031-1.49-4.107-2.897-6.219-4.228
	c1.133-1.47,2.301-2.938,3.549-4.29c17.973-20.408,45.158-21.95,49.768-22.559c2.453-0.267,6.852-0.482,12.02-0.519
	c5.223,0.073,10.859-0.044,16.518-0.83c11.154-1.286,21.006-3.588,20.988-3.596c0.014,0.006-9.477,3.496-20.58,6.031
	c-5.449,1.397-11.654,2.177-16.721,2.555c-5.109,0.496-9.354,1.014-11.709,1.271c-2.342,0.293-9.693,0.985-18.584,4.229
	C279.691,147.627,275.105,149.826,270.002,152.857z"/>
</svg>
