<?xml version="1.0" encoding="utf-8"?>
<!-- Generator: Adobe Illustrator 16.0.0, SVG Export Plug-In . SVG Version: 6.00 Build 0)  -->
<!DOCTYPE svg PUBLIC "-//W3C//DTD SVG 1.1//EN" "http://www.w3.org/Graphics/SVG/1.1/DTD/svg11.dtd">
<svg version="1.1" id="Layer_1" xmlns="http://www.w3.org/2000/svg" xmlns:xlink="http://www.w3.org/1999/xlink" x="0px" y="0px"
	 width="512px" height="512px" viewBox="0 0 512 512" enable-background="new 0 0 512 512" xml:space="preserve">
<g>
	<path d="M140.779,193.665c1.102,0.988,2.578,1.486,4.049,1.371l15.676-1.236c1.047-0.082,2.039-0.463,2.871-1.098
		c1.363-1.043,2.16-2.69,2.129-4.406c-0.332-18.607,7.963-35.768,22.754-47.078c12.295-9.402,27.861-13.502,43.043-11.41
		l-2.506,3.674c-1.088,1.597-1.244,3.67-0.406,5.41s2.555,2.912,4.482,3.059l40.297,3.027c1.328,0.1,2.643-0.289,3.703-1.1
		c0.463-0.355,0.861-0.778,1.186-1.252c1.088-1.598,1.244-3.669,0.406-5.41l-17.521-36.418c-0.838-1.74-2.557-2.91-4.484-3.057
		c-1.904-0.143-3.809,0.77-4.887,2.354l-4.164,6.102c-26.141-7.761-53.518-2.709-75.277,13.931
		c-21.566,16.492-33.959,42.534-33.148,69.662C139.025,191.267,139.682,192.679,140.779,193.665z"/>
	<path d="M411.781,322.752c-1.102-0.988-2.578-1.487-4.049-1.369l-15.678,1.233c-1.047,0.082-2.037,0.461-2.867,1.096
		c-1.365,1.045-2.162,2.693-2.129,4.41c0.33,18.608-7.963,35.767-22.754,47.076c-12.295,9.402-27.861,13.504-43.043,11.411
		l2.506-3.674c1.086-1.597,1.244-3.671,0.406-5.41c-0.838-1.741-2.557-2.912-4.482-3.058l-40.297-3.027
		c-1.91-0.146-3.834,0.795-4.889,2.352c-1.09,1.595-1.244,3.668-0.406,5.408l17.521,36.418c0.838,1.74,2.555,2.912,4.482,3.059
		c1.906,0.143,3.811-0.771,4.889-2.354l4.162-6.102c26.143,7.76,53.518,2.709,75.277-13.932
		c21.568-16.492,33.959-42.534,33.148-69.662C413.537,325.15,412.881,323.739,411.781,322.752z"/>
	<path d="M150.897,213.394c-36.833,0-57.219,19.086-56.845,55.865c0.54,50.371,21.944,80.929,56.845,80.396
		c0,0,56.818,2.304,56.818-80.396C207.716,232.479,188.521,213.394,150.897,213.394z"/>
	<path d="M251.398,387.888l-56.774-22.637l-13.294-11.203c-3.511-2.966-8.698-2.748-11.956,0.49l-18.482,18.381l-18.537-18.387
		c-3.258-3.232-8.438-3.441-11.945-0.484l-13.297,11.203L50.339,387.89c-18.283,7.281-18.268,72.025-19.838,77.969h240.764
		C269.695,459.929,269.688,395.161,251.398,387.888z"/>
	<path d="M361.132,46.142c-36.833,0-57.219,19.086-56.845,55.865c0.54,50.371,21.944,80.929,56.845,80.396
		c0,0,56.818,2.304,56.818-80.396C417.95,65.228,398.755,46.142,361.132,46.142z"/>
	<path d="M461.633,220.636l-56.774-22.637l-13.294-11.203c-3.511-2.966-8.698-2.748-11.956,0.49l-18.482,18.381l-18.537-18.387
		c-3.258-3.232-8.438-3.441-11.945-0.484l-13.297,11.203l-56.773,22.639c-18.283,7.281-18.268,72.025-19.838,77.969h240.764
		C479.93,292.677,479.923,227.909,461.633,220.636z"/>
</g>
</svg>
