<?xml version="1.0" encoding="utf-8"?>
<!-- Generator: Adobe Illustrator 16.0.0, SVG Export Plug-In . SVG Version: 6.00 Build 0)  -->
<!DOCTYPE svg PUBLIC "-//W3C//DTD SVG 1.1//EN" "http://www.w3.org/Graphics/SVG/1.1/DTD/svg11.dtd">
<svg version="1.1" id="Layer_1" xmlns="http://www.w3.org/2000/svg" xmlns:xlink="http://www.w3.org/1999/xlink" x="0px" y="0px"
	 width="512px" height="512px" viewBox="0 0 512 512" enable-background="new 0 0 512 512" xml:space="preserve">
<g>
	<path d="M140.643,185.959c4.078,67.059,41.929,106.477,83.768,106.477s79.726-39.412,83.813-106.459
		c22.209-8.65,35.998-20.709,35.998-34.053c0-21.861-41.126-36.006-41.221-36.043c-4.461-54.201-19.567-68.564-35.498-68.564
		c-17.941,0-36.936,18.199-42.971,18.199c-6.034,0-25.027-18.199-42.966-18.199c-15.935,0-31.035,14.354-35.502,68.564
		c-0.094,0.037-41.374,12.35-41.374,36.043C104.69,165.258,118.46,177.311,140.643,185.959z M168.474,66.736
		c4.831-7.91,9.532-8.916,13.093-8.916c8.37,0,18.706,6.395,26.252,11.064c6.936,4.299,11.514,7.135,16.714,7.135
		c5.204,0,9.786-2.836,16.717-7.135c7.549-4.672,17.882-11.066,26.253-11.064c3.557,0,8.26,1.006,13.087,8.92
		c5.72,9.371,9.636,25.049,11.658,46.658c-2.091,2.311-5.997,5.568-13.146,8.969c-14.288,6.789-33.669,10.525-54.569,10.525
		c-20.901,0-40.278-3.736-54.562-10.525c-7.155-3.4-11.06-6.658-13.147-8.969C158.845,91.785,162.761,76.105,168.474,66.736z
		 M129.644,134.838c6.034,7.236,14.655,13.602,25.445,18.725c18.814,8.943,43.452,13.873,69.367,13.873s50.552-4.93,69.367-13.873
		c10.79-5.123,19.412-11.488,25.446-18.725c9.182,5.58,14.456,11.707,14.456,17.086c0,7.789-10.906,16.961-28.462,23.941
		c-21.416,8.521-50.111,13.207-80.807,13.207s-59.392-4.686-80.807-13.207c-17.557-6.98-28.461-16.152-28.461-23.941
		C115.188,146.545,120.461,140.418,129.644,134.838z"/>
	<path d="M307.631,383.766c4.097-5.189,9.486-9.123,15.579-11.449c-7.476-12.797-11.597-27.494-11.778-42.463
		c-0.022-1.816,0.034-3.631,0.127-5.439l-22.257-8.873l-19.711-16.607c-5.204-4.396-12.894-4.074-17.72,0.727l-27.401,27.248
		l-27.48-27.258c-4.83-4.791-12.508-5.102-17.708-0.717l-19.71,16.607l-84.166,33.561C48.306,359.893,48.326,455.873,46,464.684
		h230.729c-3.403-4.859-5.571-10.51-6.288-16.566c-1.141-9.646,1.545-19.158,7.56-26.783L307.631,383.766z"/>
	<path d="M397.16,414.682c-0.005,0-0.005,0-0.007,0c-8.423-0.002-16.864-1.266-24.922-3.701c-0.841,6.467-3.41,12.629-7.503,17.814
		l-28.304,35.889h66.486c-1.06-4.006-1.638-26.113-4.519-50.02C397.98,414.67,397.572,414.682,397.16,414.682z"/>
	<path d="M439.264,273.688c-30.437-24.006-74.729-18.775-98.734,11.664c-20.68,26.217-19.657,62.725,0.483,87.678l-10.065,12.764
		c-4.817,0.877-9.346,3.441-12.618,7.588l-29.633,37.572c-7.125,9.031-5.576,22.131,3.456,29.254s22.13,5.576,29.256-3.455
		l29.631-37.572c3.272-4.148,4.71-9.148,4.44-14.039l10.063-12.76c28.965,13.771,64.7,6.262,85.383-19.963
		C474.932,341.984,469.699,297.691,439.264,273.688z M434.567,359.52c-16.891,21.418-48.059,25.1-69.475,8.207
		c-21.42-16.893-25.101-48.059-8.207-69.479c16.893-21.418,48.061-25.1,69.477-8.209C447.78,306.934,451.461,338.102,434.567,359.52
		z"/>
</g>
</svg>
