<?xml version="1.0" encoding="utf-8"?>
<!-- Generator: Adobe Illustrator 16.0.0, SVG Export Plug-In . SVG Version: 6.00 Build 0)  -->
<!DOCTYPE svg PUBLIC "-//W3C//DTD SVG 1.1//EN" "http://www.w3.org/Graphics/SVG/1.1/DTD/svg11.dtd">
<svg version="1.1" id="Layer_2" xmlns="http://www.w3.org/2000/svg" xmlns:xlink="http://www.w3.org/1999/xlink" x="0px" y="0px"
	 width="512px" height="512px" viewBox="0 0 512 512" enable-background="new 0 0 512 512" xml:space="preserve">
<g>
	<path d="M393.314,103.584c-19.071-23.861-68.609-64.246-133.307-64.246c-43.259,0-84.422,18.086-122.344,53.752
		c-0.064,0.063-0.129,0.125-0.191,0.189c-36.98,38.043-32.148,73.184-26.027,117.699c0.377,2.738,0.758,5.514,1.137,8.332
		c1.014,7.566-5.607,19.236-12.012,30.521c-9.622,16.959-19.572,34.494-7.416,42.776c20.771,14.158,24.38,42.021,27.871,68.979
		c0.83,6.402,1.688,13.022,2.762,19.459c1.85,11.104,11.219,16.502,28.641,16.502c7.746,0,16.021-0.957,24.027-1.883
		c6.861-0.793,13.343-1.541,18.529-1.541c2.9,0,5.166,0.229,6.926,0.707c20.932,5.674,39.221,47.998,45.83,73.346
		c0.537,2.058,2.121,3.677,4.166,4.256c0.541,0.154,1.092,0.229,1.64,0.229c1.522,0,3.013-0.578,4.144-1.658L364.98,368.609
		c1.658-1.586,2.271-3.98,1.571-6.168c-9.473-29.64,10.213-58.566,27.587-84.101c7.581-11.141,14.741-21.661,19.639-32.025
		C436.367,198.504,420.094,137.094,393.314,103.584z M367.137,266.296c-8.039,8.039-21.068,8.041-29.109,0l-33.436-33.437
		c-3.691-3.69-5.682-8.433-5.984-13.261l-11.355-11.357c-26.827,16.874-62.77,13.646-86.104-9.691
		c-27.088-27.085-27.088-71.158-0.002-98.244c27.089-27.086,71.158-27.086,98.246,0c23.333,23.335,26.563,59.277,9.689,86.102
		l11.358,11.357c4.826,0.304,9.569,2.293,13.261,5.984l33.436,33.436C375.177,245.226,375.176,258.258,367.137,266.296z"/>
	<path d="M215.701,114.861c-19.059,19.061-19.059,50.073,0.002,69.136c19.059,19.06,50.074,19.06,69.137,0
		c19.059-19.062,19.059-50.075,0-69.135C265.773,95.8,234.762,95.8,215.701,114.861z"/>
</g>
</svg>
