<?xml version="1.0" encoding="utf-8"?>
<!-- Generator: Adobe Illustrator 16.0.0, SVG Export Plug-In . SVG Version: 6.00 Build 0)  -->
<!DOCTYPE svg PUBLIC "-//W3C//DTD SVG 1.1//EN" "http://www.w3.org/Graphics/SVG/1.1/DTD/svg11.dtd">
<svg version="1.1" id="Layer_1" xmlns="http://www.w3.org/2000/svg" xmlns:xlink="http://www.w3.org/1999/xlink" x="0px" y="0px"
	 width="512px" height="512px" viewBox="0 0 512 512" enable-background="new 0 0 512 512" xml:space="preserve">
<g>
	<path d="M256,51C142.782,51,51,142.778,51,256c0,113.218,91.782,205,205,205c49.393,0,94.701-17.471,130.092-46.563
		c7.441-1.081,14.311-4.509,19.725-9.921c5.635-5.635,8.946-12.724,9.945-20.07C444.055,349.299,461,304.632,461,256
		C461,142.778,369.222,51,256,51z M426.538,194.205c-7.143-4.494-15.128-8.716-23.94-12.61
		c-13.246-5.862-27.944-10.842-43.702-14.855c-7.325-30.632-18.354-57.174-32.079-77.734
		C372.991,108.61,409.358,146.808,426.538,194.205z M340.385,211.5c-4.474-8.748-10.285-16.818-17.297-23.83
		c-0.758-0.758-1.529-1.495-2.309-2.225c5.472,0.855,10.853,1.813,16.117,2.885C338.305,195.87,339.461,203.611,340.385,211.5z
		 M233.42,76.053c7.399-0.92,14.933-1.399,22.58-1.399s15.181,0.479,22.579,1.399c13.33,8.202,25.976,23.424,36.473,44.417
		c6.07,12.142,11.217,25.663,15.378,40.234c-23.475-4.019-48.615-6.126-74.43-6.126c-25.815,0-50.955,2.107-74.432,6.126
		c4.163-14.571,9.31-28.093,15.38-40.234C207.444,99.477,220.09,84.255,233.42,76.053z M191.291,185.436
		c-0.783,0.731-1.559,1.473-2.32,2.234c-7.082,7.082-12.898,15.096-17.348,23.765c0.922-7.866,2.076-15.585,3.48-23.104
		C180.391,187.254,185.795,186.293,191.291,185.436z M185.185,89.005c-13.724,20.561-24.755,47.103-32.081,77.734
		c-15.76,4.014-30.456,8.993-43.705,14.855c-8.809,3.895-16.795,8.116-23.938,12.61C102.641,146.808,139.009,108.61,185.185,89.005z
		 M75.602,274.646c-0.626-6.131-0.948-12.352-0.948-18.646s0.322-12.514,0.948-18.645c8.021-11.568,23.229-22.675,44.31-32
		c8.57-3.793,17.828-7.17,27.652-10.132c-2.931,19.188-4.502,39.573-4.502,60.776s1.571,41.588,4.502,60.776
		c-9.824-2.96-19.082-6.338-27.652-10.131C98.831,297.321,83.622,286.215,75.602,274.646z M85.461,317.795
		c7.143,4.494,15.129,8.717,23.938,12.61c13.249,5.864,27.945,10.842,43.705,14.855c7.326,30.632,18.358,57.175,32.082,77.736
		C139.009,403.39,102.641,365.193,85.461,317.795z M171.258,297.316c4.494,8.94,10.439,17.196,17.715,24.471
		c1.857,1.857,3.781,3.622,5.762,5.304c-6.689-0.981-13.242-2.122-19.631-3.422C173.507,315.118,172.231,306.309,171.258,297.316z
		 M315.052,391.53c-10.497,20.993-23.143,36.216-36.473,44.418c-7.398,0.919-14.932,1.398-22.579,1.398s-15.181-0.479-22.58-1.398
		c-13.33-8.202-25.976-23.425-36.472-44.418c-6.07-12.142-11.217-25.663-15.38-40.234c23.477,4.019,48.616,6.126,74.432,6.126
		c17.997,0,35.651-1.047,52.657-3.029c1.683,3.409,3.903,6.558,6.636,9.291l8.292,8.292
		C320.984,378.82,318.139,385.355,315.052,391.53z M326.814,422.995c6.147-9.209,11.749-19.626,16.725-31.065l12.586,12.586
		c0.543,0.543,1.105,1.058,1.676,1.561C348.102,412.669,337.736,418.357,326.814,422.995z M397.937,397.444
		c-9.816,9.814-25.73,9.818-35.549,0l-40.832-40.832c-4.506-4.506-6.936-10.297-7.307-16.193l-13.867-13.871
		c-32.76,20.605-76.652,16.664-105.146-11.832c-33.08-33.078-33.08-86.896-0.002-119.975c33.076-33.076,86.896-33.078,119.975,0
		c28.494,28.496,32.438,72.387,11.834,105.146l13.869,13.869c5.896,0.371,11.688,2.801,16.195,7.307l40.83,40.832
		C407.755,371.714,407.751,387.63,397.937,397.444z M407.139,356.224c-0.427-0.475-0.865-0.942-1.322-1.399l-18.34-18.34
		c5.221-1.906,10.271-3.932,15.121-6.079c8.813-3.894,16.798-8.116,23.94-12.61C421.591,331.444,415.044,344.325,407.139,356.224z
		 M392.089,306.646c-7.824,3.463-16.228,6.575-25.106,9.345l-1.998-1.999c-0.043-0.043-0.09-0.081-0.134-0.124
		c2.655-18.339,4.09-37.728,4.09-57.867c0-21.203-1.573-41.588-4.505-60.776c9.824,2.962,19.083,6.339,27.653,10.132
		c21.079,9.325,36.288,20.432,44.309,32c0.626,6.131,0.949,12.35,0.949,18.645s-0.323,12.516-0.949,18.646
		C428.377,286.215,413.168,297.321,392.089,306.646z"/>
	<path d="M213.007,212.515c-23.275,23.277-23.275,61.148,0.002,84.426c23.275,23.277,61.15,23.277,84.424,0
		c23.277-23.275,23.277-61.148,0-84.424C274.155,189.239,236.282,189.239,213.007,212.515z"/>
</g>
</svg>
