<?xml version="1.0" encoding="utf-8"?>
<!-- Generator: Adobe Illustrator 16.0.0, SVG Export Plug-In . SVG Version: 6.00 Build 0)  -->
<!DOCTYPE svg PUBLIC "-//W3C//DTD SVG 1.1//EN" "http://www.w3.org/Graphics/SVG/1.1/DTD/svg11.dtd">
<svg version="1.1" id="Layer_1" xmlns="http://www.w3.org/2000/svg" xmlns:xlink="http://www.w3.org/1999/xlink" x="0px" y="0px"
	 width="512px" height="512px" viewBox="0 0 512 512" enable-background="new 0 0 512 512" xml:space="preserve">
<g>
	<path d="M474.825,358.94l-61.494-61.493c-3.779-3.779-8.636-5.815-13.582-6.125l-14.901-14.905
		c17.283-27.474,13.975-64.289-9.924-88.187c-27.742-27.744-72.88-27.744-100.624,0c-27.744,27.741-27.744,72.881,0,100.624
		c23.901,23.899,60.712,27.206,88.188,9.924l14.904,14.902c0.31,4.946,2.345,9.804,6.125,13.582l61.493,61.495
		c8.235,8.234,21.58,8.231,29.815-0.001C483.058,380.522,483.059,367.175,474.825,358.94z M360.016,273.948
		c-19.524,19.52-51.287,19.52-70.809,0c-19.522-19.527-19.522-51.288-0.002-70.813c19.524-19.521,51.285-19.521,70.811,0.002
		C379.538,222.661,379.538,254.423,360.016,273.948z"/>
	<path d="M65.695,221.037v-81.215h369.909v81.215h-25.372c0.545,2.689,0.978,5.408,1.268,8.151
		c0.514,4.864,0.614,9.749,0.321,14.599h46.1c6.836,0,12.378-5.541,12.378-12.376V129.447c0-6.836-5.542-12.378-12.378-12.378
		H43.377c-6.836,0-12.377,5.542-12.377,12.378V231.41c0,6.835,5.541,12.376,12.377,12.376h192.435
		c-0.448-7.606,0.076-15.256,1.581-22.75H65.695z"/>
	<path d="M120.344,156.592c2.286,0,4.146-1.862,4.146-4.146c0-2.287-1.86-4.146-4.146-4.146h-9.857c-1.09,0-2.121,0.423-2.902,1.192
		l-0.728,0.711l-0.727-0.711c-0.781-0.769-1.812-1.192-2.901-1.192h-9.856c-2.288,0-4.146,1.859-4.146,4.146
		c0,2.285,1.859,4.146,4.146,4.146h9.34v47.675h-9.34c-2.288,0-4.146,1.859-4.146,4.144c0,2.287,1.859,4.146,4.146,4.146h9.856
		c1.09,0,2.121-0.421,2.901-1.191l0.727-0.713l0.726,0.713c0.783,0.77,1.813,1.191,2.904,1.191h9.857
		c2.286,0,4.146-1.86,4.146-4.146c0-2.285-1.86-4.144-4.146-4.144h-9.34v-47.675H120.344z"/>
</g>
</svg>
