<?xml version="1.0" encoding="utf-8"?>
<!-- Generator: Adobe Illustrator 16.0.0, SVG Export Plug-In . SVG Version: 6.00 Build 0)  -->
<!DOCTYPE svg PUBLIC "-//W3C//DTD SVG 1.1//EN" "http://www.w3.org/Graphics/SVG/1.1/DTD/svg11.dtd">
<svg version="1.1" id="Layer_1" xmlns="http://www.w3.org/2000/svg" xmlns:xlink="http://www.w3.org/1999/xlink" x="0px" y="0px"
	 width="512px" height="512px" viewBox="0 0 512 512" enable-background="new 0 0 512 512" xml:space="preserve">
<g>
	<path d="M256.013,161.625c-27.538,0-42.778,14.27-42.5,41.767c0.403,37.659,16.406,60.505,42.5,60.106
		c0,0,42.479,1.722,42.479-60.106C298.491,175.895,284.141,161.625,256.013,161.625z"/>
	<path d="M403.672,361.49c-5.518,0-10.81,0.955-15.731,2.692l-20.568-20.568c19.024-24.134,30.391-54.57,30.391-87.615
		s-11.366-63.481-30.391-87.615l20.568-20.568c4.921,1.737,10.213,2.692,15.731,2.692c26.098,0,47.253-21.156,47.253-47.256
		C450.925,77.156,429.77,56,403.672,56c-26.097,0-47.256,21.156-47.256,47.253c0,5.518,0.955,10.809,2.692,15.731l-21.298,21.299
		c-23.13-16.397-51.362-26.047-81.809-26.047s-58.679,9.649-81.809,26.047l-21.298-21.299c1.737-4.922,2.692-10.213,2.692-15.731
		c0-26.097-21.159-47.253-47.256-47.253c-26.098,0-47.253,21.156-47.253,47.253c0,26.101,21.156,47.256,47.253,47.256
		c5.518,0,10.81-0.955,15.731-2.692l20.568,20.568c-19.024,24.134-30.391,54.57-30.391,87.615s11.366,63.481,30.391,87.615
		l-20.568,20.568c-4.921-1.737-10.213-2.692-15.731-2.692c-26.098,0-47.253,21.156-47.253,47.257
		c0,26.097,21.156,47.253,47.253,47.253c26.097,0,47.256-21.156,47.256-47.253c0-5.519-0.955-10.81-2.692-15.731l21.298-21.299
		c23.13,16.397,51.362,26.047,81.809,26.047s58.679-9.649,81.809-26.047l21.298,21.299c-1.737,4.922-2.692,10.213-2.692,15.731
		c0,26.097,21.159,47.253,47.256,47.253c26.098,0,47.253-21.156,47.253-47.253C450.925,382.646,429.77,361.49,403.672,361.49z
		 M344.159,329.063c-1.585-15.339-4.884-33.75-13.01-36.982l-42.445-16.923l-9.939-8.376c-2.625-2.218-6.503-2.055-8.938,0.366
		l-13.818,13.742l-13.859-13.746c-2.437-2.417-6.309-2.573-8.931-0.362l-9.94,8.376l-42.446,16.925
		c-8.122,3.235-11.414,21.639-12.994,36.974C151.39,309.232,141.5,283.772,141.5,256c0-63.236,51.264-114.5,114.5-114.5
		c63.236,0,114.5,51.264,114.5,114.5C370.5,283.774,360.608,309.237,344.159,329.063z"/>
</g>
</svg>
