<?xml version="1.0" encoding="utf-8"?>
<!-- Generator: Adobe Illustrator 16.0.0, SVG Export Plug-In . SVG Version: 6.00 Build 0)  -->
<!DOCTYPE svg PUBLIC "-//W3C//DTD SVG 1.1//EN" "http://www.w3.org/Graphics/SVG/1.1/DTD/svg11.dtd">
<svg version="1.1" id="Layer_1" xmlns="http://www.w3.org/2000/svg" xmlns:xlink="http://www.w3.org/1999/xlink" x="0px" y="0px"
	 width="512px" height="512px" viewBox="0 0 512 512" enable-background="new 0 0 512 512" xml:space="preserve">
<g>
	<path d="M475.608,138.43h-247.13c-7.209,0-14.396,5.846-16.062,13.059l-48.163,209.023c-1.661,7.213,2.837,13.059,10.045,13.059
		h247.123c7.213,0,14.403-5.846,16.068-13.059l48.164-209.023C487.316,144.275,482.816,138.43,475.608,138.43z M328.021,178.001
		l3.363-14.601c0.58-2.52,3.098-4.563,5.614-4.563h20.685c2.521,0,4.093,2.043,3.511,4.563l-3.364,14.601
		c-0.578,2.521-3.095,4.563-5.612,4.563h-20.684C329.011,182.563,327.439,180.521,328.021,178.001z M230.099,178.001l3.365-14.601
		c0.583-2.52,3.094-4.563,5.614-4.563h20.689c2.517,0,4.09,2.043,3.51,4.563l-3.366,14.601c-0.582,2.521-3.093,4.563-5.614,4.563
		h-20.682C231.098,182.563,229.521,180.521,230.099,178.001z M223.968,333.998l-3.367,14.601c-0.581,2.521-3.093,4.563-5.612,4.563
		h-20.685c-2.524,0-4.097-2.042-3.515-4.563l3.364-14.601c0.584-2.521,3.096-4.563,5.615-4.563h20.689
		C222.973,329.435,224.548,331.477,223.968,333.998z M321.885,333.998l-3.365,14.601c-0.577,2.521-3.095,4.563-5.611,4.563h-20.686
		c-2.522,0-4.092-2.042-3.51-4.563l3.363-14.601c0.578-2.521,3.096-4.563,5.613-4.563h20.68
		C320.895,329.435,322.467,331.477,321.885,333.998z M419.804,333.998l-3.364,14.601c-0.58,2.521-3.092,4.563-5.61,4.563H390.14
		c-2.519,0-4.091-2.042-3.51-4.563l3.365-14.601c0.583-2.521,3.093-4.563,5.612-4.563h20.685
		C418.811,329.435,420.385,331.477,419.804,333.998z M418.406,318.082h-215.52l28.615-124.164h215.52L418.406,318.082z
		 M459.119,163.4l-3.368,14.601c-0.581,2.521-3.093,4.563-5.612,4.563h-20.689c-2.516,0-4.091-2.042-3.51-4.563l3.365-14.601
		c0.583-2.52,3.095-4.563,5.613-4.563h20.687C458.122,158.838,459.695,160.881,459.119,163.4z"/>
	<path d="M294.557,291.721c1.002,0.628,2.194,0.939,3.454,0.939c1.422,0,2.934-0.397,4.354-1.188l52.389-29.044
		c2.527-1.398,4.416-3.823,5.016-6.428c0.597-2.604-0.173-5.03-2.052-6.428l-39.001-29.045c-1.998-1.493-4.949-1.587-7.691-0.248
		c-2.745,1.338-4.851,3.896-5.49,6.677l-13.387,58.088C291.515,287.825,292.433,290.383,294.557,291.721z"/>
	<path d="M64.97,195.53h107.04c5.67,0,10.262-4.594,10.262-10.258s-4.592-10.256-10.262-10.256H64.97
		c-5.662,0-10.257,4.592-10.257,10.256S59.308,195.53,64.97,195.53z"/>
	<path d="M143.298,268.344H36.256c-5.665,0-10.256,4.59-10.256,10.252c0,5.665,4.591,10.258,10.256,10.258h107.042
		c5.662,0,10.258-4.593,10.258-10.258C153.556,272.934,148.96,268.344,143.298,268.344z"/>
	<path d="M167.91,231.337c0-5.663-4.589-10.256-10.251-10.256H93.686c-5.664,0-10.254,4.593-10.254,10.256
		s4.59,10.256,10.254,10.256h63.974C163.321,241.593,167.91,237,167.91,231.337z"/>
	<path d="M128.941,314.403H94.759c-5.667,0-10.259,4.593-10.259,10.257c0,5.663,4.592,10.257,10.259,10.257h34.183
		c5.668,0,10.257-4.594,10.257-10.257C139.198,318.996,134.609,314.403,128.941,314.403z"/>
</g>
</svg>
