<?xml version="1.0" encoding="utf-8"?>
<!-- Generator: Adobe Illustrator 16.0.0, SVG Export Plug-In . SVG Version: 6.00 Build 0)  -->
<!DOCTYPE svg PUBLIC "-//W3C//DTD SVG 1.1//EN" "http://www.w3.org/Graphics/SVG/1.1/DTD/svg11.dtd">
<svg version="1.1" id="Layer_1" xmlns="http://www.w3.org/2000/svg" xmlns:xlink="http://www.w3.org/1999/xlink" x="0px" y="0px"
	 width="512px" height="512px" viewBox="0 0 512 512" enable-background="new 0 0 512 512" xml:space="preserve">
<g>
	<path d="M412.291,117.955l-69.562-69.561c-1.534-1.532-3.614-2.395-5.785-2.395H121.859c-13.535,0-24.546,11.008-24.546,24.543
		v370.914c0,13.534,11.012,24.543,24.546,24.543h268.282c13.534,0,24.545-11.009,24.545-24.543V123.742
		C414.687,121.574,413.825,119.495,412.291,117.955z M124.586,438.727V73.273h198.906v55.417c0,5.599,4.535,10.132,10.13,10.132
		h53.792l0.013,299.904H124.586z"/>
	<path d="M297.609,222.487c17.344,0,31.402-14.064,31.402-31.408c0-17.343-14.059-31.397-31.402-31.397
		c-17.344,0-31.402,14.055-31.402,31.397c0,2.699,0.338,5.312,0.975,7.802l-49.7,39.705c-4.855-3.07-10.605-4.863-16.78-4.863
		c-17.344,0-31.405,14.063-31.405,31.406c0,17.339,14.061,31.4,31.405,31.4c6.174,0,11.925-1.787,16.78-4.863l49.7,39.705
		c-0.637,2.491-0.975,5.104-0.975,7.803c0,17.343,14.058,31.397,31.402,31.397c17.344,0,31.402-14.055,31.402-31.397
		c0-17.345-14.059-31.408-31.402-31.408c-5.55,0-10.759,1.444-15.28,3.972l-50.809-40.591c0.381-1.946,0.584-3.958,0.584-6.018
		c0-2.064-0.203-4.077-0.584-6.024l50.809-40.59C286.85,221.043,292.059,222.487,297.609,222.487z"/>
</g>
</svg>
