<?xml version="1.0" encoding="utf-8"?>
<!-- Generator: Adobe Illustrator 16.0.0, SVG Export Plug-In . SVG Version: 6.00 Build 0)  -->
<!DOCTYPE svg PUBLIC "-//W3C//DTD SVG 1.1//EN" "http://www.w3.org/Graphics/SVG/1.1/DTD/svg11.dtd">
<svg version="1.1" id="Layer_1" xmlns="http://www.w3.org/2000/svg" xmlns:xlink="http://www.w3.org/1999/xlink" x="0px" y="0px"
	 width="512px" height="512px" viewBox="0 0 512 512" enable-background="new 0 0 512 512" xml:space="preserve">
<g>
	<path d="M298.877,138.822h53.791l0.003,62.757l27.271-42.343v-35.494c0-2.168-0.863-4.247-2.396-5.787l-69.563-69.561
		c-1.533-1.532-3.613-2.395-5.785-2.395H87.113c-13.535,0-24.547,11.008-24.547,24.543v370.914
		c0,13.534,11.012,24.543,24.547,24.543h268.283c13.533,0,24.545-11.009,24.545-24.543V336.15l-27.263,41.72l0.003,60.856H89.84
		V73.273h198.906v55.417C288.746,134.289,293.281,138.822,298.877,138.822z"/>
	<path d="M410.397,241.122l-11.271-7.364c-1.84-1.201-4.303-0.686-5.506,1.154l-60.687,92.867l-11.669-7.626l60.687-92.867
		c1.203-1.841,0.685-4.304-1.155-5.506l-11.269-7.365c-1.84-1.202-4.304-0.686-5.506,1.154l-90.869,139.053
		c-0.386,0.591-0.608,1.276-0.643,1.98l-2.374,48.257c-0.07,1.411,0.614,2.754,1.796,3.525c1.183,0.773,2.687,0.86,3.95,0.231
		l43.244-21.551c0.632-0.315,1.169-0.793,1.556-1.385l90.868-139.052C412.753,244.789,412.236,242.325,410.397,241.122z"/>
	<path d="M447.631,184.144l-40.869-26.708c-1.839-1.201-4.304-0.685-5.506,1.154l-27.563,42.179
		c-1.202,1.84-0.686,4.306,1.154,5.508l40.869,26.706c1.839,1.202,4.305,0.686,5.506-1.154l27.563-42.178
		C449.987,187.811,449.471,185.346,447.631,184.144z"/>
	<path d="M129.563,133.461h78c5.523,0,10-4.478,10-10s-4.477-10-10-10h-78c-5.523,0-10,4.478-10,10S124.041,133.461,129.563,133.461
		z"/>
	<path d="M277.563,173.461c0-5.522-4.477-10-10-10h-138c-5.523,0-10,4.478-10,10s4.477,10,10,10h138
		C273.086,183.461,277.563,178.983,277.563,173.461z"/>
	<path d="M129.563,233.461h78c5.523,0,10-4.478,10-10s-4.477-10-10-10h-78c-5.523,0-10,4.478-10,10S124.041,233.461,129.563,233.461
		z"/>
	<path d="M129.563,283.461h78c5.523,0,10-4.478,10-10s-4.477-10-10-10h-78c-5.523,0-10,4.478-10,10S124.041,283.461,129.563,283.461
		z"/>
	<path d="M133.796,412.693c-1.947,2.516,1.565,6.082,3.536,3.535c6.213-8.028,11.344-16.671,15.629-25.795
		c2.674,1.678,6.185,1.341,9.065,0.205c4.151-1.637,7.67-4.796,11.021-7.656c1.981-1.691,4.287-4.482,7.029-4.748
		c2.094-0.202,4.922,1.486,7.015,1.843c5.469,0.932,11.857-0.651,17.137-1.956c5.011-1.237,10.879-3.194,13.828-7.731
		c1.763-2.712-2.568-5.216-4.317-2.523c-2.361,3.632-8.126,4.764-12.022,5.726c-4.573,1.13-9.879,2.246-14.592,1.442
		c-3.552-0.604-6.425-2.752-10.077-1.125c-4.892,2.18-8.629,6.761-12.949,9.854c-1.933,1.384-4.142,2.713-6.56,2.902
		c-0.995,0.077-1.806-0.288-2.48-0.896c0.532-1.234,1.06-2.472,1.563-3.723c4.876-12.104,7.081-24.398,9.344-37.147
		c1.15-6.479,3.063-16.688-6.223-17.31c-8.205-0.548-15.296,11.287-17.918,17.524c-2.345,5.578-2.606,12.058-2.427,18.014
		c0.111,3.712,1.447,7.566,2.432,11.404c-7.874,1.263-14.814,9.216-13.598,17.1c1.197,7.758,10.898,3.752,14.521,0.881
		c3.667-2.907,4.854-6.536,4.893-10.45c0.731,1.205,1.342,2.652,1.974,4.002C145.394,395.543,140.097,404.551,133.796,412.693z
		 M142.559,384.391c-0.74,3.298-4.913,6.553-8.199,6.859c-2.585,0.24-1.008-4.377-0.497-5.409c1.604-3.242,5.578-5.36,8.919-6.27
		C142.939,381.198,142.913,382.809,142.559,384.391z M146.736,374.711c-0.851-3.976-2.032-7.969-2.338-11.583
		c-0.592-6.975,0.647-14.284,4.106-20.384c2.161-3.811,6.566-9.654,11.239-10.154c4.173-0.445,1.628,9.705,1.267,11.744
		c-1.117,6.294-1.914,12.541-3.471,18.762c-1.446,5.779-3.278,11.501-5.469,17.095C150.905,377.293,149.388,375.436,146.736,374.711
		z"/>
</g>
</svg>
