<?xml version="1.0" encoding="utf-8"?>
<!-- Generator: Adobe Illustrator 16.0.0, SVG Export Plug-In . SVG Version: 6.00 Build 0)  -->
<!DOCTYPE svg PUBLIC "-//W3C//DTD SVG 1.1//EN" "http://www.w3.org/Graphics/SVG/1.1/DTD/svg11.dtd">
<svg version="1.1" id="Layer_2" xmlns="http://www.w3.org/2000/svg" xmlns:xlink="http://www.w3.org/1999/xlink" x="0px" y="0px"
	 width="512px" height="512px" viewBox="0 0 512 512" enable-background="new 0 0 512 512" xml:space="preserve">
<g>
	<path d="M376,46H136c-17.722,0-32.14,14.418-32.14,32.139v355.722C103.86,451.583,118.278,466,136,466H376
		c17.722,0,32.14-14.417,32.14-32.139V78.139C408.14,60.418,393.722,46,376,46z M256,442.944c-7.544,0-13.659-6.115-13.659-13.659
		c0-7.543,6.115-13.659,13.659-13.659s13.659,6.116,13.659,13.659C269.659,436.829,263.544,442.944,256,442.944z M386.713,400.392
		H125.287V111.608h261.426V400.392z"/>
	<path d="M311.443,226.958c0.603,0.602,1.44,0.857,2.3,0.788c0.862-0.072,1.75-0.473,2.467-1.187l18.596-18.598
		c1.422-1.423,1.601-3.556,0.392-4.761l-26.399-26.4c-1.205-1.207-3.338-1.029-4.761,0.393l-18.599,18.596
		c-1.425,1.426-1.603,3.562-0.397,4.767L311.443,226.958z"/>
	<path d="M179.1,335.989c0.284-0.026,0.576-0.084,0.865-0.184l37.638-12.709c1.193-0.404,2.186-1.388,2.594-2.578
		c0.414-1.189,0.185-2.409-0.596-3.19l-24.931-24.93c-0.781-0.781-1.998-1.007-3.189-0.598c-1.191,0.411-2.175,1.4-2.58,2.594
		l-12.706,37.639c-0.403,1.186-0.169,2.388,0.608,3.163C177.388,335.785,178.22,336.061,179.1,335.989z"/>
	<path d="M226.498,254.731l-26.286,26.287c-1.426,1.426-1.604,3.556-0.395,4.762l26.402,26.4c0.601,0.607,1.434,0.862,2.298,0.79
		c0.859-0.071,1.752-0.473,2.464-1.183l26.796-26.797c2.338,2.069,4.658,4.082,6.947,6.021c1.06,0.899,2.396,1.381,3.767,1.381
		c0.311,0,0.62-0.025,0.932-0.074c1.681-0.273,3.16-1.268,4.045-2.724c1.564-2.568,3.603-5.118,6.059-7.572
		c3.081-3.083,6.513-5.497,10.192-7.172c1.658-0.757,2.867-2.246,3.268-4.021c0.399-1.776-0.053-3.639-1.225-5.034
		c-2.193-2.61-4.489-5.261-6.854-7.934l20.661-20.659c0.681-0.682,1.11-1.571,1.181-2.466c0.076-0.891-0.209-1.72-0.788-2.297
		l-26.402-26.4c-1.205-1.209-3.338-1.032-4.763,0.393l-20.148,20.152c-13.514-12.811-27.084-24.239-39.046-32.838
		c-8.422-6.052-23.828-16.227-32.405-16.357c-1.566-0.028-3.081,0.585-4.193,1.688c-1.115,1.104-1.734,2.613-1.723,4.181
		c0.045,5.845,5.176,16.39,14.444,29.688C200.549,225.603,212.67,240.147,226.498,254.731z"/>
	<path d="M304.334,279.728c-6.787,0-13.265,2.893-18.737,8.366c-6.57,6.569-9.436,13.46-8.292,19.927
		c1.135,6.409,6.225,12.146,13.963,15.739c6.661,3.094,12.729,4.053,18.084,4.899c5.634,0.891,10.954,1.73,15.684,4.943
		c0.983,0.669,2.128,1.008,3.277,1.008c0.807,0,1.617-0.166,2.376-0.508c1.843-0.821,3.131-2.542,3.398-4.544
		c2.031-15.133-0.871-28.723-8.174-38.259C320.28,283.945,312.415,279.728,304.334,279.728z"/>
</g>
</svg>
