<?xml version="1.0" encoding="utf-8"?>
<!-- Generator: Adobe Illustrator 16.0.0, SVG Export Plug-In . SVG Version: 6.00 Build 0)  -->
<!DOCTYPE svg PUBLIC "-//W3C//DTD SVG 1.1//EN" "http://www.w3.org/Graphics/SVG/1.1/DTD/svg11.dtd">
<svg version="1.1" id="Layer_2" xmlns="http://www.w3.org/2000/svg" xmlns:xlink="http://www.w3.org/1999/xlink" x="0px" y="0px"
	 width="512px" height="512px" viewBox="0 0 512 512" enable-background="new 0 0 512 512" xml:space="preserve">
<g>
	<path d="M360.606,403.373c-0.001,0-0.001,0-0.001,0c-8.693,0-17.601-1.004-26.634-2.98H92.729V111.608h261.426v129.624
		c6.476-3.025,12.808-5.099,18.956-6.181c0.826-0.146,1.65-0.272,2.471-0.382V78.139c0-17.721-14.418-32.139-32.14-32.139H103.442
		c-17.722,0-32.14,14.418-32.14,32.139v355.722c0,17.722,14.418,32.139,32.14,32.139h239.999c17.722,0,32.14-14.417,32.14-32.139
		v-31.517c-2.211,0.303-4.436,0.556-6.68,0.723C366.171,403.27,363.38,403.373,360.606,403.373z M223.441,442.944
		c-7.544,0-13.659-6.115-13.659-13.659c0-7.543,6.115-13.659,13.659-13.659s13.659,6.116,13.659,13.659
		C237.101,436.829,230.985,442.944,223.441,442.944z"/>
	<path d="M439.479,315.643c-4.186-22.563-18.546-43.424-26.734-53.855c-11.107-14.149-25.206-19.83-41.9-16.89
		c-11.922,2.1-24.878,8.59-38.51,19.294c-9.634,7.564-16.907,15.134-20.124,18.657c-8.085-6.963-30.66-30.225-41.743-43.342
		c-5.566-6.587-19.921-20.595-30.631-10.925c-11.529,11.206,5.359,29.515,5.798,30.045l67.749,82.93
		c-0.274,0.369-0.58,0.686-0.933,0.961c-6.497,5.102-25.458-4.274-33.11-9.334c-6.997-4.625-18.778-4.589-24.723,0.078
		c-2.381,1.87-3.698,4.411-3.714,7.155c-0.02,3.951,2.566,8.036,7.674,12.129c0.056,0.046,0.159,0.137,0.307,0.263
		c7.55,6.468,28.028,22.579,55.071,32.496c17.335,6.358,34.224,8.978,50.201,7.79c19.819-1.477,38.288-8.832,54.888-21.865
		C436.855,357.247,443.729,338.543,439.479,315.643z"/>
	<path d="M271.338,173.975c3.351,4.39,9.626,5.232,14.017,1.881c4.39-3.351,5.232-9.626,1.881-14.016
		c-25.26-33.092-72.733-39.463-105.824-14.203c-33.091,25.26-39.463,72.733-14.203,105.824c3.351,4.39,9.625,5.232,14.016,1.881
		c4.391-3.351,5.233-9.626,1.882-14.017c-18.569-24.326-13.885-59.222,10.44-77.791C217.873,144.966,252.77,149.649,271.338,173.975
		z"/>
	<path d="M227.218,207.646c4.389-3.35,10.685-2.504,14.035,1.883c3.351,4.39,9.626,5.232,14.016,1.881s5.232-9.626,1.881-14.016
		c-10.041-13.154-28.913-15.688-42.067-5.646c-13.154,10.041-15.687,28.912-5.646,42.067c3.351,4.39,9.626,5.232,14.017,1.881
		s5.232-9.627,1.881-14.017C221.985,217.292,222.83,210.996,227.218,207.646z"/>
</g>
</svg>
