<?xml version="1.0" encoding="utf-8"?>
<!-- Generator: Adobe Illustrator 16.0.0, SVG Export Plug-In . SVG Version: 6.00 Build 0)  -->
<!DOCTYPE svg PUBLIC "-//W3C//DTD SVG 1.1//EN" "http://www.w3.org/Graphics/SVG/1.1/DTD/svg11.dtd">
<svg version="1.1" id="Layer_1" xmlns="http://www.w3.org/2000/svg" xmlns:xlink="http://www.w3.org/1999/xlink" x="0px" y="0px"
	 width="512px" height="512px" viewBox="0 0 512 512" enable-background="new 0 0 512 512" xml:space="preserve">
<g>
	<path d="M332.425,296.811v117.97H124.401V97.22h208.023v47.518c5.492-14.334,15.664-15.936,19.902-15.936
		c0.032,0,0.065,0.003,0.098,0.003V65.979c0-16.543-13.457-30-30-30H134.401c-16.541,0-30,13.457-30,30v380.041
		c0,16.543,13.459,30,30,30h188.023c16.543,0,30-13.457,30-30V297.377c-3.886-0.533-8.07-0.85-12.563-0.85
		C337.412,296.527,334.931,296.626,332.425,296.811z M228.413,454.5c-7.041,0-12.75-5.708-12.75-12.75s5.709-12.75,12.75-12.75
		s12.75,5.708,12.75,12.75S235.454,454.5,228.413,454.5z"/>
	<path d="M406.877,295.663l-18.068-53.416c5.576-6.756,7.32-15.859,4.525-24.138c-2.799-8.267-9.705-14.44-18.248-16.425
		l-18.102-53.525c-0.982-2.895-2.502-4.357-4.51-4.357c-3.146,0-4.799,2.618-6.299,7.42c-13.133,52.287-71.869,68.92-72.609,69.125
		l-38.33,11.967c-7.473,2.898-20.086,12.824-14.389,29.662l8.799,26.014c0.244,0.754,6.07,18.502,21.838,18.502
		c2.445,0,5.016-0.449,7.48-1.279c0,0,4.212-2.207,7.762,8.227l15.875,46.902c0.563,2.846,3.016,7.857,8.66,7.857
		c1.094,0,2.252-0.193,3.459-0.578c0,0,11.663-3.221,13.361-9.549c2.53-9.427-10.925-34.883-14.338-40.228
		c-14.943-23.402,3.299-28.772,3.459-28.831c14.697-4.969,29.102-7.485,42.807-7.485c37.137,0,57.65,18.597,57.852,18.778
		c0,0,3.151,2.751,6.073,2.444c1.803-0.189,2.608-1.091,3.011-1.682C408.135,299.323,407.445,297.069,406.877,295.663z"/>
</g>
</svg>
