<?xml version="1.0" encoding="utf-8"?>
<!-- Generator: Adobe Illustrator 16.0.0, SVG Export Plug-In . SVG Version: 6.00 Build 0)  -->
<!DOCTYPE svg PUBLIC "-//W3C//DTD SVG 1.1//EN" "http://www.w3.org/Graphics/SVG/1.1/DTD/svg11.dtd">
<svg version="1.1" id="Layer_2" xmlns="http://www.w3.org/2000/svg" xmlns:xlink="http://www.w3.org/1999/xlink" x="0px" y="0px"
	 width="512px" height="512px" viewBox="0 0 512 512" enable-background="new 0 0 512 512" xml:space="preserve">
<g>
	<path d="M440.994,77.919c0.024-1.846-0.692-3.622-1.998-4.927c-1.303-1.302-3.083-2.023-4.924-1.991
		c-3.59,0.057-88.576,2.038-143.287,56.748l-69.377,69.377c-16.128-5.68-71.071-16.34-148.411,60.994
		c-2.354,2.357-2.656,6.066-0.72,8.777c0.221,0.31,0.461,0.594,0.728,0.861c2.026,2.025,5.166,2.592,7.816,1.291
		c0.524-0.259,49.841-24.086,76.021-7.357l-17.168,17.167c-0.417,0.417-0.776,0.887-1.074,1.394
		c-0.723,1.257-17.33,31.097,22.357,70.779c39.684,39.685,69.528,23.085,70.774,22.357c0.516-0.296,0.977-0.659,1.396-1.076
		l17.168-17.167c16.732,26.181-7.093,75.496-7.349,76.025c-1.304,2.65-0.743,5.784,1.288,7.817c0.046,0.042,0.082,0.077,0.125,0.118
		c2.666,2.557,6.902,2.524,9.523-0.101c0.132-0.128,0.25-0.263,0.371-0.399c76.916-77.138,66.281-131.925,60.607-148.026
		l69.377-69.377C438.947,166.494,440.934,81.512,440.994,77.919z M352.904,213.187c-14.941,14.938-39.155,14.937-54.088,0.001
		c-14.933-14.933-14.934-39.148,0.002-54.087c14.933-14.934,39.152-14.934,54.086,0
		C367.837,174.036,367.837,198.253,352.904,213.187z"/>
	<path d="M160.389,391.865c-13.427,2.338-27.286,3.276-40.898,3.05c-1.157-0.02-2.344-1.417-2.341-2.361
		c-0.002-2.063,0.049-5.067,0.101-7.126c0.076-3.013,0.204-6.021,0.364-9.034c0.378-6.828,0.937-13.675,1.943-20.441
		c1.753-11.837,4.423-23.442,8.838-34.591c0.604-1.517,1.277-3.005,1.827-4.549c-12.384,5.297-22.051,15.849-28.861,27.223
		c-6.624,11.057-10.913,23.427-13.293,36.068c-1.408,7.462-2.138,15.042-2.244,22.63c-0.049,4.198-0.316,9.271,1.142,13.295
		c2.066,5.717,7.382,9.51,13.398,9.925c5.402,0.369,10.822,0.298,16.233-0.058c24.582-1.623,50.85-10.177,68.109-28.474
		c4.245-4.746,7.948-9.744,10.52-15.606c-6.14,2.261-12.1,4.764-18.438,6.473C171.368,389.75,165.918,390.903,160.389,391.865z"/>
</g>
</svg>
