<?xml version="1.0" encoding="utf-8"?>
<!-- Generator: Adobe Illustrator 16.0.0, SVG Export Plug-In . SVG Version: 6.00 Build 0)  -->
<!DOCTYPE svg PUBLIC "-//W3C//DTD SVG 1.1//EN" "http://www.w3.org/Graphics/SVG/1.1/DTD/svg11.dtd">
<svg version="1.1" id="Layer_1" xmlns="http://www.w3.org/2000/svg" xmlns:xlink="http://www.w3.org/1999/xlink" x="0px" y="0px"
	 width="512px" height="512px" viewBox="0 0 512 512" enable-background="new 0 0 512 512" xml:space="preserve">
<g>
	<path d="M292.13,454.026c0.273-3.308,0.789-8.692,1.676-15.3H101.452V73.273h198.906v55.417c0,5.599,4.535,10.132,10.131,10.132
		h53.791l0.048,60.709c0.231,0.095,0.46,0.189,0.682,0.295c0.858-3.328,2.494-6.436,4.872-9.075
		c3.951-4.385,9.629-7.061,15.583-7.344l0.97-0.022c1.763,0,3.471,0.223,5.119,0.601v-60.243c0-2.168-0.863-4.247-2.396-5.787
		l-69.563-69.561c-1.533-1.532-3.613-2.395-5.785-2.395H98.725C85.19,46,74.178,57.008,74.178,70.543v370.914
		C74.178,454.991,85.19,466,98.725,466h195.952C292.696,462.357,291.794,458.238,292.13,454.026z"/>
	<path d="M141.175,133.461h78.001c5.521,0,10-4.478,10-10s-4.479-10-10-10h-78.001c-5.522,0-10,4.478-10,10
		S135.653,133.461,141.175,133.461z"/>
	<path d="M289.177,173.461c0-5.522-4.479-10-10-10H141.175c-5.522,0-10,4.478-10,10s4.478,10,10,10h138.001
		C284.698,183.461,289.177,178.983,289.177,173.461z"/>
	<path d="M219.177,213.461h-78.001c-5.522,0-10,4.478-10,10s4.478,10,10,10h78.001c5.521,0,10-4.478,10-10
		S224.698,213.461,219.177,213.461z"/>
	<path d="M219.177,263.461h-78.001c-5.522,0-10,4.478-10,10s4.478,10,10,10h78.001c5.521,0,10-4.478,10-10
		S224.698,263.461,219.177,263.461z"/>
	<path d="M436.625,403.063c-21.482-30.776-43.301-51.441-64.879-61.455c-0.096-2.421-0.242-4.631-0.443-6.683
		c39.879-15.482,62.318-63.167,63.27-65.22c0.768-1.654,0.816-3.499,0.137-5.191c-0.707-1.758-2.166-3.177-4.002-3.892
		c-0.891-0.346-1.822-0.52-2.773-0.52c-2.873,0-5.475,1.604-6.629,4.089c-0.201,0.431-19.879,41.972-52.473,56.74
		c-0.025-0.1-0.049-0.199-0.074-0.298c1.629-1.028,3.186-2.257,4.648-3.668c25.293-24.425,20.842-107.756,20.639-111.291
		c-0.213-3.693-3.363-6.478-7.326-6.478l-0.221,0.003c-2.043,0.097-3.92,0.972-5.209,2.401c-1.207,1.34-1.816,3.049-1.717,4.812
		c1.736,30.693-1.08,84.478-15.838,100.264c-0.822-1.657-1.688-3.196-2.592-4.605c1.877-2.725,2.859-5.808,2.859-9.019v-2.9
		c0-9.341-9.443-16.997-18.205-16.997s-18.205,7.656-18.205,16.997v2.9c0,3.211,0.982,6.294,2.859,9.019
		c-0.904,1.409-1.77,2.948-2.592,4.605c-14.757-15.786-17.574-69.57-15.837-100.264c0.1-1.763-0.51-3.472-1.717-4.812
		c-1.289-1.43-3.166-2.305-5.209-2.401l-0.221-0.003c-3.963,0-7.113,2.784-7.326,6.478c-0.203,3.535-4.654,86.866,20.639,111.291
		c1.463,1.411,3.02,2.64,4.648,3.668c-0.025,0.099-0.049,0.198-0.074,0.298c-32.593-14.769-52.271-56.31-52.472-56.74
		c-1.154-2.484-3.756-4.089-6.629-4.089c-0.951,0-1.883,0.174-2.773,0.52c-1.836,0.715-3.295,2.134-4.002,3.892
		c-0.68,1.692-0.631,3.537,0.137,5.191c0.951,2.053,23.391,49.737,63.27,65.22c-0.201,2.052-0.348,4.262-0.443,6.683
		c-21.578,10.014-43.396,30.679-64.879,61.455c-1.068,1.535-1.438,3.372-1.043,5.172c0.402,1.828,1.594,3.44,3.271,4.425
		c1.15,0.671,2.471,1.025,3.818,1.025c2.445,0,4.709-1.149,6.051-3.074c18.033-25.837,35.875-43.874,53.084-53.682
		c0.764,8.594,2.48,16.663,5.029,23.6c-14.275,23.713-18.478,66.954-19.185,75.501c-0.139,1.761,0.432,3.483,1.611,4.851
		c1.254,1.455,3.109,2.369,5.107,2.507c3.967,0.255,7.434-2.614,7.736-6.307c1.093-13.372,5.207-42.296,13.181-61.494
		c3.686,4.226,7.053,7.167,12.166,7.167s8.48-2.941,12.166-7.167c7.975,19.198,12.088,48.122,13.182,61.494
		c0.303,3.692,3.77,6.562,7.736,6.307c1.998-0.138,3.854-1.052,5.107-2.507c1.18-1.367,1.75-3.09,1.611-4.851
		c-0.707-8.547-4.91-51.788-19.186-75.501c2.549-6.937,4.266-15.006,5.029-23.6c17.209,9.808,35.051,27.845,53.084,53.682
		c1.342,1.925,3.605,3.074,6.051,3.074c1.348,0,2.668-0.354,3.818-1.025c1.678-0.984,2.869-2.597,3.271-4.425
		C438.063,406.435,437.693,404.598,436.625,403.063z"/>
</g>
</svg>
