<?xml version="1.0" encoding="utf-8"?>
<!-- Generator: Adobe Illustrator 16.0.0, SVG Export Plug-In . SVG Version: 6.00 Build 0)  -->
<!DOCTYPE svg PUBLIC "-//W3C//DTD SVG 1.1//EN" "http://www.w3.org/Graphics/SVG/1.1/DTD/svg11.dtd">
<svg version="1.1" id="Layer_1" xmlns="http://www.w3.org/2000/svg" xmlns:xlink="http://www.w3.org/1999/xlink" x="0px" y="0px"
	 width="512px" height="512px" viewBox="0 0 512 512" enable-background="new 0 0 512 512" xml:space="preserve">
<g>
	<path d="M360.669,269.757H329.24c-10.524,62.336-64.882,109.972-130.163,109.972c-72.792,0-132.015-59.217-132.015-132.01
		c0-72.792,59.223-132.014,132.015-132.014c65.281,0,119.641,47.637,130.163,109.979h31.415
		c-10.789-79.536-79.133-141.041-161.578-141.041C109.154,84.643,36,157.795,36,247.719c0,51.281,23.496,98.588,64.469,129.79
		l-26.764,43.119c-0.844,1.357-0.885,3.065-0.106,4.467c0.777,1.396,2.254,2.263,3.85,2.263h41.503c1.521,0,2.938-0.789,3.74-2.082
		l16.15-26.015c19.184,7.653,39.449,11.534,60.235,11.534c20.781,0,41.046-3.881,60.233-11.534l16.146,26.015
		c0.803,1.293,2.222,2.082,3.746,2.082h41.498c1.601,0,3.076-0.867,3.854-2.263c0.774-1.401,0.732-3.109-0.109-4.467l-26.761-43.119
		C332.709,350.838,354.946,312.393,360.669,269.757z"/>
	<path d="M199.077,194.477c21.497,0,40.051,12.818,48.446,31.207h32.931c-9.714-35.834-42.515-62.27-81.377-62.27
		c-46.486,0-84.306,37.819-84.306,84.305c0,46.486,37.819,84.306,84.306,84.306c38.861,0,71.662-26.436,81.377-62.268h-32.932
		c-8.396,18.387-26.949,31.205-48.445,31.205c-29.359,0-53.243-23.886-53.243-53.243
		C145.834,218.36,169.718,194.477,199.077,194.477z"/>
	<path d="M475.729,292.95l-11.07-45.23l11.166-45.624c0.758-3.099-1.183-6.223-4.789-7.695c-3.608-1.477-8.038-0.96-10.923,1.271
		l-34.495,26.676l4.957-20.251c0.76-3.099-1.183-6.223-4.789-7.695c-3.607-1.477-8.038-0.96-10.924,1.271l-50.203,38.823H207.893
		c-7.302,0-13.226,5.924-13.226,13.226c0,7.303,5.924,13.222,13.226,13.222h156.767l50.203,38.823
		c1.785,1.383,4.169,2.105,6.581,2.105c0.063,0,0.132,0,0.197-0.001c5.051-0.078,9.109-3.266,9.109-7.188
		c0-0.597-0.094-1.176-0.271-1.731l-4.861-19.86l34.495,26.675c1.784,1.383,4.168,2.105,6.58,2.105c0.063,0,0.131,0,0.197-0.001
		c5.048-0.078,9.109-3.266,9.109-7.188C476,294.085,475.906,293.506,475.729,292.95z"/>
</g>
</svg>
