<?xml version="1.0" encoding="utf-8"?>
<!-- Generator: Adobe Illustrator 16.0.0, SVG Export Plug-In . SVG Version: 6.00 Build 0)  -->
<!DOCTYPE svg PUBLIC "-//W3C//DTD SVG 1.1//EN" "http://www.w3.org/Graphics/SVG/1.1/DTD/svg11.dtd">
<svg version="1.1" id="Layer_1" xmlns="http://www.w3.org/2000/svg" xmlns:xlink="http://www.w3.org/1999/xlink" x="0px" y="0px"
	 width="512px" height="512px" viewBox="0 0 512 512" enable-background="new 0 0 512 512" xml:space="preserve">
<path d="M408.311,103.689C367.627,63.005,313.535,40.6,256,40.6s-111.627,22.406-152.311,63.09
	C63.005,144.373,40.6,198.465,40.6,256c0,57.536,22.406,111.628,63.09,152.312C144.373,448.995,198.465,471.4,256,471.4
	c57.536,0,111.628-22.405,152.311-63.089C448.995,367.628,471.4,313.536,471.4,256C471.4,198.465,448.995,144.373,408.311,103.689z
	 M450.32,245.6h-56.459c-5.079-67.959-59.502-122.382-127.461-127.461V61.68C365.442,66.921,445.079,146.558,450.32,245.6z
	 M356.956,315.955c-2.919-0.93-6.026-1.435-9.25-1.435c-16.846,0-30.551,13.705-30.551,30.551c0,3.535,0.61,6.929,1.72,10.09
	c-15.432,9.82-33.299,16.133-52.475,17.824v-60.666c23.259-4.286,41.632-22.659,45.918-45.918h60.666
	C371.399,284.379,365.749,301.205,356.956,315.955z M245.6,266.4v24.563c-11.766-3.506-21.056-12.797-24.563-24.563H245.6z
	 M221.037,245.6c3.506-11.766,12.797-21.056,24.563-24.563V245.6H221.037z M266.4,266.4h24.563
	c-3.506,11.766-12.797,21.056-24.563,24.563V266.4z M266.4,245.6v-24.563c11.766,3.506,21.056,12.797,24.563,24.563H266.4z
	 M245.6,140.99c-11.741,4.264-20.151,15.53-20.151,28.726s8.41,24.462,20.151,28.726v1.239
	c-23.259,4.286-41.632,22.659-45.918,45.918h-60.666c4.98-56.48,50.104-101.604,106.584-106.584V140.99z M140.304,276.259
	c-0.566-3.243-0.995-6.531-1.288-9.858h60.666c4.286,23.259,22.659,41.632,45.918,45.918v60.666
	c-34.217-3.017-64.269-20.761-83.751-46.846c4.353-5.28,6.971-12.042,6.971-19.404C168.819,290.573,156.203,277.311,140.304,276.259
	z M312.318,245.6c-4.286-23.259-22.659-41.632-45.918-45.918v-1.239c11.741-4.264,20.151-15.53,20.151-28.726
	s-8.41-24.462-20.151-28.726v-1.975c56.48,4.98,101.604,50.104,106.584,106.584H312.318z M245.6,61.68v56.459
	c-67.959,5.079-122.382,59.502-127.461,127.461H61.68C66.921,146.558,146.558,66.921,245.6,61.68z M61.68,266.4h56.459
	c0.398,5.322,1.106,10.558,2.092,15.696c-7.581,5.565-12.514,14.534-12.514,24.638c0,16.846,13.705,30.551,30.551,30.551
	c1.911,0,3.779-0.185,5.594-0.522c23.225,32.156,59.915,53.973,101.737,57.098v56.459C146.558,445.079,66.921,365.442,61.68,266.4z
	 M266.4,450.32v-56.459c24.159-1.806,46.603-9.853,65.732-22.521c4.564,2.716,9.889,4.282,15.574,4.282
	c16.846,0,30.551-13.705,30.551-30.551c0-6-1.746-11.598-4.746-16.324c11.415-18.372,18.649-39.599,20.35-62.347h56.459
	C445.079,365.442,365.442,445.079,266.4,450.32z"/>
</svg>
