<?xml version="1.0" encoding="utf-8"?>
<!-- Generator: Adobe Illustrator 16.0.0, SVG Export Plug-In . SVG Version: 6.00 Build 0)  -->
<!DOCTYPE svg PUBLIC "-//W3C//DTD SVG 1.1//EN" "http://www.w3.org/Graphics/SVG/1.1/DTD/svg11.dtd">
<svg version="1.1" id="Layer_1" xmlns="http://www.w3.org/2000/svg" xmlns:xlink="http://www.w3.org/1999/xlink" x="0px" y="0px"
	 width="512px" height="512px" viewBox="0 0 512 512" enable-background="new 0 0 512 512" xml:space="preserve">
<g>
	<path d="M406.297,346.712l-84.891-33.848l-19.881-16.748c-5.25-4.437-13.004-4.11-17.873,0.732l-27.638,27.481l-27.717-27.492
		c-4.874-4.832-12.618-5.145-17.864-0.722l-19.879,16.748l-84.895,33.854C78.325,357.603,78.347,454.411,76,463.297h360
		C433.658,454.434,433.645,357.588,406.297,346.712z"/>
	<path d="M362.705,136.371C356.81,87.137,311.208,48.703,256,48.703s-100.81,38.434-106.705,87.668
		c-4.898,3.137-8.153,8.613-8.153,14.859v39.996c0,9.743,7.899,17.646,17.646,17.646l15.942-0.04
		c9.848,51.453,44.795,80.726,81.27,80.726s57.666-17.337,71.719-49.293c-10.73,8.416-26.324,16.114-48.134,17.704
		c-2.004,2.985-5.411,4.951-9.277,4.951h-10.19c-6.167,0-11.167-4.999-11.167-11.167s5-11.167,11.167-11.167h10.19
		c3.612,0,6.814,1.723,8.855,4.383c35.067-2.815,51.558-24.083,58.134-36.091l15.916-0.006c9.746,0,17.645-7.903,17.645-17.646
		V151.23C370.857,144.984,367.603,139.508,362.705,136.371z M336.664,138.173C326.257,105.318,296.192,85.788,256,85.788
		s-70.276,19.519-80.694,52.357c-1.612-1.456-3.49-2.616-5.559-3.401c6.661-37.385,42.801-66.041,86.253-66.041
		s79.591,28.656,86.253,66.041C340.171,135.535,338.283,136.703,336.664,138.173z"/>
</g>
</svg>
