<?xml version="1.0" encoding="utf-8"?>
<!-- Generator: Adobe Illustrator 16.0.0, SVG Export Plug-In . SVG Version: 6.00 Build 0)  -->
<!DOCTYPE svg PUBLIC "-//W3C//DTD SVG 1.1//EN" "http://www.w3.org/Graphics/SVG/1.1/DTD/svg11.dtd">
<svg version="1.1" id="Layer_2" xmlns="http://www.w3.org/2000/svg" xmlns:xlink="http://www.w3.org/1999/xlink" x="0px" y="0px"
	 width="512px" height="512px" viewBox="0 0 512 512" enable-background="new 0 0 512 512" xml:space="preserve">
<g>
	<path d="M383.35,333.963c-36.805,0-66.641,29.836-66.641,66.641c0,36.806,29.836,66.642,66.641,66.642s66.641-29.836,66.641-66.642
		C449.99,363.799,420.154,333.963,383.35,333.963z M426.645,432.877L416.221,443.3c-0.857,0.858-2.252,0.858-3.109,0l-20.533-20.533
		l-0.779,0.777c-0.859,0.859-2.25,0.859-3.109,0l-4.979-4.979c-0.857-0.858-0.857-2.251,0-3.11l5.105-5.104l-4.543-4.544
		l-11.428,11.43c2.123,6.051,0.771,13.062-4.059,17.892c-3.27,3.269-7.615,5.058-12.24,5.04c-0.396-0.003-0.77-0.163-1.037-0.434
		c-0.135-0.136-0.246-0.298-0.322-0.481c-0.227-0.551-0.1-1.186,0.322-1.607l4.799-4.801l-2.867-10.707l-10.707-2.869l-4.801,4.801
		c-0.422,0.422-1.057,0.549-1.607,0.321c-0.551-0.227-0.912-0.764-0.914-1.359c-0.021-4.624,1.771-8.971,5.037-12.239
		c4.832-4.829,11.842-6.183,17.895-4.058l11.428-11.429l-15.086-15.084l-10.684-6.877l-4.766-8.412l5.041-5.04l8.41,4.766
		l6.879,10.684l15.084,15.084l10.23-10.23c-2.123-6.052-0.771-13.063,4.059-17.893c3.27-3.269,7.615-5.058,12.24-5.039
		c0.596,0.003,1.131,0.362,1.359,0.914c0.227,0.552,0.1,1.186-0.322,1.607l-4.801,4.801l2.869,10.708l10.707,2.868l4.803-4.801
		c0.42-0.422,1.055-0.548,1.605-0.321s0.91,0.763,0.914,1.359c0.02,4.624-1.77,8.97-5.037,12.239
		c-4.832,4.83-11.842,6.183-17.895,4.059l-10.229,10.23l4.541,4.544l5.105-5.104c0.859-0.859,2.252-0.859,3.111,0l4.977,4.977
		c0.859,0.859,0.859,2.253,0,3.111l-0.777,0.777l20.533,20.533C427.504,430.625,427.504,432.018,426.645,432.877z"/>
	<path d="M348.393,325.254l-40.977-16.338l-19.881-16.748c-5.25-4.437-13.004-4.11-17.873,0.732l-27.639,27.481l-27.717-27.492
		c-4.873-4.832-12.617-5.145-17.863-0.722l-19.879,16.748L91.67,342.77c-27.336,10.885-27.314,107.693-29.66,116.579h261.182
		c-15.414-14.859-25.033-35.694-25.033-58.745C298.158,366.712,318.922,337.585,348.393,325.254z"/>
	<path d="M144.797,204.925l15.943-0.04c9.848,51.453,44.795,80.726,81.27,80.726s57.666-17.337,71.719-49.293
		c-10.73,8.416-26.324,16.114-48.135,17.704c-2.004,2.985-5.41,4.951-9.277,4.951h-10.189c-6.168,0-11.166-4.999-11.166-11.167
		s4.998-11.167,11.166-11.167h10.189c3.613,0,6.814,1.723,8.855,4.383c35.068-2.815,51.559-24.083,58.135-36.091l15.916-0.006
		c9.746,0,17.645-7.903,17.645-17.646v-39.996c0-6.246-3.254-11.723-8.152-14.859c-5.895-49.234-51.496-87.668-106.705-87.668
		s-100.811,38.434-106.705,87.668c-4.898,3.137-8.152,8.613-8.152,14.859v39.996C127.152,197.021,135.051,204.925,144.797,204.925z
		 M242.01,64.755c43.453,0,79.592,28.656,86.254,66.041c-2.082,0.791-3.971,1.959-5.59,3.429
		C312.268,101.37,282.203,81.84,242.01,81.84s-70.275,19.519-80.695,52.357c-1.611-1.456-3.49-2.616-5.559-3.401
		C162.418,93.411,198.557,64.755,242.01,64.755z"/>
</g>
</svg>
