<?xml version="1.0" encoding="utf-8"?>
<!-- Generator: Adobe Illustrator 16.0.0, SVG Export Plug-In . SVG Version: 6.00 Build 0)  -->
<!DOCTYPE svg PUBLIC "-//W3C//DTD SVG 1.1//EN" "http://www.w3.org/Graphics/SVG/1.1/DTD/svg11.dtd">
<svg version="1.1" id="Layer_1" xmlns="http://www.w3.org/2000/svg" xmlns:xlink="http://www.w3.org/1999/xlink" x="0px" y="0px"
	 width="512px" height="512px" viewBox="0 0 512 512" enable-background="new 0 0 512 512" xml:space="preserve">
<g>
	<path d="M428.526,77.858H83.474c-12.995,0-23.568,10.573-23.568,23.569v309.146c0,12.996,10.573,23.569,23.568,23.569h345.053
		c12.995,0,23.568-10.573,23.568-23.569V101.427C452.095,88.432,441.521,77.858,428.526,77.858z M357.466,117.435
		c0-4.806,3.896-8.703,8.702-8.703h8.703c4.806,0,8.702,3.896,8.702,8.703v9.863c0,4.806-3.896,8.702-8.702,8.702h-8.703
		c-4.806,0-8.702-3.896-8.702-8.702V117.435z M317,117.435c0-4.806,3.897-8.703,8.702-8.703h8.702c4.807,0,8.703,3.896,8.703,8.703
		v9.863c0,4.806-3.896,8.702-8.703,8.702h-8.702c-4.805,0-8.702-3.896-8.702-8.702V117.435z M423.812,405.858H88.188V162.142
		h335.623V405.858z M424.039,127.298c0,4.806-3.897,8.702-8.702,8.702h-8.702c-4.807,0-8.703-3.896-8.703-8.702v-9.863
		c0-4.806,3.896-8.703,8.703-8.703h8.702c4.805,0,8.702,3.896,8.702,8.703V127.298z"/>
	<path d="M129.254,229h145.492c8.284,0,15-6.716,15-15s-6.716-15-15-15H129.254c-8.284,0-15,6.716-15,15S120.97,229,129.254,229z"/>
	<path d="M129.254,299h75.492c8.284,0,15-6.716,15-15s-6.716-15-15-15h-75.492c-8.284,0-15,6.716-15,15S120.97,299,129.254,299z"/>
	<path d="M129.254,369h145.492c8.284,0,15-6.716,15-15s-6.716-15-15-15H129.254c-8.284,0-15,6.716-15,15S120.97,369,129.254,369z"/>
</g>
</svg>
