<?xml version="1.0" encoding="utf-8"?>
<!-- Generator: Adobe Illustrator 16.0.0, SVG Export Plug-In . SVG Version: 6.00 Build 0)  -->
<!DOCTYPE svg PUBLIC "-//W3C//DTD SVG 1.1//EN" "http://www.w3.org/Graphics/SVG/1.1/DTD/svg11.dtd">
<svg version="1.1" id="Layer_1" xmlns="http://www.w3.org/2000/svg" xmlns:xlink="http://www.w3.org/1999/xlink" x="0px" y="0px"
	 width="512px" height="512px" viewBox="0 0 512 512" enable-background="new 0 0 512 512" xml:space="preserve">
<g>
	<path d="M431.914,298.745L213.255,80.087c-2.867-2.867-6.837-4.344-10.88-4.05L96.643,83.742c-6.906,0.504-12.397,5.996-12.9,12.9
		l-7.706,105.733c-0.296,4.043,1.182,8.014,4.049,10.879l218.658,218.659c5.449,5.448,14.281,5.448,19.729,0l113.439-113.44
		C437.362,313.026,437.362,304.193,431.914,298.745z M147.142,147.143c-7.252,7.252-19.054,7.252-26.306,0
		c-7.253-7.252-7.252-19.055,0-26.306c7.252-7.253,19.053-7.253,26.306,0C154.395,128.088,154.395,139.891,147.142,147.143z
		 M169.025,234.791c-8.31-8.31-13.412-20.542-13.315-31.923c0.03-3.511,2.886-6.344,6.398-6.343l2.272,0.001
		c1.728,0,3.374,0.704,4.585,1.936c1.204,1.238,1.856,2.911,1.809,4.637c-0.193,7.046,3.391,15.493,8.919,21.021
		c6.037,6.037,15.089,11.083,20.733,5.438c5.741-5.647,3.607-11.255-3.027-23.654c-6.053-11.315-14.345-26.81-0.544-40.61
		c10.229-10.229,26.19-8.012,39.719,5.517c6.179,6.18,11.041,14.766,12.686,22.407c0.736,3.418-1.409,6.795-4.815,7.58l-2.111,0.487
		c-1.668,0.386-3.421,0.087-4.866-0.831c-1.445-0.917-2.464-2.377-2.826-4.051c-1.02-4.719-4.531-10.716-8.737-14.922
		c-5.511-5.511-13.633-10.263-18.38-5.517c-5.346,5.347-3.229,10.823,3.275,22.962c6.156,11.49,14.588,27.228,0.261,41.336
		C200.141,251.185,183.233,249,169.025,234.791z M252.072,296.499c2.499,2.499,2.499,6.549,0,9.047l-1.623,1.623
		c-2.499,2.499-6.549,2.499-9.047,0l-36.595-36.595c-2.498-2.498-2.498-6.548,0-9.046l56.719-56.719
		c2.498-2.498,6.547-2.498,9.046,0l35.459,35.459c2.498,2.498,2.499,6.548,0,9.046l-1.624,1.624c-2.499,2.498-6.548,2.498-9.046,0
		l-29.313-29.313l-16.025,16.026l25.58,25.58c2.499,2.499,2.499,6.549,0.001,9.047l-1.624,1.624c-2.499,2.499-6.548,2.498-9.047,0
		l-25.579-25.58l-17.729,17.729L252.072,296.499z M346.441,346.361c-18.153,18.153-48.02,17.826-66.577-0.73
		c-18.557-18.557-18.884-48.424-0.731-66.577c18.11-18.11,47.939-17.745,66.497,0.812
		C364.186,298.422,364.551,328.251,346.441,346.361z"/>
	<path d="M289.804,289.724c-12.271,12.271-11.943,32.563,0.731,45.237c12.672,12.672,32.965,13.001,45.235,0.73
		c12.226-12.226,11.862-32.484-0.81-45.156C322.286,277.861,302.029,277.498,289.804,289.724z"/>
</g>
</svg>
