<?xml version="1.0" encoding="utf-8"?>
<!-- Generator: Adobe Illustrator 16.0.0, SVG Export Plug-In . SVG Version: 6.00 Build 0)  -->
<!DOCTYPE svg PUBLIC "-//W3C//DTD SVG 1.1//EN" "http://www.w3.org/Graphics/SVG/1.1/DTD/svg11.dtd">
<svg version="1.1" id="Layer_1" xmlns="http://www.w3.org/2000/svg" xmlns:xlink="http://www.w3.org/1999/xlink" x="0px" y="0px"
	 width="512px" height="512px" viewBox="0 0 512 512" enable-background="new 0 0 512 512" xml:space="preserve">
<g>
	<path d="M428.526,77.859H83.474c-12.995,0-23.568,10.571-23.568,23.567v309.146c0,12.996,10.573,23.569,23.568,23.569h345.053
		c12.994,0,23.568-10.573,23.568-23.569V101.427C452.095,88.431,441.521,77.859,428.526,77.859z M357.466,117.435
		c0-4.807,3.896-8.703,8.701-8.703h8.703c4.807,0,8.703,3.896,8.703,8.703v9.863c0,4.805-3.896,8.701-8.703,8.701h-8.703
		c-4.805,0-8.701-3.896-8.701-8.701V117.435z M316.999,117.435c0-4.807,3.898-8.703,8.703-8.703h8.701
		c4.807,0,8.703,3.896,8.703,8.703v9.863c0,4.805-3.896,8.701-8.703,8.701h-8.701c-4.805,0-8.703-3.896-8.703-8.701V117.435z
		 M423.812,405.859H88.188V162.142h335.623V405.859z M424.038,127.298c0,4.805-3.896,8.701-8.701,8.701h-8.703
		c-4.807,0-8.703-3.896-8.703-8.701v-9.863c0-4.807,3.896-8.703,8.703-8.703h8.703c4.805,0,8.701,3.896,8.701,8.703V127.298z"/>
	<path d="M165.989,210.921h59.117c-1.666,10.675-7.326,22.046-16.84,33.827c-6.064-9.714-9.964-19.135-12.188-25.408
		c-0.562-1.583-2.058-2.641-3.736-2.641h-9.728c-1.264,0-2.453,0.603-3.2,1.623c-0.746,1.021-0.961,2.335-0.579,3.542
		c2.305,7.258,7.614,21.507,17.429,35.986c-11.594,11.271-23.143,19.393-27.611,22.387c-1.778,1.192-2.289,3.581-1.153,5.396
		l4.882,7.807c0.565,0.904,1.473,1.542,2.515,1.77c0.28,0.063,0.564,0.092,0.846,0.092c0.769,0,1.527-0.223,2.178-0.651
		c4.601-3.024,16.538-11.28,29.038-23.255c4.625,4.82,15.499,13.267,21.942,17.954c0.983,0.715,2.242,0.938,3.415,0.608
		c1.172-0.333,2.124-1.187,2.586-2.313l3.642-8.903c0.732-1.79,0.065-3.85-1.579-4.868c-4.198-2.604-12.101-7.953-18.552-14.903
		c14.163-16.575,22.24-32.734,24.018-48.049h3.121c2.189,0,3.964-1.775,3.964-3.965v-10.567c0-2.189-1.774-3.964-3.964-3.964
		h-30.872v-5.426c0-2.19-1.774-3.965-3.964-3.965h-9.89c-2.189,0-3.964,1.774-3.964,3.965v5.426h-30.872
		c-2.189,0-3.964,1.774-3.964,3.964v10.567C162.025,209.146,163.8,210.921,165.989,210.921z"/>
	<path d="M323.126,286.777c-0.515-1.66-2.049-2.791-3.786-2.791h-22.028c-1.743,0-3.281,1.139-3.791,2.805l-26.318,86.049
		c-0.369,1.202-0.145,2.507,0.604,3.52c0.748,1.009,1.93,1.604,3.188,1.604h13.664c1.78,0,3.343-1.187,3.82-2.901l5.901-21.23
		h26.923l6.388,21.306c0.502,1.678,2.046,2.826,3.797,2.826h14.523c1.261,0,2.445-0.598,3.191-1.611
		c0.748-1.015,0.969-2.323,0.595-3.526L323.126,286.777z M297.43,337.962l9.917-38.068h0.269l10.604,38.068H297.43z"/>
	<path d="M122.872,308.335l9.318,2.207l0.17,2.184c2.034,26.2,16.079,49.156,38.532,62.981c12.842,7.908,27.64,12.088,42.795,12.088
		h0.007c0.001,0,0.002,0,0.002,0c10.851,0,21.408-2.113,31.374-6.278c0.611-0.253,1.098-0.754,1.335-1.375
		c0.234-0.613,0.208-1.305-0.074-1.9l-6.761-14.192c-0.2-0.427-0.517-0.783-0.92-1.032c-0.65-0.398-1.518-0.458-2.175-0.185
		c-7.392,2.983-15.104,4.497-22.924,4.498c-11.166,0-22.191-3.154-31.882-9.121c-13.769-8.478-23.759-22.321-27.409-37.981
		l-1.1-4.717l9.041,2.143c0.113,0.026,0.229,0.044,0.347,0.051c0.038,0.002,0.131,0.005,0.169,0.005c0.71,0,1.353-0.268,1.802-0.747
		c0.598-0.629,0.813-1.536,0.564-2.367l-11.596-38.711c-0.235-0.785-0.95-1.467-1.738-1.657c-0.065-0.017-0.132-0.028-0.198-0.038
		l-0.106-0.015c-0.752-0.101-1.525,0.195-2.041,0.741l-27.731,29.392c-0.597,0.628-0.812,1.536-0.563,2.367
		C121.35,307.479,122.062,308.146,122.872,308.335z"/>
	<path d="M272.43,218.14c0.2,0.427,0.517,0.783,0.92,1.032c0.65,0.398,1.518,0.458,2.175,0.185
		c7.392-2.983,15.104-4.497,22.924-4.497c11.166,0,22.191,3.153,31.882,9.12c13.769,8.478,23.759,22.321,27.409,37.981l1.1,4.717
		l-9.041-2.143c-0.113-0.026-0.229-0.044-0.347-0.051c-0.038-0.002-0.131-0.005-0.169-0.005c-0.71,0-1.353,0.268-1.802,0.747
		c-0.598,0.629-0.813,1.536-0.564,2.367l11.596,38.711c0.235,0.785,0.95,1.467,1.738,1.657c0.065,0.017,0.132,0.028,0.198,0.038
		l0.106,0.015c0.752,0.101,1.525-0.195,2.041-0.741l27.731-29.392c0.597-0.628,0.812-1.536,0.563-2.367
		c-0.24-0.805-0.952-1.473-1.763-1.661l-9.318-2.207l-0.17-2.184c-2.034-26.2-16.079-49.156-38.532-62.981
		c-12.842-7.908-27.64-12.088-42.795-12.088h-0.007c-0.001,0-0.002,0-0.002,0c-10.851,0-21.408,2.113-31.374,6.278
		c-0.611,0.253-1.098,0.754-1.335,1.375c-0.234,0.613-0.208,1.305,0.074,1.9L272.43,218.14z"/>
</g>
</svg>
