<?xml version="1.0" encoding="utf-8"?>
<!-- Generator: Adobe Illustrator 16.0.0, SVG Export Plug-In . SVG Version: 6.00 Build 0)  -->
<!DOCTYPE svg PUBLIC "-//W3C//DTD SVG 1.1//EN" "http://www.w3.org/Graphics/SVG/1.1/DTD/svg11.dtd">
<svg version="1.1" id="Layer_1" xmlns="http://www.w3.org/2000/svg" xmlns:xlink="http://www.w3.org/1999/xlink" x="0px" y="0px"
	 width="512px" height="512px" viewBox="0 0 512 512" enable-background="new 0 0 512 512" xml:space="preserve">
<g>
	<g>
		<path d="M332.378,238.36c-1.427-1.271-3.495-1.703-5.313-1.101l-7.013,2.318c-16.052-22.044-40.867-34.66-68.261-34.66
			c-27.15,0-52.813,13.159-68.648,35.202c-0.861,1.2-1.198,2.721-0.924,4.172c0.275,1.454,1.145,2.747,2.384,3.548l13.203,8.54
			c0.881,0.57,1.9,0.872,2.946,0.872c1.718,0,3.352-0.825,4.369-2.208c11.039-14.982,28.05-23.575,46.67-23.575
			c15.479,0,30.335,6.198,41.124,17.082l-4.223,1.396c-1.834,0.607-3.217,2.159-3.609,4.05c-0.392,1.893,0.261,3.866,1.703,5.152
			l30.171,26.884c0.994,0.887,2.276,1.375,3.609,1.375c0.584,0,1.158-0.093,1.702-0.274c1.835-0.606,3.218-2.158,3.61-4.05
			l8.202-39.573C334.472,241.62,333.82,239.646,332.378,238.36z"/>
		<path d="M327.397,319.457l-13.204-8.543c-0.88-0.569-1.898-0.87-2.944-0.87c-1.719,0-3.353,0.826-4.37,2.209
			c-11.041,14.982-28.051,23.575-46.67,23.575c-15.479,0-30.335-6.198-41.124-17.082l4.223-1.396
			c1.834-0.607,3.217-2.16,3.609-4.052c0.392-1.892-0.261-3.864-1.703-5.15l-30.171-26.884c-1.429-1.274-3.529-1.696-5.311-1.101
			c-1.835,0.605-3.218,2.157-3.611,4.05l-8.202,39.573c-0.392,1.891,0.261,3.864,1.703,5.15c1.427,1.271,3.495,1.703,5.313,1.101
			l7.013-2.318c16.052,22.044,40.867,34.66,68.261,34.66c27.15,0,52.813-13.16,68.647-35.202c0.862-1.199,1.199-2.72,0.925-4.172
			C329.507,321.551,328.637,320.258,327.397,319.457z"/>
	</g>
	<path d="M428.526,77.858H83.474c-12.995,0-23.568,10.573-23.568,23.569v309.145c0,12.996,10.573,23.569,23.568,23.569h345.053
		c12.995,0,23.568-10.573,23.568-23.569V101.428C452.095,88.432,441.521,77.858,428.526,77.858z M357.466,117.435
		c0-4.806,3.896-8.702,8.702-8.702h8.703c4.806,0,8.702,3.896,8.702,8.702v9.863c0,4.806-3.896,8.702-8.702,8.702h-8.703
		c-4.806,0-8.702-3.896-8.702-8.702V117.435z M317,117.435c0-4.806,3.897-8.702,8.702-8.702h8.702c4.807,0,8.703,3.896,8.703,8.702
		v9.863c0,4.806-3.896,8.702-8.703,8.702h-8.702c-4.805,0-8.702-3.896-8.702-8.702V117.435z M423.812,405.858H88.188V162.142
		h335.623V405.858z M424.039,127.298c0,4.806-3.897,8.702-8.702,8.702h-8.702c-4.807,0-8.703-3.896-8.703-8.702v-9.863
		c0-4.806,3.896-8.702,8.703-8.702h8.702c4.805,0,8.702,3.896,8.702,8.702V127.298z"/>
</g>
</svg>
