<?xml version="1.0" encoding="utf-8"?>
<!-- Generator: Adobe Illustrator 16.0.0, SVG Export Plug-In . SVG Version: 6.00 Build 0)  -->
<!DOCTYPE svg PUBLIC "-//W3C//DTD SVG 1.1//EN" "http://www.w3.org/Graphics/SVG/1.1/DTD/svg11.dtd">
<svg version="1.1" id="Layer_1" xmlns="http://www.w3.org/2000/svg" xmlns:xlink="http://www.w3.org/1999/xlink" x="0px" y="0px"
	 width="512px" height="512px" viewBox="0 0 512 512" enable-background="new 0 0 512 512" xml:space="preserve">
<g>
	<path d="M451,310.746c-8.284,0-15,6.716-15,15V436H325.747c-8.284,0-15,6.716-15,15s6.716,15,15,15H451c8.284,0,15-6.716,15-15
		V325.746C466,317.462,459.284,310.746,451,310.746z"/>
	<path d="M186.253,436H76V325.746c0-8.284-6.716-15-15-15s-15,6.716-15,15V451c0,8.284,6.716,15,15,15h125.253
		c8.284,0,15-6.716,15-15S194.538,436,186.253,436z"/>
	<path d="M451,46H325.747c-8.284,0-15,6.716-15,15s6.716,15,15,15H436v110.254c0,8.284,6.716,15,15,15s15-6.716,15-15V61
		C466,52.716,459.284,46,451,46z"/>
	<path d="M61,201.254c8.284,0,15-6.716,15-15V76h110.253c8.284,0,15-6.716,15-15s-6.716-15-15-15H61c-8.284,0-15,6.716-15,15
		v125.254C46,194.538,52.716,201.254,61,201.254z"/>
	<path d="M172.635,194.432c0.47,44.073,19.199,70.811,49.735,70.343c0,0,49.718,2.016,49.718-70.343
		c0-32.182-16.798-48.881-49.718-48.881C190.145,145.551,172.308,162.251,172.635,194.432z"/>
	<path d="M262.128,279.018l-1.497-0.597L249,268.618c-3.074-2.596-7.612-2.404-10.46,0.43l-16.172,16.083l-16.223-16.089
		c-2.85-2.828-7.383-3.01-10.452-0.424l-11.633,9.803l-49.676,19.809c-15.998,6.369-15.982,63.019-17.356,68.22h198.915
		c-6.241-6.885-15.557-17.769-24.894-30.915C280.252,320.34,267.941,299.86,262.128,279.018z"/>
	<path d="M333.529,366.449c0.972,0,1.897-0.398,2.563-1.108c5.653-6.01,16.813-18.45,27.999-34.203
		c14.09-19.831,30.88-48.915,30.88-74.84c0-33.878-27.562-61.438-61.442-61.438c-33.878,0-61.441,27.561-61.441,61.438
		c0,25.941,16.813,55.043,30.918,74.894c11.181,15.742,22.317,28.15,27.961,34.149C331.631,366.051,332.559,366.449,333.529,366.449
		z M296.014,255.499c0-20.685,16.832-37.516,37.516-37.516c20.685,0,37.516,16.831,37.516,37.516
		c0,20.683-16.831,37.518-37.516,37.518C312.846,293.017,296.014,276.182,296.014,255.499z"/>
</g>
</svg>
