<?xml version="1.0" encoding="utf-8"?>
<!-- Generator: Adobe Illustrator 16.0.0, SVG Export Plug-In . SVG Version: 6.00 Build 0)  -->
<!DOCTYPE svg PUBLIC "-//W3C//DTD SVG 1.1//EN" "http://www.w3.org/Graphics/SVG/1.1/DTD/svg11.dtd">
<svg version="1.1" id="Layer_1" xmlns="http://www.w3.org/2000/svg" xmlns:xlink="http://www.w3.org/1999/xlink" x="0px" y="0px"
	 width="512px" height="512px" viewBox="0 0 512 512" enable-background="new 0 0 512 512" xml:space="preserve">
<g>
	<path d="M442.498,77.84H69.502c-11.047,0-20,8.954-20,20v234c0,11.046,8.953,20,20,20H209v45.32h-54.283
		c-10.201,0-18.5,8.299-18.5,18.5s8.299,18.5,18.5,18.5h202.566c10.201,0,18.5-8.299,18.5-18.5s-8.299-18.5-18.5-18.5H303v-45.32
		h139.498c11.047,0,20-8.954,20-20v-234C462.498,86.794,453.545,77.84,442.498,77.84z M432.498,321.84H79.502v-214h352.996V321.84z"
		/>
	<path d="M191.348,278.542c2.652,1.973,4.604,4.798,6.33,7.289c2.824,4.085,5.264,7.612,9.936,7.612
		c4.673,0,7.113-3.527,9.939-7.613c3.2-4.629,6.828-9.875,14.252-9.875c7.422,0,11.051,5.246,14.254,9.876
		c2.824,4.085,5.263,7.612,9.936,7.612c4.674,0,7.114-3.527,9.939-7.613c3.201-4.629,6.831-9.875,14.253-9.875
		c7.424,0,11.052,5.247,14.256,9.875c2.825,4.085,5.266,7.613,9.938,7.613c4.672,0,7.115-3.528,9.94-7.613
		c1.723-2.49,3.675-5.314,6.33-7.288c0.444-0.328,0.707-0.851,0.707-1.403v-68.337c0-36.039-29.319-65.358-65.358-65.358
		s-65.358,29.319-65.358,65.358v68.337C190.642,277.691,190.903,278.213,191.348,278.542z M265.989,207.526
		c0.892-4.134,3.39-7.929,7.028-10.681c3.315-2.506,7.28-3.885,11.168-3.885c4.504,0,8.495,1.86,10.947,5.103
		c2.275,3.01,3.048,6.892,2.177,10.93c-0.892,4.136-3.39,7.929-7.029,10.681c-3.314,2.507-7.278,3.887-11.166,3.887
		c-4.505,0-8.497-1.86-10.948-5.105C265.891,215.447,265.118,211.566,265.989,207.526z M216.867,198.063
		c2.452-3.242,6.443-5.103,10.947-5.103c3.888,0,7.853,1.379,11.168,3.885c3.639,2.752,6.137,6.547,7.028,10.681
		c0.871,4.04,0.099,7.921-2.177,10.929c-2.451,3.245-6.443,5.105-10.948,5.105c-3.888,0-7.852-1.38-11.166-3.887
		c-3.64-2.752-6.138-6.545-7.029-10.681C213.819,204.955,214.592,201.073,216.867,198.063z"/>
</g>
</svg>
