<?xml version="1.0" encoding="utf-8"?>
<!-- Generator: Adobe Illustrator 16.0.0, SVG Export Plug-In . SVG Version: 6.00 Build 0)  -->
<!DOCTYPE svg PUBLIC "-//W3C//DTD SVG 1.1//EN" "http://www.w3.org/Graphics/SVG/1.1/DTD/svg11.dtd">
<svg version="1.1" id="Layer_2" xmlns="http://www.w3.org/2000/svg" xmlns:xlink="http://www.w3.org/1999/xlink" x="0px" y="0px"
	 width="512px" height="512px" viewBox="0 0 512 512" enable-background="new 0 0 512 512" xml:space="preserve">
<g>
	<path d="M356.581,433.683l-4.642-4.641c-12.297,6.173-25.912,9.404-39.839,9.404c-16.354,0-32.022-4.385-45.66-12.591H98.514
		l0.014-299.904h53.791c5.596,0,10.131-4.533,10.131-10.132V60.401h198.906v215.583c4.792,3.208,9.305,6.908,13.473,11.076
		c5.372,5.373,10.001,11.404,13.801,17.907V57.671c0-13.535-11.012-24.543-24.547-24.543H148.998c-2.172,0-4.252,0.862-5.785,2.395
		L73.65,105.083c-1.533,1.54-2.396,3.619-2.396,5.787v317.715c0,13.534,11.012,24.543,24.545,24.543h272.064l-0.284-0.253
		l-1.748-1.749C361.048,446.342,357.845,440.262,356.581,433.683z"/>
	<path d="M434.478,442.333l-34.77-34.769c-3.838-3.836-8.77-5.906-13.79-6.222l-11.81-11.81
		c17.546-27.895,14.188-65.27-10.076-89.535c-28.167-28.167-73.995-28.166-102.162,0c-28.165,28.166-28.165,73.995,0.001,102.161
		c24.265,24.266,61.64,27.622,89.534,10.077l11.811,11.809c0.315,5.021,2.385,9.953,6.222,13.79l34.77,34.77
		c8.359,8.36,21.911,8.358,30.271,0C442.835,464.244,442.837,450.692,434.478,442.333z M348.896,387.023
		c-19.82,19.819-52.07,19.819-71.89,0c-19.821-19.822-19.821-52.071-0.001-71.891s52.068-19.82,71.891,0.001
		C368.716,334.953,368.716,367.202,348.896,387.023z"/>
	<path d="M299.671,94.849h-99.053c-3.772,0-6.831,3.058-6.831,6.831v74.391c0,3.772,3.059,6.831,6.831,6.831h99.053
		c3.773,0,6.831-3.059,6.831-6.831v-22.652l22.583,22.583c1.307,1.307,3.054,2,4.832,2c0.88,0,1.768-0.17,2.613-0.521
		c2.553-1.057,4.217-3.548,4.217-6.311v-64.59c0-2.763-1.664-5.254-4.217-6.312c-2.552-1.057-5.49-0.473-7.445,1.48l-22.583,22.583
		V101.68C306.502,97.907,303.444,94.849,299.671,94.849z"/>
</g>
</svg>
