<?xml version="1.0" encoding="utf-8"?>
<!-- Generator: Adobe Illustrator 16.0.0, SVG Export Plug-In . SVG Version: 6.00 Build 0)  -->
<!DOCTYPE svg PUBLIC "-//W3C//DTD SVG 1.1//EN" "http://www.w3.org/Graphics/SVG/1.1/DTD/svg11.dtd">
<svg version="1.1" id="Layer_1" xmlns="http://www.w3.org/2000/svg" xmlns:xlink="http://www.w3.org/1999/xlink" x="0px" y="0px"
	 width="512px" height="512px" viewBox="0 0 512 512" enable-background="new 0 0 512 512" xml:space="preserve">
<g>
	<path d="M393.001,49.354H41.5c-10.218,0-18.5,8.283-18.5,18.5v289.476c0,10.218,8.282,18.5,18.5,18.5h262.662l-20.326-23.572
		h-48.548v-29.601h25.435l-0.183-0.224c-6.49-7.407-10.784-15.06-12.85-22.429H67.4V125.179h299.7v174.825h-40.213
		c6.104,6.487,12.491,13.053,17.851,18.369c3.759-3.521,8.193-7.416,13.159-11.315c16.925-13.288,33.388-21.414,48.932-24.151
		c1.563-0.275,3.121-0.481,4.672-0.649V67.854C411.501,57.637,403.219,49.354,393.001,49.354z M152.038,322.656h47.175v29.601
		h-47.175V322.656z M68.787,322.656h47.176v29.601H68.787V322.656z M115.963,102.525H68.787v-29.6h47.176V102.525z M199.213,102.525
		h-47.175v-29.6h47.175V102.525z M282.463,102.525h-47.175v-29.6h47.175V102.525z M365.713,102.525h-47.175v-29.6h47.175V102.525z"
		/>
	<path d="M487.662,377.329c-4.595-24.766-20.357-47.663-29.344-59.112c-12.191-15.53-27.666-21.766-45.99-18.538
		c-13.086,2.305-27.307,9.429-42.27,21.177c-10.574,8.303-18.558,16.611-22.088,20.479c-8.874-7.643-33.653-33.175-45.818-47.572
		c-6.109-7.23-21.865-22.605-33.621-11.991c-12.654,12.3,5.882,32.396,6.364,32.978l74.362,91.025
		c-0.301,0.404-0.637,0.752-1.023,1.055c-7.131,5.6-27.943-4.691-36.342-10.245c-7.68-5.076-20.611-5.037-27.137,0.085
		c-2.613,2.053-4.059,4.842-4.076,7.854c-0.021,4.337,2.816,8.82,8.423,13.313c0.062,0.051,0.175,0.15,0.337,0.289
		c8.287,7.1,30.764,24.783,60.447,35.668c19.027,6.979,37.564,9.854,55.102,8.55c21.754-1.621,42.025-9.694,60.246-23.999
		C484.781,422.994,492.327,402.465,487.662,377.329z"/>
	<path d="M198.976,150.427c-2.845-2.387-6.815-2.905-10.183-1.335c-3.365,1.57-5.517,4.948-5.517,8.662v100.832
		c0,3.715,2.151,7.092,5.517,8.662c1.291,0.604,2.671,0.898,4.042,0.898c2.204,0,4.386-0.763,6.141-2.233l60.163-50.416
		c2.168-1.817,3.419-4.501,3.419-7.328s-1.251-5.511-3.419-7.327L198.976,150.427z"/>
</g>
</svg>
