<?xml version="1.0" encoding="utf-8"?>
<!-- Generator: Adobe Illustrator 16.0.0, SVG Export Plug-In . SVG Version: 6.00 Build 0)  -->
<!DOCTYPE svg PUBLIC "-//W3C//DTD SVG 1.1//EN" "http://www.w3.org/Graphics/SVG/1.1/DTD/svg11.dtd">
<svg version="1.1" id="Layer_1" xmlns="http://www.w3.org/2000/svg" xmlns:xlink="http://www.w3.org/1999/xlink" x="0px" y="0px"
	 width="512px" height="512px" viewBox="0 0 512 512" enable-background="new 0 0 512 512" xml:space="preserve">
<g>
	<path d="M337.547,199.478c-0.456-2.581-2.917-4.305-5.501-3.851l-17.05,3.005c-2.047-4.803-4.662-9.302-7.764-13.418l11.139-13.272
		c0.809-0.965,1.201-2.211,1.094-3.466c-0.111-1.256-0.715-2.414-1.68-3.225l-14.913-12.514c-0.964-0.809-2.213-1.202-3.467-1.093
		c-1.255,0.109-2.414,0.714-3.224,1.678l-11.129,13.265c-4.567-2.326-9.45-4.123-14.572-5.306v-17.311
		c0-2.624-2.125-4.751-4.748-4.751h-19.466c-2.622,0-4.748,2.127-4.748,4.751v17.311c-5.122,1.183-10.004,2.979-14.572,5.306
		l-11.128-13.265c-1.688-2.008-4.682-2.27-6.69-0.584l-14.913,12.513c-0.966,0.811-1.568,1.969-1.68,3.225
		c-0.107,1.255,0.284,2.501,1.094,3.466l11.138,13.272c-3.102,4.116-5.716,8.617-7.763,13.418l-17.05-3.005
		c-2.579-0.454-5.045,1.27-5.501,3.851l-3.381,19.173c-0.218,1.24,0.064,2.519,0.788,3.549c0.722,1.032,1.823,1.733,3.064,1.951
		l17.063,3.011c0.277,5.284,1.197,10.398,2.68,15.268l-14.994,8.657c-1.092,0.631-1.886,1.665-2.213,2.882
		c-0.325,1.219-0.154,2.514,0.475,3.604l9.733,16.86c0.63,1.092,1.667,1.886,2.885,2.212c0.403,0.109,0.816,0.163,1.229,0.163
		c0.826,0,1.645-0.216,2.373-0.637l15.009-8.665c3.533,3.778,7.518,7.128,11.868,9.967l-5.926,16.277
		c-0.43,1.184-0.375,2.49,0.158,3.631c0.533,1.142,1.496,2.024,2.68,2.456l18.294,6.658c0.524,0.191,1.075,0.286,1.625,0.286
		c0.686,0,1.371-0.149,2.005-0.445c1.142-0.532,2.025-1.496,2.456-2.679l5.925-16.279c2.54,0.306,5.127,0.468,7.75,0.468
		s5.21-0.162,7.75-0.468l5.926,16.279c0.43,1.183,1.313,2.146,2.455,2.679c0.635,0.296,1.318,0.445,2.007,0.445
		c0.548,0,1.099-0.096,1.623-0.286l18.294-6.658c1.184-0.432,2.147-1.314,2.68-2.457c0.533-1.141,0.589-2.446,0.158-3.63
		l-5.926-16.277c4.35-2.839,8.335-6.188,11.868-9.967l15.009,8.664c0.729,0.422,1.547,0.637,2.373,0.637
		c0.412,0,0.826-0.053,1.229-0.162c1.218-0.326,2.253-1.12,2.884-2.212l9.734-16.86c0.629-1.09,0.8-2.385,0.475-3.604
		c-0.327-1.217-1.123-2.253-2.213-2.882l-14.994-8.657c1.482-4.87,2.402-9.983,2.68-15.268l17.063-3.011
		c1.241-0.218,2.341-0.919,3.064-1.951c0.724-1.031,1.006-2.309,0.788-3.549L337.547,199.478z M256,249.117
		c-14.424,0-26.117-11.692-26.117-26.116s11.693-26.116,26.117-26.116s26.117,11.692,26.117,26.116S270.424,249.117,256,249.117z"/>
	<path d="M422.684,80.971H89.316C70.945,80.971,56,95.917,56,114.288v217.272c0,18.371,14.945,33.317,33.316,33.317h107.412
		l-20.387,44.956c-2.105,4.643-1.709,10.037,1.053,14.321c2.762,4.285,7.51,6.874,12.607,6.874h131.996c0,0,0.014-0.001,0.02,0
		c8.285,0,15-6.716,15-15c0-2.494-0.607-4.847-1.686-6.916l-20.061-44.235h107.412c18.371,0,33.316-14.946,33.316-33.317V114.288
		C456,95.917,441.055,80.971,422.684,80.971z M426,331.561c0,1.829-1.488,3.317-3.316,3.317H89.316
		c-1.828,0-3.316-1.488-3.316-3.317V114.288c0-1.829,1.488-3.317,3.316-3.317h333.367c1.828,0,3.316,1.488,3.316,3.317V331.561z"/>
</g>
</svg>
