<?xml version="1.0" encoding="utf-8"?>
<!-- Generator: Adobe Illustrator 16.0.0, SVG Export Plug-In . SVG Version: 6.00 Build 0)  -->
<!DOCTYPE svg PUBLIC "-//W3C//DTD SVG 1.1//EN" "http://www.w3.org/Graphics/SVG/1.1/DTD/svg11.dtd">
<svg version="1.1" id="Layer_1" xmlns="http://www.w3.org/2000/svg" xmlns:xlink="http://www.w3.org/1999/xlink" x="0px" y="0px"
	 width="512px" height="512px" viewBox="0 0 512 512" enable-background="new 0 0 512 512" xml:space="preserve">
<g>
	<path d="M442.498,77.84H69.502c-11.047,0-20,8.954-20,20v234c0,11.046,8.953,20,20,20H209v45.32h-54.283
		c-10.201,0-18.5,8.299-18.5,18.5s8.299,18.5,18.5,18.5h202.566c10.201,0,18.5-8.299,18.5-18.5s-8.299-18.5-18.5-18.5H303v-45.32
		h139.498c11.047,0,20-8.954,20-20v-234C462.498,86.794,453.545,77.84,442.498,77.84z M432.498,321.84H79.502v-214h352.996V321.84z"
		/>
	<path d="M144.093,226.139l63.084,29.336c1.631,0.755,3.367,1.138,5.162,1.138c2.338,0,4.616-0.664,6.597-1.924
		c3.548-2.267,5.666-6.13,5.666-10.335v-0.322c0-4.751-2.785-9.115-7.096-11.119l-39.455-18.33l39.456-18.334
		c4.31-2.004,7.095-6.369,7.095-11.118v-0.319c0-4.211-2.119-8.074-5.665-10.334c-1.962-1.254-4.247-1.916-6.606-1.916
		c-1.778,0-3.563,0.391-5.16,1.133l-63.079,29.332c-4.308,2.005-7.091,6.369-7.091,11.117v0.878
		C137,219.764,139.782,224.127,144.093,226.139z"/>
	<path d="M225.164,285.891c2.301,3.149,6.002,5.029,9.901,5.029h0.315c5.352,0,10.042-3.426,11.672-8.516l41.556-128.76
		c1.193-3.717,0.531-7.818-1.771-10.974c-2.301-3.149-6.002-5.03-9.902-5.03h-0.315c-5.354,0-10.048,3.426-11.679,8.516
		l-41.559,128.771C222.2,278.646,222.866,282.744,225.164,285.891z"/>
	<path d="M287.398,185.13c0,4.746,2.783,9.11,7.095,11.122l39.455,18.33l-39.455,18.33c-4.31,2.004-7.095,6.368-7.095,11.119v0.322
		c0,4.205,2.118,8.068,5.668,10.336c1.974,1.258,4.254,1.923,6.595,1.923c1.792,0,3.528-0.383,5.169-1.142l63.081-29.335
		c4.307-2.009,7.089-6.372,7.089-11.115v-0.878c0-4.748-2.783-9.112-7.093-11.117l-63.08-29.334
		c-1.591-0.739-3.373-1.131-5.152-1.131c-2.358,0-4.643,0.662-6.605,1.912c-3.552,2.264-5.671,6.127-5.671,10.338V185.13z"/>
</g>
</svg>
