<?xml version="1.0" encoding="utf-8"?>
<!-- Generator: Adobe Illustrator 16.0.0, SVG Export Plug-In . SVG Version: 6.00 Build 0)  -->
<!DOCTYPE svg PUBLIC "-//W3C//DTD SVG 1.1//EN" "http://www.w3.org/Graphics/SVG/1.1/DTD/svg11.dtd">
<svg version="1.1" id="Layer_1" xmlns="http://www.w3.org/2000/svg" xmlns:xlink="http://www.w3.org/1999/xlink" x="0px" y="0px"
	 width="512px" height="512px" viewBox="0 0 512 512" enable-background="new 0 0 512 512" xml:space="preserve">
<path d="M428.526,77.858H83.474c-12.995,0-23.568,10.573-23.568,23.569v309.146c0,12.996,10.573,23.569,23.568,23.569h345.053
	c12.995,0,23.568-10.573,23.568-23.569V101.427C452.095,88.432,441.521,77.858,428.526,77.858z M397.932,117.435
	c0-4.806,3.896-8.703,8.703-8.703h8.702c4.805,0,8.702,3.896,8.702,8.703v9.863c0,4.806-3.897,8.702-8.702,8.702h-8.702
	c-4.807,0-8.703-3.896-8.703-8.702V117.435z M357.466,117.435c0-4.806,3.896-8.703,8.702-8.703h8.703
	c4.806,0,8.702,3.896,8.702,8.703v9.863c0,4.806-3.896,8.702-8.702,8.702h-8.703c-4.806,0-8.702-3.896-8.702-8.702V117.435z
	 M317,117.435c0-4.806,3.896-8.703,8.702-8.703h8.702c4.807,0,8.703,3.896,8.703,8.703v9.863c0,4.806-3.896,8.702-8.703,8.702
	h-8.702c-4.806,0-8.702-3.896-8.702-8.702V117.435z M88.188,162.142h335.623v95.583l-9.915-6.561
	c-1.344-0.889-2.99-1.208-4.567-0.886c-1.579,0.321-2.968,1.258-3.858,2.603l-12.231,18.488c-6.147-2.297-12.62-3.873-19.304-4.634
	l-2.514-22.023c-0.38-3.335-3.396-5.731-6.73-5.351l-24.765,2.827c-3.333,0.38-5.731,3.395-5.351,6.729l2.514,22.023
	c-6.342,2.248-12.293,5.241-17.766,8.864l-16.083-15.257c-2.434-2.31-6.284-2.208-8.595,0.227l-17.152,18.084
	c-1.111,1.169-1.711,2.732-1.67,4.344c0.045,1.611,0.725,3.141,1.895,4.25l16.096,15.267c-3.346,5.686-6.021,11.791-7.928,18.198
	l-22.123-1.349c-3.348-0.204-6.235,2.347-6.438,5.698l-1.519,24.879c-0.096,1.609,0.449,3.192,1.518,4.399
	c1.07,1.208,2.57,1.941,4.182,2.04l22.143,1.349c1.12,6.684,3.035,13.055,5.625,19.035l-17.814,13.188
	c-1.297,0.96-2.158,2.394-2.398,3.989c-0.236,1.595,0.171,3.219,1.127,4.515l2.368,3.199H88.188V162.142z M360.682,314.127
	c18.348-2.094,34.921,11.083,37.015,29.43s-11.085,34.919-29.433,37.013s-34.921-11.083-37.015-29.43
	S342.334,316.222,360.682,314.127z"/>
</svg>
