<?xml version="1.0" encoding="utf-8"?>
<!-- Generator: Adobe Illustrator 16.0.0, SVG Export Plug-In . SVG Version: 6.00 Build 0)  -->
<!DOCTYPE svg PUBLIC "-//W3C//DTD SVG 1.1//EN" "http://www.w3.org/Graphics/SVG/1.1/DTD/svg11.dtd">
<svg version="1.1" id="Layer_1" xmlns="http://www.w3.org/2000/svg" xmlns:xlink="http://www.w3.org/1999/xlink" x="0px" y="0px"
	 width="512px" height="512px" viewBox="0 0 512 512" enable-background="new 0 0 512 512" xml:space="preserve">
<g>
	<path d="M428.527,77.858H83.474c-12.995,0-23.568,10.573-23.568,23.569v309.146c0,12.996,10.573,23.569,23.568,23.569h345.054
		c12.994,0,23.566-10.573,23.566-23.569V101.427C452.094,88.432,441.521,77.858,428.527,77.858z M357.466,117.435
		c0-4.806,3.896-8.703,8.702-8.703h8.703c4.806,0,8.701,3.896,8.701,8.703v9.863c0,4.806-3.896,8.702-8.701,8.702h-8.703
		c-4.806,0-8.702-3.896-8.702-8.702V117.435z M317,117.435c0-4.806,3.897-8.703,8.702-8.703h8.702c4.807,0,8.703,3.896,8.703,8.703
		v9.863c0,4.806-3.896,8.702-8.703,8.702h-8.702c-4.805,0-8.702-3.896-8.702-8.702V117.435z M423.811,405.858H88.188V162.142
		h335.622V405.858z M424.039,127.298c0,4.806-3.897,8.702-8.702,8.702h-8.702c-4.807,0-8.703-3.896-8.703-8.702v-9.863
		c0-4.806,3.896-8.703,8.703-8.703h8.702c4.805,0,8.702,3.896,8.702,8.703V127.298z"/>
	<path d="M139.268,286.595l-3.102,18.082c-0.457,2.668,0.621,5.313,2.808,6.901c1.213,0.882,2.647,1.348,4.147,1.348
		c1.141,0,2.276-0.281,3.284-0.812l16.237-8.537l16.234,8.535c2.335,1.231,5.299,1.017,7.434-0.534
		c2.188-1.589,3.266-4.233,2.81-6.903l-3.101-18.081l13.136-12.807c1.937-1.888,2.62-4.659,1.784-7.23
		c-0.822-2.536-3.059-4.421-5.697-4.804l-18.154-2.639l-8.117-16.448c-1.195-2.428-3.62-3.936-6.328-3.936
		c-2.704,0-5.129,1.507-6.329,3.934l-8.117,16.449l-18.153,2.638c-2.678,0.389-4.861,2.229-5.696,4.802
		c-0.838,2.574-0.153,5.345,1.784,7.233L139.268,286.595z"/>
	<path d="M232.624,286.595l-3.102,18.083c-0.454,2.669,0.622,5.313,2.81,6.9c1.214,0.881,2.647,1.348,4.146,1.348
		c1.14,0,2.275-0.281,3.283-0.812L256,303.577l16.237,8.536c2.342,1.231,5.306,1.011,7.43-0.535c2.188-1.588,3.265-4.232,2.81-6.904
		l-3.101-18.08l13.134-12.805c1.937-1.885,2.622-4.655,1.788-7.235c-0.838-2.573-3.022-4.413-5.698-4.801l-18.156-2.639
		l-8.117-16.447c-1.176-2.392-3.659-3.937-6.326-3.937s-5.15,1.545-6.326,3.934l-8.118,16.449l-18.154,2.638
		c-2.677,0.389-4.861,2.229-5.701,4.806c-0.832,2.575-0.146,5.346,1.788,7.229L232.624,286.595z"/>
	<path d="M325.98,286.595l-3.101,18.082c-0.456,2.668,0.621,5.313,2.809,6.901c1.214,0.881,2.648,1.348,4.147,1.348
		c1.139,0,2.275-0.281,3.283-0.812l16.237-8.537l16.236,8.536c2.333,1.23,5.297,1.017,7.435-0.535
		c2.188-1.59,3.264-4.234,2.807-6.903l-3.102-18.08l13.136-12.805c1.938-1.889,2.623-4.66,1.786-7.232
		c-0.836-2.574-3.02-4.415-5.697-4.803l-18.153-2.639l-8.119-16.45c-1.198-2.426-3.624-3.934-6.328-3.934
		c-2.706,0-5.132,1.508-6.327,3.934l-8.117,16.449l-18.154,2.638c-2.639,0.383-4.875,2.269-5.697,4.803
		c-0.836,2.572-0.152,5.343,1.783,7.232L325.98,286.595z"/>
</g>
</svg>
