<?xml version="1.0" encoding="utf-8"?>
<!-- Generator: Adobe Illustrator 16.0.0, SVG Export Plug-In . SVG Version: 6.00 Build 0)  -->
<!DOCTYPE svg PUBLIC "-//W3C//DTD SVG 1.1//EN" "http://www.w3.org/Graphics/SVG/1.1/DTD/svg11.dtd">
<svg version="1.1" id="Layer_1" xmlns="http://www.w3.org/2000/svg" xmlns:xlink="http://www.w3.org/1999/xlink" x="0px" y="0px"
	 width="512px" height="512px" viewBox="0 0 512 512" enable-background="new 0 0 512 512" xml:space="preserve">
<g>
	<path d="M422.684,80.971H89.316C70.945,80.971,56,95.917,56,114.288v217.272c0,18.371,14.945,33.317,33.316,33.317h107.412
		l-20.387,44.956c-2.105,4.643-1.709,10.037,1.053,14.321c2.762,4.285,7.51,6.874,12.607,6.874h131.996
		c0.006-0.001,0.014-0.001,0.02,0c8.285,0,15-6.716,15-15c0-2.494-0.607-4.847-1.686-6.916l-20.061-44.235h107.412
		c18.371,0,33.316-14.946,33.316-33.317V114.288C456,95.917,441.055,80.971,422.684,80.971z M426,331.561
		c0,1.829-1.488,3.317-3.316,3.317H89.316c-1.828,0-3.316-1.488-3.316-3.317V114.288c0-1.829,1.488-3.317,3.316-3.317h333.367
		c1.828,0,3.316,1.488,3.316,3.317V331.561z"/>
	<path d="M302.198,152.434c-1.055-1.056-2.921-0.9-4.166,0.344l-16.273,16.271c-1.247,1.247-1.402,3.116-0.348,4.171l23.102,23.102
		c0.526,0.526,1.26,0.751,2.013,0.689c0.755-0.063,1.531-0.413,2.158-1.038l16.271-16.272c1.244-1.245,1.4-3.111,0.343-4.166
		L302.198,152.434z"/>
	<path d="M202.336,253.582c-0.684-0.684-1.748-0.882-2.791-0.523c-1.042,0.359-1.902,1.226-2.257,2.271l-11.118,32.934
		c-0.353,1.037-0.148,2.089,0.532,2.768c0.512,0.516,1.24,0.757,2.011,0.693c0.248-0.022,0.503-0.073,0.756-0.16l32.934-11.12
		c1.044-0.354,1.912-1.215,2.27-2.256c0.362-1.041,0.162-2.108-0.521-2.792L202.336,253.582z"/>
	<path d="M285.504,238.228c1.451-0.662,2.509-1.965,2.859-3.519c0.35-1.555-0.046-3.185-1.071-4.405
		c-1.92-2.283-3.929-4.604-5.997-6.941l18.078-18.077c0.596-0.597,0.972-1.375,1.033-2.157c0.066-0.779-0.184-1.505-0.689-2.01
		l-23.103-23.101c-1.055-1.058-2.92-0.903-4.167,0.344l-17.63,17.633c-11.824-11.209-23.699-21.209-34.165-28.732
		c-7.369-5.296-20.85-14.199-28.355-14.313c-1.37-0.024-2.695,0.512-3.668,1.479c-0.976,0.966-1.519,2.285-1.508,3.657
		c0.039,5.114,4.528,14.341,12.639,25.977c7.72,11.075,18.326,23.802,30.426,36.563l-23,23.002
		c-1.248,1.247-1.403,3.111-0.346,4.166l23.103,23.101c0.525,0.531,1.254,0.755,2.011,0.691c0.752-0.063,1.533-0.414,2.155-1.035
		l23.446-23.447c2.046,1.811,4.077,3.571,6.079,5.268c0.928,0.787,2.097,1.209,3.296,1.209c0.271,0,0.543-0.022,0.815-0.065
		c1.471-0.239,2.765-1.109,3.539-2.383c1.369-2.248,3.152-4.479,5.301-6.626C279.281,241.806,282.284,239.693,285.504,238.228z"/>
	<path d="M298.292,242.495c-5.938,0-11.606,2.531-16.395,7.32c-5.749,5.748-8.257,11.777-7.256,17.437
		c0.993,5.606,5.446,10.627,12.218,13.771c5.828,2.707,11.138,3.546,15.823,4.287c4.93,0.778,9.585,1.514,13.724,4.325
		c0.859,0.585,1.861,0.882,2.866,0.882c0.706,0,1.415-0.146,2.079-0.444c1.613-0.719,2.74-2.225,2.975-3.977
		c1.777-13.241-0.763-25.132-7.152-33.476C312.245,246.186,305.363,242.495,298.292,242.495z"/>
</g>
</svg>
