<?xml version="1.0" encoding="utf-8"?>
<!-- Generator: Adobe Illustrator 16.0.0, SVG Export Plug-In . SVG Version: 6.00 Build 0)  -->
<!DOCTYPE svg PUBLIC "-//W3C//DTD SVG 1.1//EN" "http://www.w3.org/Graphics/SVG/1.1/DTD/svg11.dtd">
<svg version="1.1" id="Layer_1" xmlns="http://www.w3.org/2000/svg" xmlns:xlink="http://www.w3.org/1999/xlink" x="0px" y="0px"
	 width="512px" height="512px" viewBox="0 0 512 512" enable-background="new 0 0 512 512" xml:space="preserve">
<g>
	<path d="M428.528,77.859H83.474c-12.995,0-23.568,10.572-23.568,23.568v309.145c0,12.996,10.573,23.569,23.568,23.569h345.054
		c12.994,0,23.566-10.573,23.566-23.569V101.428C452.094,88.432,441.522,77.859,428.528,77.859z M357.466,117.435
		c0-4.806,3.896-8.702,8.702-8.702h8.703c4.806,0,8.701,3.896,8.701,8.702v9.863c0,4.806-3.896,8.702-8.701,8.702h-8.703
		c-4.806,0-8.702-3.896-8.702-8.702V117.435z M317,117.435c0-4.806,3.897-8.702,8.702-8.702h8.702c4.807,0,8.703,3.896,8.703,8.702
		v9.863c0,4.806-3.896,8.702-8.703,8.702h-8.702c-4.805,0-8.702-3.896-8.702-8.702V117.435z M423.811,405.859H88.189V162.142
		h335.622V405.859z M424.04,127.298c0,4.806-3.897,8.702-8.702,8.702h-8.702c-4.807,0-8.703-3.896-8.703-8.702v-9.863
		c0-4.806,3.896-8.702,8.703-8.702h8.702c4.805,0,8.702,3.896,8.702,8.702V127.298z"/>
	<path d="M168.269,319.495c12.829,10.133,25.927,18.229,38.928,24.052c16.518,7.401,32.938,11.154,48.803,11.154
		s32.286-3.753,48.803-11.154c13.001-5.822,26.099-13.919,38.928-24.052c21.716-17.15,35.109-34.136,35.667-34.85
		c2.136-2.729,2.136-6.565,0-9.295c-0.558-0.713-13.951-17.699-35.667-34.85c-12.829-10.133-25.927-18.229-38.928-24.052
		c-16.518-7.401-32.938-11.154-48.803-11.154s-32.286,3.753-48.803,11.154c-13.001,5.822-26.099,13.919-38.928,24.052
		c-21.716,17.15-35.109,34.137-35.667,34.85c-2.136,2.729-2.136,6.565,0,9.295C133.16,285.359,146.553,302.345,168.269,319.495z
		 M256,236.592c21.843,0,39.548,17.71,39.548,39.548c0,21.845-17.705,39.549-39.548,39.549s-39.548-17.704-39.548-39.549
		C216.452,254.302,234.157,236.592,256,236.592z"/>
</g>
</svg>
