<?xml version="1.0" encoding="utf-8"?>
<!-- Generator: Adobe Illustrator 16.0.0, SVG Export Plug-In . SVG Version: 6.00 Build 0)  -->
<!DOCTYPE svg PUBLIC "-//W3C//DTD SVG 1.1//EN" "http://www.w3.org/Graphics/SVG/1.1/DTD/svg11.dtd">
<svg version="1.1" id="Layer_1" xmlns="http://www.w3.org/2000/svg" xmlns:xlink="http://www.w3.org/1999/xlink" x="0px" y="0px"
	 width="512px" height="512px" viewBox="0 0 512 512" enable-background="new 0 0 512 512" xml:space="preserve">
<g>
	<path d="M191.18,206.051h-0.764c-2.803,0-5.289,1.796-6.17,4.455l-11.943,36.043l-11.998-36.051
		c-0.885-2.656-3.369-4.447-6.168-4.447h-1.1c-2.803,0-5.289,1.796-6.17,4.455l-11.943,36.043l-11.998-36.051
		c-0.885-2.656-3.369-4.447-6.168-4.447h-0.764c-2.096,0-4.063,1.01-5.283,2.713s-1.545,3.891-0.873,5.875l18.432,54.355
		c0.893,2.638,3.369,4.412,6.154,4.412h0.426c0.029,0,0.059-0.004,0.088-0.005c0.029,0.001,0.059,0.005,0.088,0.005h0.344
		c2.789,0,5.27-1.78,6.16-4.425l12.084-35.878l12.027,35.869c0.889,2.648,3.369,4.434,6.164,4.434h0.424
		c0.029,0,0.059-0.004,0.088-0.005c0.029,0.001,0.059,0.005,0.088,0.005h0.344c2.785,0,5.262-1.774,6.156-4.412l18.43-54.355
		c0.674-1.984,0.35-4.172-0.871-5.875S193.275,206.051,191.18,206.051z"/>
	<path d="M281.336,206.051h-0.764c-2.803,0-5.289,1.796-6.17,4.455l-11.943,36.043l-11.998-36.051
		c-0.885-2.656-3.369-4.447-6.168-4.447h-1.1c-2.803,0-5.289,1.796-6.17,4.455l-11.943,36.043l-11.998-36.051
		c-0.885-2.656-3.369-4.447-6.168-4.447h-0.764c-2.096,0-4.063,1.01-5.283,2.713s-1.545,3.891-0.873,5.875l18.432,54.355
		c0.893,2.638,3.369,4.412,6.154,4.412h0.426c0.029,0,0.059-0.004,0.088-0.005c0.029,0.001,0.059,0.005,0.088,0.005h0.344
		c2.789,0,5.27-1.78,6.16-4.425l12.084-35.878l12.027,35.869c0.889,2.648,3.369,4.434,6.164,4.434h0.424
		c0.029,0,0.059-0.004,0.088-0.005c0.029,0.001,0.059,0.005,0.088,0.005h0.344c2.785,0,5.262-1.774,6.156-4.412l18.43-54.355
		c0.674-1.984,0.35-4.172-0.871-5.875S283.432,206.051,281.336,206.051z"/>
	<path d="M371.492,206.051h-0.764c-2.803,0-5.289,1.796-6.17,4.455l-11.943,36.043l-11.998-36.051
		c-0.885-2.656-3.369-4.447-6.168-4.447h-1.1c-2.803,0-5.289,1.796-6.17,4.455l-11.943,36.043l-11.998-36.051
		c-0.885-2.656-3.369-4.447-6.168-4.447h-0.764c-2.096,0-4.063,1.01-5.283,2.713s-1.545,3.891-0.873,5.875l18.432,54.355
		c0.893,2.638,3.369,4.412,6.154,4.412h0.426c0.029,0,0.059-0.004,0.088-0.005c0.029,0.001,0.059,0.005,0.088,0.005h0.344
		c2.789,0,5.27-1.78,6.16-4.425l12.084-35.878l12.027,35.869c0.889,2.648,3.369,4.434,6.164,4.434h0.424
		c0.029,0,0.059-0.004,0.088-0.005c0.029,0.001,0.059,0.005,0.088,0.005h0.344c2.785,0,5.262-1.774,6.156-4.412l18.43-54.355
		c0.674-1.984,0.35-4.172-0.871-5.875S373.588,206.051,371.492,206.051z"/>
	<path d="M75.932,396.391V152.674h335.621v139.452c6.734-5.788,15.211-8.954,24.182-8.954c1.381,0,2.748,0.083,4.102,0.23V91.959
		c0-12.996-10.572-23.568-23.566-23.568H71.217c-12.998,0-23.568,10.572-23.568,23.568v309.146c0,12.995,10.57,23.569,23.568,23.569
		h224.848c-5.428-8.516-9.375-18.061-11.441-28.283H75.932z M385.674,107.967c0-4.807,3.895-8.703,8.703-8.703h8.703
		c4.805,0,8.701,3.896,8.701,8.703v9.863c0,4.805-3.896,8.701-8.701,8.701h-8.703c-4.809,0-8.703-3.896-8.703-8.701V107.967z
		 M345.209,107.967c0-4.807,3.896-8.703,8.701-8.703h8.703c4.807,0,8.701,3.896,8.701,8.703v9.863c0,4.805-3.895,8.701-8.701,8.701
		h-8.703c-4.805,0-8.701-3.896-8.701-8.701V107.967z M304.742,107.967c0-4.807,3.898-8.703,8.703-8.703h8.701
		c4.805,0,8.703,3.896,8.703,8.703v9.863c0,4.805-3.898,8.701-8.703,8.701h-8.701c-4.805,0-8.703-3.896-8.703-8.701V107.967z"/>
	<path d="M464.352,333.184c0-4.586-1.785-8.896-5.029-12.141l-12.844-12.844c-3.242-3.242-7.553-5.027-12.137-5.027
		s-8.895,1.785-12.139,5.029l-19.602,19.6c-10.469-7.506-23.303-11.928-37.168-11.928c-35.275,0-63.869,28.596-63.869,63.869
		c0,35.271,28.594,63.867,63.869,63.867c35.273,0,63.867-28.596,63.867-63.867c0-1.43-0.051-2.848-0.145-4.254l30.166-30.166
		C462.564,342.08,464.352,337.768,464.352,333.184z M445.383,337l-61.426,61.428c-1.295,1.295-3.051,2.021-4.881,2.021h-0.002
		c-1.834,0-3.588-0.729-4.883-2.023l-28.465-28.51c-2.691-2.695-2.689-7.064,0.004-9.758l5.482-5.48
		c2.693-2.693,7.059-2.695,9.754-0.006l18.105,18.057l51.02-51.02c1.295-1.295,3.051-2.021,4.881-2.021s3.586,0.727,4.881,2.021
		l5.529,5.531C448.078,329.936,448.078,334.305,445.383,337z"/>
</g>
</svg>
