<?xml version="1.0" encoding="utf-8"?>
<!-- Generator: Adobe Illustrator 16.0.0, SVG Export Plug-In . SVG Version: 6.00 Build 0)  -->
<!DOCTYPE svg PUBLIC "-//W3C//DTD SVG 1.1//EN" "http://www.w3.org/Graphics/SVG/1.1/DTD/svg11.dtd">
<svg version="1.1" id="Layer_1" xmlns="http://www.w3.org/2000/svg" xmlns:xlink="http://www.w3.org/1999/xlink" x="0px" y="0px"
	 width="512px" height="512px" viewBox="0 0 512 512" enable-background="new 0 0 512 512" xml:space="preserve">
<g>
	<path d="M428.526,77.858H83.474c-12.995,0-23.568,10.573-23.568,23.569v309.146c0,12.996,10.573,23.569,23.568,23.569h345.053
		c12.995,0,23.568-10.573,23.568-23.569V101.427C452.095,88.432,441.521,77.858,428.526,77.858z M357.466,117.435
		c0-4.806,3.896-8.703,8.702-8.703h8.703c4.806,0,8.702,3.896,8.702,8.703v9.863c0,4.806-3.896,8.702-8.702,8.702h-8.703
		c-4.806,0-8.702-3.896-8.702-8.702V117.435z M317,117.435c0-4.806,3.897-8.703,8.702-8.703h8.702c4.807,0,8.703,3.896,8.703,8.703
		v9.863c0,4.806-3.896,8.702-8.703,8.702h-8.702c-4.805,0-8.702-3.896-8.702-8.702V117.435z M423.812,405.858H88.188V162.142
		h335.623V405.858z M424.039,127.298c0,4.806-3.897,8.702-8.702,8.702h-8.702c-4.807,0-8.703-3.896-8.703-8.702v-9.863
		c0-4.806,3.896-8.703,8.703-8.703h8.702c4.805,0,8.702,3.896,8.702,8.703V127.298z"/>
	<path d="M387.641,340.181c-0.094-36.363-13.687-70.57-38.298-96.357c-24.89-26.08-58.04-40.443-93.342-40.443
		s-68.453,14.363-93.342,40.443c-24.698,25.878-38.299,60.234-38.299,96.738c0,1.933,1.567,3.5,3.5,3.5h24.636
		c1.933,0,3.5-1.567,3.5-3.5c0-58.199,44.862-105.546,100.006-105.546s100.006,47.348,100.006,105.546c0,1.933,1.567,3.5,3.5,3.5
		h24.635c0.006,0,0.012,0,0.02,0c1.933,0,3.5-1.567,3.5-3.5C387.661,340.433,387.654,340.306,387.641,340.181z"/>
	<path d="M266.525,299.006l-38.966-41.169c-0.872-0.921-2.27-1.099-3.343-0.429c-1.075,0.67-1.53,2.004-1.086,3.191l19.838,53.103
		c-2.993,7.171-2.352,15.277,1.782,21.903c6.994,11.211,21.802,14.643,33.013,7.65c11.212-6.994,14.643-21.803,7.65-33.014
		C281.281,303.613,274.283,299.475,266.525,299.006z"/>
</g>
</svg>
