<?xml version="1.0" encoding="utf-8"?>
<!-- Generator: Adobe Illustrator 16.0.0, SVG Export Plug-In . SVG Version: 6.00 Build 0)  -->
<!DOCTYPE svg PUBLIC "-//W3C//DTD SVG 1.1//EN" "http://www.w3.org/Graphics/SVG/1.1/DTD/svg11.dtd">
<svg version="1.1" id="Layer_1" xmlns="http://www.w3.org/2000/svg" xmlns:xlink="http://www.w3.org/1999/xlink" x="0px" y="0px"
	 width="512px" height="512px" viewBox="0 0 512 512" enable-background="new 0 0 512 512" xml:space="preserve">
<g>
	<path d="M428.527,77.858H83.475c-12.996,0-23.568,10.573-23.568,23.569v309.145c0,12.996,10.572,23.569,23.568,23.569h345.053
		c12.994,0,23.566-10.573,23.566-23.569V101.428C452.094,88.432,441.521,77.858,428.527,77.858z M357.467,117.435
		c0-4.806,3.896-8.702,8.701-8.702h8.703c4.807,0,8.701,3.896,8.701,8.702v9.863c0,4.806-3.895,8.702-8.701,8.702h-8.703
		c-4.805,0-8.701-3.896-8.701-8.702V117.435z M317,117.435c0-4.806,3.898-8.702,8.703-8.702h8.701c4.807,0,8.703,3.896,8.703,8.702
		v9.863c0,4.806-3.896,8.702-8.703,8.702h-8.701c-4.805,0-8.703-3.896-8.703-8.702V117.435z M423.811,405.858H88.189V162.142
		h335.621V405.858z M424.039,127.298c0,4.806-3.896,8.702-8.701,8.702h-8.703c-4.807,0-8.703-3.896-8.703-8.702v-9.863
		c0-4.806,3.896-8.702,8.703-8.702h8.703c4.805,0,8.701,3.896,8.701,8.702V127.298z"/>
	<path d="M202.822,305.579l-9.943,57.976c-0.488,2.856,0.682,5.752,3.029,7.453c2.348,1.702,5.461,1.929,8.029,0.579L256,344.222
		l52.063,27.365c1.115,0.59,2.336,0.877,3.545,0.877c1.58,0,3.158-0.491,4.484-1.456c2.348-1.701,3.518-4.597,3.029-7.453
		l-9.943-57.976l42.119-41.05c2.076-2.03,2.824-5.056,1.93-7.82c-0.893-2.755-3.279-4.771-6.152-5.19l-58.211-8.451l-26.029-52.745
		c-1.281-2.602-3.932-4.249-6.834-4.249s-5.553,1.647-6.834,4.249l-26.029,52.745l-58.211,8.451c-2.873,0.42-5.258,2.436-6.152,5.19
		c-0.893,2.765-0.146,5.79,1.93,7.82L202.822,305.579z"/>
</g>
</svg>
