<?xml version="1.0" encoding="utf-8"?>
<!-- Generator: Adobe Illustrator 16.0.0, SVG Export Plug-In . SVG Version: 6.00 Build 0)  -->
<!DOCTYPE svg PUBLIC "-//W3C//DTD SVG 1.1//EN" "http://www.w3.org/Graphics/SVG/1.1/DTD/svg11.dtd">
<svg version="1.1" id="Layer_1" xmlns="http://www.w3.org/2000/svg" xmlns:xlink="http://www.w3.org/1999/xlink" x="0px" y="0px"
	 width="512px" height="512px" viewBox="0 0 512 512" enable-background="new 0 0 512 512" xml:space="preserve">
<g>
	<path d="M328.93,398.401c-2.176-1.324-4.074-3.098-5.58-5.249c-0.697-0.993-1.285-2.041-1.77-3.125H74.317V146.311H409.94v159.138
		c7.165,0.647,13.177,5.351,15.702,11.797c2.236-1.225,4.725-1.984,7.343-2.213c1.771-0.155,3.531-0.044,5.238,0.293V85.596
		c0-12.996-10.573-23.569-23.568-23.569H69.603c-12.995,0-23.568,10.573-23.568,23.569v309.146
		c0,12.996,10.573,23.569,23.568,23.569h257.179c-2.007-4.066-2.483-8.654-1.302-13.068
		C326.161,402.705,327.339,400.389,328.93,398.401z M384.061,101.604c0-4.806,3.896-8.703,8.703-8.703h8.702
		c4.805,0,8.702,3.896,8.702,8.703v9.863c0,4.806-3.897,8.702-8.702,8.702h-8.702c-4.807,0-8.703-3.896-8.703-8.702V101.604z
		 M343.595,101.604c0-4.806,3.896-8.703,8.702-8.703H361c4.806,0,8.702,3.896,8.702,8.703v9.863c0,4.806-3.896,8.702-8.702,8.702
		h-8.703c-4.806,0-8.702-3.896-8.702-8.702V101.604z M303.129,101.604c0-4.806,3.897-8.703,8.702-8.703h8.702
		c4.807,0,8.703,3.896,8.703,8.703v9.863c0,4.806-3.896,8.702-8.703,8.702h-8.702c-4.805,0-8.702-3.896-8.702-8.702V101.604z"/>
	<path d="M465.91,381.804l-2.615-14.83c-0.353-1.997-2.256-3.331-4.255-2.979l-13.188,2.325c-1.583-3.715-3.606-7.196-6.005-10.38
		l8.615-10.266c0.626-0.746,0.93-1.71,0.846-2.681c-0.086-0.97-0.553-1.867-1.299-2.493l-11.535-9.68
		c-0.746-0.626-1.712-0.93-2.682-0.845c-0.971,0.085-1.867,0.552-2.493,1.298l-8.608,10.26c-3.533-1.8-7.311-3.189-11.271-4.104
		v-13.391c0-2.028-1.645-3.673-3.673-3.673h-15.059c-2.028,0-3.673,1.645-3.673,3.673v13.391c-3.96,0.915-7.737,2.304-11.271,4.104
		l-8.608-10.259c-1.304-1.554-3.621-1.756-5.175-0.453l-11.535,9.679c-0.746,0.626-1.213,1.523-1.299,2.494
		c-0.084,0.97,0.22,1.935,0.846,2.681l8.615,10.266c-2.398,3.184-4.422,6.666-6.005,10.38l-13.188-2.325
		c-1.995-0.351-3.902,0.982-4.255,2.979l-2.615,14.83c-0.169,0.959,0.05,1.947,0.609,2.745c0.559,0.798,1.41,1.341,2.37,1.51
		l13.198,2.327c0.215,4.088,0.927,8.044,2.073,11.811l-11.598,6.696c-0.844,0.487-1.459,1.289-1.712,2.23
		c-0.252,0.941-0.119,1.944,0.367,2.787l7.529,13.042c0.487,0.844,1.289,1.459,2.23,1.711c0.313,0.084,0.632,0.125,0.951,0.125
		c0.639,0,1.272-0.167,1.836-0.492l11.609-6.703c2.732,2.923,5.814,5.515,9.18,7.709l-4.584,12.591
		c-0.332,0.916-0.289,1.926,0.123,2.809s1.157,1.566,2.072,1.899l14.15,5.15c0.406,0.148,0.832,0.222,1.257,0.222
		c0.53,0,1.062-0.115,1.552-0.344c0.883-0.412,1.566-1.157,1.899-2.073l4.583-12.592c1.965,0.237,3.965,0.361,5.994,0.361
		s4.029-0.125,5.994-0.361l4.584,12.592c0.332,0.916,1.016,1.661,1.898,2.073c0.491,0.229,1.021,0.344,1.553,0.344
		c0.424,0,0.85-0.074,1.256-0.222l14.15-5.15c0.915-0.333,1.661-1.016,2.072-1.899c0.412-0.883,0.456-1.893,0.123-2.808
		l-4.584-12.591c3.365-2.194,6.447-4.787,9.18-7.709l11.609,6.703c0.563,0.325,1.197,0.492,1.836,0.492
		c0.318,0,0.639-0.042,0.951-0.125c0.941-0.252,1.743-0.868,2.23-1.711l7.529-13.042c0.486-0.843,0.619-1.846,0.367-2.787
		c-0.253-0.94-0.868-1.743-1.712-2.23l-11.598-6.695c1.146-3.767,1.858-7.723,2.073-11.811l13.198-2.327
		c0.96-0.169,1.812-0.712,2.37-1.51C465.86,383.75,466.079,382.764,465.91,381.804z M400.219,405.37
		c-11.156,0-20.201-9.044-20.201-20.201s9.045-20.201,20.201-20.201s20.201,9.044,20.201,20.201S411.375,405.37,400.219,405.37z"/>
	<g>
		<path d="M210.73,281.407c0-4.751-2.785-9.116-7.096-11.119l-39.455-18.331l39.456-18.334c4.31-2.004,7.095-6.368,7.095-11.118
			v-0.319c0-4.21-2.119-8.075-5.665-10.334c-1.962-1.253-4.247-1.916-6.606-1.916c-1.778,0-3.563,0.391-5.16,1.133l-63.078,29.333
			c-4.309,2.004-7.092,6.368-7.092,11.117v0.877c0,4.743,2.782,9.106,7.093,11.118l63.084,29.336
			c1.631,0.755,3.368,1.138,5.162,1.138c2.338,0,4.616-0.664,6.597-1.924c3.548-2.267,5.666-6.13,5.666-10.335V281.407z"/>
		<path d="M272.967,180.047c-2.301-3.15-6.002-5.03-9.902-5.03h-0.315c-5.354,0-10.048,3.425-11.679,8.516l-41.559,128.771
			c-1.183,3.718-0.517,7.815,1.781,10.962c2.301,3.15,6.002,5.03,9.901,5.03h0.315c5.352,0,10.043-3.426,11.672-8.516
			l41.556-128.761C275.931,187.303,275.27,183.202,272.967,180.047z"/>
		<path d="M354.036,240.401l-63.079-29.333c-1.592-0.74-3.374-1.131-5.153-1.131c-2.358,0-4.643,0.661-6.606,1.912
			c-3.551,2.263-5.67,6.127-5.67,10.337v0.319c0,4.746,2.783,9.111,7.096,11.123l39.454,18.33l-39.455,18.33
			c-4.31,2.003-7.095,6.368-7.095,11.119v0.322c0,4.205,2.118,8.068,5.668,10.336c1.974,1.258,4.254,1.923,6.595,1.923
			c1.792,0,3.528-0.383,5.169-1.141l63.082-29.335c4.306-2.009,7.088-6.372,7.088-11.115v-0.877
			C361.129,246.77,358.346,242.406,354.036,240.401z"/>
	</g>
</g>
</svg>
