<?xml version="1.0" encoding="utf-8"?>
<!-- Generator: Adobe Illustrator 16.0.0, SVG Export Plug-In . SVG Version: 6.00 Build 0)  -->
<!DOCTYPE svg PUBLIC "-//W3C//DTD SVG 1.1//EN" "http://www.w3.org/Graphics/SVG/1.1/DTD/svg11.dtd">
<svg version="1.1" id="Layer_1" xmlns="http://www.w3.org/2000/svg" xmlns:xlink="http://www.w3.org/1999/xlink" x="0px" y="0px"
	 width="512px" height="512px" viewBox="0 0 512 512" enable-background="new 0 0 512 512" xml:space="preserve">
<g>
	<path d="M422.684,80.971H89.316C70.946,80.971,56,95.917,56,114.288v217.272c0,18.371,14.946,33.317,33.316,33.317h107.413
		l-20.388,44.956c-2.105,4.643-1.709,10.037,1.053,14.321c2.761,4.285,7.51,6.874,12.608,6.874h131.996
		c0.006-0.001,0.013-0.001,0.02,0c8.284,0,15-6.716,15-15c0-2.494-0.609-4.847-1.686-6.916l-20.061-44.235h107.413
		c18.371,0,33.316-14.946,33.316-33.317V114.288C456,95.917,441.054,80.971,422.684,80.971z M426,331.561
		c0,1.829-1.488,3.317-3.316,3.317H291.998h-71.996H89.316c-1.829,0-3.316-1.488-3.316-3.317V114.288
		c0-1.829,1.488-3.317,3.316-3.317h333.367c1.829,0,3.316,1.488,3.316,3.317V331.561z"/>
	<path d="M128.841,218.756c9.432,1.062,18.352-2.362,24.63-8.564l81.918,29.438c0.847,14.404,11.967,26.578,26.782,28.246
		c16.56,1.867,31.552-10.088,33.418-26.648c0.131-1.175,0.186-2.34,0.183-3.496l69.131-50.434c3.438,1.951,7.316,3.256,11.486,3.726
		c16.562,1.866,31.553-10.089,33.418-26.649c1.866-16.561-10.089-31.552-26.648-33.418c-16.562-1.867-31.552,10.088-33.417,26.648
		c-0.598,5.302,0.226,10.438,2.161,15.04l-63.042,45.991c-4.817-5.848-11.816-9.913-19.922-10.827
		c-11.481-1.292-22.202,4.06-28.324,12.979l-78.424-28.184c0.021-0.167,0.05-0.331,0.067-0.5
		c1.867-16.561-10.088-31.552-26.647-33.416c-16.562-1.867-31.553,10.088-33.419,26.648
		C100.326,201.897,112.281,216.889,128.841,218.756z M369.12,159.789c0.66-5.878,5.981-10.117,11.856-9.457
		c5.876,0.663,10.12,5.98,9.457,11.858c-0.663,5.875-5.982,10.117-11.858,9.455C372.699,170.985,368.457,165.663,369.12,159.789z
		 M254.897,236.642c0.662-5.874,5.982-10.117,11.856-9.454c5.877,0.662,10.119,5.981,9.458,11.856
		c-0.664,5.877-5.982,10.118-11.859,9.456C258.479,247.837,254.236,242.52,254.897,236.642z M121.568,187.521
		c0.663-5.876,5.983-10.118,11.858-9.456c5.877,0.663,10.118,5.981,9.456,11.858c-0.662,5.876-5.982,10.117-11.857,9.454
		C125.147,198.715,120.906,193.396,121.568,187.521z"/>
	<path d="M379.797,207.466c-1.494,0-3.008-0.087-4.5-0.253c-3.191-0.36-6.287-1.09-9.256-2.178l-60.836,44.382
		c-2.551,19.944-19.48,34.901-39.629,34.901c-1.494,0-3.007-0.084-4.498-0.253c-17.124-1.929-30.749-14.422-34.479-30.733
		l-71.17-25.576c-6.74,4.832-14.778,7.441-23.186,7.441c0,0-0.001,0-0.002,0c-1.493,0-3.005-0.086-4.494-0.252
		c-10.389-1.173-19.401-6.253-25.749-13.603v98.396h308V193.664C402.642,202.162,391.791,207.466,379.797,207.466z"/>
</g>
</svg>
