<?xml version="1.0" encoding="utf-8"?>
<!-- Generator: Adobe Illustrator 16.0.0, SVG Export Plug-In . SVG Version: 6.00 Build 0)  -->
<!DOCTYPE svg PUBLIC "-//W3C//DTD SVG 1.1//EN" "http://www.w3.org/Graphics/SVG/1.1/DTD/svg11.dtd">
<svg version="1.1" id="Layer_1" xmlns="http://www.w3.org/2000/svg" xmlns:xlink="http://www.w3.org/1999/xlink" x="0px" y="0px"
	 width="512px" height="512px" viewBox="0 0 512 512" enable-background="new 0 0 512 512" xml:space="preserve">
<path d="M429.509,107.657H408.76V89.111c0-7.312-5.932-13.246-13.246-13.246H116.485c-7.314,0-13.246,5.935-13.246,13.246v68.875
	c0,7.316,5.932,13.245,13.246,13.245h279.029c7.314,0,13.246-5.929,13.246-13.245v-23.842h20.749v243.711H408.76v-23.842
	c0-7.316-5.932-13.245-13.246-13.245H116.485c-7.314,0-13.246,5.929-13.246,13.245v23.842H82.491v-108.61h20.749v21.19
	c0,7.315,5.932,13.245,13.246,13.245h279.029c7.314,0,13.246-5.93,13.246-13.245v-68.871c0-7.315-5.932-13.245-13.246-13.245
	H116.485c-7.314,0-13.246,5.93-13.246,13.245v21.19H82.491c-14.606,0-26.491,11.884-26.491,26.49v108.61
	c0,14.607,11.884,26.487,26.491,26.487h20.749v18.546c0,7.312,5.932,13.246,13.246,13.246h279.029
	c7.314,0,13.246-5.935,13.246-13.246v-18.546h20.749c14.606,0,26.491-11.88,26.491-26.487V134.145
	C456,119.537,444.115,107.657,429.509,107.657z M165.052,144.301c-11.462,0-20.751-9.293-20.751-20.75
	c0-11.462,9.29-20.751,20.751-20.751c11.459,0,20.749,9.289,20.749,20.751C185.801,135.008,176.511,144.301,165.052,144.301z
	 M275.867,136.795c0,5.483-4.448,9.931-9.935,9.931c-5.486,0-9.933-4.447-9.933-9.931v-26.488c0-5.488,4.447-9.936,9.933-9.936
	c5.486,0,9.935,4.447,9.935,9.936V136.795z M320.016,136.795c0,5.483-4.447,9.931-9.933,9.931s-9.932-4.447-9.932-9.931v-26.488
	c0-5.488,4.446-9.936,9.932-9.936s9.933,4.447,9.933,9.936V136.795z M364.167,136.795c0,5.483-4.446,9.931-9.935,9.931
	c-5.486,0-9.932-4.447-9.932-9.931v-26.488c0-5.488,4.446-9.936,9.932-9.936c5.488,0,9.935,4.447,9.935,9.936V136.795z
	 M344.3,242.756c0-5.486,4.446-9.936,9.932-9.936c5.488,0,9.935,4.449,9.935,9.936v26.488c0,5.486-4.446,9.936-9.935,9.936
	c-5.486,0-9.932-4.449-9.932-9.936V242.756z M300.151,242.756c0-5.486,4.446-9.936,9.932-9.936s9.933,4.449,9.933,9.936v26.488
	c0,5.486-4.447,9.936-9.933,9.936s-9.932-4.449-9.932-9.936V242.756z M256,242.756c0-5.486,4.447-9.936,9.933-9.936
	c5.486,0,9.935,4.449,9.935,9.936v26.488c0,5.486-4.448,9.936-9.935,9.936c-5.486,0-9.933-4.449-9.933-9.936V242.756z
	 M165.052,235.248c11.459,0,20.749,9.29,20.749,20.752s-9.29,20.752-20.749,20.752c-11.462,0-20.751-9.29-20.751-20.752
	S153.59,235.248,165.052,235.248z M165.052,409.2c-11.462,0-20.751-9.289-20.751-20.751c0-11.457,9.29-20.75,20.751-20.75
	c11.459,0,20.749,9.293,20.749,20.75C185.801,399.911,176.511,409.2,165.052,409.2z M275.867,401.693
	c0,5.488-4.448,9.936-9.935,9.936c-5.486,0-9.933-4.447-9.933-9.936v-26.488c0-5.483,4.447-9.93,9.933-9.93
	c5.486,0,9.935,4.446,9.935,9.93V401.693z M320.016,401.693c0,5.488-4.447,9.936-9.933,9.936s-9.932-4.447-9.932-9.936v-26.488
	c0-5.483,4.446-9.93,9.932-9.93s9.933,4.446,9.933,9.93V401.693z M364.167,401.693c0,5.488-4.446,9.936-9.935,9.936
	c-5.486,0-9.932-4.447-9.932-9.936v-26.488c0-5.483,4.446-9.93,9.932-9.93c5.488,0,9.935,4.446,9.935,9.93V401.693z"/>
</svg>
