<?xml version="1.0" encoding="utf-8"?>
<!-- Generator: Adobe Illustrator 16.0.0, SVG Export Plug-In . SVG Version: 6.00 Build 0)  -->
<!DOCTYPE svg PUBLIC "-//W3C//DTD SVG 1.1//EN" "http://www.w3.org/Graphics/SVG/1.1/DTD/svg11.dtd">
<svg version="1.1" id="Layer_1" xmlns="http://www.w3.org/2000/svg" xmlns:xlink="http://www.w3.org/1999/xlink" x="0px" y="0px"
	 width="512px" height="512px" viewBox="0 0 512 512" enable-background="new 0 0 512 512" xml:space="preserve">
<g>
	<path d="M428.527,77.858H83.475c-12.998,0-23.568,10.573-23.568,23.569v309.146c0,12.996,10.57,23.569,23.568,23.569h345.053
		c12.994,0,23.566-10.573,23.566-23.569V101.427C452.094,88.432,441.521,77.858,428.527,77.858z M357.467,117.435
		c0-4.806,3.896-8.703,8.701-8.703h8.703c4.807,0,8.701,3.896,8.701,8.703v9.863c0,4.806-3.895,8.702-8.701,8.702h-8.703
		c-4.805,0-8.701-3.896-8.701-8.702V117.435z M317,117.435c0-4.806,3.898-8.703,8.703-8.703h8.701c4.805,0,8.703,3.896,8.703,8.703
		v9.863c0,4.806-3.898,8.702-8.703,8.702h-8.701c-4.805,0-8.703-3.896-8.703-8.702V117.435z M423.811,405.858H88.189V162.142
		h335.621V405.858z M424.039,127.298c0,4.806-3.896,8.702-8.701,8.702h-8.703c-4.809,0-8.703-3.896-8.703-8.702v-9.863
		c0-4.806,3.895-8.703,8.703-8.703h8.703c4.805,0,8.701,3.896,8.701,8.703V127.298z"/>
	<path d="M146.5,243.564c7.383,0,14.072-3.017,18.906-7.881l65.775,25.744c1.684,13.095,12.895,23.25,26.439,23.25
		c14.703,0,26.666-11.962,26.666-26.667c0-0.639-0.031-1.271-0.074-1.899l63.488-37.044c4.723,4.243,10.965,6.831,17.799,6.831
		c14.705,0,26.666-11.962,26.666-26.667s-11.961-26.667-26.666-26.667c-14.703,0-26.666,11.963-26.666,26.667
		c0,1.357,0.104,2.69,0.301,3.994l-62.283,36.34c-4.855-5.062-11.678-8.222-19.23-8.222c-9.422,0-17.713,4.916-22.455,12.313
		l-62.117-24.312c0.074-0.807,0.117-1.622,0.117-2.447c0-14.704-11.961-26.667-26.666-26.667c-14.703,0-26.666,11.963-26.666,26.667
		S131.797,243.564,146.5,243.564z M365.5,190.563c4.777,0,8.666,3.888,8.666,8.667s-3.889,8.667-8.666,8.667
		s-8.666-3.888-8.666-8.667S360.723,190.563,365.5,190.563z M257.621,249.343c4.779,0,8.666,3.888,8.666,8.667
		s-3.887,8.667-8.666,8.667s-8.666-3.888-8.666-8.667S252.842,249.343,257.621,249.343z M146.5,208.23
		c4.777,0,8.666,3.888,8.666,8.667s-3.889,8.667-8.666,8.667s-8.666-3.888-8.666-8.667S141.723,208.23,146.5,208.23z"/>
	<g>
		<path d="M365.5,240.897c-6.496,0-12.809-1.72-18.35-4.932l-53.07,30.966c-1.832,17.158-12.389,29.799-30.234,32.553v82.747
			h119.947V235.987C378.404,239.104,372.16,240.897,365.5,240.897z"/>
		<path d="M222.584,273.8l-55.35-21.663c-6.061,4.179-13.225,6.427-20.734,6.427c-6.66,0-12.904-1.793-18.293-4.91V382.23h124.447
			v-82.688C239.566,297.71,226.379,288.855,222.584,273.8z"/>
	</g>
</g>
</svg>
