<?xml version="1.0" encoding="utf-8"?>
<!-- Generator: Adobe Illustrator 16.0.0, SVG Export Plug-In . SVG Version: 6.00 Build 0)  -->
<!DOCTYPE svg PUBLIC "-//W3C//DTD SVG 1.1//EN" "http://www.w3.org/Graphics/SVG/1.1/DTD/svg11.dtd">
<svg version="1.1" id="Layer_1" xmlns="http://www.w3.org/2000/svg" xmlns:xlink="http://www.w3.org/1999/xlink" x="0px" y="0px"
	 width="512px" height="512px" viewBox="0 0 512 512" enable-background="new 0 0 512 512" xml:space="preserve">
<path d="M439.661,329.008h-11.878v-46.229c0-18.24-14.838-33.076-33.076-33.076H267.736v-49.919h59.84
	c9.555,0,17.301-7.748,17.301-17.302v-72.097c0-9.554-7.746-17.301-17.301-17.301H184.423c-9.554,0-17.301,7.747-17.301,17.301
	v72.097c0,9.554,7.747,17.302,17.301,17.302h59.84v49.919H117.293c-18.238,0-33.076,14.836-33.076,33.076v46.229H72.339
	c-11.786,0-21.339,9.554-21.339,21.34v47.229c0,11.786,9.554,21.34,21.339,21.34h47.229c11.786,0,21.34-9.554,21.34-21.34v-47.229
	c0-11.786-9.554-21.34-21.34-21.34h-11.877v-46.229c0-5.295,4.308-9.604,9.602-9.604h126.971v55.833h-11.879
	c-11.785,0-21.338,9.554-21.338,21.34v47.229c0,11.786,9.554,21.34,21.338,21.34h47.23c11.785,0,21.339-9.554,21.339-21.34v-47.229
	c0-11.786-9.555-21.34-21.339-21.34h-11.879v-55.833h126.971c5.294,0,9.602,4.309,9.602,9.604v46.229h-11.877
	c-11.786,0-21.34,9.554-21.34,21.34v47.229c0,11.786,9.554,21.34,21.34,21.34h47.229c11.786,0,21.339-9.554,21.339-21.34v-47.229
	C461,338.562,451.446,329.008,439.661,329.008z"/>
</svg>
